<svg xmlns="http://www.w3.org/2000/svg" xml:space="preserve" style="enable-background:new 0 0 192 192" viewBox="0 0 192 192"><path d="M173.7 117.8c-18.1 16.4-36.5 31.3-56.8 38.2-4.6 1.5-9.5 1.5-14.2.5-4.4-1-6.6-7.4-5-14.2 1.5-6.4 3.5-12.8 6-18.1 5.5-11.5 11.7-22.1 17.3-33.5 3.4-7 6.5-14.5 9.2-22.3 2-5.6 1.1-12.2-2.4-15-5.8-4.7-12.1-8-18.2-11.7-.7-.4-1.8.9-3.2 1.6 1.7 2.6 3.1 4.6 4.8 7.2C93 55.6 75.7 63 58.9 73.1c-.1.6-.2 1-.1 1.2 2.5 6.3 1.3 11.2-2.3 15.2-1.4 1.5-2.6 3.3-3.7 5.7 11.1 5.4 20.9 2.3 30.3-8-.6-1.4-1.1-2.7-1.7-4.1 3.6 1 5.7 4.3 6 9.4.1 1.1-.4 2.3-.6 3.5-.5-.9-1.1-1.8-1.5-2.8-.3-.6-.3-1.5-.6-2.6-11.2 12.5-23.2 15.6-36.5 9.1 0 4.3-.1 8 0 11.7.1 3.2-.7 4.5-2.3 6.2-3.9 3.9-7.8 8-11 13.2-3.8 6.4-2.4 14 2.7 17.3 5.9 3.7 12.1 3.8 18.2 2.5 7.3-1.5 14.5-3.4 22.4-5.3-9.3 7.2-18.4 12.4-28.1 14.5-6.7 1.5-13.5 2.3-20.1-.9-9.6-4.5-13.8-16.3-11.3-32 2.4-14.8 8-26.5 14.1-37.4 20.3-36.2 46-54.6 75.8-58.2 6.9-.8 14 .6 20.5 5.6 9.2 6.9 13 21.6 8.5 36.4-2.9 9.8-7 18.8-11 27.7-3.9 8.8-8.5 16.8-12.6 25.3-1.2 2.5-2.4 5.2-3.3 8.1-1.7 5.4-.5 9.1 3.2 8.5 7.9-1.3 15.8-2.3 23.4-5.5 11.1-4.8 22-11.4 32.9-17.3 1.4-.9 2.5-1.6 3.5-2.3z" style="fill:none;stroke:#000;stroke-width:12;stroke-linecap:round;stroke-linejoin:round;stroke-miterlimit:10"/></svg>