<svg xmlns="http://www.w3.org/2000/svg" xml:space="preserve" id="图层_3" x="0" y="0" style="enable-background:new 0 0 192 192" version="1.1" viewBox="0 0 192 192"><style>.st0{fill:#fff}</style><path d="M68.02 141.31h15.45c-.68-.12-1.36 0-2.03-.03-.21-.01-.59-.49-.55-.69.38-1.9.77-3.81 1.32-5.66.18-.62.87-1.57 1.31-1.56 1.72.04 3.03-.55 4.16-1.99 1.25 1.69 2.8 2.23 4.55 1.63-.19-.56-.4-1.17-.54-1.58l-1.44-.49c.02-.09.04-.17.07-.26l3.64-.36c-.71-.4-1.52-.62-2.32-.58-2.55.13-5.1.32-7.65.55-1.66.15-3.33.28-4.95.63-1.11.24-2.14.84-2.86 1.13 0 .57.16 1.16-.03 1.6-.37.83-.97 1.55-1.4 2.36-.67 1.26-1.28 2.55-1.94 3.88-.02-.01-.39-.25-.82-.52-.68 2.15-2.54 1.46-3.97 1.94zM92.41 117.28c-1.42.1-2.48.24-3.55.24-1.01 0-1.38.33-1.44 1.4-.06 1.05-.3 2.19-.82 3.09-.65 1.12-1.66 2.03-2.67 3.2h4.27v.21c-3.02.6-6.03 1.2-8.92 1.78.24.41.8.95.81 1.49.01 1.11-.11 1.13.92.99 1.5-.21 2.99-.54 4.5-.65 1.63-.11 3.28-.03 4.81-.03.29-.99.62-1.71.68-2.45.07-.83-.12-1.69-.19-2.53-1.74.59-2.38-1.38-3.82-1.86 1.06-.22 2.12-.45 3.11-.66-.09-.51-.17-.94-.27-1.48.54.36.9.61 1.22.83l1.36-3.57zM86.42 80.46c0 .12 0 .23.01.35l6.38-.42-.03-.5-6.36.57zM95.47 91.7c0 .15 0 .3.01.45l3.8.19c-1.27-1.88-2.61-.25-3.81-.64zM135.92 146.61c-.07.22-.13.32-.13.42-.01 1.82-.03 3.64-.03 5.46.01 2.52.83 3.21 3.2 2.27.98-.39 2.06-1.42 2.38-2.4 1.19-3.58-1.5-6.36-5.42-5.75zM119.09 148.19c-.39 1.23-.64 2.05-.91 2.91h1.95c-.33-.9-.61-1.7-1.04-2.91zM52.14 151.16c.9-.35 2-.47 2.13-.89.28-.91.29-2.05-.02-2.94-.18-.52-1.2-.75-2.11-1.26v5.09zM80.18 146.57c-.08.2-.16.29-.16.39-.02 1.82-.03 3.64-.03 5.46 0 2.52 1.14 3.36 3.48 2.31.86-.38 1.73-1.29 2.07-2.16 1.23-3.11-1.12-6.83-5.36-6zM68.95 150.42c.02 2.7 1.73 4.76 3.87 4.66 2.1-.09 3.5-2.42 3.1-5.16-.34-2.33-1.98-3.88-3.9-3.7-1.94.2-3.08 1.75-3.07 4.2z" class="st0"/><path d="M68.02 141.31c1.43-.48 3.29.21 3.97-1.94.43.27.79.51.82.52.66-1.33 1.27-2.63 1.94-3.88.43-.81 1.03-1.53 1.4-2.36.19-.43.03-1.02.03-1.6.72-.3 1.75-.89 2.86-1.13 1.62-.35 3.29-.48 4.95-.63 2.55-.22 5.1-.42 7.65-.55.8-.04 1.61.18 2.32.58l-3.64.36c-.02.09-.04.17-.07.26l1.44.49c.14.41.35 1.02.54 1.58-1.75.59-3.31.06-4.55-1.63-1.13 1.44-2.44 2.04-4.16 1.99-.44-.01-1.12.94-1.31 1.56-.55 1.86-.93 3.76-1.32 5.66-.04.2.35.68.55.69.67.03 1.36-.09 2.03.03H68.02zM92.41 117.28c-.5 1.31-.91 2.39-1.37 3.57-.32-.22-.68-.46-1.22-.83.1.54.17.97.27 1.48-.99.21-2.05.43-3.11.66 1.44.48 2.08 2.45 3.82 1.86.07.84.26 1.7.19 2.53-.06.74-.39 1.46-.68 2.45-1.52 0-3.17-.09-4.81.03-1.51.11-3 .44-4.5.65-1.03.14-.9.12-.92-.99-.01-.54-.57-1.08-.81-1.49 2.88-.58 5.9-1.18 8.92-1.78v-.21h-4.27c1.01-1.17 2.02-2.08 2.67-3.2.52-.9.76-2.04.82-3.09.06-1.07.43-1.41 1.44-1.4 1.08 0 2.14-.14 3.56-.24zM86.42 80.46c2.12-.19 4.24-.38 6.36-.58l.03.5-6.38.42c0-.11-.01-.22-.01-.34zM95.47 91.7c1.2.39 2.54-1.24 3.81.64l-3.8-.19c-.01-.15-.01-.3-.01-.45zM135.92 146.61c3.92-.61 6.6 2.17 5.43 5.75-.32.97-1.4 2.01-2.38 2.4-2.37.94-3.19.25-3.2-2.27 0-1.82.01-3.64.03-5.46-.01-.1.05-.21.12-.42zM119.09 148.19c.43 1.21.71 2.01 1.03 2.91h-1.95c.28-.87.53-1.68.92-2.91zM52.14 151.16v-5.09c.91.51 1.93.74 2.11 1.26.31.89.3 2.03.02 2.94-.13.42-1.22.54-2.13.89zM80.18 146.57c4.24-.83 6.58 2.89 5.37 6.01-.34.87-1.21 1.78-2.07 2.16-2.35 1.05-3.48.21-3.48-2.31 0-1.82.01-3.64.03-5.46 0-.11.07-.21.15-.4zM68.95 150.42c-.02-2.45 1.12-4.01 3.07-4.19 1.93-.18 3.56 1.37 3.9 3.7.4 2.74-1 5.07-3.1 5.16-2.13.09-3.85-1.97-3.87-4.67z"/><path d="M96 30.85c-25.62 43.53-51.11 86.82-76.69 130.3h153.38C147.13 117.72 121.62 74.39 96 30.85zm56.76 117.04c.81 1.42 1.48 2.58 2.23 3.91h-4.41c.74-1.33 1.38-2.47 2.18-3.91zM96 40.65c.78 1.34 1.44 2.45 2.25 3.83h-4.44c.74-1.29 1.4-2.44 2.19-3.83zM39.01 147.92c.83 1.45 1.46 2.57 2.2 3.87h-4.44c.77-1.32 1.44-2.48 2.24-3.87zm8.31 7.69H28.71c-.08-.13-.17-.26-.25-.4.52-.33 1.05-.95 1.57-.95 5.46-.07 10.92-.03 16.38-.06.98 0 1.3.35.91 1.41zm2.35-12.43c2.35-.4 4.7-.81 7.05-1.2.33-.06.66-.12.99-.13 3.68-.06 6.3-1.75 7.99-5.01 1.81-3.5 4.55-5.7 8.65-5.83 1.27-.04 1.74-.8 2.02-1.95 1.96-8.1 3.96-16.2 5.95-24.29.57-2.3 1.13-4.61 1.71-6.91.36-1.4 2.21-2.77 3.6-2.89 2.96-.25 5.9-.59 8.85-.93.39-.04.75-.33 1.12-.5l-.15-.36c-4.48.39-8.96.77-13.44 1.16-.01.16-.01.31-.01.46l1.71.11c-.42.38-.88.83-1.39 1.23-.19.15-.5.26-.73.23-1.69-.26-3.37-.57-5.1-.86v-1.54c-.75-.05-1.46-.1-2.43-.16.1-1.28.12-2.53.31-3.76.96-6.39 1.98-12.77 2.93-19.16.12-.83.33-1.26 1.26-1.37 1.37-.15 2.72-.49 4.07-.74 1.05-.19 1.51.17 1.47 1.33-.08 2.42-.02 4.85-.02 7.46 1.94-.17 3.5-.3 5.27-.46.3-2.87.61-5.8.93-8.77 2.02 0 3.9.05 5.77-.02.94-.03 1.28.3 1.32 1.21.11 2.53.29 5.06.45 7.73h5.19c.14-2.68.29-5.42.45-8.43 2.13.28 4.13.51 6.11.83.26.04.6.5.64.8 1.01 7.28 1.98 14.56 2.95 21.84.06.43.01.87.01 1.42-.72.1-1.35.18-2.07.28-.08.54-.16 1.07-.25 1.69-1.79.21-3.58.43-5.61.67.17.91.29 1.76.48 2.59 2.39 10.21 4.78 20.42 7.23 30.61.11.48.74.88 1.2 1.21.29.21.73.28 1.11.3 3.59.18 5.76 2.23 7.69 5.12 3.45 5.18 3.6 5.07 10.03 6.08 2.05.32 4.09.72 6.12 1.3H49.73l-.06-.39zm17.01 12.37H64.7c.11-1.58.22-3.14.35-4.85h-5.3l.4 4.83c-2.5.66-4.51-.34-5.94-2.81-.34-.59-1.11-.93-1.68-1.38l-.47.35c.07 1.27.14 2.54.21 3.88h-1.62v-9.59c.6 0 1.69-.06 2.76.01 2.74.19 3.61 2.03 2.09 4.34-.2.31-.43.61-.71.99 1.03 1.24 2.04 2.45 3.31 3.96v-9.27h2c-.11 1.2-.22 2.44-.34 3.81h5.28c-.14-1.29-.28-2.56-.42-3.83h2.07c-.01 3.23-.01 6.38-.01 9.56zm5.85.17c-3.22 0-5.2-1.86-5.21-4.89-.01-2.98 2.06-4.97 5.18-4.98 3.06-.01 5.11 1.81 5.17 4.6.06 3.01-2.13 5.27-5.14 5.27zm10.3-.08c-1.58.07-3.16.01-4.57.01v-9.54c1.63 0 3.41-.17 5.15.04 2.75.33 4.15 2.2 3.99 4.93-.16 2.57-1.98 4.44-4.57 4.56zm15.49-1.52c-.67 1.6-2.07 1.6-3.49 1.58-2.31-.02-4.62-.01-6.81-.01.42-3.37.43-6.48.03-9.66h4.85c-.08.52-.16 1.02-.2 1.33-.93-.34-1.77-.64-2.81-1.02v3.84c.86-.04 1.7-.08 2.65-.13v1.48l-2.73-1.09c0 1.23-.09 2.05.03 2.85.08.57.39 1.52.69 1.55.64.08 1.38-.26 2.01-.55.41-.19.71-.62 1.16-1.05.18.44.27.8.46 1.08.57.83 1.47 1.3 2.21.56.48-.48.63-1.52.52-2.25-.08-.54-.8-1.01-1.29-1.44-1.24-1.07-2.55-2.12-1.82-4.03.5-1.31 1.97-1.61 4.46-1.04v1.8c-.42-.51-.58-.91-.83-.98-.33-.09-.67-.14-1.01-.19l-1.03-.12c-.03.35-.13.73-.19 1.09-.06.36-.07.7.06.96.34.69 1.16 1.14 1.78 1.69 1.13 1.01 1.99 2.12 1.3 3.75zm5.51 1.43h-2.02v-9.47h2.02v9.47zm5.69-.77c-.75.87-3.32 1.4-4.13.65-.43-.4-.41-1.26-.6-1.92l.59-.12c.09.24.14.5.27.72.51.94 1.27 1.45 2.29.85 1.05-.62 1.2-1.59.47-2.53-.53-.69-1.25-1.23-1.9-1.82-1.07-.96-1.76-2.07-1.07-3.5.67-1.4 2.02-1.32 3.31-1.26 1.3.06 1.34.78.94 1.94-.22-.24-.38-.35-.46-.51-.49-.99-1.29-1.29-2.16-.66-.97.7-.78 1.64-.01 2.42.7.7 1.53 1.28 2.21 1.99 1.12 1.19 1.18 2.66.25 3.75zm28.31.88h-3.56v-5.6c0-.83.1-1.69-.07-2.48-.11-.5-.64-.9-.98-1.35-.29.44-.81.87-.83 1.32-.11 2.21-.07 4.42-.1 6.63-.01.43-.05.87-.09 1.53-2.5-2.44-4.86-4.74-7.48-7.31.11 2.53.22 4.8.32 7.13h-3.17c-1.08-1.3-.46-4.43-3.39-3.5-.85.27-1.2 2.11-1.92 3.5h-5.26c0-1.59.03-3.18-.01-4.77-.04-1.58-.15-3.16-.22-4.75h2.03c-.09.84-.25 1.65-.26 2.47-.03 1.66.01 3.32.03 4.98.01.73-.03 1.5 1.04 1.52.88.02 1.74.16 2.13-1.02.74-2.2 1.59-4.36 2.41-6.53.21-.54.48-1.06.95-2.1 1.4 3.51 2.61 6.53 3.82 9.55.16-.03.32-.05.48-.08V146c.19-.07.37-.13.56-.2 2.24 2.39 4.48 4.77 6.69 7.12v-6.95c2.19 0 4.68-.07 7.16.02 3.35.12 5.15 1.89 5.09 4.83-.09 2.99-2.13 4.83-5.37 4.84zm7.25-.04c-.27 0-.54-.47-.82-.72.3-.23.59-.66.89-.66 5.57-.04 11.14-.05 16.71.02.49.01.98.55 1.47.84-.08.18-.16.37-.24.55-6 0-12.01.01-18.01-.03z"/></svg>