<svg xmlns="http://www.w3.org/2000/svg" xml:space="preserve" style="enable-background:new 0 0 192 192" viewBox="0 0 192 192"><path d="M94.1 163.6c-1.9 0-3.8-.1-5.7-.2-14.5-1.3-25.4-7.2-30.5-10.6-21-13.9-27.7-35.7-29.6-45V28.4h51l-.2 97.8c0 .6.1 1.2.3 1.8 1.8 5.9 5.7 14.2 13.9 20.5 6.9 5.2 15.8 8.1 25 8.1 2.8 0 5.6-.3 8.3-.8-9.9 5-21.1 7.8-32.5 7.8zm62.6-39c.6-3.5.8-7.4.2-11.6-2.5-17.6-17.8-31.6-37.2-34.1h-.8l-16.9.2-.4-50.1c11.1 1 33.7 5.4 48.7 24.4 9.4 11.9 14.1 27.4 13.3 43.6-.5 9.6-2.9 19.1-6.9 27.6z"/><path d="m73.3 34.4-.2 91.8c0 1.2.2 2.4.5 3.5 2.1 6.8 6.5 16.3 16 23.5 2.2 1.6 4.5 3.1 6.9 4.3h-2.4c-1.7 0-3.5-.1-5.2-.2-13.2-1.1-23.1-6.5-27.7-9.6-18.8-12.4-25-31.8-26.9-40.7V34.4h39m34.4 1.4c11 1.9 26.8 7.2 38 21.2 8.5 10.7 12.7 24.8 12 39.6v.5c-7.3-12.7-21-22-37.1-24-.5-.1-1-.1-1.5-.1h-.1l-10.9.1-.4-37.3M85.3 22.4h-63v85.8c1.2 6 7.2 32.9 32.3 49.5 4.2 2.7 16.2 10.1 33.3 11.5 2.1.2 4.2.3 6.2.3 21.3 0 43.3-9.2 57.6-26.2 21.5-25.5 25.1-66.3 3.3-93.8-20.6-26-53.3-26.9-59.1-26.9h-.4l.5 62.6 22.9-.3c16.9 2.2 29.9 14.4 32 29 2.3 15.6-8.5 26.7-9.2 27.4-6.4 6.3-15 9.2-23.5 9.2-7.8 0-15.4-2.4-21.4-6.9-7.7-5.8-10.7-13.7-11.8-17.4l.3-103.8z"/></svg>