<svg xmlns="http://www.w3.org/2000/svg" xml:space="preserve" id="图层_1" x="0" y="0" style="enable-background:new 0 0 192 192" version="1.1" viewBox="0 0 192 192"><style>.st0{display:none}.st1{fill:none;stroke:#000;stroke-width:12;stroke-linecap:round;stroke-linejoin:round;stroke-miterlimit:3}.st1,.st2{display:inline}.st3{fill:none;stroke:#000;stroke-width:10;stroke-linecap:round;stroke-linejoin:round;stroke-miterlimit:10}</style><path d="M66.8 23.7h58.4M66.8 60.5 102.3 25M97 30.3V79M102.9 37.4l19.9 19.9M86.4 97.5v21.3M69.5 107.2h11.6M66.6 123.6l20-3.9M104.6 97.5v22.8M123 106.2l-13.7 1.9M123.1 122.3l-18.5-2M79.6 132.9v35.2M79.6 132.9h36.6M116.2 132.9v38.3M108.3 169.1l7.9 2.1M82.4 159.6h19.9M79.6 146.4c8.3-.1 16.7-.1 25-.2" class="st3"/></svg>