<svg xmlns="http://www.w3.org/2000/svg" xml:space="preserve" style="enable-background:new 0 0 192 192" viewBox="0 0 192 192"><style>.st0{display:none}.st1{fill:none;stroke:#000;stroke-width:12;stroke-linecap:round;stroke-linejoin:round;stroke-miterlimit:3}.st1,.st2{display:inline}.st3,.st4{fill:none}.st4{stroke:#000;stroke-width:12;stroke-linecap:round;stroke-linejoin:round;stroke-miterlimit:10}</style><g id="图层_5"><path d="M75.61 43.74h42.82M75.61 71.19l27.56-27.56" class="st3"/><path d="M66.8 23.66h58.4M66.8 60.54l35.55-35.55M97.02 30.32v48.66M102.86 37.39l19.95 19.95M86.38 97.46v21.35M68 107.16h11.59M66.63 123.56l19.97-3.88M104.58 97.46v22.8M125.38 106.19l-13.76 1.94M123.08 122.3l-18.5-2.04M79.59 132.88v35.18M79.59 132.88h36.56M116.15 132.88v38.34M108.33 169.09l7.82 2.13M82.42 159.56h19.49M79.59 146.42h22.32" class="st4"/></g></svg>