<svg xmlns="http://www.w3.org/2000/svg" xml:space="preserve" id="图层_1" x="0" y="0" style="enable-background:new 0 0 192 192" version="1.1" viewBox="0 0 192 192"><style>.st0{display:none}.st1{fill:none;stroke:#000;stroke-width:12;stroke-linecap:round;stroke-linejoin:round;stroke-miterlimit:3}.st1,.st2{display:inline}.st3{fill:none;stroke:#000;stroke-width:10;stroke-linecap:round;stroke-linejoin:round;stroke-miterlimit:10}</style><path d="M96 96.2c-21.8 0-39.5 17.7-39.5 39.5s17.7 39.5 39.5 39.5 39.5-17.7 39.5-39.5S117.8 96.2 96 96.2zm-23.2 33.3c-1.9 0-3.5-1.3-3.9-3.2-.4-2.1 1-4.2 3.1-4.6l12.4-2.4v-2.7H75c-2.2 0-3.9-1.8-3.9-3.9 0-2.2 1.8-3.9 3.9-3.9H84.4v-3.7c0-2.2 1.8-3.9 3.9-3.9s3.9 1.8 3.9 3.9v16.5c0 .1.1.2.1.3.4 2.1-1 4.2-3.1 4.6l-15.8 3.1c-.1-.2-.4-.1-.6-.1zm43.1 33.6v.5c0 .1 0 .3-.1.4v.1c0 .1-.1.2-.1.3 0 .1-.1.2-.1.2l-.3.6c-.1.2-.3.4-.5.6l-.1.1c-.1.1-.3.2-.4.3-.1.1-.1.1-.2.1-.1.1-.3.1-.4.2-.1 0-.2.1-.3.1-.1.1-.3.1-.5.1-.1 0-.2 0-.2.1-.2 0-.5.1-.7.1-.2 0-.5 0-.7-.1H111l-6.2-1.7c-2.1-.6-3.4-2.7-2.8-4.8.6-2.1 2.7-3.4 4.8-2.8l1.3.3v-21.2H87v2.7h5.9c3.3 0 6.5 0 9.8-.1 2.2 0 3.9 1.7 3.9 3.9s-1.7 4-3.9 4c-3.3 0-6.6.1-9.8.1h-6v2.6h14c2.2 0 3.9 1.8 3.9 3.9 0 2.2-1.8 3.9-3.9 3.9H87v2.8c0 2.2-1.8 3.9-3.9 3.9s-3.9-1.8-3.9-3.9v-27.8c0-2.2 1.8-3.9 3.9-3.9H112c2.2 0 3.9 1.8 3.9 3.9v30.5zm5.4-38.2c-.2 2-1.9 3.5-3.9 3.5h-.4l-14.6-1.6h-.2c-.1 0-.3-.1-.4-.1-.1 0-.2-.1-.4-.1-.1 0-.2-.1-.4-.2-.1-.1-.2-.1-.3-.2-.1-.1-.2-.1-.3-.2-.1-.1-.2-.2-.3-.2l-.3-.3c-.1-.1-.2-.2-.2-.3-.1-.1-.1-.2-.2-.3-.1-.1-.1-.2-.2-.3-.1-.1-.1-.2-.1-.4 0-.1-.1-.2-.1-.4 0-.1-.1-.2-.1-.4v-18.6c0-2.2 1.8-3.9 3.9-3.9 2.2 0 3.9 1.8 3.9 3.9v4.4l10-1.4c2.2-.3 4.2 1.2 4.5 3.4.3 2.2-1.2 4.2-3.4 4.5l-10.8 1.5h-.3v2.2l11.1 1.2c2.2.2 3.8 2.2 3.5 4.3zM119.9 40.3H72.1c-2.8 0-5.1-2.3-5.1-5.1s2.3-5.1 5.1-5.1h47.8c2.8 0 5.1 2.3 5.1 5.1s-2.3 5.1-5.1 5.1z"/><path d="M72.1 70.4c-1.3 0-2.6-.5-3.6-1.5-2-2-2-5.3 0-7.3l29.1-29.1c2-2 5.3-2 7.3 0s2 5.3 0 7.3L75.7 68.9c-1 1-2.3 1.5-3.6 1.5z"/><path d="M96.8 85.5c-2.8 0-5.1-2.3-5.1-5.1V40.5c0-2.8 2.3-5.1 5.1-5.1s5.1 2.3 5.1 5.1v39.9c0 2.8-2.2 5.1-5.1 5.1z"/><path d="M117.9 67.8c-1.3 0-2.6-.5-3.6-1.5L98 50c-2-2-2-5.3 0-7.3s5.3-2 7.3 0L121.6 59c2 2 2 5.3 0 7.3-1 1-2.3 1.5-3.7 1.5z"/><path d="M96 94c-21.8 0-39.5-17.7-39.5-39.5S74.2 15 96 15s39.5 17.7 39.5 39.5S117.8 94 96 94zm0-68.7c-16.1 0-29.2 13.1-29.2 29.2S79.9 83.7 96 83.7s29.2-13.1 29.2-29.2S112.1 25.3 96 25.3z"/></svg>