<?xml version="1.0" encoding="utf-8"?>
<!-- Generator: Adobe Illustrator 27.0.0, SVG Export Plug-In . SVG Version: 6.00 Build 0)  -->
<svg version="1.1" id="图层_1" xmlns="http://www.w3.org/2000/svg" xmlns:xlink="http://www.w3.org/1999/xlink" x="0px" y="0px"
	 viewBox="0 0 192 192" style="enable-background:new 0 0 192 192;" xml:space="preserve">
<path d="M154,83.7c3.1-9.2,2-19.3-2.9-27.7c-7.4-12.9-22.3-19.5-36.8-16.4c-6.5-7.3-15.7-11.4-25.5-11.4c-14.8,0-28,9.5-32.6,23.6
	c-9.5,2-17.8,7.9-22.6,16.4c-7.4,12.8-5.8,29,4.2,40c-3.1,9.2-2,19.3,2.9,27.7c7.4,12.9,22.3,19.5,36.8,16.4
	c6.5,7.3,15.7,11.4,25.5,11.3c14.8,0,28-9.5,32.6-23.7c9.5-2,17.8-7.9,22.6-16.4C165.7,110.9,164,94.7,154,83.7L154,83.7z
	 M103.1,154.9c-5.9,0-11.7-2.1-16.3-5.9c0.2-0.1,0.6-0.3,0.8-0.5l27-15.6c1.4-0.8,2.2-2.3,2.2-3.8v-38l11.4,6.6
	c0.1,0.1,0.2,0.2,0.2,0.3v31.5C128.5,143.5,117.1,154.9,103.1,154.9L103.1,154.9z M48.5,131.6c-3-5.1-4-11.2-3-17
	c0.2,0.1,0.6,0.3,0.8,0.5l27,15.6c1.4,0.8,3.1,0.8,4.4,0l32.9-19v13.2c0,0.1-0.1,0.3-0.2,0.4l-27.3,15.7
	C71.1,147.9,55.6,143.7,48.5,131.6L48.5,131.6z M41.4,72.7c3-5.1,7.6-9.1,13.2-11.1c0,0.2,0,0.6,0,0.9v31.2c0,1.6,0.8,3.1,2.2,3.8
	l32.9,19l-11.4,6.6c-0.1,0.1-0.3,0.1-0.4,0l-27.3-15.8C38.6,100.4,34.4,84.8,41.4,72.7L41.4,72.7z M135.1,94.5l-32.9-19l11.4-6.6
	c0.1-0.1,0.3-0.1,0.4,0l27.3,15.7c12.1,7,16.3,22.6,9.3,34.7c-3,5.1-7.6,9.1-13.2,11.1V98.3C137.4,96.8,136.5,95.3,135.1,94.5
	L135.1,94.5z M146.5,77.4c-0.2-0.1-0.6-0.3-0.8-0.5l-27-15.6c-1.4-0.8-3.1-0.8-4.4,0l-32.9,19V67.2c0-0.1,0.1-0.3,0.2-0.4l27.3-15.7
	c12.1-7,27.7-2.8,34.7,9.3C146.4,65.6,147.5,71.6,146.5,77.4L146.5,77.4z M75.1,100.9l-11.4-6.6c-0.1-0.1-0.2-0.2-0.2-0.3V62.5
	c0-14,11.4-25.4,25.4-25.4c5.9,0,11.7,2.1,16.2,5.9c-0.2,0.1-0.6,0.3-0.8,0.5L77.4,59c-1.4,0.8-2.2,2.2-2.2,3.8L75.1,100.9
	L75.1,100.9z M81.3,87.5L96,79.1l14.7,8.5v16.9L96,112.9l-14.7-8.5V87.5z"/>
</svg>
