<svg xmlns="http://www.w3.org/2000/svg" xml:space="preserve" style="enable-background:new 0 0 192 192" viewBox="0 0 192 192"><path d="M154 83.7c3.1-9.2 2-19.3-2.9-27.7-7.4-12.9-22.3-19.5-36.8-16.4-6.5-7.3-15.7-11.4-25.5-11.4-14.8 0-28 9.5-32.6 23.6-9.5 2-17.8 7.9-22.6 16.4-7.4 12.8-5.8 29 4.2 40-3.1 9.2-2 19.3 2.9 27.7 7.4 12.9 22.3 19.5 36.8 16.4 6.5 7.3 15.7 11.4 25.5 11.3 14.8 0 28-9.5 32.6-23.7 9.5-2 17.8-7.9 22.6-16.4 7.5-12.6 5.8-28.8-4.2-39.8zm-50.9 71.2c-5.9 0-11.7-2.1-16.3-5.9.2-.1.6-.3.8-.5l27-15.6c1.4-.8 2.2-2.3 2.2-3.8v-38l11.4 6.6c.1.1.2.2.2.3v31.5c.1 14-11.3 25.4-25.3 25.4zm-54.6-23.3c-3-5.1-4-11.2-3-17 .2.1.6.3.8.5l27 15.6c1.4.8 3.1.8 4.4 0l32.9-19v13.2c0 .1-.1.3-.2.4L83.1 141c-12 6.9-27.5 2.7-34.6-9.4zm-7.1-58.9c3-5.1 7.6-9.1 13.2-11.1v32.1c0 1.6.8 3.1 2.2 3.8l32.9 19-11.4 6.6c-.1.1-.3.1-.4 0l-27.3-15.8c-12-6.9-16.2-22.5-9.2-34.6zm93.7 21.8-32.9-19 11.4-6.6c.1-.1.3-.1.4 0l27.3 15.7c12.1 7 16.3 22.6 9.3 34.7-3 5.1-7.6 9.1-13.2 11.1V98.3c0-1.5-.9-3-2.3-3.8zm11.4-17.1c-.2-.1-.6-.3-.8-.5l-27-15.6c-1.4-.8-3.1-.8-4.4 0l-32.9 19V67.2c0-.1.1-.3.2-.4l27.3-15.7c12.1-7 27.7-2.8 34.7 9.3 2.8 5.2 3.9 11.2 2.9 17zm-71.4 23.5-11.4-6.6c-.1-.1-.2-.2-.2-.3V62.5c0-14 11.4-25.4 25.4-25.4 5.9 0 11.7 2.1 16.2 5.9-.2.1-.6.3-.8.5L77.4 59c-1.4.8-2.2 2.2-2.2 3.8l-.1 38.1zm6.2-13.4L96 79.1l14.7 8.5v16.9L96 112.9l-14.7-8.5V87.5z"/></svg>