<svg xmlns="http://www.w3.org/2000/svg" xml:space="preserve" style="enable-background:new 0 0 192 192" viewBox="0 0 192 192"><style>.st0{display:none}.st1{fill:none;stroke:#000;stroke-width:12;stroke-linecap:round;stroke-linejoin:round;stroke-miterlimit:3}.st1,.st2{display:inline}.st3{fill:none}.st4,.st5{stroke-linecap:round;stroke-linejoin:round}.st4{fill:none;stroke:#000;stroke-width:12;stroke-miterlimit:10}.st5{stroke-miterlimit:3}.st5,.st6,.st7{fill:none;stroke:#000;stroke-width:12}.st7{fill:#fff;stroke-width:6;stroke-miterlimit:10}</style><g id="图层_12"><circle cx="96" cy="96" r="65.66" class="st6"/><path d="M58.85 126.33A47.774 47.774 0 0 1 48.04 96c0-16.49 8.32-31.03 20.99-39.66M141.1 112.36c-6.69 18.43-24.35 31.6-45.1 31.6-7.61 0-14.81-1.77-21.2-4.93M88.24 48.66c2.53-.41 5.12-.62 7.76-.62 25.02 0 45.57 19.16 47.76 43.61" class="st6"/><circle cx="96" cy="96" r="16.79" class="st6"/><path d="M96 30.06c-19.38 4.37-31.55 23.62-27.18 43a35.848 35.848 0 0 0 8 15.75l3.6 1.2c3.2-8.7 12.85-13.16 21.55-9.96 2.83 1.04 5.32 2.82 7.23 5.16l4.8-2.4c-18-3.6-37.18-41.96-18-52.75" class="st6"/><path d="M153.25 128.35c5.91-18.97-4.68-39.13-23.65-45.04a36 36 0 0 0-17.64-.95l-2.84 2.52c5.93 7.12 4.97 17.71-2.15 23.64-2.32 1.93-5.11 3.2-8.08 3.68l-.32 5.35c12.11-13.78 54.93-11.21 54.68 10.8" class="st6"/><path d="M39.23 128.63c13.47 14.6 36.23 15.51 50.83 2.04 4.4-4.06 7.71-9.14 9.64-14.8l-.76-3.71c-9.14 1.58-17.82-4.55-19.4-13.68-.51-2.97-.22-6.02.86-8.84l-4.47-2.95c5.87 17.36-17.76 53.16-36.7 41.94" class="st6"/></g></svg>