<svg xmlns="http://www.w3.org/2000/svg" xml:space="preserve" id="图层_1" x="0" y="0" style="enable-background:new 0 0 120.8 120.8" version="1.1" viewBox="0 0 120.8 120.8"><style>.st0{display:none}.st1{display:inline}.st2{fill:none;stroke:#000;stroke-width:12;stroke-linecap:round;stroke-linejoin:round;stroke-miterlimit:3}.st3,.st4,.st5{display:inline;fill:none}.st4{stroke:#000;stroke-width:8;stroke-linecap:round;stroke-linejoin:round;stroke-miterlimit:10}.st5{stroke-width:7}.st5,.st8,.st9{stroke:#000;stroke-linecap:round;stroke-linejoin:round;stroke-miterlimit:10}.st8{fill:none;stroke-width:7}.st9{stroke-width:4}.st10{display:inline;fill:#231f20}.st11,.st13,.st14{fill:none;stroke:#000;stroke-width:8;stroke-linecap:square;stroke-miterlimit:10}.st13,.st14{stroke-width:6;stroke-linecap:round;stroke-linejoin:round}.st14{stroke-width:12}.st15{display:inline;fill:none;stroke-width:16}.st15,.st16{stroke:#000;stroke-linecap:round;stroke-linejoin:round;stroke-miterlimit:10}.st16,.st17{display:inline;stroke-width:6}.st17,.st18,.st23{fill:none;stroke:#000;stroke-linecap:round;stroke-linejoin:round;stroke-miterlimit:10}.st18{opacity:.44;stroke-width:9;enable-background:new}.st23{stroke-width:8}</style><path d="M51 113.7c5.2 0 9.3-4.1 9.3-9.3H41.7c0 5.2 4 9.3 9.3 9.3zM64.9 30c-2.3-1.2-4.7-2.1-7.2-2.7v-3c0-3.4-1.9-6.4-5.1-7.1-4.7-1.1-8.5 2.5-8.5 7v3.2c-13.4 3.1-23.8 15.3-23.8 29.8v24.2l-9.2 9.5v4.7h79.5v-4.7l-9.2-9.5h0V57.2c0-2.1-.2-4.1-.6-6.1" class="st8"/><path d="M86.7 14.1c8.8 0 16 7.2 16 16s-7.2 16-16 16-16-7.2-16-16 7.2-16 16-16m0-7c-12.7 0-23 10.3-23 23s10.3 23 23 23 23-10.3 23-23-10.3-23-23-23z"/></svg>