<svg xmlns="http://www.w3.org/2000/svg" xml:space="preserve" style="enable-background:new 0 0 120.8 120.8" viewBox="0 0 120.8 120.8"><style>.st0{display:none}.st1{fill:none;stroke:#000;stroke-width:12;stroke-linecap:round;stroke-linejoin:round;stroke-miterlimit:3}.st1,.st2{display:inline}.st3,.st4,.st5{display:inline;fill:none}.st4{stroke:#000;stroke-width:8;stroke-linecap:round;stroke-linejoin:round;stroke-miterlimit:10}.st5{stroke-width:7}.st5,.st6,.st7{stroke:#000;stroke-linecap:round;stroke-linejoin:round;stroke-miterlimit:10}.st6{fill:none;stroke-width:7}.st7{stroke-width:4}.st8{display:inline;fill:#231f20}.st9{fill:none;stroke:#000;stroke-width:8;stroke-linecap:square;stroke-miterlimit:10}.st11{fill:none;stroke-width:6}.st11,.st12,.st13,.st14,.st15{stroke:#000;stroke-linecap:round;stroke-linejoin:round;stroke-miterlimit:10}.st12{fill:none;stroke-width:12}.st13,.st14,.st15{display:inline}.st13{fill:none;stroke-width:16}.st14,.st15{stroke-width:6}.st15{fill:none}.st16{stroke-width:5}.st16,.st17,.st22{fill:none;stroke:#000;stroke-linecap:round;stroke-linejoin:round;stroke-miterlimit:10}.st17{opacity:.44;stroke-width:9}.st22{stroke-width:8}</style><g id="图层_16"><path d="M50.4 114.4c5.2 0 9.3-4.1 9.3-9.3H41.1c0 5.2 4 9.3 9.3 9.3zm13.9-81.7c-2.3-1.2-4.7-2.1-7.2-2.7v-3c0-3.4-1.9-6.4-5.1-7.1-4.7-1.1-8.5 2.5-8.5 7v3.2c-13.4 3.1-23.8 15.3-23.8 29.8v24.2l-9.2 9.5v4.7H90v-4.7l-9.2-9.5h0V59.9c0-2.1-.2-4.1-.6-6.1" class="st16"/><circle cx="87.2" cy="31.9" r="23" class="st16"/></g></svg>