<svg xmlns="http://www.w3.org/2000/svg" xml:space="preserve" style="enable-background:new 0 0 192 192" viewBox="0 0 192 192"><path d="M159.1 104c-3.3-7.7-10.2-12.4-18.6-12.4-6.3 0-12.3 2.7-16.4 7.4-4.2 4.8-6 11.2-5.1 17.5l.1.6c1.4 7.6-1.2 12.7-3.7 15.7-3.8 4.5-9.2 7.1-15.1 7.3-4.9-5.1-6.2-14.3-3.5-26.4 12.7-1 27.2-10.2 31.5-33.2 2.5-.8 5.8-1.6 7.7-2.1 4.2-1.1 6.8-1.8 8.9-2.7 1.4-.6 2.7-1.6 3.8-2.7 11-1.5 19-8.5 21.5-19.1l.1-.6c.8-4.7-.5-9.7-3.8-13.6-3-3.6-7.3-6.1-12.5-7.3-1.3-3.5-3.2-6.7-5.7-9.5-7.2-8.2-18.5-12.9-31-12.9-12.2 0-30.9 4.3-52.4 24.2-2.6-.4-5.2-.6-7.8-.6C36.7 33.6 22 44.4 19 61.9c-1.1 6.4 3.2 12.6 9.7 13.7.7.1 1.5.2 2.2.2l2.7-.3c-3.4 9.1-6.8 22.2-4.6 37.5 4.7 33.3 31.7 69.1 79.8 69.1 5.1 0 10.4-.4 15.8-1.2 6.1-1.1 11.9-3.3 17.2-6.5 18.6-8.2 30-26.2 31.4-49.8v-.7c0-9.5-5.8-17.3-14.1-19.9zm-23.2 60.5h.2c-3.2 1.8-8.1 4.2-13.1 5.1-5 .7-9.7 1.1-14.1 1.1-45.7 0-65.1-35.6-68.5-59.3-3.4-23.4 8.8-40.9 9.3-45-1.1-4.2-3.6-5.4-6.6-5.4-4.7 0-10.4 3.3-12.3 3.3l-.6-.4C32.8 49 46.6 45 57.3 45c4.8 0 9 .8 11.2 1.8 18.5-18.7 35.6-25.4 49-25.4 17.3 0 28.1 11.2 26.8 21.6l2.1-.1c9.4 0 13.6 4.6 13 8.3-1.9 8.2-8.7 10.5-14.9 10.5-1.6 0-3.1-.2-4.5-.4-4.6-.8-7.6-2.9-8.5-2.9l-.3.3c-.1 4.4 10.6 4.7 9.4 6.3-4.1 1.8-21 4.6-22.5 8.2-2.6 24.5-16.7 28.9-23.4 28.9-2.6 0-4.1-.7-3.5-1.1 8.2-6.4 6.7-14.7 1.5-14.7-1.2 0-2.6.5-4 1.5-38.4 30-15.8 78.6 22.4 78.6h.7C90.1 162 72.2 141.2 85 109.3l.7-.2.6.8c-5 21.4.6 34.7 10 41.1 1.4.2 2.8.3 4.2.3 16.8 0 34.3-14.8 30.2-36.5-.9-5.6 2.9-10.9 8.5-11.8.6-.1 1.2-.1 1.7-.1 4 0 7.9 2.4 8.9 8 .2 1.2.3 2.5.3 3.7-4.1.9-7.8 4.2-8.1 9.9.3 19.8-15.4 31.1-30.5 31.2h.4c15.2 0 31-11.4 30.8-31.2 0-5.6 4.5-10.2 10.1-10.2h.2c4.6 0 9.1 3.1 9.1 9.6-1.6 22.1-12.6 35.1-26.2 40.6z"/><path d="M123.6 53.8c2.2 0 4.3-1 5.7-2.7l-2.9.7c-3.3 0-6-2.7-6-6s2.7-6 6-6l1.6.2a7.1 7.1 0 0 0-4.4-1.5c-4.2 0-7.5 3.4-7.5 7.6-.1 4.3 3.3 7.7 7.5 7.7z"/><path d="m125 41.9-.8 1.4 1.6 1.5 1.6-1.5-.8-1.4-.8-.2-.8.2z"/></svg>