<svg xmlns="http://www.w3.org/2000/svg" xml:space="preserve" id="图层_1" x="0" y="0" style="enable-background:new 0 0 192 192" version="1.1" viewBox="0 0 192 192"><style>.st0{fill-rule:evenodd;clip-rule:evenodd;fill:none;stroke:#000;stroke-width:12;stroke-linecap:round;stroke-linejoin:round;stroke-miterlimit:10}</style><path d="M28.92 149.03s5.26 4.85 5.26 11.73c0 2.02-3.24 4.45-2.83 4.45 10.92-1.21 23.05-6.47 23.05-6.47s10.11-4.85 17.79-11.32c5.66-4.85 8.9-13.35 8.9-13.35s2.43-4.85 5.26-11.32c2.83-6.07 6.07-12.94 6.07-12.94s1.21-3.24 3.24-6.47c1.62-2.43 5.26-4.85 5.26-4.85s-1.21-.4-2.43-.4c-.81 0-2.43.81-2.43.81s-2.83 2.02-5.66 5.66c-4.04 5.26-9.71 14.56-14.56 21.03-8.49 11.73-12.13 16.18-28.31 21.03-8.1 2.81-18.61 2.41-18.61 2.41h0zM174.91 116.68c-.81 5.26-2.43 12.13-17.79 7.28l-50.55-19.01h-.4l54.6-.81c14.14-.81 15.36 6.87 14.14 12.54h0zM176.13 89.18c.81 5.26 1.62 12.54-14.56 12.54l-54.19-1.62h-.4l51.36-18.2c13.74-4.86 16.98 2.02 17.79 7.28h0zM165.61 60.87c2.83 4.85 6.47 10.51-8.49 17.39l-50.15 20.22c.4 0 .81-.4-.4 0l39.63-37.21c10.51-10.11 16.58-5.26 19.41-.4zM147.01 39.84c4.45 3.24 9.71 8.09-2.02 19.01l-40.85 35.99s.81-.81 0 .4l25.07-48.53c6.07-12.94 13.35-10.51 17.8-6.87h0zM121.53 26.09c5.26 1.62 11.73 4.04 4.45 18.6L100.1 92.41c0-.4.4-.81 0 .4l6.88-54.19c1.61-14.15 9.29-14.15 14.55-12.53h0zM20.43 126.38c-1.62-5.26-3.64-12.13 12.13-14.56l53.79-7.28c-.4 0-.81.4.4 0l-47.72 25.88c-12.54 7.29-16.99 1.22-18.6-4.04zM92.41 21.24c5.66-.4 12.54-.4 10.92 15.77L96.05 91.2v.4L83.52 38.22c-4.05-13.75 3.23-16.58 8.89-16.98h0zM63.7 28.11c5.26-2.02 11.73-4.45 15.77 10.92L91.2 92.01c0-.4-.4-.81 0 .4L60.87 47.12c-8.09-11.73-2.43-16.99 2.83-19.01zM32.96 86.35l51.76 15.77h.4l-54.19 4.04c-14.15 1.62-15.77-6.07-15.37-11.73.42-5.25 1.63-12.13 17.4-8.08h0zM23.66 68.15c2.43-4.85 6.07-10.92 19.01-1.62l42.87 33.16c-.4 0-.81-.4.4 0L33.77 84.32C19.62 80.68 20.83 73 23.66 68.15zM40.65 45.1c4.04-3.64 9.3-8.09 18.6 5.26l28.31 46.1s-.81-.81 0 0L44.29 63.7c-11.33-8.49-7.69-14.96-3.64-18.6zM113.04 113.85c-3.64-3.24-6.88-5.66-6.88-6.07-.4.4-1.21.81-2.43 2.02-1.21 1.21-3.24 3.24-4.85 5.66-1.21 2.02-2.43 4.04-3.64 6.47-.81 2.02-2.02 4.45-2.83 6.88-1.62 4.04-2.43 7.28-2.43 7.28s-10.11 33.97-10.51 34.78h50.96c-.81-1.21-4.45-6.47-8.49-12.54-2.43-4.45-4.45-8.49-6.07-12.54-1.62-4.85-2.83-9.3-2.83-13.35 0-2.83.4-5.66 1.62-7.68l.4-.4s.4-.4.4-.81c.4-.4 1.21-1.21 2.43-1.62.81 0 1.21-.4 2.02-.4h1.62l25.07 21.84c12.54 10.51 16.18 4.45 19.01-.4 2.83-4.85 4.45-12.13-8.9-16.99l-50.96-18.6c1.21.81.4.4.4 0l6.89 6.47h0z" class="st0"/></svg>