<svg xmlns="http://www.w3.org/2000/svg" xml:space="preserve" style="enable-background:new 0 0 192 192" viewBox="0 0 192 192"><style>.st0,.st1{fill:none;stroke:#000;stroke-width:12;stroke-linecap:round;stroke-linejoin:round;stroke-miterlimit:10}.st1{stroke-width:3}</style><g id="图层_2"><path d="M24.7 71.2V29.7c0-.5-.1-2.5 1.3-4.3 1.9-2.3 4.8-2.2 5.1-2.2h130.8c.6.1 2.7.5 4.3 2.4 1.2 1.4 1.5 2.8 1.6 3.5v40.6M90.9 86.2c-3.7.5-9.1 1.6-15.1 4.6-7.9 4-12.8 9.4-15.3 12.6 4.2 2.4 8.4 4.8 12.6 7.3l17.8-10.5v-14zM104.7 86.2c3.7.5 9.1 1.6 15.1 4.6 7.9 4 12.8 9.4 15.3 12.6-4.2 2.4-8.4 4.8-12.6 7.3l-17.8-10.5v-14zM91.9 178.8c-3.7-.5-9.1-1.6-15.1-4.6-7.9-4-12.8-9.4-15.3-12.6 4.2-2.4 8.4-4.8 12.6-7.3l17.8 10.5v14zM105.7 178.8c3.7-.5 9.1-1.6 15.1-4.6 7.9-4 12.8-9.4 15.3-12.6-4.2-2.4-8.4-4.8-12.6-7.3l-17.8 10.5v14zM142.5 115c1.5 3.4 3.4 8.6 3.9 15.3.7 8.8-1.4 15.8-2.9 19.7-4.3-2.4-8.5-4.7-12.8-7.1l-.2-20.6 12-7.3zM53.2 115c-1.5 3.4-3.4 8.6-3.9 15.3-.7 8.8 1.4 15.8 2.9 19.7 4.3-2.4 8.5-4.7 12.8-7.1l.2-20.6-12-7.3zM112.6 141.4l-15 8.4-14.9-8.9.3-17.3 15.1-8.4 14.8 8.9z" class="st0"/></g><g id="图层_3"><path d="M43.9 37.7V66 37.7M49.4 37.7V66M51.8 48.2h-2.4M55.1 39h20.1M59 41.6v-4.8M71.9 41.6v-4.8M55.5 44h19.7M55.5 47.7h19.7M65.4 44l-.2 22M73.2 51.4H58.1c-.2 0-.9.1-1.5.8-.4.5-.5 1.1-.5 1.3v3.8c0 .2.1.8.7 1.3.5.4 1 .4 1.1.4h14.7c.2 0 .9-.2 1.4-.9.4-.5.4-1.1.4-1.3v-2.9c0-.1.2-.9-.2-1.6-.3-.6-.9-.8-1-.9zM74.4 55.2H56.1M55.1 62.7h20.1M55.1 66h20.1M81.4 39h7.3M81.4 50.8h7.3M81.4 65.5h7.3M85 39v26.5M92.7 40.5h20.7M103.1 37.7v25.6c0 .2 0 1.1-.6 1.8-.5.6-1.1.8-1.4.9h-2.7M93.3 47.7h4.6M96.3 55.2v6.5c-.3.8-1 2.5-2.6 3.6-.3.2-.6.4-1 .5M109 47.7h4.4M109.4 55.2v5.3c.4 1 1.1 2.4 2.5 3.8.5.5 1.1.9 1.6 1.3M111.4 36.8V39M135.1 36.8v2.8M119.2 39.6h31.7M124.9 44v3.7M145.3 44v3.2M119.9 52.2v-2.3c0-.2-.1-.7.2-1.3.4-.7 1.1-.9 1.2-.9h27.4c.1 0 .7-.1 1.2.4.5.4.5 1.1.5 1.1v3M135.1 52.8v12.9M121.1 65.5v-8c0-.1-.2-1.1.5-1.8.4-.4.9-.6 1.1-.6 8.2 0 16.4.1 24.6.1.3.1.9.3 1.5.9.5.5.6 1 .7 1.3v5.9c-.1.2-.6 1.2-1.7 1.7-.9.3-1.6.2-1.9.1" class="st1"/></g></svg>