<svg xmlns="http://www.w3.org/2000/svg" xml:space="preserve" style="enable-background:new 0 0 192 192" viewBox="0 0 192 192"><style>.st0{display:none}.st1{fill:none;stroke:#000;stroke-width:12;stroke-linecap:round;stroke-linejoin:round;stroke-miterlimit:3}.st1,.st2{display:inline}.st3{fill:none}.st4,.st5{stroke-linecap:round;stroke-linejoin:round}.st4{fill:none;stroke:#000;stroke-width:12;stroke-miterlimit:10}.st5{stroke-miterlimit:3}.st5,.st6{fill:none;stroke:#000;stroke-width:12}.st7{fill:#fff;stroke-width:6}.st10,.st7,.st8{stroke:#000;stroke-miterlimit:10}.st8{display:inline;fill:none;stroke-width:12}.st10{stroke-width:6}</style><g id="图层_16"><circle cx="84.02" cy="96" r="70" style="fill:none;stroke:#000;stroke-width:12;stroke-miterlimit:10"/><path d="M151.6 114.26 170.66 126c7.27 4.48 9.5 14.02 4.97 21.25h0c-4.41 7.04-13.61 9.31-20.79 5.13l-18-10.49" class="st4"/><path d="M70.17 117.21c5.13-.82 7.01-1.44 7.01-3.89 0-2.67-2.69-10.66-6.02-20.09H50.41c-.9 1.95-5.39 15.78-5.39 18.96 0 3.48 2.43 4.1 7.46 5.02v1.44h-20.4v-1.44c6.29-1.44 7.46-2.36 10.79-11.58l19.5-52.17 1.08-.51 6.02 18.96c4.13 12.81 8.18 25.62 11.59 35.46 2.69 7.59 3.41 8.71 9.7 9.84v1.44H70.17v-1.44zm-8.71-54.73c-3.6 9.12-7.1 18.86-9.97 27.46h18.87l-8.72-27.46h-.18zM121.8 119.77c-.18 0-1.98-.82-2.88-1.84-1.08-1.33-1.44-2.56-1.98-4.82-3.51 3.07-7.55 6.66-10.87 6.66-6.2 0-10.42-5.33-10.42-11.68 0-4.61 2.78-7.89 8.99-10.04 4.58-1.54 10.24-4 12.31-5.43 0-5.02-.09-13.94-8.18-13.94-1.44.1-6.29.51-7.82 8.71-.18.72-.72 1.74-1.98 1.74s-2.7-1.44-2.7-3.48c0-1.54 1.08-2.77 2.52-3.69 2.25-1.74 8.27-5.95 12.67-7.07 4.41 0 9.97 3.28 9.97 12.3v22.03c0 4.2 1.35 5.84 3.24 5.84 1.53 0 2.96-.61 3.95-1.33l.81 1.74-7.63 4.3zm-4.86-24.6c-1.89 1.23-7.55 3.69-9.52 4.61-4.05 1.74-6.47 3.69-6.47 7.49 0 5.33 3.78 8.09 7.01 8.09 3.06 0 7.1-2.56 8.99-5.23V95.17z" class="st10"/></g></svg>