<svg xmlns="http://www.w3.org/2000/svg" xml:space="preserve" id="图层_2" x="0" y="0" style="enable-background:new 0 0 192 192" version="1.1" viewBox="0 0 192 192"><style>.st0,.st2{stroke:#000;stroke-linecap:round;stroke-linejoin:round;stroke-miterlimit:10}.st0{fill:none;stroke-width:12}.st2{stroke-width:5}</style><path d="M170.1 70c-1.8.4-4.5.8-7.9.3-3.9-.5-6.9-2-8.6-3 3-2.7 7.5-7.3 11-14.2 3.9-7.6 5.1-14.5 5.4-18.7-4.7 1.2-11 2.5-18.5 3.3-8.4 1-15.1.9-28.3.8-11.6-.1-14.6-.4-28.1-.5-5.7 0-10.4 0-13.6.1-32.7 0-59.7 26.9-59.7 59.7 0 32.9 26.7 59.7 59.7 59.7 30.1 0 56.1-23.5 59.4-54.3 3.9-1.3 10.5-4.2 16.7-10.3 8.9-8.7 11.6-18.8 12.5-22.9z" class="st0"/><path d="M101.9 83.1c.2-.3 2.1-3.6 5.9-4 3-.3 5.2 1.4 5.6 1.7" class="st0"/><ellipse cx="83.9" cy="101.3" rx="18" ry="12.8" style="fill:none;stroke:#000;stroke-width:9;stroke-linecap:round;stroke-linejoin:round;stroke-miterlimit:10"/><ellipse cx="76.5" cy="100.4" class="st2" rx="1" ry="3"/><ellipse cx="90.5" cy="100.2" class="st2" rx="1" ry="3"/><ellipse cx="60.2" cy="80.7" rx=".6" ry="3" style="stroke:#000;stroke-width:12;stroke-linecap:round;stroke-linejoin:round;stroke-miterlimit:10"/><path d="M58.8 77.2c.1.3.1.6.2.9 0 .2.1.3.1.5v.1c.1.6.1 1.1.1 1.7v1.3c0 .1-.1.5 0 .1-.1.6-.2 1.2-.4 1.7h2.9c-.1-.2-.1-.5-.1-.7 0-.1 0-.2-.1-.3v-.1c0-.5-.1-1-.1-1.5s0-1 .1-1.5v-.1c0-.1 0-.2.1-.3.1-.3.1-.5.2-.8-.5.4-1 .7-1.4 1.1-.3-.1-.5-.2-.8-.3-.1-.2-.2-.2-.1-.1.1.2-.1-.4 0 0 0 .1.1.3 0-.1v.3c.1.5.1.9.1 1.4v1.3c-.1-.1.1-.3 0-.1 0 .1 0 .2-.1.2 0 .1-.1.4 0 .1.1-.2 0 0 0 .1s-.2.2.1-.1l.1-.1s-.4.1-.1 0c.1 0 .5 0 .2-.1h.1c.1 0 .1 0 0 0h-.1c.1 0 .1 0 .2.1-.1 0-.1-.1-.2-.1l.1.1-.2-.2c-.1-.1.2.3 0 0 0-.1-.1-.1-.1-.2-.2-.3 0 .1 0 .1-.1 0-.1-.4-.1-.5 0-.1.1-.1 0 .1v-.6c0-.1 0-.1 0 0v.1-.1c0-.1 0-.2.1-.2 0-.1.1-.3.1-.4.1-.3-.1.2 0 0 0-.1.1-.2.1-.3.1-.1.2-.2.2-.4-.1.2-.1.2 0 .1l.2-.2.2-.2c.1-.1.1 0-.1 0 .1 0 .3-.2.4-.3-.3.3-.9 0-1.2-.3-.1-.1-.1-.4-.1-.2 0 .1.1.5 0 .2.1.5.1.9.1 1.4v.8c0 .2.1-.3 0 0 0 .2-.1.3-.1.5-.1.3.1-.1 0 0 0 .1-.1.1-.1.2.1-.1.1-.2.1-.1-.1.1-.1.2-.2.2 0 0 .3-.2 0 0-.3.1.1 0 .1 0-.1.1-.3 0-.1 0h.2c-.2 0 0-.1.1 0l-.2-.1c.2.1.2.1.1 0 0 0 0-.1-.1-.1l.1.1-.1-.1c0-.1-.1-.2-.1-.2 0-.1-.2-.2 0 0 0-.1-.1-.2-.1-.2-.1-.2-.1-.4-.1-.6 0 0 0 .3 0 0V79.6v.2-.2c0-.2.1-.3.1-.5.1-.2 0 0 0 0l.1-.2c0-.1.1-.2.1-.2l.1-.1c-.1.1-.1.2-.1.1.1-.1.2-.2.3-.4.1 0 .1-.1.2-.1.3-.2-.2.1 0 0 .1-.1.3-.2.4-.3 0 0 .1-.1.2-.1-.2.1-.2.1-.1 0h.2c.1 0 .1 0 0 0h-.1c-.5 0-.8-.2-.9-.6.1.1.1.4.1.5 0 0 .1.4 0 .2V79c0-.3 0-.1 0 0 0 .2-.1.4-.2.6 0 .2-.1.1 0-.1 0 0-.1.1-.1.2s-.1.2-.1.2l-.1.1c.1-.2.1-.2.1-.1 0 0-.1.2-.2.2 0 0 .3-.2.1-.1-.3.1.1 0 .1 0 0 .1-.4 0-.1 0H59s.4.1.1 0c-.3-.1 0 0 .1 0-.1 0-.2-.1-.3-.2-.3-.2.1.1 0 0 0 0-.2-.1-.2-.2 0 0 .2.3 0 0 0-.1-.1-.1-.1-.2s-.1-.2-.1-.3c-.1-.2.1.3 0 0-.1-.2-.1-.4-.2-.6-.3.3-.3.1-.3-.1 0-.1 0-.2-.1-.2 0 .7-.2 1.1-.7 1.3h.1c.1 0 .2 0 .3-.1h-.1H58.4c-.1 0-.3-.1 0 0 .1 0 .2.1.4.1.1 0 .2.1.2.1.3.1-.2-.1.1 0 .1 0 .2.1.3.1l.2.1c-.2-.1.1.1.1.1l.2.2c.2.2 0 0 0 0l.2.3c.1.3 0 0 0 0l.1.3v-.2.5-.2.2c0 .1 0 .1-.1.2-.1-.2-.1-.2-.1-.1-.1.1-.1.1 0 0 0 .1-.4.3 0 0-.1.1-.2.1.1 0-.3.1.3.1 0 0 .2 0 .3 0 .4.1-.3-.2.2.2 0 0 0 .1.1.1.1.2-.1-.1-.1-.1 0 0s.1.2.1.3c0 .2-.1.3 0 .1.3-.7-.3-1.7-1-1.8-.8-.2-1.6.3-1.8 1-.3.8 0 1.7.6 2.3.6.6 1.3.8 2.1.7 1.6-.2 2.6-1.8 2.6-3.3 0-1.5-.9-2.8-2.1-3.6-1.2-.8-2.7-1-4-.8-1.1.3-1.8.7-2.1 1.6-.2.7.1 1.5.3 2.1.4 1.3 1.2 2.5 2.5 3.1 1.5.6 3 0 3.9-1.2.7-1 1-2.4.9-3.7-.1-.8-.2-1.6-.7-2.3-.6-.8-1.6-.9-2.5-.6-1.2.4-2.2 1.2-2.9 2.3-.7 1.2-.9 2.6-.6 3.9.3 1.3 1.2 2.8 2.6 3 1.7.3 3.1-.8 3.6-2.3.5-1.3.3-2.8.2-4.1-.1-.8-.4-1.4-1.1-1.9-.8-.5-1.8-.2-2.5.3-1 .7-1.7 1.7-2.1 2.8-.4 1.2-.3 2.4.2 3.6.6 1.3 2 2.2 3.5 1.9 1.4-.4 2-1.8 2.1-3.1.1-.6 0-1.2 0-1.8 0-.6-.1-1.4-.2-2-.3-.9-1-1.6-2-1.6-.6 0-1.3.5-1.4 1.1-.6 2.3-.6 4.7-.1 7 .3 1.5 2.5 1.4 2.9 0 .7-2.6.7-5.4.1-8-.2-.8-1.1-1.3-1.8-1-.8.2-1.3 1-1.1 1.8z"/><path d="M59.6 80.3v.2-.1.4c0 .1-.1.3 0 .4 0 0 .1-.3 0-.1 0 .1 0 .2-.1.3 0 .1-.1.3-.1.4-.1.4.1-.1 0 .1-.1.1-.1.3-.2.4 0 .1-.1.1-.1.2-.2.3.2-.2 0 .1-.4.4-.6.8-.6 1.4 0 .7.4 1.2.9 1.6.9.6 2 .3 2.7-.4.5-.6.9-1.4 1.1-2.1.2-.7.4-1.4.3-2.1-.1-1.6-.8-3-2.1-3.9-1.2-.8-2.9-.9-4.1-.1-1.2.7-2 2-2.2 3.4-.2 1.6.2 3.3 1.8 4.1.7.4 1.4.6 2.2.7.8.2 1.5.3 2.3.4 1.6.2 3.3-.4 4-2 .6-1.4.5-3-.3-4.3-.4-.7-1.4-1-2.1-.5-.7.4-1 1.3-.5 2.1 0 .1.1.2.1.2s0 .1.1.1c.1.1-.1-.1-.1-.2 0 .1.1.2.1.3 0 .1 0 .2.1.3.1.2 0-.3 0-.1v.7s.1-.3 0-.2v.2c0 .1-.1.2-.1.2 0 .1.1-.2.1-.2s0 .1-.1.1c0 .1-.2.3 0 .1l-.1.1c-.2.2.2-.1 0 0-.1 0-.1.1-.2.1s-.2.1 0 0H62c0-.1.3 0 .1 0H61.3c-.1 0-.3 0-.4-.1-.6-.1-1.1-.2-1.7-.4-.2-.1-.5-.1-.7-.2 0 0-.1 0-.2-.1 0 0 .2.1.1 0 0 0-.1-.1-.2-.1-.2-.1 0 0 0 0l-.2-.2.1.1s0-.1-.1-.1c-.1-.2.1.3 0 0 0-.1-.1-.4-.1-.4v.2-.4c0-.3-.1.3 0 0 0-.1.1-.2.1-.3 0-.1.1-.4 0-.1-.1.2 0-.1.1-.1 0-.1.1-.2.2-.3l.1-.1c.1-.2 0 0-.1.1.1 0 .2-.2.2-.3l.1-.1c-.2.1.1 0 .1-.1 0 0 .1 0 .1-.1 0 .1-.3.1-.1 0 .1 0 .2 0 .3-.1h-.2.2-.2c.1 0 .2 0 .3.1h.1s-.3-.1-.1-.1c.1.1.2.1.3.2l.1.1-.1-.1c0 .1.2.2.3.2 0 0 .2.3.1.1-.1-.2.1.1.1.1.1.1.1.2.1.3l-.1-.1.1.2c0 .1.1.2.1.3.1.3 0-.2 0 .1v.5-.1s-.1.6-.2.7c0 .1-.1.2-.1.3 0 0-.1.2 0 0s0 .1 0 .1c-.1.2-.3.5-.4.7l.1-.1c-.1.1 0 0 .1 0 .2-.1.3-.1.5-.1.4 0 .7.1.9.5v.6c.1.3.1.5 0 .6-.1.2 0 0 0-.1.1-.2.3-.3.4-.5.1-.2.3-.4.4-.7.6-1.3.8-2.6.5-4-.1-.8-1.1-1.3-1.8-1-.6.5-1 1.3-.9 2.1z"/></svg>