<svg xmlns="http://www.w3.org/2000/svg" xml:space="preserve" id="图层_1" x="0" y="0" style="enable-background:new 0 0 192 192" version="1.1" viewBox="0 0 192 192"><style>.st0{display:none}.st1{display:inline}.st1,.st3,.st4{fill:none;stroke:#000;stroke-width:3;stroke-linecap:round;stroke-linejoin:round;stroke-miterlimit:10}.st4{stroke-width:12}</style><g id="图层_4"><circle cx="96" cy="96" r="76" class="st4"/><path d="M96 36.6c-3.4 1.3-5.1 3.2-5.9 4.4-4.1 6-2 16.4 5.9 25.2M96 36.6c3.4 1.3 5.1 3.2 5.9 4.4 4.1 6 2 16.4-5.9 25.2M55.5 54.1c-1.5 3.3-1.3 5.9-1.1 7.3 1.3 7.1 10.2 13 22.1 13.6" class="st4"/><path d="M55.5 54.1c3.3-1.5 5.8-1.3 7.3-1 7.1 1.3 13 10.2 13.7 22M136.5 54.1c1.5 3.3 1.3 5.9 1.1 7.3-1.3 7.1-10.2 13-22.1 13.6" class="st4"/><path d="M136.5 54.1c-3.3-1.5-5.8-1.3-7.3-1-7.1 1.3-13 10.2-13.7 22M38.4 96.3c1.7 3.2 3.7 4.7 5 5.4 6.4 3.4 16.5.2 24.4-8.7" class="st4"/><path d="M38.4 96.3c.9-3.5 2.6-5.4 3.8-6.4 5.5-4.7 16.1-3.8 25.7 3.1M153.6 96.3c-1.7 3.2-3.7 4.7-5 5.4-6.4 3.4-16.5.2-24.4-8.7" class="st4"/><path d="M153.6 96.3c-.9-3.5-2.6-5.4-3.8-6.4-5.5-4.7-16.1-3.8-25.7 3.1" class="st4"/></g></svg>