<svg xmlns="http://www.w3.org/2000/svg" xml:space="preserve" style="enable-background:new 0 0 192 192" viewBox="0 0 192 192"><path d="M153.8 57.5H38.2c-7.1 0-12.8 5.8-12.8 12.8v51.4c0 7.1 5.8 12.8 12.8 12.8h115.6c7.1 0 12.8-5.8 12.8-12.8V70.3c0-7-5.8-12.8-12.8-12.8zm0 64.2H38.2V70.3h115.6v51.4zm-96.3-6.4h12.8v-12.8h12.8V89.6H70.3V76.7H57.5v12.8H44.6v12.8h12.8v13zm44.9-9.7c0-5.3 4.3-9.6 9.6-9.6s9.6 4.3 9.6 9.6-4.3 9.6-9.6 9.6c-5.3.1-9.6-4.3-9.6-9.6m25.7-19.2c0-5.3 4.3-9.6 9.6-9.6s9.6 4.3 9.6 9.6-4.3 9.6-9.6 9.6-9.6-4.3-9.6-9.6"/></svg>