<svg xmlns="http://www.w3.org/2000/svg" xml:space="preserve" style="enable-background:new 0 0 192 192" viewBox="0 0 192 192"><style>.st0{display:none}.st1{fill:none;stroke:#000;stroke-width:12;stroke-linecap:round;stroke-linejoin:round;stroke-miterlimit:3}.st1,.st2{display:inline}.st3{fill:none}.st4,.st5{fill:none;stroke:#000;stroke-width:12;stroke-linecap:round;stroke-linejoin:round;stroke-miterlimit:10}.st5{stroke-miterlimit:3}</style><g id="图层_9"><path d="M147.62 160.96H44.38c-6.01 0-10.89-4.87-10.89-10.89V69.81c0-6.01 4.87-10.89 10.89-10.89h103.25c6.01 0 10.89 4.87 10.89 10.89v80.26c-.01 6.01-4.88 10.89-10.9 10.89zM89.26 95.59h27.83M81.63 119.47l7.63-23.88M104.31 109.94l-5.98 19.05M71.11 119.47h30.21M71.11 31.04 52.26 48.89M92.56 47.13 71.11 31.04M81.83 58.93l10.73-11.8M83 39.96l36.98-6.03M125.14 58.93l-5.16-25M61.69 58.93l-9.43-10.04" class="st4"/></g></svg>