<svg xmlns="http://www.w3.org/2000/svg" xml:space="preserve" id="图层_1" x="0" y="0" style="enable-background:new 0 0 192 192" version="1.1" viewBox="0 0 192 192"><style>.st0{stroke:#000;stroke-width:12;stroke-linecap:round;stroke-linejoin:round;stroke-miterlimit:10}</style><path d="M89.1 136.3c-2.2 2.9-5.7 4.8-9.6 4.8-6.6 0-12-5.4-12-12s5.4-12 12-12c3.9 0 7.4 1.9 9.6 4.8.1.1.3.3.3-.3v-21.5c0-.3-.2-.6-.6-.6H67.4c-.5 0-.4-.2-.3-.3 2.9-2.2 4.8-5.7 4.8-9.6 0-6.6-5.4-12-12-12s-12 5.4-12 12c0 3.9 1.9 7.4 4.8 9.6.2.1.1.3-.3.3H31.7c-.6 0-1.1.4-1.1 1.1v43.7c0 7.7 6.3 14 14 14h43.7c.8 0 1.1-.6 1.1-1.1v-20.6c0-.4-.2-.5-.3-.3z" class="st0"/><path d="M147.1 99.5c.5 0 1.1.2 1.1 1.1v43.7c0 7.7-6.3 14-14 14H90.5c-.6 0-1.1-.4-1.1-1.1v-20.5c0-.3-.1-.4-.2-.4 0 0-.1 0-.1.1-2.2 2.9-5.7 4.8-9.6 4.8-6.6 0-12-5.4-12-12s5.4-12 12-12c3.9 0 7.4 1.9 9.6 4.8 0 .1.1.1.2.1s.1-.1.1-.4v-21.5c0-.4.2-.6.6-.6h21.5c.5 0 .4.2.3.3-2.9 2.2-4.8 5.7-4.8 9.6 0 6.6 5.4 12 12 12s12-5.4 12-12c0-3.9-1.9-7.4-4.8-9.6-.2-.1-.1-.3.3-.3 0-.1 20.1-.1 20.6-.1zm-.8 1.8h-16c1.6 2.3 2.6 5.1 2.6 8 0 7.7-6.2 13.9-13.9 13.9s-13.9-6.2-13.9-13.9c0-2.9.9-5.7 2.6-8H91.3v20.2c0 1.8-1.3 2.2-2 2.2-.4 0-1.1-.1-1.6-.9-1.9-2.6-4.9-4.1-8.1-4.1-5.6 0-10.2 4.6-10.2 10.2s4.6 10.2 10.2 10.2c3.2 0 6.1-1.5 8.1-4 .4-.5 1-.8 1.6-.8 1 0 2.1.8 2.1 2.3v19.7h42.9c6.7 0 12.1-5.4 12.1-12.1l-.1-42.9h0zM108.1 51c1-3.5 3.6-6.4 7.3-7.8 6.2-2.3 13.2.8 15.5 7 2.3 6.2-.8 13.2-7 15.5-3.7 1.4-7.6.8-10.7-1.1-.1-.1-.4-.2-.2.3 0 0 7.4 19.8 7.5 20.1.1.3.4.5.7.3l20.1-7.5c.5-.2.4 0 .3.2-2 3.1-2.5 7-1.1 10.7 2.3 6.2 9.3 9.4 15.5 7 6.2-2.3 9.4-9.3 7-15.5-1.4-3.7-4.3-6.3-7.8-7.3-.2-.1-.2-.3.2-.4l19.2-7.2c.6-.2.8-.7.6-1.3-.2-.6-15.3-40.9-15.3-40.9-2.7-7.2-10.8-10.9-18-8.2L101 30.3c-.8.3-.8.9-.6 1.3.2.4 7.2 19.2 7.2 19.2.3.4.5.4.5.2h0zM88.3 40.7c.6 0 1.1.4 1.1 1.1v20.6c0 .3.1.4.2.4s.1 0 .1-.1c2.2-2.9 5.7-4.8 9.6-4.8 6.6 0 12 5.4 12 12s-5.4 12-12 12c-3.9 0-7.4-1.9-9.6-4.8 0-.1-.1-.1-.2-.1s-.1.1-.1.4v21.5c0 .4-.2.6-.6.6H67.3c-.5 0-.4-.2-.3-.3 2.9-2.2 4.8-5.7 4.8-9.6 0-6.6-5.4-12-12-12s-12 5.4-12 12c0 3.9 1.9 7.4 4.8 9.6.2.1.1.3-.3.3H31.7c-.5 0-1.1-.2-1.1-1.1V54.7c0-7.7 6.3-14 14-14h43.7zm-.8 1.9H44.6c-6.7 0-12.1 5.4-12.1 12.1v42.9h16c-1.6-2.3-2.6-5.1-2.6-8 0-7.7 6.2-13.9 13.9-13.9s13.9 6.2 13.9 13.9c0 2.9-.9 5.7-2.6 8h16.3V77.4c0-1.8 1.3-2.2 2-2.2.4 0 1.1.1 1.6.9 1.9 2.6 4.9 4.1 8.1 4.1 5.6 0 10.2-4.6 10.2-10.2s-4.6-10.2-10.2-10.2c-3.2 0-6.1 1.5-8.1 4-.4.5-1 .8-1.6.8-1 0-2.1-.8-2.1-2.3.2 0 .2-19.7.2-19.7z" class="st0"/></svg>