<svg xmlns="http://www.w3.org/2000/svg" xml:space="preserve" style="enable-background:new 0 0 192 192" viewBox="0 0 192 192"><style>.st0{display:none}.st1{fill:none;stroke:#000;stroke-width:12;stroke-linecap:round;stroke-linejoin:round;stroke-miterlimit:3}.st1,.st2,.st3{display:inline}.st3{fill:none}.st4{fill:none;stroke:#000;stroke-width:8;stroke-linecap:round;stroke-linejoin:round;stroke-miterlimit:10}.st4,.st5{display:inline}.st5,.st6{fill:none;stroke:#000;stroke-width:7;stroke-linecap:round;stroke-linejoin:round;stroke-miterlimit:10}.st8{display:inline;fill:#231f20}.st10,.st12{fill:none;stroke:#000;stroke-width:6;stroke-linecap:round;stroke-linejoin:round;stroke-miterlimit:10}.st12{stroke-width:12}</style><g id="图层_12"><path d="M156.7 167.6H35.3c-6 0-10.9-4.9-10.9-10.9V35.3c0-6 4.9-10.9 10.9-10.9h121.4c6 0 10.9 4.9 10.9 10.9v121.4c0 6-4.9 10.9-10.9 10.9zM112.4 24.4v143.2" class="st12"/><path d="M112 73.3H60.6c-2 0-3.6-1.6-3.6-3.6V54.4c0-2 1.6-3.6 3.6-3.6H112c2 0 3.6 1.6 3.6 3.6v15.3c0 2-1.6 3.6-3.6 3.6zM61.9 57.4v9.3c0 1.1.9 2 2 2h9.3c1.1 0 2-.9 2-2v-9.3c0-1.1-.9-2-2-2h-9.3c-1.1.1-2 1-2 2zM112 101H60.6c-2 0-3.6-1.6-3.6-3.6V82.1c0-2 1.6-3.6 3.6-3.6H112c2 0 3.6 1.6 3.6 3.6v15.3c0 2-1.6 3.6-3.6 3.6zM61.9 85.2v9.3c0 1.1.9 2 2 2h9.3c1.1 0 2-.9 2-2v-9.3c0-1.1-.9-2-2-2h-9.3c-1.1 0-2 .9-2 2zM112 128.8H60.6c-2 0-3.6-1.6-3.6-3.6v-15.3c0-2 1.6-3.6 3.6-3.6H112c2 0 3.6 1.6 3.6 3.6v15.3c0 1.9-1.6 3.6-3.6 3.6zm-50.1-15.9v9.3c0 1.1.9 2 2 2h9.3c1.1 0 2-.9 2-2v-9.3c0-1.1-.9-2-2-2h-9.3c-1.1 0-2 .9-2 2z"/></g></svg>