<svg xmlns="http://www.w3.org/2000/svg" xml:space="preserve" style="enable-background:new 0 0 192 192" viewBox="0 0 192 192"><style>.st0{display:none}.st1{display:inline;fill:none;stroke:#000;stroke-width:12;stroke-linecap:round;stroke-linejoin:round;stroke-miterlimit:3}</style><g id="图层_4"><path d="M96 39.53a6.28 6.28 0 0 1 6.27 6.04V146.19c0 3.47-2.8 6.28-6.27 6.28-3.38 0-6.15-2.67-6.28-6.05V45.81c.01-3.47 2.82-6.28 6.28-6.28z"/><path d="M72.75 22.54a6.265 6.265 0 0 1 8.68-.18l.19.18L96 36.93l14.39-14.39a6.265 6.265 0 0 1 8.68-.18l.19.18a6.265 6.265 0 0 1 .18 8.68l-.18.19-18.82 18.82a6.265 6.265 0 0 1-8.68.18l-.19-.18-18.82-18.81c-2.45-2.45-2.46-6.43 0-8.88zm18.82 119.21a6.265 6.265 0 0 1 8.68-.18l.19.18 18.82 18.82a6.271 6.271 0 0 1-8.68 9.05l-.19-.18L96 155.06l-14.39 14.39a6.265 6.265 0 0 1-8.68.18l-.19-.18a6.265 6.265 0 0 1-.18-8.68l.18-.19 18.83-18.83zM47.1 67.76c1.68-2.92 5.37-3.98 8.35-2.42l.22.12 86.93 50.19c3 1.74 4.02 5.58 2.28 8.57a6.272 6.272 0 0 1-8.34 2.41l-.22-.12L49.4 76.33c-3-1.73-4.03-5.57-2.3-8.57z"/><path d="M44.02 39.13c3.26-.87 6.62.99 7.62 4.21l.06.23 6.89 25.71c.87 3.26-.99 6.62-4.21 7.62l-.23.07-25.71 6.89c-3.35.9-6.79-1.08-7.69-4.43a6.27 6.27 0 0 1 4.21-7.62l.23-.06 19.65-5.27-5.26-19.65c-.87-3.26.99-6.62 4.21-7.62 0-.01.23-.08.23-.08zm119.53 69.02c3.34-.9 6.79 1.07 7.69 4.42a6.28 6.28 0 0 1-4.22 7.64l-.23.06-19.65 5.26 5.26 19.65c.87 3.26-.99 6.62-4.21 7.62l-.23.06c-3.26.87-6.62-.99-7.62-4.21l-.06-.23-6.89-25.71c-.87-3.26.99-6.62 4.21-7.62l.23-.07 25.72-6.87zm-27.22-42.68c3-1.73 6.84-.7 8.57 2.31 1.68 2.91.76 6.63-2.08 8.43l-.21.13-86.93 50.19c-3 1.73-6.84.7-8.57-2.31a6.272 6.272 0 0 1 2.08-8.43l.21-.13 86.93-50.19z"/><path d="M20.76 112.6c.87-3.26 4.17-5.24 7.46-4.49l.23.06 25.71 6.89c3.26.87 5.24 4.17 4.49 7.46l-.06.23-6.89 25.71a6.272 6.272 0 0 1-7.69 4.43 6.268 6.268 0 0 1-4.49-7.45l.06-.23 5.26-19.65-19.65-5.26c-3.26-.87-5.24-4.17-4.49-7.46l.06-.24zM140.3 43.58c.88-3.35 4.31-5.35 7.67-4.47a6.27 6.27 0 0 1 4.51 7.49l-.06.23-5.26 19.65 19.65 5.27c3.26.87 5.24 4.17 4.49 7.46l-.06.23c-.87 3.26-4.17 5.24-7.46 4.49l-.23-.06-25.71-6.89c-3.26-.87-5.24-4.17-4.49-7.46l.06-.23 6.89-25.71z"/></g></svg>