<svg xmlns="http://www.w3.org/2000/svg" xml:space="preserve" id="图层_2" x="0" y="0" style="enable-background:new 0 0 192 192" version="1.1" viewBox="0 0 192 192"><style>.st1{fill:none;stroke:#000;stroke-miterlimit:10}</style><path id="图层_2_00000008842139494801095630000007668944406112279698_" d="M120.11 138.99c-1.05 4.54-3.38 14.08-11.66 22.27-7.67 7.58-16.27 9.88-19.79 10.78-12.57 3.2-32.21 2.55-36.05-6.89-1.9-4.66.28-10.92 3.18-14.67 1.09-1.41 2.8-3.11 8.31-5.83 12.61-6.22 18.19-4.47 22.98-9.37 2-2.04 4.31-5.71 4.6-12.73-1.46-33.74-2.48-58.28-2.47-65.39 0-1.58.06-4.1-1.2-6.96-2.04-4.62-5.33-5.22-7.28-9.3 0 0-1.96-4.11-.71-9.37 1.83-7.67 13.71-13.88 29.16-13.26 11.04-.41 20.05 5.63 21.92 13.26.98 3.99.15 9-2.3 13.08-2.08 3.46-4.82 5.42-6.36 6.36-.29.54-.65 1.31-.99 2.25-1.2 3.39-1.01 6.31-.95 7.29.9 15 .88 62.78.88 64.33-.03 5.5-.15 9.3-1.27 14.15z" style="fill:none;stroke:#000;stroke-width:12;stroke-linecap:round;stroke-linejoin:round;stroke-miterlimit:10"/></svg>