<svg xmlns="http://www.w3.org/2000/svg" xml:space="preserve" style="enable-background:new 0 0 192 192" viewBox="0 0 192 192"><path d="m22.81 129.86 8.24-9.24c5.09 8.27 11.81 12.37 18.4 12.37 11.59 0 16.96-6.36 16.96-21.87V58.54h-36.2V45.82h49.83v66.55c0 18.56-7.68 33.82-30.22 33.82-9.8-.01-20.44-4.89-27.01-16.33zM100.53 70.93h10.44l1.07 9.51h.32c3.14-6.57 7.23-11.31 14.81-11.31 6.29 0 10.37 4.21 12.18 12.51 3.42-7.54 7.63-12.51 15.19-12.51 9.25 0 14.64 8.28 14.64 22.94v52.31h-13.05V93.14c0-7.44-1.85-11.23-6.12-11.23-4.05 0-6.29 3.39-9.37 10.24v52.24h-11.59V93.14c0-7.44-1.71-11.23-5.98-11.23-4.02 0-6.66 3.39-9.51 10.24v52.24h-13.05V70.93z"/></svg>