<svg xmlns="http://www.w3.org/2000/svg" xml:space="preserve" style="enable-background:new 0 0 192 192" viewBox="0 0 192 192"><style>.st0{display:none}.st1{fill:none;stroke:#000;stroke-width:12;stroke-linecap:round;stroke-linejoin:round;stroke-miterlimit:3}.st1,.st2,.st3{display:inline}.st3{fill:none}.st4{fill:none;stroke:#000;stroke-width:8;stroke-linecap:round;stroke-linejoin:round;stroke-miterlimit:10}.st4,.st5{display:inline}.st5,.st6{fill:none;stroke:#000;stroke-width:7;stroke-linecap:round;stroke-linejoin:round;stroke-miterlimit:10}.st8{display:inline;fill:#231f20}.st10,.st11,.st12,.st14{fill:none;stroke:#000;stroke-width:6;stroke-linecap:round;stroke-linejoin:round;stroke-miterlimit:10}.st11,.st12,.st14{stroke-width:12}.st12,.st14{display:inline;stroke-width:16}.st14{stroke-width:10}</style><path id="图层_19" d="M154.2 147c1.5 1.5 1.5 4 0 5.6-1.6 1.5-4 1.4-5.6-.1l-24.4-24.3c-1.5-1.6-1.5-4.1.1-5.6 1.5-1.5 4-1.5 5.6 0l24.3 24.4zM143.5 9.8c2.6 0 5.2.2 7.7.8 2.6.5 5.1 1.2 7.5 2.3 3.3 1.5 4.9 5.3 3.4 8.7-.3.8-.8 1.5-1.4 2.1-5 5-10.1 10-15.1 15l.9 3 .8 3.1 3.1.8 3 .8 15-15c2.5-2.6 6.8-2.6 9.4 0 .8.8 1.3 1.8 1.6 2.8.9 2.2 1.6 4.4 2 6.7v.1c.5 2.5.8 5.1.8 7.7 0 21.4-17.4 38.7-38.7 38.7h-2.3l-7.3 7.2 40.3 40.3.3.4c10.3 10.7 10.2 27.7-.3 38.2l-.1.1c-5.1 5.1-12 7.9-19.2 7.9-7 0-14.1-2.6-19.3-8l-40.4-40.4L54 174.4c-8.6 8.6-19 9.4-27.5 5.7-3.3-1.4-6.2-3.4-8.7-5.9-2.5-2.5-4.5-5.4-5.8-8.6-3.7-8.5-2.9-18.9 5.7-27.5v-.1l46-46-16.9-16.8-15-4.5c-1.9-.5-3.5-1.9-4.2-3.7L13.2 33.4c-1.3-2.6-.9-5.7 1.2-7.7l6-6 5.9-5.9c1.9-1.9 4.8-2.5 7.2-1.4l34 14.5c1.8.8 3.2 2.3 3.8 4.2l4.4 15 16.8 16.8 12.1-12c0-.9-.1-1.6-.1-2.3 0-10.3 4-20.2 11.3-27.5 7.5-7.2 17.4-11.3 27.7-11.3zm-19 94.1-19.8 19.8 40.4 40.3c5.5 5.5 14.3 5.5 19.8.1h.1c2.7-2.6 4-6.4 4-9.9 0-3.6-1.3-7-3.8-9.6l-.3-.3-40.4-40.4zM72.9 82.7l10.4-10.3-18-18.1c-.9-.9-1.5-2-1.8-3.3l-3.9-13.2-27.1-11.4-2.8 2.7-2.7 2.8L38.5 59l13.6 4c1.1.3 2.1.9 2.8 1.7l18 18zm69.6-59.6c-6.5.2-12.6 2.9-17.1 7.5-4.8 4.8-7.5 11.3-7.5 18.1h.1v1.8l.2 1.5c.5 2.1-.2 4.3-1.8 6L27 147.3c-4.1 4.3-4.6 9.1-2.9 13.1.8 1.6 1.8 3.1 3.1 4.4 1.3 1.3 2.8 2.3 4.5 3.1 4 1.7 8.8 1.3 13-2.9l45.8-45.8.2-.2 29.2-29.2.2-.2 14-13.9c1.4-1.5 3.5-2.3 5.6-1.9.7.1 1.3.2 2 .2.5 0 1.1.1 1.9.1 6.8 0 13.2-2.7 18.1-7.4v-.1c4.5-4.6 7.2-10.7 7.4-17.1-2.9 2.9-5.7 5.7-8.6 8.7-1.6 1.8-4.1 2.6-6.7 2l-6.7-1.8-6.8-1.8c-2.3-.6-4.1-2.3-4.7-4.7l-1.8-6.8-1.8-6.8c-.5-2.1 0-4.6 1.7-6.3 2.8-3 5.8-5.9 8.8-8.9z"/></svg>