<svg xmlns="http://www.w3.org/2000/svg" xml:space="preserve" id="图层_1" x="0" y="0" style="enable-background:new 0 0 192 192" version="1.1" viewBox="0 0 192 192"><style>.st0{display:none}.st1{fill:none;stroke:#000;stroke-width:12;stroke-linecap:round;stroke-linejoin:round;stroke-miterlimit:3}.st1,.st2{display:inline}.st3{fill:none}.st4,.st5{stroke-linecap:round;stroke-linejoin:round}.st4{fill:none;stroke:#000;stroke-width:12;stroke-miterlimit:10}.st5{stroke-miterlimit:3}.st5,.st6,.st7{fill:none;stroke:#000;stroke-width:12}.st7{fill:#fff;stroke-width:5;stroke-miterlimit:10}</style><g id="图层_13"><path d="M96 45.9s-7.2 47 0 53.4c7.2-6.4 0-53.4 0-53.4zm14.3 92.9c-3.9-1.8-8.1-2.3-11-2.4-2-.1-3.3 0-3.3 0s-1.3-.1-3.3 0c-2.8.1-7.1.6-11 2.4h-.1c0 .1 2.2 6.2 14.4 6.2 12.1 0 14.3-6.1 14.3-6.2z" class="st7"/><path d="M96 20.8c-30.6 0-55.5 26.1-55.5 58.2 0 9.4 1 19.6 1.8 26.4.3 3.2.7 6.3 1.2 9.2l.4 2.5.1.1c6.6 31.9 27.8 54 52.1 54 24.9 0 46.5-23.1 52.5-56.4.5-3 .9-6.1 1.2-9.2.8-6.9 1.8-17.1 1.8-26.6-.1-32.1-25-58.2-55.6-58.2zM51 62.5c3.5 6.7 10.5 17.6 19.3 17.6 12.7 0 9.8 13.9-1.4 9-9.8-4.3-11.8-13-20.3-15.7.5-3.8 1.3-7.5 2.4-10.9zm30.6 34.4s-4.8 6.6-17.2-1.7c.1 0 16.7-5 17.2 1.7zm32.4 61.2c-5.6 3.4-11.6 5.3-18 5.3s-12.4-1.9-18-5.3c-4.8-11.4-1.4-17.2 3.6-20 0 0 .1 0 .1-.1 3.9-2 8.1-2.6 11-2.7 2-.1 3.3 0 3.3 0s1.3-.1 3.3 0c2.8.1 7.1.7 11 2.7 0 0 .1 0 .1.1 5 2.8 8.3 8.5 3.6 20zm27.9-53.3c-.2 3-.6 5.9-1.1 8.6v.1c-2.2 12.1-6.6 22.7-12.6 30.9.9-12.7-9.7-15.2-12.2-24.3-2.6-9.4-9.7-12.2-11.1-10.6-1.4 1.6 5.5 8.7 3.6 13.1s-4.4 1.7-5.8-.8c-1.8-3.4-3.2 3.5-6.8 3.5-3.6 0-5-6.9-6.8-3.5-1.3 2.5-3.8 5.2-5.8.8-1.9-4.4 5-11.5 3.6-13.1-1.4-1.6-8.5 1.2-11.1 10.6-2.5 9.1-13.1 11.6-12.2 24.3-5.9-8.3-10.4-18.9-12.6-31-.5-2.7-.9-5.6-1.1-8.7-.4-3.4-.8-7.7-1.2-12.3C53 100 61 108 76.1 108c9 0 9.2-8.7 9.2-17.1S85.8 71 80.5 71s-5.3 7-10.5 3.6c-4.9-3.1-8.2-7.8-8.7-30 8.7-9.8 21-16 34.7-16s26 6.2 34.7 16c-.6 22.2-3.9 26.8-8.7 30-5.3 3.4-5.3-3.6-10.5-3.6-5.3 0-4.8 11.4-4.8 19.9s.2 17.1 9.2 17.1c15.1 0 23.1-8 27.2-15.6-.3 4.6-.7 8.9-1.2 12.4zm-14.4-9.6c-12.3 8.2-17.1 1.7-17.1 1.7.5-6.7 17.1-1.7 17.1-1.7zM123 89c-11.2 4.9-14.1-9-1.4-9 8.8 0 15.8-10.9 19.3-17.6 1.1 3.5 2 7.1 2.4 10.8C134.8 76 132.9 84.7 123 89z" class="st7"/></g></svg>