<svg xmlns="http://www.w3.org/2000/svg" xml:space="preserve" style="enable-background:new 0 0 192 192" viewBox="0 0 192 192"><style>.st0{display:none}.st1{fill:none;stroke:#000;stroke-width:12;stroke-linecap:round;stroke-linejoin:round;stroke-miterlimit:3}.st1,.st2{display:inline}.st3{fill:none}.st4,.st5{stroke-linecap:round;stroke-linejoin:round}.st4{fill:none;stroke:#000;stroke-width:12;stroke-miterlimit:10}.st5{stroke-miterlimit:3}.st5,.st6,.st7{fill:none;stroke:#000;stroke-width:12}.st7{fill:#fff;stroke-width:6;stroke-miterlimit:10}</style><g id="图层_13"><path d="M96 45.86s-7.22 46.99 0 53.39c7.22-6.39 0-53.39 0-53.39zm14.3 92.95c-3.89-1.75-8.12-2.26-10.97-2.38-1.98-.07-3.33.03-3.33.03s-1.34-.1-3.33-.03c-2.84.12-7.08.62-10.97 2.38-.03.01-.05.03-.08.04.03.09 2.22 6.17 14.38 6.17 12.14 0 14.35-6.1 14.38-6.17-.03-.01-.05-.03-.08-.04z" class="st7"/><path d="M96 20.83c-30.59 0-55.5 26.11-55.5 58.21 0 9.4.95 19.63 1.75 26.44.28 3.22.69 6.34 1.19 9.15l.36 2.53.13.05c6.59 31.88 27.75 53.96 52.07 53.96 24.89 0 46.48-23.12 52.54-56.4.54-2.96.95-6.1 1.21-9.2.8-6.91 1.75-17.14 1.75-26.56 0-32.07-24.91-58.18-55.5-58.18zM51.04 62.48c3.46 6.67 10.49 17.57 19.32 17.57 12.73 0 9.84 13.91-1.36 8.99-9.85-4.33-11.77-13.02-20.33-15.72a53.09 53.09 0 0 1 2.37-10.84zM81.62 96.9s-4.79 6.55-17.16-1.7c0 .02 16.65-4.97 17.16 1.7zm32.34 61.17c-5.56 3.38-11.64 5.26-17.96 5.26s-12.4-1.88-17.96-5.26c-4.76-11.42-1.44-17.16 3.6-20 .03-.02.05-.03.08-.05 3.89-1.98 8.12-2.55 10.97-2.68 1.98-.08 3.33.03 3.33.03s1.34-.11 3.33-.03c2.84.13 7.08.7 10.97 2.68.03.02.05.03.08.05 5 2.84 8.32 8.56 3.56 20zm27.98-53.26c-.25 2.97-.64 5.87-1.13 8.58l-.02.11c-2.21 12.11-6.65 22.67-12.57 30.94.9-12.71-9.66-15.25-12.19-24.35-2.6-9.38-9.72-12.21-11.08-10.64-1.36 1.59 5.54 8.71 3.61 13.12-1.93 4.41-4.43 1.73-5.77-.78-1.81-3.4-3.17 3.51-6.8 3.51s-4.98-6.9-6.8-3.51c-1.34 2.52-3.84 5.2-5.77.78-1.93-4.41 4.98-11.54 3.61-13.12-1.36-1.59-8.48 1.24-11.08 10.64-2.52 9.09-13.07 11.64-12.19 24.33-5.93-8.29-10.38-18.88-12.6-31.03-.49-2.73-.87-5.61-1.13-8.69-.39-3.43-.83-7.71-1.16-12.29 4.18 7.62 12.17 15.64 27.24 15.64 8.99 0 9.17-8.65 9.17-17.13s.51-19.86-4.76-19.86c-5.26 0-5.26 6.96-10.52 3.56-4.87-3.14-8.15-7.8-8.74-29.97 8.69-9.81 21.03-15.98 34.71-15.98s26.02 6.18 34.71 15.98c-.59 22.18-3.87 26.83-8.74 29.97-5.26 3.4-5.26-3.56-10.52-3.56s-4.76 11.37-4.76 19.86.16 17.13 9.17 17.13c15.08 0 23.06-8.02 27.24-15.64-.3 4.59-.72 8.9-1.13 12.4zm-14.45-9.59c-12.34 8.25-17.11 1.68-17.11 1.68.51-6.67 17.11-1.68 17.11-1.68zm-4.51-6.18c-11.19 4.92-14.09-8.99-1.36-8.99 8.84 0 15.85-10.9 19.32-17.57 1.14 3.46 1.96 7.08 2.37 10.83-8.55 2.72-10.46 11.4-20.33 15.73z" class="st7"/></g></svg>