<svg xmlns="http://www.w3.org/2000/svg" xml:space="preserve" id="图层_1" x="0" y="0" style="enable-background:new 0 0 192 192" version="1.1" viewBox="0 0 192 192"><style>.st0{display:none}.st1{display:inline}.st2{fill:none;stroke:#000;stroke-width:12;stroke-linecap:round;stroke-linejoin:round;stroke-miterlimit:3}.st3{display:inline;fill:none}.st4{fill:none;stroke:#000;stroke-width:8;stroke-linecap:round;stroke-linejoin:round;stroke-miterlimit:10}.st4,.st5{display:inline}.st5,.st8{fill:none;stroke:#000;stroke-width:7;stroke-linecap:round;stroke-linejoin:round;stroke-miterlimit:10}.st10{display:inline;fill:#231f20}.st12,.st13{fill:none;stroke:#000;stroke-width:6;stroke-linecap:round;stroke-linejoin:round;stroke-miterlimit:10}.st13{stroke-width:12}.st14{display:inline;stroke-width:16}.st14,.st16,.st17{fill:none;stroke:#000;stroke-linecap:round;stroke-linejoin:round;stroke-miterlimit:10}.st16{display:inline;stroke-width:10}.st17{stroke-width:11}</style><path d="M20.7 15.2h26.5l5.9 147.6 13.3 12.7-52-4.3zM72 15.2h35.8l-4 88.4 44-49.6 29.8 37.2-8.5 6.8-9.7-6.8-5.9 6.1 7.5 9.3-6.2 6-9.3-9.6-8.6 9.6 9 9.9-4.7 3.3-8.9-7.9-7.5 6.2 33.9 31.9 18.9-2.7-24.8 22.2-51.3-31.1-1.7 32.4H75z" class="st17"/><path d="M142.9 49c0-2.9-.2-6.9-1.6-11.6-1.2-3.9-2.9-7.1-4.3-9.3-2.5-1.9-5.9-2.2-8.6-.7-3 1.7-4.5 5.5-3.5 8.9 1.7 2.2 4.4 5.2 8.4 8 3.6 2.5 7 3.8 9.6 4.7zM150.5 45.3c2-.4 5.9-1.5 9.6-5 2-1.9 3.3-3.8 3.9-5.3 2-2.9 1.2-6.8-1.3-8.6-2.8-2-7.1-1.1-8.9 2.3-1 1.5-2.2 3.9-3 7-1 4.1-.7 7.5-.3 9.6z" class="st17"/><circle cx="118.4" cy="109.2" r="2.3" class="st17"/></svg>