<svg xmlns="http://www.w3.org/2000/svg" xml:space="preserve" style="enable-background:new 0 0 192 192" viewBox="0 0 192 192"><style>.st0{display:none}.st1{fill:none;stroke:#000;stroke-width:12;stroke-linecap:round;stroke-linejoin:round;stroke-miterlimit:3}.st1,.st2,.st3{display:inline}.st3{fill:none}.st4{fill:none;stroke:#000;stroke-width:8;stroke-linecap:round;stroke-linejoin:round;stroke-miterlimit:10}.st4,.st5{display:inline}.st5,.st6{fill:none;stroke:#000;stroke-width:7;stroke-linecap:round;stroke-linejoin:round;stroke-miterlimit:10}.st8{display:inline;fill:#231f20}.st10,.st11,.st12,.st14{fill:none;stroke:#000;stroke-width:6;stroke-linecap:round;stroke-linejoin:round;stroke-miterlimit:10}.st11,.st12,.st14{stroke-width:12}.st12,.st14{display:inline;stroke-width:16}.st14{stroke-width:10}</style><g id="图层_17"><path d="M17.5 11.8h27.6l6.2 153.8 13.8 13.3-54.2-4.5zM71 11.8h37.3l-4.2 92.1L150 52.2 181.1 91l-8.9 7.1-10.1-7.1-6.2 6.4 7.9 9.6-6.5 6.3-9.7-10-9 10 9.4 10.3-4.9 3.5-9.3-8.3-7.8 6.5 35.4 33.2 19.7-2.8-25.9 23.2-53.5-32.5-1.7 33.8H74.1z" class="st6"/><path d="M144.9 47c0-3-.2-7.2-1.7-12.1-1.3-4.1-3-7.4-4.5-9.7-2.6-2-6.2-2.3-9-.7-3.1 1.8-4.7 5.7-3.6 9.3 1.8 2.3 4.6 5.4 8.8 8.3 3.7 2.6 7.3 4 10 4.9zM152.8 43.2c2.1-.4 6.2-1.6 10-5.2 2.1-2 3.4-4 4.1-5.5 2.1-3 1.3-7.1-1.4-9-2.9-2.1-7.4-1.1-9.3 2.4-1 1.6-2.3 4.1-3.1 7.3-1 4.2-.7 7.8-.3 10z" class="st6"/><circle cx="118.4" cy="108.8" r="2.4" class="st6"/></g></svg>