<svg xmlns="http://www.w3.org/2000/svg" xml:space="preserve" style="enable-background:new 0 0 192 192" viewBox="0 0 192 192"><path d="M53.3 96 24.4 67c-1.5-1.5-2.4-3.6-2.4-5.7v-.1c0-2.1.8-4.1 2.4-5.8l31.1-31.1c1.7-1.6 3.8-2.4 5.8-2.4h.1c2.1 0 4.2.9 5.7 2.4l29 28.9L125 24.4c1.5-1.5 3.6-2.4 5.8-2.4 2.1 0 4.2.8 5.8 2.4l31.1 31.1c1.6 1.7 2.4 3.8 2.4 5.8 0 2.1-.8 4.2-2.4 5.8L96 138.7M138.7 96l28.9 28.9c1.6 1.6 2.4 3.7 2.4 5.8 0 2.1-.8 4.2-2.4 5.8l-31.1 31.1c-1.5 1.5-3.6 2.4-5.8 2.4-2.1 0-4.2-.8-5.8-2.4L96 138.7l-29 28.9c-1.5 1.5-3.6 2.4-5.8 2.4s-4.2-.9-5.8-2.4l-31.1-31.1c-1.5-1.5-2.4-3.6-2.4-5.8 0-2.1.8-4.2 2.4-5.8L96 53.3" style="fill:none;stroke:#000;stroke-width:12;stroke-miterlimit:15.1181"/><path d="M76.1 91.7c-2.3 2.3-2.3 6.1 0 8.5 2.3 2.3 6.2 2.3 8.5 0s2.3-6.1 0-8.5c-2.3-2.3-6.1-2.3-8.5 0zm15.6 24.2c2.4 2.3 6.2 2.3 8.5 0 2.3-2.4 2.3-6.1 0-8.5-2.3-2.3-6.1-2.3-8.5 0-2.3 2.3-2.3 6.1 0 8.5zm24.2-15.6c2.3-2.3 2.3-6.1 0-8.5-2.4-2.3-6.1-2.3-8.5 0-2.3 2.3-2.3 6.1 0 8.5 2.3 2.3 6.1 2.3 8.5 0zm-15.6-24.2c-2.3-2.3-6.1-2.3-8.5 0-2.3 2.4-2.3 6.1 0 8.5 2.3 2.3 6.2 2.3 8.5 0s2.3-6.1 0-8.5z"/></svg>