<svg xmlns="http://www.w3.org/2000/svg" xml:space="preserve" id="图层_2_00000045583375661689486370000002638800157959584642_" x="0" y="0" style="enable-background:new 0 0 192 192" version="1.1" viewBox="0 0 192 192"><style>.st0{fill:none;stroke:#000;stroke-width:3;stroke-linecap:round;stroke-linejoin:round;stroke-miterlimit:10}</style><path d="M111.4 83.6c.9.5 1.8.2 2.3-.3 1.7-1.9 3.6-3.6 5-5.7 3.1-4.5 5.9-9.1 8.4-14 1.3-2.6 2.7-5.2 3-8.2.1 1.7-.3 3.4-.9 5-.6 1.5-1.3 2.9-2.1 4.3-.6 1.1-1.1 2.2-.7 3.5.1.3.1.6.1.9-.1 2.2.9 3.6 3 4.3 1.1.4 1.4.9 2 1.8-1.6-.9-3-1.6-4.5-2.4.6 3.2 1.4 6.1 2.8 9.1.7-2 1.4-3.8 2-5.6.2-.5.4-1 .6-1.4.7-1.6 2.1-1.8 3.7-1.5.3-2.8.5-5.5.8-8.2.2 1.7 0 3.3-.1 4.9-.1.8-.2 1.6.8 2 .3.1.5.7.7 1.1.7 1.5 1.3 1.7 2.8 1 .7-.3 1.3-.8 2.2-.3-.1.9-1 .9-1.5 1.4.7.4 1.5.7 2.2 1.2.9.5 1.5 1.3 1.2 2.4-.6 2.3-1.4 4.6-2.2 6.9-.5 1.3-1.4 1.8-2.8 1.8-.7 0-1.1.1-1.1 1-1.3-1.7-3.1-2.2-5-2.5-1 2.9-3.1 5-5.4 7.3 1.7.4 3 .2 4.2-.5 2-1.1 4.1-2.2 6.4-3.5-1.2 6.4-3 12.3-7.5 17.2-.4-.1-.6-.5-.3-1.1.2-.4.7-.7.7-1.3-.4-.1-.6.2-.8.3-1.8 1.3-3.6 2.5-5.9 2.6-.8 0-1.4.6-2.2.8 2.4-1.7 3.5-4.2 4.9-6.7-1.3-.3-2.4-.9-3.8-.6-2.4.5-4.7 1.6-7.2 2.1-.9.2-.5.9-.2 1.3 1 1.6 1.9 3.1 3.4 4.3 1.8 1.5 3.9 2.7 5.9 3.9.3.2.7.3 1 .9-1.4-.5-2.7-.8-3.8-1.6-3.8-2.7-7.5-5.4-11.3-8-1.6-1.1-3.3-1.9-4.9-3-1.9-1.3-3.3-3.2-5.3-4.3-1-.6-1.9-1.4-2.9-2.1.3.7.1 1.4 0 2.1.5-.1.2-.6.5-.8.8.2.5.6.2 1-.8 1.3-1.7 2.6-2.5 3.9-.7-.5-.7-.5 0-1.4.3-.5.7-.9 1-1.5-.6.2-1.2.5-1.8.7.1 1-.2 1.9 0 2.9-1.1-.3-.6.5-.6.9.2 4.2 3.4 6 6.7 7.9-.2-.6-.5-.9-.8-1.1-2.5-2.1-3.6-5.1-5.3-7.7.5-.3.6.2.8.4.5.6.8 1.2 1.3 2 .4-.8.4-1.7 1.2-2 .8-.3 1.4.6 2.2.5.7-2 .7-3.3.1-4.1 1-.2 1.1 0 1 .9-.2 1.5-.4 2.9-.3 4.5-.3-.2-.5-.4-.8-.6-.7-.4-1.5-.7-2.2-.1-.8.6-1 1.5-.5 2.4.9 1.8 2.2 3.3 3.8 4.5 2.5 1.8 5.2 3.1 8.2 4.1 4.5 1.4 9.1 2.1 13.9 2.1.7 0 1.3-.1 2-.2.9-.2 1.5-.6 2.1-1.4.8-1.2 1.7-2.3 3.1-2.8-.8 1.3-2.2 1.9-3.1 3.5 2.6-1.3 3.6-3.8 5.8-5.1-1 0-1.5.8-2.3 1-.8.3-1.6 0-2.4-.3 0-.4.3-.3.5-.3 1.2.3 2.3-.1 3.4-.8.9-.6 2.3-.8 2-2.4-.2-1.1.1-2.3-.8-3.2.1-.3.3-.4.5-.5.9 2.3.9 2.3.7 5 1.5-1.9 3.5-3.6 3.6-6.3-.7 1.4-2.9.7-3.2 2.6.3-1.2 0-2.3.2-3.4.1-.6.8-1.2 1.1-1.9.5-1.4.7-2.9 1.1-4.3.2 1.9-.3 3.6-.7 5.4-.7.4-.9 1-.6 1.7.1.2.1.3.3.3.4-.1.1-.5.3-.7.3 0 .7.5.9-.2-.2-.5-.9-.6-.9-1.2h.1c1.6.7 2.6-.4 3.7-1.3 2.8-2.3 5.2-5 7.1-8 1.7-2.7 2.6-5.6 2.8-8.8.1-2.6.4-5.2 1.1-7.8.1-.4 0-.8.6-1-.2 1.5-.6 2.9-.7 4.4-.3 3.3-1 6.6-1.3 9.9-.6 6.5-1.2 13-.4 19.5.3 2.6.6 5.1 1.6 7.5.3.7.5 1.4 1.3 2v-9.3c.3.6.3 1 .3 1.4 0 2.5.1 5.1.1 7.6 0 1.7.5 3.3 1.3 4.9.7 1.5 1.2 3.2 1.6 4.8.2.9-.4 1.7-1.3 2.2-.6.3-1.1.7-1.4 1.5-.3-.6-.7-.4-1-.1-.3.2-.4.6-.2.8.5.4.1.6 0 .8-1 1.1-2.1 2.3-3.2 3.4-1-.9-1.8-2-2.2-3.2-.2-.4-.3-.8-.6-1.2-3.2-3.8-5.7-8-8.2-12.3-1-1.7-2-3.4-2.9-5.2.1 4.8.7 9.5.7 14.5 1.9-.8 3.6-1.7 5.6-1.7.4 2 .3 3.9.4 5.8 0 .8 0 1.7.1 2.5s-.3 1.1-1 1.3c-1.1.2-2.3.5-3.4.6-1 0-1.1.5-1 1.3.4 2.1.8 4.2 1.1 6.3.2.9.2 1.8.6 2.8 1.5-.5 2.9-.8 4.4-1 2.9-.5 5.3.3 7.1 2.8 1.7-.8 3.5-1.2 5.3-1.5 2-.3 3.9.3 5 2.1 1.3 1.9 1.8 3.9 1 6.3-1.4 4.4-4.3 7.1-8.4 8.7-1.3.5-2.7 1-4 1.4-.9.3-1.2.7-.8 1.6h-.6c0-.3.2-.6 0-1-.6.2-1.5-.1-1.4 1h-1.5c-.2-1.6.3-3.2.3-5-1.2 1.6-1.2 1.6-1.9 1.4.3-1.4 1.6-2.4 1.8-4.1-2.8 2.5-6.1 2.3-9.3 2.4-2.2 0-2.8-.5-3.2-2.7-.2-1.1-.3-2.1-.8-3.2-.6.2-.8.6-1.2 1-.2.3-.4.6-.2 1 1 1.6 2 3.2 2.9 4.8.8 1.4 1.7 2.7 2.1 4.3h-5.2c-.2-.5.1-.6.4-.8 1-.5 1.9-1.1 3-1.5-.1-.6-.4-1.2-.7-1.7-.4-.6-.8-.8-1.5-.4-2.1 1.2-4.4 1.6-6.7 2.1-3.4.7-6.8 1.2-10.2.9-1.2-.1-1.4 0-1.6 1.2h-.6c.1-.5.5-.9.7-1.3.3-.6.1-1.1-.4-1.6s-1-.4-1.5-.1c-.6.3-.6.8-.5 1.3.1.6.5 1.1.8 1.7h-.4l-.6-1.2c-.6-1.2 0-2.2 1.3-2.4.8-.1 1.3.4 1.6 1 .4.8 1 1.2 1.9 1.2 4.5 0 8.8-.7 13.1-1.8.7-.2 1-.6.8-1.4-.6-2.4-1.2-4.7-1.9-7.1.9 2.5 1.9 5.1 2.4 7.8.8-.4 1.5-.7 2.2-1.1-.6-.8-1.1-1.5-1.5-2.3-1.2-2.1-1.1-2.7.8-4.2.2-.2.6-.3.5-.7-.3-1.6-.6-3.3-1.3-5.1-.7 1-1.5 1.7-2.5 1.9-2.6.5-5.3.6-7.9.7-.7 0-1.1.2-1.4.7-.9 1.2-1.9 2.3-2.8 3.5-.4.5-1.1.8-1.3 1.5-1.8-2-3.7-4.1-5.5-6.1-.5-.5-1.1-.8-1.9-.9-2-.1-4-.3-5.9-1.6-1 2.4-2 4.6-3 6.8-1 2.1-.2 4.2-.1 6.2 0 .1.1.1.2.2.7-.2 1.7.1 2-.7.3-.9-.3-1.6-1.2-1.9.3-.3.5-.3.7-.2.7.5.9 1.3.8 2.1s-.7.9-1.4 1c-.5 0-1-.2-1.5.5-.1-1.6-.5-2.9-1.3-4.1.4.1.8.1.9-.4.2-.9.3-1.8.6-2.6s.2-1.5-.1-2.2c-.4-.8-.7-1.6-1-2.4-.5-1.2-.8-2.4-1.2-3.6-.4 2.5 0 5 .1 7.5.1 1.3.1 2.6.7 3.7-.7-.1-.4.4-.4.7.3 1.4.3 2.9 1.5 4.1 1.1 1 1.7 2.4 3.2 3.1h-5.4c-.8-3.5-1.9-6.9-3.3-10.2-.4-1-1.2-1.5-2.3-1.7.1 1.3.1 2.6.2 3.9.2 2.7.9 5.3.7 8h-.4c-.1-3.1-.5-6.1-2.2-8.7-.3-.5-.7-1.1-1.4-1-1.7.2-3.4.6-5.1 1.1.2 2.9.4 5.8.8 8.6h-.8l-2.7-8.1c-1.6 0-2.9.6-4.3 1-1.1.3-1.5 1-1.5 2.1v5h-.8c.1-2-.8-3.8-1.3-5.7-.3-1.4-.7-1.5-1.9-1-1.3.5-2.6 1.1-3.9 1.5-.4.2-.6.4-.7.8-.2 1.5-.5 2.9-.4 4.4h-.8c-.2-.7.1-1.5-.3-2.4-.1.9-.1 1.7-.1 2.4h-.6v-3.2c-.3.1-.5 0-.6.1-1.7.8-3.4 1.7-5 2.5-.3.1-.3.4-.3.6h-4.4c.3-2.4 1.1-4.7 1.8-7 .7-2.4 1.5-4.7 2.1-7.2.1-.3.2-.7 0-.8-.9-.9-.3-1.7 0-2.5 1-3 1.4-6.1 2.2-9.2-1.5 2.7-4.4 3.2-6.8 4.7-.8-1.2-1.2-2.6-2.2-3.7.6.1.5-.4.4-.7-.4-2-.9-4.1-1.1-6.3-.2.2-.3.3-.3.4 0 .2 0 .5-.1.7-.2 2 .4 3.8.9 5.7-1.2-2.1-1.4-4.3-1-6.6s.8-4.6 1.5-6.9c-.4-.4-.9-.7-1.5-.9-2.4 3.3-5.6 5.7-9.1 7.8.5-.5 1-1.1 1.4-1.6-2.4.4-4.7 1.3-7 1.8-2.4.4-4.8.7-7.4.4 2.5-1.6 4.2-3.8 5.9-5.9.9-1.1 1-2.2.7-3.4-.4-1.7-1.3-3.4-1.5-5.2v-.5c.3 0 .3.5.5.4 1-.7 1.8-1.5 3.1-2.1-.4.7-.8.8-1.1 1.1-.2.2-.4.4-.4.7.1.4.4.4.7.5.6.1 1.2 0 1.6-.2.4.1 0 .6.5.6-.1-1.3.1-2.7-.5-3.9-.1-.3 0-.5.3-.6s.4.2.4.5c0 .4-.2.8-.1 1.2.2.5-.1 1.2.6 1.5.6.2 1.1-.3 1.6-.7 3.4-3.1 6.8-6.2 10.1-9.3.6-.6 1.1-1.3.6-2.3-4.2.6-8.3 1.3-12.3 2.2-1.6.4-3.3.5-4.8 1.6-.6.4-.7.3-1.5.3 1-.8 2.1-1.5 2.2-3.2-1.3 1.1-2.3 2.3-3.3 3.4-.1.2-.1.3 0 .5.3.9.2 1.8.2 2.7 0 .7-.2 1.4.2 2.1l3.9-2.7c1.5-1 1.7-1.3 1.3-3.2-.1-.4 0-.5.4-.8 0 .6-.1 1.1 0 1.6.2 1.3-.4 2.2-1.5 2.8-1.1.6-2.2 1.3-3 2.4-.3.1-.7 0-.9.4.6 1.2 1.7 1.1 2.7-.3-.6.1-1.3.6-1.9-.1.7.1 1.3-.4 2-.4 1.5 0 2.3-.7 2.6-2.2.2 1.1-.1 2-.9 2.8-.8.8-1.8 1.3-2.8 1.9-.3.2-.6.2-.6.6-.6-.6-1.1-1.3-1.6-2.1-2.1 1.5-4.2 1.7-6.4.4-2.1-1.2-3.1-3.1-3.3-5.7 1 .6 2 1 3 1.1 2.3.2 4.3-.6 6-2.2 1.1-1.1 2.1-2.2 3.2-3.3 1-1.1 1.4-2.4 1.4-3.8.1-2.8.1-5.5.2-8.3 0-.8 0-1.6.5-2.3-.2 4.9.5 9.9-.7 14.9 2.5-3.9 3-8.3 3.8-12.7.4 2.5-.3 4.8-.7 7.2-.4 2.4-1.3 4.7-3.1 6.6.9-.1 1.5-.4 1.8-1.4.5-1.5 1.3-2.9 1.7-4.4.2-.6.8-.7 1.3-.5 1.6.4 2.7-.4 3.8-1.2.7-.5 1.4-1.1 2.3-1.4.9-.3 1-1.2.2-2.3-.4.1-.5.5-.6.8-1.1 2.2-3 3.4-5.4 3.8-1 .2-1.4-.4-1-1.3.9-1.9.8-4 1.2-6 .1-.3.1-.6.2-.9.2-1 .1-1.9-.5-2.8-1-1.4-1.6-3-1.7-4.8-.1-1.3-.5-2.6-.7-3.9 0-.3-.2-.5.2-.8.7.6 1 1.5 1.2 2.4.1.6.1 1.3 1.1 1.1.9-.2.7-.9.7-1.5-.4-2.9-1.1-5.7-1.3-8.5l-.3-3c-.1-1.2-.4-1.6-1.6-1.5-1.2.1-1.3-.4-1.3-1.3.2-3.6.3-7.1 1-10.6.4-2.1 1.5-3.8 2.3-5.7 1.5-3.8 4.4-6.4 7.9-8.4.1 0 .1-.1.2-.1.7-.2 1.4-.6 1.9.2s-.3 1.3-.9 1.6c-.7.5-1.6.8-2.3 1.2-1.1.6-1.3 1.1-.9 2.3.3.8.1 1.5-.2 2.2-2.1 6.3-4.1 12.6-4.4 19.2 0 .8-.3 1.6-.4 2.5-.4 2.3.2 4.5.5 6.7.6 3.5.7 6.9.4 10.5-.1 1.2 0 2.4 0 3.5.1 1.9-.3 3.8-.9 5.6-.1.4-.2.7-.2 1.1 2.5 0 4.9-2.4 5.4-5.4.6.1.7.6.8 1 1.3 3 2.8 5.9 4.4 8.8.4.8.8 1.3 1.9 1.6 1.4.4 2.7 1.2 4 1.9 1.6.9 3.3 1.1 5 1.1.9 0 1.8-.2 2.7-.3.1-.3-.1-.5-.2-.6-2.8-2.4-4.3-5.6-5.6-8.9-.7-1.7-1.6-3-3.2-4-1-.6-1.8-1.4-1.9-2.7.4-.1.4.2.5.4.7 1.1 1.7 1.8 2.7 2.5.3.2.6.3.9 0 .8-.7 1.6-1.4 2.5-2.2-1.6-.7-2.7-1.8-3.5-3.2-.6.3-1 .8-1.4 1.4s-.9 1.3-1.5.1c-.1-.3-.4-.2-.7-.1-1.2.2-2.5.3-3.7.5-.6.1-1.2 0-.8 1.3-1.2-1.1-2.4-1.4-3.4-1.9-.8-.4-1-1.2-1.1-2-.6-4.2-1.7-8.3-2-12.6 0-.8.3-1.2.9-1.7.3.8.4 1.7.9 2.3-1.1 1.2-.9 1.6-.6 4.3 1-1 1.3-2.7 3.2-1.9 0-.2 0-.4-.1-.4-1.7-.6-2.2-1.9-2.1-3.6.2-3.4-.5-6.8.3-10.1.1-.4 0-1 .5-1 .6-.1.6.5.8.9.3.5 0 1.1.1 1.8.9-.3 1.3-1 1.5-1.8.9-3.1 2.4-5.8 3.7-8.7.1-.2.1-.3.4-.3.2.4-.1.6-.2.9-1.3 3.7-2.8 7.3-3.7 11.1-.3 1.1-1 1.6-2.1 1.7-.4.1-.8.1-.8.7 0 2.3-.1 4.7.2 7.2 1.2-.5 2.2 0 3.1.7 1 .6 1.7.4 2.4-.6.1-.2.3-.5.5-.6 1.3-.6 1.2-1.7 1.2-2.8-.1-2.4-.2-4.8.4-7.1v-.6c-.4-.3-.7.3-1.1.1-.2-.5 0-.9 0-1.4.3-2.6.6-5.2 1.5-7.6 1.1-3.2 1.6-6.6 3.4-9.6 1.4-2.4 2.8-4.7 5.2-6.1.2.4.2.4.1 1.4.9-.1 1.9 0 2.8-.2.8-.2 1.7-.1 2.5-.7.3-.2.6.1.8.3 1.2 1.2 2.2 2.5 3.4 3.7-.7-.4-1.3-.9-2-1.3-1.8-1.3-3.7-1.7-5.9-.7-.8.4-1.1.9-1.2 1.7-.3 4.8.4 9.4 2 14 1.5 4.3 3.7 8.3 6.6 11.8 2.2 2.6 5.1 4.2 8.1 5.6 1.4.6 2.9 1.2 4.3 1.8.7.3 1.2.3 1.7-.4.6-.8 1.4-1.2 2.4-1.3 3-.5 3.3-1 2.1-3.7-.6-1.4-1.3-2.7-2-4.1-.3-.7-.9-1-1.7-.9-.6.1-1.2.1-2-.2.6-1.1 1.7-.5 2.6-.8-.6-1.9-1.9-3.3-3.1-4.8-.5-.5-.9-1-1.5-1.5-2.9-2.5-5-5.6-6.8-8.9-.3-.5-.3-.7.1-2.1.9.9 1.8 1.6 1.8 2.9 0 .8.9 1.9 1.8 2.1.4.1.6.3.8.6 1.5 1.9 3 3.8 4.2 5.9 1.1 1.8 2.5 3.4 3.4 5.3.1.3 3.9 1.8 4.2 1.7h.1c.4-.2 1.1.4 1.3-.2.3-.6.1-1.2 0-1.8-.4-1.4-.8-2.8-1.4-4-1.6-3.2-3-6.6-5.2-9.5-1.1-1.5-1.5-3.1-1.8-4.9.3 0 .4.2.4.4 1.2 2.9 3 5.4 4.6 8 1.5 2.5 2.9 5.1 3.6 8 0 .2.1.3.3.7.4-3.2 1-6.1 0-9.2-.7-2.2-1.1-4.6-2.1-6.7-3-5.8-7.2-9.8-12.9-12.2-3.8-1.6-7.6-2.9-11.7-3.1-.4 0-.7-.1-.8-.5h0c.6-.3 1.2-.3 1.8-.2 6.1 1.1 12 3 17 6.8 4.3 3.3 7.1 7.7 9.1 12.6.5 1.2.6 2.4.9 3.7 4-12.8 12.6-20.4 25.9-22.8-1.4-4.5.4-8 4.2-10.6-.6.6-1.1 1.2-1.7 1.8-2.7 2.5-3.2 5.3-1.7 9.3.5 1.3 1.2 2.5 1.8 3.7.2.5.5.9.5 1.6-.9-.8-1.3-1.8-1.9-2.6s-.9-1.8-1.2-2.7c-8.4 1.8-15.5 5.6-20.8 12.4-2 2.6-3.1 5.6-4.1 8.6-1 3.2-1.7 6.6-2.1 10-.1 1.1 0 2.3.2 3.5 1.8-1.3 2.9-3.1 3.9-4.9-.4 2.2-1.4 4-3.2 5.3-.6.4-.6.7-.5 1.2.2 1.2.7 2.3.6 3.6.1-.2.2-.4.2-.7-.1-1.8 1.3-3.3 1.4-5.1 0-.8 1-1.2 1.7-1.7 2-1.3 3.6-3 5.1-4.8-.2-.6-1-.5-1.2-1 0-.2.2-.2.3-.2 1 .8 1.6.4 2.4-.4 2-2.2 3.3-4.6 4.2-7.4.5-1.8 1.5-3.6 2.1-5.4-.6 2.9-1.6 5.7-2.4 8.5-.9 3.2-1.1 6.4-.9 9.7.2 3.2.6 6.3 1.5 9.4.4 1.2.7 2.4 1.6 3.3 1.1.9 1.2 2.1 2 3-.5-.1-1.1-.3-1.4-.8-1.1-1.8-2.2-3.6-2.8-5.7-.8-2.5-1.2-5.2-1.3-7.8 0-2.5-1.6-3.6-3.3-4.9-1.3 1.7-2.8 3.3-4.6 4.5-1.5 1-2.4 2.1-2.1 4.1.4 2.4.1 4.9 1.6 7.1.5.7.8 1.5 1.1 2.3.2.5.4 1 .7 1.4.5.6 1.1.7 1.7.2 1-.7 1.3-1.7 1.4-2.8.1-.7-.2-1-.9-.9-1.1.1-2.2.3-2.7 1.5-.5-.5-.2-1-.1-1.3.4-1.2.2-2-.9-2.6-.4-.2-.3-.6-.1-.9.4-.5.8-1.1 1.4-1.6.8-.7 1.5-.6 2.3.1 1.7 1.7 1.9 3.8 1.7 6-.1.8-.4 1.6-.9 2.3-1.2 1.4-2.7 1.4-3.7-.1-.4-.6-.7-1.2-.9-1.9-.3-.8-.6-1.5-.9-2.3-.2 1.1.1 2.2-.1 3.2-.3 1.3-1 2.5-1.6 3.6-.7 1.4-.3 2.3.6 3.4 2.7 3.5 6.5 5.6 10 8.1.3.2.7.3 1.1.4 4 1 8.1 1.2 12.2 1 3.6-.1 7-.8 10.1-2.6 1-.6 1.7-1.3 2.2-2.4-1.3-.1-2.4-.5-3.5-1.1 0-.3.1-.4.2-.5 2.1-1.3 3.4-3.3 4.8-5.3.4-.6.4-1-.3-1.3-.6-.3-1-.8-1.4-1.3-2.5-3.3-4-7-4.6-11.1-.1-1-.6-1.4-1.5-1.4-.5 0-1 .1-1.5-.4.9-.6 1.8 0 2.7-.2-.1-1.5-.2-2.9-.3-4.6-1 1.8-1.7 3.3-2.6 4.8-2.2 3.5-4.5 6.9-7.5 9.8-1.2 1.2-2.2 2.8-4.3 2.5.4-.1.1-.3 0-.5h0zm-49.7 59.2c-.1.4-.1.8-.3 1.1-.5.7-.1 1.1.5 1.4.6.3 1.3.4 1.8.9-2.2-.4-3.9-1.7-5.4-3.2-.8 1.3-.8 2.2.1 3.4.4.5.8 1 1.3 1.5 0 .1.1.1.1.2 1 1.3 2.5 1.9 4 2.4.3-1 .3-2 .5-3 .1-.6 0-1.1-.7-1.3.3-.1.7.2.9-.4.8-2.2.3-3.4-1.9-4.4-.2-.1-.3-.1-.5-.2l-.1.1c.1.3.5.4.5.8-.4 0-.6.3-.8.5.4-.6.1-1.1-.4-1.5-.8-.6-1.5-1.1-2.1-2-1.4 3-1.1 3.6 1.6 5 .4-.4.4-.9.9-1.3zm-1.5-75.4c-.2 3.2-.2 6.4-1 9.9 1.6-1.7 3.3-2.7 4.8-3.9-1.6-1.9-2.8-3.9-3.8-6-1.1-1.3-1.2-2.9-1.4-4.4.5.2.5.6.6 1 1 2.9 2.5 5.5 4.4 7.9.3.4.5.8 1.1.8.3 0 .7-.1.9.3.2.5-.5.5-.6.9 3.5 4.1 7.3 7.9 12.7 10-.2-.6-.7-.9-1-1.2-1.4-1.2-2.7-2.4-4-3.6-.8-.7-.8-1.8-1.6-2.5-2.4-2-3.9-4.6-5.6-7.2-1.5-2.3-2.2-4.9-3.2-7.4-1.9-4.5-3.3-9.1-3.2-14 0-.9.4-1.7.3-2.5-.6 0-.9.4-1.3.7-2.7 2.5-4.3 5.6-5.2 9.1-.7 3-1.3 6-2.3 8.9-.3.9-.5 2-.1 3 .3-.6.4-1.3.6-2 .4-1.8.9-3.6 1.8-5.3.2-.4.4-1 1.2-.8-1.5 3.7-2.5 7.5-1.9 11.5.5-.6.4-1.3.4-2 0-.9.1-1.9.9-2.4s1.6-.9 2.7-1.5c-.5 1.7-.1 3.1.1 4.5.1.3.1.8-.4.8-.6 0-.5-.4-.6-.8 0-.8.1-1.6-.2-2.5-1 .1-1.3.8-1.5 1.5-1 3.6-1.7 7.3-1.1 11.1 0 .3.2.6.5.7.8.3 1.4.9 2.1 1.4.6-.7 1.1-1.6 1.8-2.2 1.1-.9 1.4-2.1 1.7-3.3.4-2.2.6-4.4.8-6.6.1-.8.1-1.4.6-1.9zm27.5 73.8c-1.5-.5-3.1-1.1-4.5-1.9-.6-.4-.9-.7-.8-1.3.1-1.4.1-2.8.1-4.2V130c-2.7.9-5.4 1.1-8.1 2h3.3c-5.3-.2-10.8.9-16.1-1.4-.8 2.7-1.8 5.3-2.3 7.9 1.8 1.2 3.6 2.3 5.6 3.4.2-3.1.6-6 1-8.8 0 .9-.1 1.7-.2 2.6-.3 2.1-.8 4.2-.5 6.3.2 1.4.3 2.7 0 4.1-.2 1.3-.3 2.7-.4 4-.1 1.4-.1 1.5 1.3 1.7 2.8.4 5.6.7 8.4.8 1 0 2.1.8 2.9-.4 0-.1.3 0 .4 0 1 .3 1.3-.3 1.3-1.2 0-1.5-.2-2.9-.3-4.3-.1-1.3-.9-2.5-1-3.8 0-.9-.4-1.1-1.2-1.1-3.1-.1-6.1-.2-9.2-.3h-1.9c.4-.5.8-.5 1.2-.5 3.1-.1 6.2 0 9.3.3 2.3.3 2.1.2 2.3 2.2 0 .4.1.9.8.9 3.3-.4 6-1.7 8.6-3.2 1.6-.7 2.9-1.7 3.9-3.2.2-.3.4-.5.7-.6.9-.4 1-1.1 1-2-.2-2.3-.9-4.5-1.4-6.8-.2-.9-.2-1.8-.7-2.5-1.9.8-1.6.5-1.6 2.3 0 2 .1 4.1 0 6.1 0 2.1-.4 4.1-1.7 5.9-.3.2-.4.5-.2.8h0zm2.2-34.5c.5.1.7.4 1 .7 1.2 1.3 2 2.9 3 4.3 1 1.3 1.7 2.8 2.5 4.3.4-2.4 2.7-4.2 2.3-6.9-5 .9-5 .9-5.9 0 .3-.3.6-.1.9-.1 1.2.1 2.3.2 3.4-.4 1.2-.7 2.8.4 3.1 1.6.3 1.6.6 3.1-.1 4.9-.9 2.2-1.2 4.8-1.8 7.1-.4 2-.4 2 1.4 2.6-.8.2-1.5-.2-2.3-.2-.8 5.1-1.2 10.2-1.1 15.3-.1-.1-.1-.2-.1-.3-.2-4.9.1-9.7.8-14.5 0-.3.2-.6-.1-.8l-1.5-.9c-.1.5-.1.8-.2 1.1-.4 3.6-.4 7.3-.4 10.9 0 2.2.5 4.4 1.3 6.5.5 1.2.7 2.4.7 3.7 0 2.6 1.4 4.7 2.2 7.1 1.1-3.8 2.9-7.2 4.7-10.8-.7.1-.6.7-1 .7.1-1.2.1-2.4.2-3.5.1-3.3.4-6.6.2-9.9 0-.3 0-.6.4-.6.3 0 .4.3.4.5v.6c-.1 3.4-.1 6.8-.2 10.2 0 1.3.4 2.3 1.3 3.2 3.5 3.4 6.6 7.1 10.1 10.6.1.1.3.2.1.4-4-3.6-7.3-7.9-11.3-11.5 3.4 4.6 7.2 8.8 11.3 12.9.6-.8 1.3-1.6 1.8-2.4 3.1-4.5 6.3-8.9 9.9-13 .3-.4.4-.7.2-1.2-.9.5-1.2 1.4-1.9 2 .5-.8.9-1.7 1.6-2.3.4-.4.5-.7.4-1.3-.5-2.8-1.1-5.6-1.8-8.3-.2-.6-.3-1.2-.1-1.8.3 1.5.7 2.9 1.1 4.3.5 2 1 4 1.1 6 .1 2.3 1.5 4 2.5 5.9-.8-3.6-1.5-7.3-2-10.9-.3-2-.6-3.9-1.3-5.8-.4-1-.7-1-1.4-.4-.2.2-.4.2-.6.3-2 .7-4 1-6.1.9-3.1-.2-6.2-.5-9.3-.8-.6-.1-1.3.1-2-.5.9-.1 1.6 0 2.3.1 3 .4 5.9.7 8.9.8 1.7 0 3.5-.1 5.2-.7.5-.2 1-.3.7-1.1-.3-1.2-.8-2.2-1.7-2.9-5-4.1-10.1-8-16.4-10.1-.5-.2-.9-.3-1-1l.9.3c-.5-.4-1-.7-1.7-.9.3 1.8 1 3.4.6 5.3 1.4.3 1.8 1.3 1.8 2.5.1 2.2.1 4.4.2 6.5 0 .9-.2 1.6-.6 2.4-.2.6-.6.8-1.2.6-1.3-.3-2.6-.7-3.9-.9-.6-.1-.8-.4-.8-.9-.1-1.1.1-2.1.4-3.2.5-1.7.7-3.4 1.2-5 .3-.9.7-1.8 1.8-2.1.3-.1.4-.3.4-.6 0-1.2.2-2.4-.2-3.5-.1-.4-.3-.8-.7-1-1.3-.8-2.6-1.8-3.9-2.5-2.7-1.5-3.9-3.9-4.7-6.6-.1-.3-.1-.7.1-.9.9-.9.7-2.1 1-3.2-.6-.1-1-.1-1.4-.2-1.4-.2-1.4-.2-1.2 1v.3c-.7 3.2-1.5 5.9-3.5 8-.7.5-1.3 1-1.8 1.8.6.1 1 .4.9.8-.2 1.3.7 2.1 1.3 3 .7 1 1.4 1.9 1.9 2.9 1.5 3.2 2.2 6.4-.4 9.4-.2.2-.4.5-.4.8 1.2.6 2.9 0 3-1.1.3-2.1.6-4.2 1.2-6.3.3-.9.1-1.8-.3-2.7-1.4-2.5-3.1-4.9-4.7-7.2-.3-.2-.6-.7-.7-1.4h0zM89 81c-1.9.6-4 .7-5.9 1.6-.3.2-.7.1-.8-.3-.2-.7-.8-.8-1.3-1-2.6-.9-5.3-1.8-7.5-3.5-.3-.2-.7-.4-1-.6 2.1 3 5.3 4.9 7.4 7.8-6.6-1.5-11.3-5.6-15.3-10.9-2 1.5-4.1 2.9-5.8 4.8-.3.4-.4.8-.5 1.3-.3 1.5-.6 3-1.3 4.4-1.1 1.9-.8 4-1.2 6-.1.3.2.5.3.7 1 1.2 1.9 2.7 4.2 2.1-1.3 1.6-2.8 2.6-4.1 3.7 1.1 2.4 2.1 3.6 3.8 2.5-.2-.2-.4-.5-.6-.8.5 0 .7.3 1 .4 1.1.5 2 1.4 3.2 1.5 3 .1 6 .2 9-.2 4.1-.6 7.7-2.3 11-4.8 2.5-1.9 5.1-3.8 6.7-6.7.8-1.4.9-2.6.2-4s-1.2-2.7-.3-4.6c1.2-2.4 1.4-5.1-.9-7.3-.3-.3-.5-.8-.8-1.2-.4-.6-.9-1.2-1.9-1.4 1.9 2.6 2.7 5.5 3.7 8.4-1.4.2-1.6.7-1.3 2.1h0zm51.6 20.5c0 1.5-.4 2.7-1.2 3.8-.9 1.3-1.9 2.6-3.2 3.5-.5.4-.6.7-.3 1.4.5 1.4 1.5 2.4 2.2 3.6 2.8 5.1 5.8 10 9.3 14.7.4.5.8 1.1 1.6 1.3-.2-1-.3-1.1-.7-1.4-1.1-.9-1-1.3.4-1.8 1.6-.6 3.1-1.3 4.4-2.5.6-.5 1.2-1 1.9-1.3.8-.3.9-.9.6-1.6-.6-1.1-.9-2.2-1.3-3.3-.3-.7-.5-1.4-1.2-1.7-1-.4-1.1-1.2-1.1-2.1 0-1.2-.1-2.6-.9-3.5-2.2-2.3-4.2-4.9-6.9-6.7-1.3-1-2.3-1.9-3.6-2.4zm-89.3 42c.9-.7 1.6-1 2.4-1.3 2.1-.8 3.7-2.2 4.5-4.2 1.2-3.1 2-6.3 3.1-9.4 1-2.8 1.4-5.8 2.9-8.4.2-.5.1-.7-.3-1-1.5-1.2-3.3-1.4-5.1-1.5-.9 0-1.5.4-1.8 1.3-.8 2.2-1.9 4.3-3.1 6.2-1.5 2.3-3.6 4.2-4.1 7.1.1-.7 0-1.4-.1-2.1-.8 4.5-.1 8.9 1.6 13.3h0zm16.9-39.6c.7.4 1.2.4 1.6.1 2.9-2.3 6.8-2.2 9.9-3.9.7-.4 1.4-.6 2-1.3.6-.7 1.2-1.4 2-1.8-2.1 2.6-4.1 5.3-6.1 8-.7 1-1.2 2.1-2.2 2.9-1.5 1.3-3.4 2.1-5.2 3.3.2-1.1.7-1.8 1.4-2.4.8-.6 1.6-1.3 2.4-1.8 1.1-.7 1.3-1.8 1.4-3.1-1.8.3-3.4.6-5 1.2-.5.2-.7.5-.5 1 .7 1.8.1 3.5-.4 5.3-.3 1-.1 1.3.9 1.3 2.5 0 4.9-.4 7.4-.5 3.5-.2 6.6-1.2 9.3-3.6 2.2-1.9 3.9-4.1 4.9-6.8.1-.3.2-.6.1-.9-1-.4-2-.3-3-.4-.6-.1-.8-.3-.8-.8-.1-1-.2-1.9-.3-2.9-.2-1.6-.2-1.6-1.8-1.6 1.2-.5 2.1-1.4 3.1-2.2.8-.6 1.6-2.3 1.5-3.5-1.1 2.4-2.9 3.9-4.7 5.4-1.1.9-2.3 1.6-3.3 2.5-2.8 2.3-5.9 3.7-9.4 4.4-1.9.1-3.5 1-5.2 2.1zm69.4 33.4c-1.3.9-2.7 1.3-4.1 1.5-1.5.2-2.8-.1-4.2-1.1 1.6 7.4 3.2 14.8 4.9 22.2 2.7 0 5.4.3 8.1-.1-2.8-7.2-3.6-14.8-4.7-22.5h0zm-4-10.7c.6.6.5 1.2 1 1.6.2-.1.5-.3.7-.4 1.1-.5 1.3-1.3 1.3-2.5-.2-4.4-.7-8.8-.9-13.2 0-.7-.2-1.4-.6-2-.5 0-.8.3-1.1.6l-2.5 2.5c-.8.9-1.8 1.4-2.9 1.8-1.9.7-3.8 1-5.9 1.1.3 3.5 1.4 6.6 3.3 9.4.1 0 .2-.1.3-.1-.3-2-.6-4.1-.9-6.1 1 1.8 1 3.8 1.3 5.7.1 1 .2 2.1.9 2.7 1.6 1.5 4.7 1.8 6.5.5-.1-.3-.2-.8-.5-1.6zm-70.2-1.5c2.3-.7 3.1-1.7 3-4.1 0-1 0-2.1-.4-3.1-.1-.4-.1-.9.2-1.3.8-1.4 1.5-2.9 2.3-4.3 1.2-2 1.3-3.8-.2-5.7-.4-.5-.8-.9-1.6-.9-1.7.1-2.2-.4-2.3-2.1 0-1.2-.6-1.7-1.6-2.1-.5 1.2-.4 2.4.1 3.5-.8 0-1-.5-1-1s-.1-1.2.2-1.6c.5-1.1-.1-1.6-.9-2-.2-.1-.4-.4-.9-.3-.2 1.7-1.2 3.4.1 5.2 1 1.4 2.1 2.6 3.3 3.7.3.3.6.4 1 .4.7.1 1.5.3 1.6 1.2.1 1-.4 1.7-1.2 2.2-.7.4-1.2.2-1.6-.3-.4-.6-.6-1.2-.1-1.9.1.4.1.9.3 1.3.3.8.8.9 1.5.4.3-.2.5-.5.7-.8.6-.9.3-1.5-.7-1.7-.3 0-.7 0-1 .1-2 .6-3.9.8-6 .4-1.1-.2-1.2-.1-1.1 1.1.2 1.3.5 2.6.7 3.9.1.3.2.6-.1.9-.6.4-1 1.1-1.5 1.5-1.1.8-1.1 2-1.5 3.1-.1.3 0 .7.5.9.5-1.1 1.3-2.1 1.5-3.3.2-1 .7-1.3 1.4-1.4.9-.2 1.8-.3 2.7-.2 2 .3 4.2.4 4.8 3-1.3.7-2.4 3.7-2.2 5.3h0zM84.8 152c-.4.1-.7.1-1 .2-3.2 1-6.5 1.5-9.9 1.2l-6.3-.6c-1.1-.1-2.3-.1-3.1-1-.7-.7-1.4-1.1-2.3-1.4-2-.6-3.7-1.7-4.8-3.5-.3.3-.3.6-.4.9-1.1 3.8-1.5 2.6 1.1 5.6.4.5.8 1 1.6 1.2.5-.8.9-1.6 1.3-2.4-.1.7-.3 1.4-.7 1.9-.3.6-.2 1 .3 1.3 2 1.1 4 2.1 6.3 2.2 1.8 0 3.6.1 5.4.3 1 .1 1.9.1 2.9-.1 2.3-.5 4.6-.9 7-1.4 1.6-.3 1.9-.6 2.2-2.3.1-.7.2-1.3.4-2.1h0zm-36-42.8c-3.1 2.9-6.2 5.7-9.2 8.6-.8.8-1.6 1.5-2.9 1.5.3 2.5 1.3 4.6 2.1 6.9.3-.1.6-.1.8-.2 1.6-.6 3.3-1.2 4.9-1.7 2.1-.7 2.1-.7 1.9-3-.1-1.3.2-2.3 1.2-3.3.7-.7 1.5-1.5 1.8-2.4.4-.9.9-1.3 1.7-1.5 0 0 0-.1.1-.4-1.5-1-3-2.2-2.4-4.5h0zm39.3 40.7c-1 .1-1.9.6-2.9.6.1-.1.1-.2.2-.2.2-.1.3-.2.5-.2 3-.9 5.3-2.9 7.3-5.1.8-.9 1.3-1.8.9-3.1-.4-.1-.5.4-1 .3.6-.7.8-1.5.9-2.3.2-1.8.1-3.6.1-5.4v-5.3c-1.2.1-1.2.1-1.1 1.2.3 1.6.7 3.1.7 4.7 0 1.2.1 2.6-.9 3.5-3.6 3.3-7.8 5.4-12.7 6.1-.5.1-.7.3-.7.8.1 1.8.1 3.7.2 5.5 0 .4.1.9.3 1.3 2.8-.4 5.6-1.1 8.2-2.4h0zm-19.4-23.1c2.3-.5 4-2 6.2-2.4 2.2-.3 4.4-.3 6.7-.6-.2-2.5-.5-4.8-.7-7.2-3.8.1-7.5.6-11.2.6-.3 1.7-.5 3.2-.8 4.8-.1 1.4-.3 3-.2 4.8h0zm70.9-40.5c1.2.1 1.8-.3 2.1-1.1.7-1.9 1.4-3.9 2.1-5.8.4-1 0-1.7-1-2.1-2.4-1.1-4.8-1.9-7.4-2.6-.9-.2-1.6.1-1.9 1-.7 2.1-1.5 4.1-2.2 6.2-.2.5-.1 1 .4 1.4 2.6 1.6 5.4 2.3 7.9 3h0zm-92.8 5.4c1.7-.1 3.5-.2 5.2-.7 3.4-.9 2.9-1.1 2.5-3.6-.2-1.6-.3-3.2-.7-4.8-.2-.8-.6-1.4-1.6-1.3-2.6.2-5.2.5-7.8 1.1-.8.2-1.3.7-1.3 1.5 0 .5 0 1.1.1 1.6.3 1.3.6 2.7.7 4.1.2 1.7.5 2 2.2 2.1h.7zm103.2-.3c-.3 3.2-1.4 6.2-2.2 9.3 2.6-3.8 3.2-8 3.3-12.2-2.8 4.6-6 9-10.7 12 4.4 2.2 7.7 5.4 10.7 9.1-.6-4.3-.5-8.6-.8-12.8-1.4 2.4-1.8 5.2-3.6 7.3 1-4.3 1.9-8.5 3.3-12.7zm-11-1.3c-.1 0-.2-.1-.3-.1-.1.1-.2.1-.4.2-2 1.4-3.9 2.8-6.1 3.8-.4.2-.6.5-.8 1-1.4 3.8-2.8 7.6-5.4 10.8-.1.2-.4.3-.2.6 2.4-.7 4.4-2 6.1-3.8.3-.3.7-.8 1.2-.8 1.3-.2 1.9-1.1 2.4-2.2.9-2 1.6-4 2.3-6 .4-1.2.8-2.4 1.2-3.5h0zm-87.2 24.1c-.6 1-1.2 1.8-1.7 2.6-.9 1.3-1.8 2.6-2.6 3.9-.7 1.2-.5 2.6.6 3.8 1 1.2 1.7 1.4 3.3.9.2-.1.4-.1.6-.1 1.4 0 2.8-2.3 2.1-3.5-.3-.5-.4-1 0-1.5.3-.4.7-1 .4-1.3-1-1.4-.3-1.8 1.3-2-1.6-.9-3.1-1.2-4-2.8h0zm107 35.8c-.6-.9-1.6-1.4-2.4-2.1-.6-.6-1.1-.5-1.7-.2-3.3 1.8-6.4 4-9.5 6.3 1.7.8 1.1 2.2.9 3.7 4.2-2.9 8.4-5.2 12.7-7.7zm-24.2-21c-1.5.5-3.3.6-5.2.4.5 2.5.7 5 .9 7.4.1.8.5 1.2 1.2 1.3 1.5.2 2.9-.1 4.4-.7-.7-2.8-1.3-5.5-1.3-8.4h0zM28.8 111.3c-2.6 2-5.4 2.7-8.7 1.4.3 1 .6 1.6 1.1 2.3 1.8 2.6 4.6 3.4 7.1 2 .4-.2.6-.4.6-.9 0-1.5.4-3-.1-4.8zm59.9 11.4c.1 0 .2.1.3.1.1-.2.2-.3.3-.5.6-1.2 1.7-2 2.7-2.8.6-.4.6-.8.5-1.4-.3-1.3-1-2.4-1.7-3.6-.2-.3-.4-.4-.7-.3-1.4.5-2.8.7-4.3 1 1.1 2.6 2 5.1 2.9 7.5zm53.6 2.8c-1.5.3-2.8.7-4 1.4-.3.2-.4.3-.4.7 0 2.3.2 4.5.5 6.8 1.3.1 2.5-.1 3.6-.5.4-.1.6-.4.6-.8-.1-2.5-.2-4.9-.3-7.6h0zm-57.1 10.4c-.1.7-.7 1-1.1 1.4-.6.8-.7 1.7-.1 2 .9.4 1.8.8 2.8 1.2.3.1.6.2.8-.2 1.2-2 1.7-4.1 1.6-6.5-1.1.5-2 1-3.1 1.5.3-1 .4-1.9-.7-2.1-.6-.1-1.4-.1-1.6.7-.1.5-.2 1 0 1.4.2.6 1 .1 1.4.6h0zm42.1 6.6c-1.2 3.2-3.1 5.6-5.1 8 2-.1 3.8 0 5.6-.5 1.4-.4 1.4-.4 1.1-1.8-.2-.8-.3-1.6-.4-2.3-.1-1.1-.6-2.1-1.2-3.4h0zM91.1 80.4c-.2.3-.2.8-.5 1-.8.8-.5 1.7-.1 2.6 1.5 3 1.3 6.1 0 9.2-.7 1.7.2 3.1 2.3 3.2 1-5.6-1-10.7-1.7-16zm-63.1 53c.1.1.1.2.2.2 1.1-.1 2.1-.1 3.1-.6 1.6-.8 3.1-1.7 4.2-3.1.7-.9 1.5-1.7 2.6-2.1.5-.2 1-.5 1.5-.7-.6 0-1.1.2-1.5.4-1.5.7-2.9.9-4.3-.1-.5-.4-.8-.2-1.1.4-.8 1.6-1.8 3.1-3.2 4.3-.6.3-1.1.8-1.5 1.3h0zm58.5 20.7c.5.1.8-.2 1.1-.4 1.8-1.3 3.6-2.6 5.3-4 1.7-1.4 1.9-3.5 2.1-5.8-1.3 1.8-2.3 3.4-3.8 4.6-1.5 1.2-2.9 2.4-4.8 3.1-.1.7 0 1.6.1 2.5h0zm40.4-54.4c.4-.4.8-.7 1.3-.7.6 0 1 0 1.2-.7.1-.5.5-.8.5-1.4-3.6 2.3-7.4 3.4-11.6 3.3s-8.3-.5-12.3-1.5c1.7.6 2.8 2.7 5.1 2.5-.2-.4-.3-.5-.4-.7 2.1-.1 4.2.3 6.2.5 1.5.2 2.9.1 4.3-.3 2.2-.7 4.3-1.4 6.6-.4.6.3.9-.1.9-.7-.7-.3-1.2.3-1.8.1h0zM69.6 116c3.8.5 6.7-1.3 9.8-3.4-3.4.1-6.6.6-9.8.3v3.1zm24.8-27.3c.2 2.8.3 5.5 1.7 7.9.3.6.7.7 1.2.4 1.3-.6 1.8-2.6.8-3.9-1.2-1.5-2.5-2.9-3.7-4.4zm-.1-1.7c.3-.7.6-1.5 1.1-2.2 1.1-1.6 1-3.4.8-5.2-.2-1.3-.3-2.5-.5-3.8-.1-.7-.1-1.5-.5-2.4-1.3 4.7-1.1 9.2-.9 13.6zm48.4 72.7c1.2-.8 2.2-1.7 2.8-2.8.4-.7.6-1.5-.3-2-1.2-.7-2.6-.8-4-1.1.6 2 1.1 3.9 1.5 5.9h0zm-90.4-46c.9 1.2 1.9 2 3.2 2.5.8.3 1.5-.1 1.4-1-.2-1.5-.7-3-1.5-4.4-1.3.6-2.1 1.9-3.1 2.9zM38 71.9c.4-.3.3-.6.3-.9.2-1.5.3-3.1.5-4.6.4-3 1.1-5.9 2.4-8.6.2-.4.4-.8-.1-1-.4-.2-.6.3-.7.6-.4.9-.6 1.8-1 2.6-1.8 3.8-1.9 7.7-1.4 11.9h0zm65.5 55.2c.9 0 1.9-.9 1.9-1.7 0-1-1.1-2-2.1-2-1.3 0-2 .7-2 1.9 0 1.1.9 1.8 2.2 1.8zm39.5 18.4c1.4.6 2.4 1.4 3.5 2.3 1.5 1.2 1.8 1.2 3.2-.2-.8-1.8-4.1-2.9-6.7-2.1zM87.8 94.7c.5.5.7 1.1.8 1.8.1.8.2 1.6.3 2.5.1.6.3 1 1 .8.9-.2 1.6-1 1.4-1.5-.6-1.2-1.2-2.4-2-3.5-.4-.5-.9-.9-1.5-.1zm-7.6 5.8c-2.1.4-2.6 2.7-4.4 3.4.8 2.5-1.6 3.2-2.5 4.7 1.3-.8 2.5-1.6 3.3-3 1-1.9 2.4-3.5 3.6-5.1zM91.6 76c-.2 1.8 1.1 9 1.9 10.8-.3-1.9 0-3.5-.7-5-.2-.5-.2-1.1.1-1.7.7-1.6.2-3.1-1.3-4.1zm64.5 70.9c1.2.8 2.5 1.5 3 2.8.7-.4 1.3-.7 1.9-1-1-2-3-2.8-4.9-1.8zM50 107.8c-.8 1.5.4 4.1 2.2 5.5.2-.6.8-.9 1.1-1.6-.4-.3-.8-.8-1.3-.9-.3-.1-.6-.3-.6-.6-.2-1-.9-1.6-1.4-2.4zm101.9 21.1c-.7.8-1.7.8-2.8 1.3 1 .7 1.7 1.4 2.3 2.4.8-.8 1.6-1.3 2-2.3-.8-.2-1-1-1.5-1.4zm-46.2-62.7c.1-2.1.1-3.9.5-5.7-1.1 1-1.8 2.4-3 3.4 1 .7 1.6 1.4 2.5 2.3zm12.3 40.7c-1.1-1.3-1.6-3.1-3.5-3.6.5-.3 1.1-.1 1.6-.6h-4c1.9 1.5 4 2.7 5.9 4.2zM39.2 85.5c-1.5.2-1.8.4-1.6 1.8.1.9.4 1.8.8 2.7.1.3.2.7.8.6v-5.1zm122 63.7c-.4.2-.7.4-1 .6-.3.2-.9.5-.7.8.4.7.2 1.7.8 2.3.1.1.3.1.4.1 1-.1 1.4-.7 1.2-1.7-.1-.8-.2-1.5-.7-2.1h0zM55.7 85.9c.9-1.9 1.2-3.7 1.8-5.7-.8.7-1.2 1.4-1.7 2-.2.2-.6.4-.4.7.2.9.1 1.9.3 3zm-.6 23.9c-1-.7-2.1-1.4-3.5-1.7.7.8 1.1 1.8 2.1 2.3-.4.3-.6.7 0 1 .5-.5.9-1 1.4-1.6zm-18.7 12.3c-.7.8-1.3 1.6-2 2.4-.2.2-.3.5-.1.8.1.2.3.3.5.2 1.7-.3 2.4-1.7 1.6-3.4zm34.5-17.9c1.6-.4 3.3-.8 4.9-1.2.3-.1.6-.3.4-.7-.2-.4-.5-.3-.8-.2-.8.2-1.6.4-2.4.7-.8.2-1.5.6-2.1 1.4zm10.6 59.4c.1-2.2-.7-4.1-.5-6.1-.5 0-1 0-1.4.4.8 1.8 1.1 3.7 1.9 5.7h0zm22.3-17.2c-1.2 1.6-1.1 2 .7 2.4.5.1.9.2 1.5 0-.4-1.2-1.5-1.5-2.2-2.4zM91.4 75c-.1-1.2-.2-2.1 0-3.3-.9.6-1.5.1-2.3.1.5 1.2 1.2 2.2 2.3 3.2zM67 116.4l.2.2c.5-.3 1.4.1 1.6-.7.2-1.1.2-2.1.3-3.2-.1 0-.1 0-.2-.1-.7 1.3-1.3 2.5-1.9 3.8zm29.9 1.6c.5-2.6 2.8-4.5 2.7-7.7-.8 2.8-2.4 5-2.7 7.7zm-1.3-20.6c0-.9-.4-1.5-.8-2.1-.3-.4-.7-.5-.9.1-.2.5-.5 1.1-.1 1.6s1.1.4 1.8.4zm27.4 49.3c1.5-1.3 3.1-2.6 3.7-4.6-1.6 1.3-2.6 3-3.7 4.6zm-57.4 12.1c1.2.6 2.3.3 3.6-.3-1.5 0-2.8 0-4.2-.3 0 .7-.1 1.3.1 1.9.6-.2.1-.8.5-1.3h0zm84.2-9.8c1.9-.2 3.2-1.7 4.9-2.4-1.8.5-3.4 1.3-4.9 2.4zM65 103.5c-.2 1.7.4 2.2 2 1.8-.2-1-1-1.4-2-1.8zm94.3 54c1.1-1.1 1.7-2.5 2.3-4.1-1.8 1-1.4 2.9-2.3 4.1zm-6.5-29.5c0 .4-.5.3-.4.6.3.5.6.6 1.1.3.3-.2.5-.5.2-.8-.5-.5-1-.9-1.5-1.3-.3-.2-.5.1-.7.2-.2.2-.2.3 0 .5.2.3.4.2.6 0 .3-.3.5.3.7.5h0zm-78.5 3.1c-1.7.2-3.5.2-5.2.2 1.8.4 3.5.6 5.2-.2zm-36.9-6.3c-1.1.8-2.2 1.5-3.4 2.4 1.1.2 3.4-1.4 3.4-2.4zm-4.4-.5c.3-1.4-.3-3.2-1.1-3.6 0 1.3.7 2.2 1.1 3.6zm-.5 8.5c2 .1 3.4-.7 3.4-2.1-1 1-2.1 1.5-3.4 2.1zm115.9-2.1c.4 1.2 1 2.2 2 3 .3-.2.5-.5.3-.6-.9-.7-1.3-1.8-2.3-2.4zm5.8-3.1c.6.4.9.3 1.8-.5.7-.6.9-1.1.6-1.8-.7 1-1.1 2.1-2.4 2.3h0zm-82.8 31.8c0 1 .2 1.9.7 2.9.2-3 .2-3-.7-2.9zm63-57.4c-1.1-.2-1.5.4-1.9 1-.1.2-.2.4 0 .6s.5.1.6-.1c.5-.4.9-.9 1.3-1.5h0zm20.6 23.4c.2-.6.9-.3 1.1-.8-.9-.3-1.5.1-1.9.8.2.3.3.7.7.8.3-.3.9-.5.1-.8h0zm-62.2-27c-.6.4-1.3.5-1.2 1.3.1.3.4.5.7.3.7-.3.2-.9.5-1.6zm.2-22.3c-.1-.7-.2-1.3-.7-2-.2.5-.3.8-.5 1.2.3.3.6.6 1.2.8zm57.2 52c.1.3.5-.1.5.3-.4.3-1.1 0-1.3 1 .7-.4 1.5-.4 1.9-1-.5-.6-.5-.6-1.1-.3h0zm-80.3-19.8c-.1-1.6-1-2.4-1.6-3.3-.1.1-.2.1-.3.2.6.9 1.1 1.8 1.9 3.1zm7.6 6.6c-1 .5-1.9.9-3.1 1.5 1.4-.1 2.5-.4 3.1-1.5zM43.7 70.6c0-1.3.6-2.6 0-3.9v3.9zm51 78.1c-.9 1.2 0 2 .1 2.9.2-.9.1-1.8-.1-2.9zm41.8-11.8c.3-1.1-.3-2.1-.5-3.2.2 1.1.3 2.1.5 3.2zm-32.5 7.9c-.1 1.3.9 1.5 1.4 1.9-.2-.7-.7-1.2-1.4-1.9zm-69.3-21.7c.6-.9 1.5-1.2 1.4-2.2-.2.8-1.3 1-1.4 2.2zm87.6 24.9-.2-.2c-.6.8-1.1 1.6-1.8 2.5 1.3-.4 1.3-1.6 2-2.3zm8.5.5c-1-.1-.3-1.3-1.2-1.7.2.8.3 1.4.4 2 .3 0 .5 0 .8-.3zM52.7 79.3c-.8-.5-1.3-.5-1.9.4.7-.1 1.2 0 1.9-.4zm76 51.3c-.1-.5.4-1.2-.6-1.5.1.7.1 1.2.6 1.5zM87 155c.7-.1 1.4-.1 2-1-.9.2-1.4.6-2 1zm65.5-28.9c.3.4.6.6 1 .7 0-.3.1-.6 0-.9-.4-.2-.7-.1-1 .2zm-60.6 25.4c1.6-.7 1.6-.7 1.6-1.3-.6.4-1.1.9-1.6 1.3zm-58.4-25.2c.3 0 .7-.1.6-.5 0-.4-.3-.6-.7-.5 0 .4-.1.7.1 1zm62.7-6.2c-.3.9-.6 1.8-.5 2.8.2-.9.4-1.9.5-2.8zm36.5 45.5c.6 0 1.1-.2 1.7-1-.9.3-1.4.5-1.7 1z" class="st0"/><path d="M101.1 166.1c-1.5-.6-2.1-2.1-3.2-3.1-1.3-1.2-1.3-2.7-1.5-4.1 0-.2-.3-.8.4-.7h0c.8 1.2 1.2 2.5 1.3 4.1.5-.8 1-.5 1.5-.5.7-.1 1.3-.2 1.4-1s0-1.6-.8-2.1c-.2-.2-.5-.1-.7.2.9.3 1.5 1 1.2 1.9-.3.8-1.3.6-2 .7-.1-.1-.2-.1-.2-.2-.1-2.1-.9-4.1.1-6.2 1-2.2 2-4.5 3-6.8 1.8 1.4 3.8 1.6 5.9 1.6.7 0 1.4.3 1.9.9 1.9 2 3.7 4.1 5.5 6.1.3-.6.9-.9 1.3-1.5.9-1.2 1.9-2.3 2.8-3.5.4-.5.7-.6 1.4-.7 2.6 0 5.3-.1 7.9-.7 1-.2 1.8-.8 2.5-1.9.7 1.8 1 3.5 1.3 5.1.1.4-.3.5-.5.7-1.9 1.5-2 2.1-.8 4.2.4.8 1 1.5 1.5 2.3-.7.3-1.4.7-2.2 1.1-.5-2.7-1.4-5.3-2.4-7.8.7 2.4 1.3 4.7 1.9 7.1.2.8-.1 1.2-.8 1.4-4.3 1.1-8.6 1.9-13.1 1.8-.9 0-1.5-.3-1.9-1.2-.3-.6-.7-1.1-1.6-1-1.4.2-1.9 1.1-1.3 2.4l.6 1.2c-3.5.2-7 .2-10.4.2zm14.6-8.5c.3-.3.5-.4.6-.5 1-1.2 2.1-2.3 3-3.6.5-.7 1.1-1.1 2-.9.7.1 1.5.1 2.3.2-2-.4-4-1-5.3 1.5-.4.7-1.1 1.3-1.7 2-.3.2-.7.5-.9 1.3zm-13.3-8.3c-1.3 2-2 4.4-3.5 6.5 1.1-.6 3.5-5.1 3.5-6.5zm-19.9 16.8c-.4-2.8-.6-5.7-.8-8.6 1.7-.5 3.4-.9 5.1-1.1.8-.1 1.1.4 1.4 1 1.7 2.7 2.1 5.7 2.2 8.7h-7.9 0z" class="st0"/><path d="M135.9 166.1c-.4-1.6-1.3-2.9-2.1-4.3-1-1.6-1.9-3.2-2.9-4.8-.3-.4-.1-.7.2-1 .3-.4.6-.8 1.2-1 .4 1 .6 2.1.8 3.2.3 2.2.9 2.7 3.2 2.7 3.2 0 6.5.1 9.3-2.4-.2 1.7-1.5 2.7-1.8 4.1.8.1.8.1 1.9-1.4 0 1.7-.5 3.3-.3 5H140v-1c.1-.7-.2-1.2-.9-1.5-.7-.4-1.3-.2-1.9.2-.8.6-1 1.4-.9 2.3-.1-.1-.2-.1-.4-.1h0zm-62.8 0c0-1.7.1-3.3 0-5 0-1.1.3-1.8 1.5-2.1 1.4-.4 2.8-1.1 4.3-1l2.7 8.1h-8.5zm-9 0c-.1-1.5.2-3 .4-4.4.1-.4.2-.7.7-.8l3.9-1.5c1.3-.5 1.6-.3 1.9 1 .5 1.9 1.4 3.7 1.3 5.7h-8.2zm49.3 0c.2-1.2.4-1.3 1.6-1.2 3.5.2 6.9-.2 10.2-.9 2.3-.5 4.6-.9 6.7-2.1.6-.4 1.1-.2 1.5.4.3.5.6 1 .7 1.7-1.1.3-2 .9-3 1.5-.3.2-.7.3-.4.8-5.8-.2-11.5-.2-17.3-.2zm-22.6 0c.2-2.7-.5-5.3-.7-8-.1-1.3-.1-2.5-.2-3.9 1.2.2 1.9.7 2.3 1.7 1.4 3.3 2.6 6.7 3.3 10.2h-4.7zm-34.5 0c0-.2 0-.5.3-.6 1.7-.8 3.3-1.7 5-2.5.1-.1.3 0 .6-.1v3.2h-5.9 0zm55.6 0c-.3-.5-.7-1.1-.8-1.7-.1-.5-.1-1 .5-1.3.5-.3 1-.4 1.5.1.4.4.7.9.4 1.6-.2.5-.7.8-.7 1.3h-.9 0z" class="st0"/><path d="M139.5 166.1h-2.9c0-.5.1-1 .4-1.4.4-.6 1-1.1 1.8-.9.8.2.7.9.7 1.5v.8h0z" class="st0"/><path d="M139.5 166.1v-.7c0-.6.1-1.3-.7-1.5s-1.4.2-1.8.9c-.3.4-.4.9-.4 1.4h-.2c-.1-.9.1-1.7.9-2.3.6-.4 1.2-.6 1.9-.2.6.3.9.8.9 1.5v1c-.3-.1-.5-.1-.6-.1h0zm7.3 0c-.1-1.1.8-.8 1.4-1 .2.4 0 .7 0 1h-1.4zm-84 0c0-.7.1-1.4.1-2.4.4.9 0 1.7.3 2.4h-.4zm48.6-82.5c.1.2.4.4.1.7 2.1.3 3.1-1.3 4.3-2.5 3-2.9 5.3-6.3 7.5-9.8.9-1.5 1.7-3 2.6-4.8.1 1.7.2 3.1.3 4.6-.9.1-1.8-.4-2.7.2.5.4 1 .4 1.5.4.9 0 1.4.4 1.5 1.4.6 4.1 2.1 7.8 4.6 11.1.4.5.8 1 1.4 1.3.7.3.7.8.3 1.3-1.4 2-2.7 4-4.8 5.3-.2.1-.3.2-.2.5 1.1.6 2.2 1 3.5 1.1-.6 1-1.2 1.8-2.2 2.4-3.2 1.8-6.6 2.5-10.1 2.6-4.1.2-8.2 0-12.2-1-.4-.1-.8-.2-1.1-.4-3.5-2.6-7.2-4.7-10-8.1-.9-1.1-1.3-2.1-.6-3.4.6-1.2 1.2-2.3 1.6-3.6.3-1.1 0-2.1.1-3.2.3.8.6 1.5.9 2.3.2.7.5 1.3.9 1.9 1 1.5 2.5 1.5 3.7.1.6-.7.8-1.5.9-2.3.2-2.2 0-4.3-1.7-6-.8-.7-1.5-.8-2.3-.1-.5.5-.9 1-1.4 1.6-.2.3-.3.7.1.9 1.1.6 1.3 1.5.9 2.6-.1.4-.4.8.1 1.3.5-1.2 1.6-1.4 2.7-1.5.7-.1 1 .2.9.9-.1 1.1-.4 2.1-1.4 2.8-.7.5-1.2.4-1.7-.2-.3-.4-.5-.9-.7-1.4-.3-.8-.6-1.6-1.1-2.3-1.5-2.1-1.3-4.7-1.6-7.1-.3-1.9.6-3.1 2.1-4.1 1.8-1.2 3.2-2.7 4.6-4.5 1.7 1.3 3.2 2.4 3.3 4.9 0 2.6.5 5.2 1.3 7.8.6 2.1 1.7 3.9 2.8 5.7.3.3.8.5 1.3.6h0zm11.2-1.5c.3.1.5.1.6.2 2.4 1.3 3.9 3.1 4.2 5.9.1.5 0 1.2.8 1.4.1-.7.2-1.4.4-2.1.2-1 .1-2.2 2-1.6-1.5-1.6-2.3-3.4-3.9-4.5.4-.5.9-.3 1.1-.7-.1-.2-.3-.3-.5-.3-2.2-.4-4.4-.5-6.5-.3-1.9.2-3.7.8-4.5 2.7.2.1.3-.1.4-.2.4-.2.8-.7 1.2-.2.3.4.1 1-.4 1.3-.2.1-.3.3-.4.5-.6 1.7-1 3.4-.5 5.2.4 1.4 1.5 1.9 2.8 2.1 1.2.2 2.2.1 2.9-1 1.4-2.2 1.9-4.6.9-7.1-.2-.4-.4-.7-.6-1.3zm-25.7-9.9c1 .9 1 .9.5 1.9-.2.4-.3.8.1 1.2.1-.2.2-.3.3-.4.9-1.6 1.6-1.7 3.2-.8 1.7 1 2.9 2.5 4 4.2.4.5.3 1 .1 1.6-.1.2-.4.4-.2.8.6-.6.6-1.4.9-2 .5-.8.4-1.6-.1-2.4-1.4-2.1-3-4-4.9-5.6-.2-.2-.4-.5-.8-.4-.6 1.2-1.5 1.9-3.1 1.9zm8-.9c-.5 1.1-.2 2.5.8 3.6-.2-1.4-.3-2.5-.8-3.6zm4.3 12.7c-.8-1.6-1.6-3.1-2.5-4.7.7 1.7 1.3 3.3 2.5 4.7zm-7.2-2.9c-.8.2-1.5.1-2.2.8.7.1 1.2.2 1.9.4-.5-.6.2-.7.3-1.2zm48.4-23.4c1-.7.9-1.6.9-2.7-.1-1.9-.2-3.8-.2-5.7 0-.7-.3-1.3-.7-1.8-2.9-3.8-6.5-6.6-11.1-8.2-3.8-1.4-7.6-1.7-11.6-1.4-.5.8.2 1.5.3 2.5-.9-.7-1-1.5-1-2.4 0-.8.8-.5 1.2-.6.9-.2 1.8 0 2.7 0-1.2-.9-1.7-1-7.5-.6-.1 2 .5 3.9 1.3 5.7-.6.1-.8-.3-1-.7-.5-1-.8-2-.9-3.1-.3-4 .1-7.9 1.3-11.7.1-.3.1-.6.6-.8-.9 3.2-1.4 6.3-1.4 9.6h3.5c1.7 0 3.4 0 4.9 1.1.4.3.8.3 1.3.4 3.1.2 6 1.1 8.9 2.3 3.3 1.4 5.9 3.7 8.3 6.3.2.2.5.5.9 1 .2-1.6.4-3 .6-4.3.1-1.2.4-2.4.7-3.6.1-.5.4-.9 1-1 1.5-.2 3.1-.5 4.7-.5 1.4 0 1.6.3 1.4 1.6l-1.5 8.1c0 .2-.1.5-.1.8.7-.3.9-.9 1.2-1.3 1.4-2.1 3.1-4 4.7-5.8.3-.4.7-.7 1-1 1.4-1.2 2-1.2 3.4 0 .8.7 1.7 1.3 2.5 1.8 1.6 1.1 1.8 2.3.4 3.5-3.1 2.6-5.9 5.7-9.5 7.8-1.6.9-3.1 1.9-4.7 2.9-.4.2-.7.3-1.1.2-1.4-.3-2.7.2-3.9.8-.7.2-1.1.5-1.5.8h0zM64.7 36.1c-1.7 2.3-3.8 4.3-5.7 6.4-.5.5-1.1.8-1.7 1.2-.3.2-.6 0-.7-.3-.1-.2-.2-.5-.3-.7-.4-.1-.6.3-1 .1-.2-.7.4-.9.8-1 .8-.2 1.1-.7 1.1-1.4-.3-.2-.5 0-.6.1-1.4.9-3.1.6-4.5 1.3-.2.1-.5 0-.6-.2-.2-.3-.1-.7.1-1 .3-.4.8-.4 1.1-.7-.1-.1-.2-.2-.3-.1-2 .5-4.2-.1-6.1.8-2.5 1.1-4.7 2.6-6.6 4.5-2 2-3.8 4.3-5.2 6.8-1.8 3.3-2.7 6.9-3.3 10.7-.7 4.7-.9 9.4-.9 14.1 0 3.7-.5 7.4-.9 11.1-.2 1.8-.4 3.6-.7 5.4-.1.6 0 1.1.9 1.1-.5.5-1.2.7-.9 1.6 1.3-.3 2.1-1.3 2.9-2.1 2.1-2.1 2.4-4.9 2.8-7.5.2-1.3.2-2.6.1-3.8-.1-1.1-.5-1.5-1.6-1.3-.7.1-1.1-.2-1.3-.8-.3-.8-.5-1.6-.4-2.4.2-1.1.2-2.3.2-3.4-.2-3.5.6-6.9.7-10.4 0-1.1.9-2 1.1-3.1.1-.7.4-1.4.7-2.1.2-.5.4-.9 1.1-.9-.4 1.6-.9 3.1-1.2 4.6-1 4.6-1.4 9.2-1.3 13.8 0 .4 0 .9.1 1.3.3 2.2.3 2.2 2.4 2.7.7 4.1.4 8.1-1.2 11.9-.9 2.1-2.6 3.7-5 4.1-.5.1-1 .1-1.5-.1.3-.4.5-.8.1-1.3-.6.6-1 1.5-2.1 1 0-.1-.1-.2 0-.2 2.3-1.9 2.3-4.7 3-7.2 1.5-5.5 1.3-11.2 1.5-16.8.2-4.8.6-9.5 1.9-14.2 1.8-6.7 5.5-11.9 11.2-15.8 1.6-1.1 3.3-1.9 5.2-2.2.9-.1 1.6-.6 2.4-1.2 1.8-1.5 3.8-2.4 6.3-1.9.4.1.8.1 1.2.1.8-.1.9-.7.9-1.3-.1-.8-.7-.4-1.1-.3-1.2.3-2.4.6-3.7.4-.9-.1-1.1-.6-.5-1.2 2.4-2.4 4.4-5 6.7-7.4 0 0 .1 0 .3-.1.8 2.2.2 4.4.3 6.7-.8-.5-.8-.5-.8-2.7 0-1 .3-2 .3-3.3-2.2 2.5-4 5-6.3 7.1 0 .1.1.2.1.3 1-.2 2.1-.4 3.1-.5 1.5-.3 2.4.6 1.9 2.1-.6 2-.6 4.2-1.6 6.2.8-.9 2.1-1.4 2-2.8 0-.2.1-.5.3-.5 1.7-.3 2.4-1.8 3.3-2.9.9-1.2 2.1-2.2 2.8-3.8-1.6 0-3.1.7-4.6.7 1.5-1 3.3-1.3 5.2-1.3-.2 1.1-.5 2.1-1.2 2.9-.2 0-.6.4-.7 1.1h0zm-6.6.9c-2.6-.1-5.2-.1-7.3 1.7.8 0 1.5-.2 2.2-.3.8-.1 1.4.4 2.1.8-.4.4-1.5.1-1.1 1.2.8-.1 1.4-.8 2.1-.9 1.5-.2 1.8-1.1 2-2.5zm105.8 86.4c-1.6-1.8-2.7-3.7-2.4-6.4.5 1 .3 2.1.8 3 .3-.3.2-.6.1-.9-.7-3.3-.4-6.7-.1-10 .7-7.4 2.3-14.7 3.4-22.1.9-6.3 1.9-12.7 2.2-19.1.2-3.5-.3-6.8-1-10.2 0-.2-.1-.4 0-.6.7 1.1.9 2.4 1.1 3.6.6 3.9.6 7.8.2 11.7-.7 7.9-1.9 15.7-3.3 23.5-.7 4-1.7 7.9-2 12-.3 4-.5 8 .1 11.9.3 1.3.7 2.4.9 3.6h0zm-91.6-53c.3 1.2.8 2.3 1.4 3.3-.4.4-.6.1-.9 0-1.3-.9-1.6-2.3-1.8-3.7-.1-.5.4-.7.8-.9.6-.3 1.2-.1 1.9-.2-.4-2.2-1.2-4.1-2.3-6 1.8 1.7 4 2.4 6.6 2.7-.3-1.1-.8-1.8-1.4-2.5-.7.2-.1.8-.6 1.2-1-1.9-2.4-3.6-3-5.7 3.7 1.4 5.1 4.5 6.7 7.9-1.1.2-1.9.3-2.7.4-1 .1-1.4.6-1.3 1.6.1.4.1.9-.2 1.4-.5-.5-.9-.6-1.4.1-.2.5-1.1 0-1.8.4zm1.3-4.8c.4.4.5.8 1 .7.2-.1.2-.3.1-.4-.2-.5-.6-.5-1.1-.3z" class="st0"/><path d="M156.4 110.3c-.2 6.3.5 12.5 4 18-1.2-8.4 0-16.8 1.1-25.1.4.3.3.7.3 1.1-.1 2.5-.3 5-.6 7.4-.7 5.5-.8 11-.2 16.6.1.6.5.9.6 1.7-.9-.7-1.8-1.1-2.3-2-.7-1.2-1.5-2.5-1.8-3.9-.5-2.1-1.6-4-1.7-6.2 0-.7-.1-1.3.4-1.9.3-.3.2-.8.2-1.2v-4.5h0zm1.6-53.1c.6-.2 1 .3 1.3.6 2.4 2.1 3.4 5.8 2.3 8.8-1.2 3.3-3.6 5.3-7.1 5.5-2.3.1-4.4-.8-6-2.7-.1-.2-.2-.3-.4-.5 0 0-.1 0-.2-.1-.3 3.1-.6 6.1-.6 9.2s.6 6.1 1.9 9c-1.1-1.2-1.8-3.2-2.1-5.7-.4-3-.2-6.1.1-9.1.2-1.9.5-3.8.1-5.7-.5-2.3 0-4.6.3-6.9.1.5.4 0 .7.1-1.2 2.5-1 5.1-.3 7.7.4 1.5 1.6 2.4 3 3.1 3 1.4 6.5 1.3 9.1-1.6 1.4-1.6 1.5-3.6 1.4-5.6-.3-2.5-1.3-4.6-3.5-6.1 0 0 0 0 0 0z" class="st0"/><path d="M151.7 68.7c-1.4-1.6-1.5-3.5-1.2-5.4.2-1.7.5-1.8 2.1-1 .8.4 1.6.7 2.2 1.3.4.3.5.7.2 1.2-.9 1.4-1.9 2.8-3.3 3.9zm-60.2-5.6c-.6-3-.7-6-2.1-8.7s-2.9-5.2-5.3-7.5c1.2.2 1.9.7 2.5 1.5 2.9 3.8 4.8 8 5.1 12.8 0 .5.3 1.2-.2 1.9zM145 85c-.3 2.2-1.3 4.2-1.8 6.4 1.7-1 3.1-3.2 2.8-4.3.6.2 1.1.5 1.9.8-.8 0-1.2.2-1.5.8-.7 1.3-1.5 2.6-2.8 3.5-1.1.8-1.6 1.9-2.3 2.9-.4.6-.7 1.3-1.5 1.7 2.8-3.5 3.4-7.8 4.6-11.9.3 0 .4.1.6.1z" class="st0"/><path d="M87.5 56.9c-1.4-2.8-3.2-5.5-4-8.7.7-.1.9.4 1.2.7 1 1.2 1.5 2.6 2 4.1.4 1.3.7 2.6 1.1 3.9-.1-.1-.2 0-.3 0zM158 72c-1.2 4.7-1.3 9.6-2.3 14.3.1-4.8.3-9.7 2.3-14.3zM80.6 50.1c-2.2-1.3-3.4-3.6-5.7-4.8-2.2-1.2-4.5-2.2-7-2.8.4-.7.9-.6 1.5-.5 1.8.4 3.3 1.6 4.9 2.3 1.5.7 2.7 1.8 3.8 3 .8 1 1.7 1.9 2.5 2.8zm17.8 6.3c1.5-3.5 3.3-6.8 6.6-8.9-2.5 2.7-4.6 5.8-6.6 8.9zm15.1 26.2c-3.1-1.6-5.2-4.1-4.8-6.8.5 1.3 1 2.7 1.9 3.8.9 1 2.1 1.9 2.9 3zm23.8-19.2c-.2-4.2-1-8.1-2.2-11.9 1.5 3.8 3.1 7.6 2.2 11.9zm20.7-6.2c-.3-.3-.8-.2-1.1-.6 1.1-.1 2.1-.4 3-.8 1.6-.6 3.3-.7 5-.6.6.1 1.1.3 1.7.7-2.9-.7-5.6 0-8.3.8-.1.2-.2.4-.3.5h0zm-108.9 83c-.5-1.9-1.1-3.7-.9-5.7 0-.2 0-.5.1-.7 0-.1.1-.2.3-.4.2 2.2.7 4.2 1.1 6.3.1.3.2.8-.4.7-.1-.1-.2-.1-.2-.2h0zM85 72.6c-1.4.2-2.8-1.2-4.1.3-.1-.7.7-1.5 1.3-1.4 1 .2 1.9.5 2.8.8v.3zm71.3 26.7v9.3c.1-3.1-.3-6.2 0-9.3zM84.4 64.1c.6.1.5.9.9 1.3.2.2.3.4.1.6-.1.1-.2.1-.4.1-.4 0-1.1-1.2-1.1-1.6.1-.3.3-.4.5-.4zm27.6 46.2c-1.6-.9-3.1-2-4.4-3.3 1.6.9 3.1 2 4.4 3.3zm17.4-3.9c-1.3.9-2.6 1.7-4.3 1.7 1.4-.6 2.8-1.1 4.3-1.7zm-48.9-33c-1.2.4-2.1-.1-3-.6 0-.1 0-.2.1-.3.9.4 1.9.7 2.9.9zm-.6-29.7c1.1.3 1.9 1.1 2.6 1.9-1-.5-1.9-1.1-2.6-1.9zm-9.6 28.7c.9.2 1.2.7.9 1.5-.8-.3-.9-.4-.9-1.5zm43.2 9.1c.7-1.4 1.3-2.9 2.3-4.2-.7 1.4-1.4 2.9-2 4.3-.1 0-.2-.1-.3-.1zm-38-9.8c.5 1.1.3 1.7-.7 2.3.4-.6.3-1.5.7-2.3zm11.3 4.5c.6.9.9 1.7-.1 2.5.2-.9 0-1.7.1-2.5zM33.9 55c0-.9.5-1.4.9-1.8 0 .7-.2 1.2-.9 1.8zm56 51.8c1.9-2.2 2.8-4.9 3.4-7.7v-.3c-.2-1.2-.2-1.2 1.2-1 .4.1.9.1 1.4.2-.3 1.2-.2 2.3-1 3.2-.2.2-.2.6-.1.9.8 2.8 2.1 5.1 4.7 6.6 1.3.8 2.6 1.8 3.9 2.5.4.2.6.6.7 1 .3 1.2.2 2.3.2 3.5 0 .3-.1.5-.4.6-1.1.2-1.5 1.1-1.8 2.1-.6 1.6-.7 3.4-1.2 5-.3 1-.5 2.1-.4 3.2 0 .6.2.8.8.9 1.3.2 2.6.5 3.9.9.6.2 1-.1 1.2-.6.3-.8.6-1.5.6-2.4-.1-2.2-.1-4.4-.2-6.5 0-1.2-.4-2.2-1.8-2.5.5-1.8-.3-3.4-.6-5.3.7.2 1.3.4 1.7.9-.3-.1-.5-.2-.9-.3.1.7.5.9 1 1 6.3 2.1 11.4 6 16.4 10.1.9.7 1.4 1.8 1.7 2.9.2.8-.2 1-.7 1.1-1.7.5-3.4.7-5.2.7-3-.1-6-.4-8.9-.8-.7-.1-1.4-.2-2.3-.1.7.6 1.4.4 2 .5 3.1.3 6.2.6 9.3.8 2.1.1 4.1-.1 6.1-.9.2-.1.5-.2.6-.3.8-.6 1-.6 1.4.4.7 1.9 1 3.8 1.3 5.8.5 3.7 1.2 7.3 2 10.9-1-1.9-2.4-3.6-2.5-5.9-.1-2-.6-4-1.1-6-.3-1.4-.8-2.9-1.1-4.3-.3.6-.1 1.2.1 1.8.8 2.7 1.3 5.5 1.8 8.3.1.5 0 .9-.4 1.3-.7.6-1.2 1.4-1.6 2.3.7-.6 1-1.5 1.9-2 .3.5.2.9-.2 1.2-3.7 4.1-6.8 8.5-9.9 13-.6.8-1.2 1.5-1.8 2.4-4.1-4.1-7.9-8.3-11.3-12.9 4 3.6 7.2 7.9 11.3 11.5.2-.2 0-.3-.1-.4-3.4-3.5-6.5-7.2-10.1-10.6-.9-.9-1.4-1.9-1.3-3.2.1-3.4.1-6.8.2-10.2v-.6c0-.2 0-.5-.4-.5s-.4.3-.4.6c.1 3.3-.2 6.6-.2 9.9 0 1.2-.1 2.3-.2 3.5.4 0 .3-.6 1-.7-1.8 3.6-3.6 7-4.7 10.8-.8-2.4-2.3-4.5-2.2-7.1 0-1.3-.2-2.5-.7-3.7-.8-2.1-1.3-4.2-1.3-6.5 0-3.6 0-7.3.4-10.9 0-.3.1-.7.2-1.1.6.3 1 .6 1.5.9.4.2.2.5.1.8-.7 4.8-1 9.6-.8 14.5 0 .1 0 .2.1.3 0-5.1.3-10.2 1.1-15.3.8 0 1.5.4 2.3.2-1.8-.7-1.8-.7-1.4-2.6.5-2.4.8-4.9 1.8-7.1.7-1.7.4-3.2.1-4.9-.2-1.2-1.8-2.4-3.1-1.6-1 .6-2.2.5-3.4.4-.3 0-.6-.2-.9.1.9.8.9.8 5.9 0 .4 2.7-1.9 4.5-2.3 6.9-.7-1.5-1.4-3-2.5-4.3-1.1-1.4-1.8-3-3-4.3-.2-.6-.4-1-.9-1h0zm29.2 42.1c-1.3 1.4-2.5 2.9-3.2 4.7 1.1-1.5 1.9-3.2 3.2-4.7zM93 103c.1 0 .2.1.3.1.4-.5.5-1.1.4-1.8-.3.5-.5 1.1-.7 1.7z" class="st0"/><path d="M89 81c-.4-1.4-.1-1.9 1-1.9-.9-2.9-1.8-5.7-3.7-8.4 1 .2 1.5.7 1.9 1.4.3.4.5.9.8 1.2 2.3 2.2 2.1 4.9.9 7.3-.9 1.8-.4 3.1.3 4.6.7 1.5.6 2.6-.2 4-1.6 2.9-4.2 4.8-6.7 6.7-3.2 2.5-6.9 4.2-11 4.8-3 .4-6 .3-9 .2-1.2 0-2.1-1-3.2-1.5-.3-.1-.5-.4-1-.4.2.3.4.5.6.8-1.7 1.1-2.7-.1-3.8-2.5 1.3-1.1 2.8-2.1 4.1-3.7-2.3.6-3.1-.9-4.2-2.1-.2-.2-.4-.4-.3-.7.4-2 .2-4.1 1.2-6 .7-1.3 1-2.9 1.3-4.4.1-.5.2-1 .5-1.3 1.7-1.9 3.8-3.3 5.8-4.8 4.1 5.3 8.8 9.4 15.3 10.9-2.1-2.9-5.3-4.9-7.4-7.8.3.2.7.4 1 .6 2.3 1.7 4.9 2.7 7.5 3.5.6.2 1.1.3 1.3 1 .1.4.4.4.8.3 2.2-1.1 4.3-1.2 6.2-1.8h0zm-6.9 13c-.9.9-1.9 1.6-3.1 2.1 1.2-.4 2.5-.7 3.1-2.1.7-.6.7-1.3.6-2.1-.3 0-.6 0-.9.1.2-.4.8-.5.9-1.2-1.4.4-2.4 1.2-3.4 2 .8-.4 1.7-.7 2.6-.8.7.5.1 1.3.2 2zm-24.2-4.8c3.7.1 12.5-2.7 13.5-4.5-1.9 0-3.7-.1-5.4 0-1.1.1-2.1.3-2.8-.8H63c-.3.5.1.9.1 1.3-4.5 2.1-5 2.5-5.2 4zm15.2 8c-.8-1.9-.6-2.4 1.2-2.8.7-.2 1.3-.3 2-.5-.9-.1-1.7.1-2.6.4-1.6.4-1.9 1.4-.6 2.9zm14.6 44c-2.6 1.5-5.3 2.9-8.4 3.1-.7 0-.8-.4-.8-.9-.1-2 0-1.9-2.3-2.2-3.1-.3-6.2-.4-9.3-.3-.4 0-.8.1-1.2.5h1.9c3.1.1 6.1.3 9.2.3.8 0 1.2.2 1.2 1.1 0 1.3.8 2.4 1 3.8.1 1.4.3 2.9.3 4.3 0 .8-.3 1.5-1.3 1.2-.1 0-.4-.1-.4 0-.8 1.2-1.9.4-2.9.4-2.8 0-5.6-.4-8.4-.8-1.4-.2-1.4-.3-1.3-1.7.1-1.3.1-2.7.4-4 .3-1.4.2-2.7 0-4.1-.3-2.1.3-4.2.5-6.3.1-.9.2-1.7.2-2.6-.5 2.9-.9 5.7-1 8.8-2-1.1-3.8-2.2-5.6-3.4.5-2.6 1.5-5.3 2.3-7.9 5.3 2.3 10.7 1.2 16.1 1.4h-3.3c2.7-.9 5.4-1.1 8.1-2v3.8c0 1.4-.1 2.8-.1 4.2 0 .6.2 1 .8 1.3 1.3.9 2.8 1.5 4.3 2h0zm-11.5 10.4c.8-.2.7-.7.7-1v-5.1c0-.5 0-.9.7-1-3.8-.6-7.6-.9-11.4-.9.5.6 1.1.7 1.7.7 2.5.1 5 .3 7.5.4.4 0 .8-.1 1.1.3-.4 2.1-.3 4.3-.3 6.6h0zm-3.1-2.6c.7-1.1.7-2.1.1-2.7-.8.7-.8 1.9-.1 2.7zm-5.1-1.6c.2.4-.3 1.3.4 1.3.8 0 .5-.8.5-1.3 0-.4.3-1.3-.5-1.2-.6 0-.2.8-.4 1.2zm13.3-9c0-1.9.1-3.9 0-5.8 0 1.9-.4 3.9 0 5.8zm1.2 1.2c.5 1.1 1.3 1.9 2.4 2.4-.8-.9-1.7-1.6-2.4-2.4zm-16.8 7.7h0l-.1 3.2h.1v-3.2z" class="st0"/><path d="M60.2 67.4c-.5.5-.5 1.2-.6 1.8-.2 2.2-.4 4.4-.8 6.6-.2 1.3-.6 2.4-1.7 3.3-.7.6-1.2 1.4-1.8 2.2-.7-.5-1.3-1.1-2.1-1.4-.3-.1-.5-.4-.5-.7-.5-3.8.1-7.4 1.1-11.1.2-.7.5-1.4 1.5-1.5.3.8.1 1.7.2 2.5 0 .4 0 .8.6.8.5 0 .5-.5.4-.8-.2-1.4-.6-2.8-.1-4.5-1.1.6-1.9 1-2.7 1.5-.8.6-.9 1.5-.9 2.4 0 .7.1 1.4-.4 2-.6-4 .3-7.8 1.9-11.5-.8-.2-1 .4-1.2.8-.8 1.7-1.3 3.5-1.8 5.3-.2.7-.3 1.3-.6 2-.4-1-.2-2.1.1-3 1-2.9 1.6-6 2.3-8.9.9-3.5 2.5-6.6 5.2-9.1.3-.3.6-.7 1.3-.7.1.9-.3 1.7-.3 2.5 0 4.9 1.3 9.5 3.2 14 1 2.5 1.7 5.1 3.2 7.4 1.7 2.6 3.2 5.2 5.6 7.2.8.7.9 1.8 1.6 2.5 1.3 1.2 2.6 2.5 4 3.6.4.3.8.6 1 1.2-5.4-2.1-9.2-5.8-12.7-10 .1-.5.8-.4.6-.9-.2-.4-.6-.3-.9-.3-.6 0-.8-.4-1.1-.8-1.8-2.4-3.4-5-4.4-7.9-.1-.4-.2-.8-.6-1 .3 1.6.3 3.2 1.4 4.5h0zm-2.3 3.1c-.2 0-.4 0-.5-.1-.1 1.7-.4 3.4-.6 5.1.5-1.6 1.5-3.2 1.1-5zm82.7 31c1.3.5 2.3 1.5 3.3 2.2 2.7 1.9 4.7 4.4 6.9 6.7.8.8.9 2.2.9 3.5 0 .9.1 1.7 1.1 2.1.7.3 1 1.1 1.2 1.7.4 1.1.7 2.2 1.3 3.3.4.7.2 1.3-.6 1.6-.7.3-1.3.8-1.9 1.3-1.2 1.2-2.8 1.9-4.4 2.5-1.4.5-1.5.9-.4 1.8.4.3.4.4.7 1.4-.7-.2-1.2-.7-1.6-1.3-3.4-4.7-6.5-9.6-9.3-14.7-.7-1.2-1.7-2.3-2.2-3.6-.3-.7-.2-1 .3-1.4 1.3-.9 2.3-2.2 3.2-3.5 1.1-.9 1.5-2.2 1.5-3.6zm.3 3.6c-.7.6-.7 1.3-.2 1.9.4.6.6 1.2.8 1.9.7 1.7.1 3.4 0 5.1 0 .9 0 1.9.7 2.5.5.4.5.8.3 1.3-.3.5-.6 1.1-.1 1.7.4.5 1 0 1.5.1.1 0 .2 0 .3-.1 1.4-.3 1.7-.9 1-2.1-1.2-2.2-2-4.5-2.6-6.9-.4-1.8-1-3.6-1.7-5.4zm-89.6 38.4c-1.7-4.4-2.4-8.8-1.6-13.3.1.7.2 1.3.1 2.1.5-2.9 2.6-4.8 4.1-7.1 1.3-2 2.3-4 3.1-6.2.4-.9 1-1.3 1.8-1.3 1.8 0 3.6.3 5.1 1.5.4.3.6.6.3 1-1.4 2.7-1.9 5.6-2.9 8.4-1.1 3.1-1.9 6.3-3.1 9.4-.8 2-2.4 3.4-4.5 4.2-.7.4-1.5.7-2.4 1.3h0zm16.9-39.6c1.8-1.1 3.4-2 5.2-2.3 3.5-.7 6.7-2.1 9.4-4.4 1.1-.9 2.3-1.6 3.3-2.5 1.8-1.5 3.7-3 4.7-5.4.1 1.2-.7 2.9-1.5 3.5-1 .8-1.9 1.7-3.1 2.2 1.6 0 1.6 0 1.8 1.6.1 1 .2 1.9.3 2.9 0 .5.3.8.8.8 1 .1 2 0 3 .4.2.3 0 .6-.1.9-1 2.7-2.7 4.9-4.9 6.8-2.7 2.4-5.8 3.4-9.3 3.6-2.5.1-4.9.5-7.4.5-1 0-1.2-.3-.9-1.3.5-1.7 1.1-3.4.4-5.3-.2-.4 0-.8.5-1 1.6-.6 3.3-.9 5-1.2-.1 1.3-.3 2.4-1.4 3.1-.8.5-1.6 1.2-2.4 1.8-.8.6-1.2 1.3-1.4 2.4 1.7-1.2 3.6-2 5.2-3.3.9-.8 1.4-2 2.2-2.9 2-2.7 4-5.4 6.1-8-.8.4-1.4 1.1-2 1.8-.6.6-1.3.9-2 1.3-3.1 1.7-7 1.7-9.9 3.9-.4.4-.9.4-1.6.1zm69.4 33.4c1.2 7.7 1.9 15.3 4.8 22.6-2.7.4-5.5.1-8.1.1-1.6-7.4-3.3-14.8-4.9-22.2 1.3.9 2.7 1.2 4.2 1.1 1.3-.3 2.6-.8 4-1.6h0zm-4-10.7c.3.8.4 1.2.6 1.7-1.8 1.3-4.9.9-6.5-.5-.7-.7-.8-1.7-.9-2.7-.3-1.9-.3-3.9-1.3-5.7.3 2 .6 4.1.9 6.1-.1 0-.2.1-.3.1-1.8-2.8-3-5.9-3.3-9.4 2.1-.1 4-.4 5.9-1.1 1.1-.4 2.1-1 2.9-1.8.8-.9 1.6-1.7 2.5-2.5.3-.3.5-.7 1.1-.6.4.6.5 1.3.6 2 .3 4.4.7 8.8.9 13.2.1 1.2-.2 2-1.3 2.5-.2.1-.5.3-.7.4-.6-.4-.5-1-1.1-1.7h0z" class="st0"/><path d="M63.4 125.1c-.2-1.6 1-4.6 1.9-5.2-.6-2.5-2.8-2.6-4.8-3-.9-.1-1.8 0-2.7.2-.7.1-1.2.4-1.4 1.4-.2 1.1-.9 2.2-1.5 3.3-.6-.1-.6-.6-.5-.9.3-1.1.3-2.3 1.5-3.1.6-.4.9-1.1 1.5-1.5.3-.2.2-.5.1-.9-.3-1.3-.5-2.6-.7-3.9-.2-1.1 0-1.3 1.1-1.1 2 .4 4 .2 6-.4.3-.1.7-.1 1-.1 1.1.2 1.3.8.7 1.7-.2.3-.4.6-.7.8-.7.5-1.2.4-1.5-.4-.2-.4-.2-.9-.3-1.3-.5.7-.3 1.3.1 1.9.4.6 1 .7 1.6.3.9-.5 1.3-1.2 1.2-2.2-.1-.9-.9-1.1-1.6-1.2-.4-.1-.7-.2-1-.4-1.2-1.2-2.3-2.4-3.3-3.7-1.2-1.8-.3-3.5-.1-5.2.5-.1.7.2.9.3.9.4 1.4.9.9 2-.2.5-.2 1.1-.2 1.6s.1 1 1 1c-.5-1.2-.6-2.3-.1-3.5 1 .4 1.6.9 1.6 2.1 0 1.7.5 2.2 2.3 2.1.8 0 1.2.3 1.6.9 1.5 1.8 1.4 3.7.2 5.7-.8 1.4-1.5 2.9-2.3 4.3-.2.4-.3.9-.2 1.3.3 1 .3 2 .4 3.1.3 2.2-.4 3.3-2.7 4h0zm-32.6-8.7c.8-1 1.9-1.7 3-2.4s1.6-1.5 1.5-2.8c-.1-.5 0-1 0-1.6-.4.2-.5.4-.4.8.4 1.8.2 2.2-1.3 3.2l-3.9 2.7c-.4-.7-.2-1.4-.2-2.1 0-.9.2-1.8-.2-2.7-.1-.2-.1-.3 0-.5 1-1.1 2-2.3 3.3-3.4 0 1.7-1.1 2.3-2.2 3.2.8 0 .9.1 1.5-.3 1.4-1.1 3.1-1.2 4.8-1.6 4-1 8.1-1.6 12.3-2.2.5.9 0 1.7-.6 2.3-3.4 3.1-6.7 6.2-10.1 9.3-.4.4-.9.9-1.6.7-.6-.2-.4-1-.6-1.5-.2-.4.1-.8.1-1.2 0-.2-.1-.5-.4-.5-.2.1-.4.3-.3.6.6 1.2.4 2.6.5 3.9-.5 0-.1-.5-.5-.6-.5.2-1 .4-1.6.2-.3-.1-.7-.1-.7-.5-.1-.3.2-.5.4-.7.3-.3.8-.5 1.1-1.1-1.2.6-2 1.4-3.1 2.1-.2 0-.2-.4-.5-.4h0c-.1-.4.3-.5.6-.6 1-.6 2-1.1 2.8-1.9.8-.7 1.1-1.6.9-2.8-.3 1.4-1.1 2.2-2.6 2.2-.8-.2-1.3.3-2 .2 0 0 0 0 0 0zm-.3-2.9c1.5-.5 3.5-2 4.1-3.1-1.4.9-2.8 1.7-4.1 3.1zM84.8 152c-.1.8-.2 1.4-.3 2-.3 1.7-.6 2-2.2 2.3-2.3.5-4.6.9-7 1.4-1 .2-1.9.2-2.9.1l-5.4-.3c-2.3-.1-4.4-1-6.3-2.2-.6-.3-.7-.7-.3-1.3.3-.6.6-1.2.7-1.9-.4.8-.9 1.6-1.3 2.4-.7-.2-1.1-.7-1.6-1.2-2.6-3-2.3-1.8-1.1-5.6.1-.3.1-.6.4-.9 1.2 1.8 2.8 2.9 4.8 3.5.9.3 1.6.7 2.3 1.4.8.8 2 .8 3.1 1 2.1.3 4.2.5 6.3.6 3.4.3 6.7-.1 9.9-1.2.1.1.4 0 .9-.1zm-23-.7c1.6 1.4 2.4 3.6 4.1 4.9-1.4-1.6-2.1-3.9-4.1-4.9z" class="st0"/><path d="M48.8 109.2c-.6 2.3.9 3.5 2.5 4.6-.1.2-.1.4-.1.4-.8.2-1.4.6-1.7 1.5-.4.9-1.1 1.7-1.8 2.4-.9.9-1.3 2-1.2 3.3.2 2.3.2 2.3-1.9 3-1.6.6-3.3 1.1-4.9 1.7-.2.1-.5.1-.8.2-.8-2.3-1.9-4.4-2.1-6.9 1.3 0 2.1-.7 2.9-1.5 2.9-3 6-5.9 9.1-8.7zm39.3 40.7c-2.6 1.2-5.3 1.9-8.2 2.4-.3-.4-.3-.9-.3-1.3-.1-1.8-.1-3.7-.2-5.5 0-.5.1-.7.7-.8 4.9-.7 9.1-2.8 12.7-6.1 1-.9.9-2.3.9-3.5 0-1.6-.5-3.1-.7-4.7-.2-1-.1-1 1.1-1.2v5.3c0 1.8.1 3.6-.1 5.4-.1.9-.3 1.6-.9 2.3.5.1.6-.5 1-.3.4 1.2-.1 2.1-.9 3.1-2.1 2.2-4.3 4.2-7.3 5.1-.2.1-.3.1-.5.2l-.2.2c1 0 1.9-.5 2.9-.6h0zm-4.4-1.8c1.1-.8 2.4-1.1 3.5-1.9-.8.2-1.5.5-2.3.8-.3.1-.6.4-1 .3-.6-.2.3-.6-.1-.9-.9.6-.9.8-.1 1.7h0zm-15-21.3c-.1-1.8.1-3.4.3-4.9.2-1.5.5-3.1.8-4.8 3.6 0 7.3-.4 11.2-.6.2 2.4.5 4.8.7 7.2-2.3.3-4.5.3-6.7.6-2.3.4-4 2-6.3 2.5zm70.9-40.5c-2.4-.7-5.3-1.3-7.7-3-.5-.4-.6-.8-.4-1.4.7-2.1 1.4-4.1 2.2-6.2.3-.9 1-1.2 1.9-1 2.5.6 5 1.5 7.4 2.6.9.4 1.3 1.1 1 2.1-.7 1.9-1.4 3.9-2.1 5.8-.5.7-1.1 1.1-2.3 1.1h0zm3.1-5.8c.3-1.1-.6-2.5-1.7-3-1.6-.7-3.2-1.2-4.8-1.6-.9-.2-1.6.2-2 1-.7 1.4-1.2 3-1.3 4.6-.1.8.2 1.3 1 1.8 1.7.9 3.5 1.4 5.3 1.9.5.1.9 0 1.3-.3 1-.9 1.3-2.2 1.5-3.4 0-.2-.1-.4-.3-.5-.7-.5-1.5-1-2.3-1.6-.3.8-.1 1.1.6 1.4 1.5.5 1.7.9 1.1 2.4-.1.3-.3.6-.5.9-.3.6-.8.8-1.5.7-1.7-.5-3.4-.9-5-1.9-.5-.3-.8-.7-.7-1.4.2-1.4.7-2.7 1.1-4 .2-.6.7-1.1 1.3-.9 2.6.7 5.7.6 6.7 4 0-.1.1-.1.2-.1h0zm-8.4-1.6c.6.5 2.2.5 3 0-.7-.7-2-.7-3 0zm4.7 3c-1.1-.4-2.1-.2-2.8-.9 0 0-.2.1-.3.1v.4c.4.5 2.1.8 3.1.4zm-92.2 9.8h-.7c-1.7-.1-2-.4-2.2-2.1-.2-1.4-.4-2.7-.7-4.1-.1-.5-.1-1.1-.1-1.6 0-.8.5-1.3 1.3-1.5 2.6-.6 5.2-1 7.8-1.1 1.1-.1 1.4.5 1.6 1.3.4 1.6.5 3.2.7 4.8.4 2.6.9 2.7-2.5 3.6-1.7.4-3.5.5-5.2.7zm5.9-6c.1.7.2 1.3.3 2 .2 1.2-.1 1.6-1.2 1.9-1.5.4-3 .6-4.5.6-1.2 0-1.8-.4-2.1-1.5-.2-1.1.2-1.8 1.3-2.2.7-.2 1.3-.6 1.3-1.6-1.3.4-2.3 1.5-4 .8.7 1.4.8 2.7 1.1 3.8.2.7.8 1.2 1.5 1.2 2.1.1 4.1-.1 6.1-.9.7-.3 1.1-.8 1-1.6-.1-1.2-.1-2.5-.2-3.7-.1-1.3-1.1-2.2-2.4-2.1-1 .1-2 .3-3 .4-1.3.1-2.4.6-3.5 1.3-.6.4-.6.4-.3 1.3.8-.9 1.7-1.7 2.9-1.9 1.3-.2 2.7-.4 4-.5 1.2-.1 2.1 1 1.7 2.3-.6.1-1.2-.2-1.8-.4-.3-.1-.6-.3-.9 0-.1.1-.1.3-.1.4.2.3.4.6.8.6.6-.2 1.3-.2 2-.2h0zm-2 1.6c-1.2-.3-2.2.6-3.3.5 1 .6 2.8.3 3.3-.5zm99.3 4.1c-1.4 4.2-2.3 8.4-3.2 12.7 1.7-2.2 2.1-5 3.6-7.3.2 4.3.1 8.5.8 12.8-3-3.7-6.3-6.9-10.7-9.1 4.7-3 7.9-7.5 10.7-12-.1 4.2-.7 8.5-3.3 12.2.7-3.1 1.8-6.1 2.1-9.3h0zm-11-1.3c-.4 1.1-.8 2.3-1.2 3.4-.7 2-1.4 4.1-2.3 6-.5 1.1-1.1 2-2.4 2.2-.5.1-.8.5-1.2.8-1.7 1.7-3.7 3.1-6.1 3.8-.2-.3.1-.5.2-.6 2.6-3.2 4-7 5.4-10.8.2-.5.4-.8.8-1 2.2-1 4.1-2.4 6.1-3.8.1-.1.2-.1.4-.2.1.1.2.1.3.2h0z" class="st0"/><path d="M51.8 114.2c.9 1.5 2.5 1.9 4 2.8-1.6.2-2.3.7-1.3 2 .3.3-.2.9-.4 1.3-.4.5-.3 1 0 1.5.7 1.2-.7 3.5-2.1 3.5-.2 0-.4 0-.6.1-1.6.5-2.2.3-3.3-.9-1.1-1.3-1.3-2.6-.6-3.8.8-1.3 1.7-2.6 2.6-3.9.5-.7 1-1.5 1.7-2.6h0zm107 35.8c-4.3 2.5-8.6 4.9-12.6 7.8.2-1.4.8-2.8-.9-3.7 3.1-2.4 6.1-4.6 9.5-6.3.7-.4 1.2-.4 1.7.2.7.6 1.7 1 2.3 2zm-68.9-43.3c.1.6.4 1.1.7 1.6 1.7 2.3 3.3 4.7 4.7 7.2.5.9.6 1.7.3 2.7-.6 2.1-.9 4.2-1.2 6.3-.1 1.1-1.8 1.7-3 1.1 0-.3.2-.6.4-.8 2.6-3 1.9-6.2.4-9.4-.5-1-1.3-2-1.9-2.9s-1.5-1.8-1.3-3c.1-.5-.4-.8-.9-.8.5-1 1.1-1.5 1.8-2 0 .1 0 0 0 0zm44.7 22.3c0 2.9.6 5.6 1.4 8.5-1.4.6-2.8.9-4.4.7-.8-.1-1.2-.5-1.2-1.3-.3-2.4-.5-4.9-.9-7.4 1.8.1 3.6 0 5.1-.5h0zm-46.9 12.2c-.3-.3-.1-.6.1-.8 1.4-1.7 1.7-3.8 1.7-5.9v-6.1c0-1.8-.3-1.5 1.6-2.3.6.7.6 1.7.7 2.5.4 2.3 1.2 4.5 1.4 6.8.1.9-.1 1.6-1 2-.3.1-.5.4-.7.6-.8 1.5-2.2 2.5-3.8 3.2 0 0 0 0 0 0zm-58.9-29.9c.5 1.7 0 3.3.1 4.8 0 .5-.3.7-.6.9-2.5 1.4-5.3.6-7.1-2-.5-.6-.8-1.3-1.1-2.3 3.3 1.4 6.1.7 8.7-1.4z" class="st0"/><path d="M88.7 122.7c-.9-2.5-1.9-4.9-2.8-7.5 1.5-.2 2.9-.4 4.3-1 .3-.1.5 0 .7.3.7 1.1 1.4 2.2 1.7 3.6.1.6.1 1-.5 1.4-1.1.8-2.1 1.6-2.7 2.8-.1.2-.2.3-.3.5-.2 0-.3 0-.4-.1zm53.6 2.8c.1 2.7.2 5.1.3 7.6 0 .5-.2.7-.6.8-1.2.4-2.3.6-3.6.5-.2-2.3-.5-4.6-.5-6.8 0-.3.1-.5.4-.7 1.2-.7 2.5-1.1 4-1.4h0zm-4.2 2.4c-.2.4-.2.8-.1 1.1.1.4.5.8.5 1.3.2 1.4.5 1.5 1.9 1.1.8-.2.9-.7.8-1.4-.1-.8-.6-.9-1.3-.9-.5 0-.9.2-1.4.1-.3-.3 0-.9-.4-1.3h0zm-52.9 8c-.4-.5-1.2 0-1.4-.6-.2-.5-.1-1 0-1.4.2-.8 1-.9 1.6-.7 1.1.3 1 1.1.7 2.1 1.1-.5 2-1 3.1-1.5.1 2.4-.4 4.6-1.6 6.5-.2.4-.5.3-.8.2-.9-.4-1.9-.7-2.8-1.2-.6-.3-.5-1.2.1-2 .3-.5 1-.8 1.1-1.4h0zm42.1 6.6c.6 1.3 1.1 2.3 1.3 3.4.1.8.2 1.6.4 2.3.3 1.4.3 1.4-1.1 1.8-1.8.5-3.6.4-5.6.5 1.9-2.5 3.8-4.8 5-8zM91.1 80.4c.7 5.3 2.7 10.4 1.7 15.9-2.1-.1-2.9-1.5-2.3-3.2 1.2-3.1 1.4-6.1 0-9.2-.4-.9-.7-1.7.1-2.6.3-.2.4-.6.5-.9zm-63.1 53c.5-.5 1-.9 1.5-1.4 1.3-1.2 2.4-2.7 3.2-4.3.3-.6.6-.8 1.1-.4 1.4 1 2.8.9 4.3.1.5-.2 1-.4 1.5-.4-.5.2-.9.5-1.5.7-1.1.4-2 1.2-2.6 2.1-1.1 1.5-2.6 2.3-4.2 3.1-1 .5-2.1.5-3.1.6-.1.1-.2 0-.2-.1h0zm58.5 20.7c-.1-.9-.1-1.8-.2-2.6 1.9-.6 3.4-1.9 4.8-3.1 1.5-1.2 2.5-2.8 3.8-4.6-.1 2.4-.4 4.4-2.1 5.8-1.7 1.4-3.5 2.7-5.3 4-.2.3-.5.5-1 .5h0zm-22.8-8c.6.2.8.6.7 1.3-.1 1-.2 2-.5 3-1.5-.6-3-1.1-4-2.4.2 0 .3 0 .5-.1-.3-.7.1-1.4.1-2.1-.3.6-.8 1.2-.7 2-.4-.5-.9-1-1.3-1.5-.9-1.2-.9-2-.1-3.4 1.4 1.6 3.1 2.9 5.3 3.2 0 0 0 0 0 0zm63.2-46.4c.7.2 1.1-.4 1.8-.1 0 .7-.3 1-.9.7-2.3-1-4.4-.3-6.6.4-1.4.5-2.8.5-4.3.3-2-.2-4.1-.6-6.2-.5.1.2.2.4.4.7-2.3.1-3.4-1.9-5.1-2.5 4.1 1 8.2 1.3 12.3 1.5 4.2.1 8-1 11.6-3.3 0 .5-.4.9-.5 1.4-.2.7-.6.6-1.2.7-.5.1-1 .3-1.3.7zM69.6 116v-3c3.3.3 6.4-.2 9.8-.3-3.1 2-6.1 3.8-9.8 3.3zm24.8-27.3c1.2 1.5 2.5 2.9 3.7 4.4 1 1.3.5 3.2-.8 3.9-.6.3-.9.2-1.2-.4-1.4-2.4-1.6-5.1-1.7-7.9zm-.1-1.7c-.2-4.5-.4-8.9.8-13.6.5.9.4 1.7.5 2.4.2 1.3.3 2.5.5 3.8.3 1.8.3 3.6-.8 5.2-.4.7-.7 1.5-1 2.2zM60.2 67.4c1 2.1 2.2 4.1 3.8 5.9-1.6 1.2-3.3 2.3-4.8 3.9.8-3.4.8-6.6 1-9.8 0 0 0 0 0 0zm36.5 90.9c-.6-1.2-.7-2.4-.7-3.7-.1-2.5-.5-5-.1-7.5.4 1.2.7 2.4 1.2 3.6.3.8.7 1.6 1 2.4.3.7.4 1.4.1 2.2s-.5 1.7-.6 2.6c-.2.4-.5.5-.9.4 0-.1 0 0 0 0zm46 1.4c-.4-2-.9-3.9-1.5-5.9 1.5.3 2.8.5 4 1.1.9.5.7 1.3.3 2-.6 1.2-1.6 2-2.8 2.8h0zm-90.4-46c1-1 1.7-2.2 3.1-2.8.8 1.4 1.3 2.8 1.5 4.4.1.9-.6 1.3-1.4 1-1.3-.6-2.3-1.4-3.2-2.6h0zM38 71.9c-.1-.1-.2-.1-.2-.2-.5-4.1-.3-8 1.5-11.8.4-.8.7-1.7 1-2.6.1-.3.3-.7.7-.6.5.2.3.6.1 1-1.3 2.7-2.1 5.6-2.4 8.6-.2 1.5-.3 3.1-.5 4.6.1.4.2.7-.2 1zm58.3 29c1.7 2.6 2.8 5.6 5.3 7.7.3.3.7.5.8 1.1-3.2-2-6.4-3.7-6.7-7.9 0-.3-.4-1.2.6-.9 0 0 0 0 0 0z" class="st0"/><path d="M63.7 146.2c-.5-.5-1.2-.5-1.8-.9s-1-.7-.5-1.4c.2-.3.2-.7.3-1.1l.1-.1c.2-.3.4-.6.8-.5 0-.4-.4-.5-.5-.8.1 0 .1-.1.1-.1.2 0 .3.1.5.2 2.2 1 2.6 2.1 1.9 4.4-.2.5-.6.2-.9.3 0-.1 0 0 0 0h0zm39.8-19.1c-1.3 0-2.2-.7-2.2-1.8 0-1.2.7-1.9 2-1.9 1 0 2 1 2.1 2 0 .8-.9 1.7-1.9 1.7zm39.5 18.4c2.6-.7 5.8.3 6.7 2-1.4 1.4-1.8 1.4-3.2.2-1-.8-2.1-1.7-3.5-2.2z" class="st0"/><path d="M61.8 142.6s0 .1-.1.1c-.4.4-.5 1-.8 1.4-2.7-1.4-3-2.1-1.6-5 .5.9 1.3 1.4 2.1 2 .5.5.7.9.4 1.5zm26-47.9c.6-.7 1.1-.4 1.4.1.8 1.1 1.5 2.3 2 3.5.2.5-.5 1.3-1.4 1.5-.7.2-.9-.2-1-.8-.1-.8-.2-1.6-.3-2.5 0-.7-.2-1.3-.7-1.8zm1.7 3.5c.3-.9-.1-1.4-.4-1.9.1.6-.1 1.3.4 1.9zm-9.3 2.3c-1.2 1.7-2.6 3.3-3.6 5.1-.8 1.4-2 2.2-3.3 3 .9-1.6 3.3-2.2 2.5-4.7 1.8-.8 2.3-3 4.4-3.4zM91.6 76c1.4 1 1.9 2.6 1.3 4-.3.6-.3 1.2-.1 1.7.7 1.5.4 3.2.7 5-.8-1.7-2.1-8.9-1.9-10.7zm.6 1.3c-.3.6-.4 1.3-.1 2.3.2-1 .2-1.6.1-2.3zm63.9 69.6c1.8-1 3.9-.2 4.8 1.8-.6.3-1.1.6-1.9 1-.4-1.3-1.7-2-2.9-2.8h0zM50 107.8c.5.8 1.2 1.4 1.3 2.3 0 .4.3.6.6.6.6.2.9.6 1.3.9-.2.7-.9 1-1.1 1.6-1.7-1.3-2.9-3.9-2.1-5.4zm101.9 21.1c.6.4.7 1.2 1.5 1.3-.4 1-1.3 1.5-2 2.3-.6-.9-1.3-1.7-2.3-2.4 1.1-.4 2.1-.4 2.8-1.2h0zm-46.2-62.7c-.9-.9-1.5-1.6-2.5-2.3 1.2-1 1.9-2.4 3-3.4-.4 1.8-.4 3.6-.5 5.7zm12.3 40.7c-1.9-1.5-4-2.7-6-4.3h4c-.5.6-1.1.3-1.6.6 2.1.6 2.6 2.4 3.6 3.7zM39.2 85.5v5.1c-.6 0-.7-.3-.8-.6-.4-.9-.6-1.8-.8-2.7-.2-1.4.1-1.7 1.6-1.8zm122 63.7c.5.7.6 1.3.7 2 .2 1-.2 1.6-1.2 1.7-.1 0-.3 0-.4-.1-.6-.6-.4-1.5-.8-2.3-.1-.3.4-.6.7-.8.3-.1.6-.3 1-.5h0zM55.7 85.9c-.2-1.1-.1-2.1-.4-3-.1-.4.2-.5.4-.7.5-.6.9-1.3 1.7-2-.4 2.1-.8 3.9-1.7 5.7zm-.6 23.9c-.5.6-.9 1.1-1.3 1.6-.6-.3-.4-.6 0-1-1.1-.4-1.4-1.5-2.1-2.3 1.3.3 2.4 1 3.4 1.7zm-18.7 12.3c.8 1.7.1 3.1-1.6 3.3-.2 0-.4 0-.5-.2-.2-.3-.1-.5.1-.8.7-.7 1.3-1.5 2-2.3zm34.5-17.9c.6-.8 1.3-1.2 2.1-1.4.8-.2 1.6-.4 2.4-.7.3-.1.7-.2.8.2.1.4-.1.6-.4.7-1.6.4-3.3.8-4.9 1.2zm10.6 59.4c-.7-2-1.1-3.9-1.9-5.7.4-.4.9-.3 1.4-.4-.3 2.1.5 3.9.5 6.1h0zm22.3-17.2c.7.9 1.8 1.2 2.2 2.4-.6.2-1 .1-1.5 0-1.8-.4-1.9-.8-.7-2.4zM91.4 75c-1.1-1-1.9-2-2.3-3.2.8.1 1.5.5 2.3-.1-.2 1.1-.1 2.1 0 3.3zM67 116.4c.6-1.3 1.2-2.5 1.8-3.8.1 0 .1 0 .2.1-.1 1.1-.1 2.2-.3 3.2-.2.9-1.1.4-1.6.7 0-.1 0-.1-.1-.2zm29.9 1.6c.3-2.7 1.9-4.9 2.7-7.7.1 3.1-2.1 5.1-2.7 7.7zm-1.3-20.6c-.7 0-1.4.1-1.8-.4s-.1-1.1.1-1.6c.2-.6.6-.5.9-.1.4.6.8 1.2.8 2.1zm27.4 49.3c1.2-1.6 2.2-3.3 3.7-4.6-.7 2-2.3 3.3-3.7 4.6zm-57.4 12.1c-.4.5.1 1-.6 1.3-.2-.6 0-1.2-.1-1.9 1.4.4 2.7.3 4.2.3-1.2.6-2.3.9-3.5.3h0zm84.2-9.8c1.5-1.1 3-2 4.9-2.4-1.7.7-3 2.2-4.9 2.4zM65 103.5c1 .4 1.8.7 2 1.8-1.6.4-2.2-.1-2-1.8zm94.3 54c.9-1.2.5-3.2 2.3-4.1-.6 1.6-1.1 3-2.3 4.1zm-6.5-29.5c-.2-.2-.4-.7-.8-.4-.3.3-.4.3-.6 0-.2-.2-.1-.4 0-.5.2-.2.4-.4.7-.2.5.4 1 .8 1.5 1.3.3.3.1.6-.2.8-.5.3-.8.2-1.1-.3 0-.4.5-.3.5-.7h0zm-78.5 3.1c-1.7.9-3.5.6-5.2.2 1.8-.1 3.5 0 5.2-.2zm-36.9-6.3c0 1.1-2.2 2.7-3.4 2.4 1.2-.9 2.3-1.7 3.4-2.4zm-4.4-.5c-.5-1.3-1.1-2.3-1.1-3.6.8.4 1.5 2.2 1.1 3.6zm-.5 8.5c1.3-.7 2.4-1.2 3.4-2.1 0 1.4-1.4 2.3-3.4 2.1zm115.9-2.1c1 .5 1.4 1.7 2.3 2.4.1.1 0 .4-.3.6-1-.8-1.6-1.8-2-3zM30.7 116.4c.6.6 1.2.1 1.9.1-1 1.4-2.1 1.5-2.7.3.2-.4.6-.3.8-.4.1 0 0 0 0 0h0zm123.5 11.2c1.2-.3 1.7-1.3 2.4-2.2.3.6.1 1.2-.6 1.8-.9.8-1.1.8-1.8.4h0zm-82.8 31.8c.9 0 .9 0 .7 2.9-.4-1.1-.6-2-.7-2.9zm67.1-59.4c0 .6.7.7.9 1.2-.2.7-.6.1-.9.2-.2.2.1.6-.3.7-.2 0-.3-.2-.3-.3-.3-.8-.1-1.4.6-1.8h0zm-4.1 2c-.5.6-.8 1.1-1.2 1.5-.2.2-.4.2-.6.1-.3-.2-.2-.4 0-.6.4-.6.8-1.1 1.8-1zm20.6 23.4c.8.4.1.5-.1.8-.4-.1-.5-.5-.7-.8.5-.6 1-1.1 1.9-.8-.2.5-.9.1-1.1.8h0zm-62.2-27c-.2.6.2 1.3-.5 1.7-.3.1-.6-.1-.7-.3-.1-.8.6-1 1.2-1.4zm.2-22.3c-.5-.1-.9-.4-1.2-.8.2-.4.3-.7.5-1.2.4.6.6 1.2.7 2zm57.2 52c.6-.3.6-.3 1.1.3-.4.6-1.2.6-1.9 1 .2-1 1-.7 1.3-1 0-.4-.4 0-.5-.3h0zm-80.3-19.8c-.7-1.2-1.3-2.2-1.9-3.1.1-.1.2-.1.3-.2.6.9 1.5 1.6 1.6 3.3zm7.6 6.6c-.6 1.1-1.7 1.3-3.1 1.5 1.2-.6 2.2-1 3.1-1.5zM43.7 70.6v-3.9c.5 1.3 0 2.6 0 3.9zm51 78.1c.2 1.1.3 2 .1 2.9 0-.9-.9-1.7-.1-2.9zm41.8-11.8c-.2-1.1-.3-2.1-.5-3.2.2 1.1.8 2 .5 3.2zm-32.5 7.9c.7.7 1.2 1.2 1.4 1.9-.5-.5-1.4-.7-1.4-1.9zm-69.3-21.7c.1-1.2 1.2-1.4 1.4-2.2.1 1-.8 1.3-1.4 2.2zm87.6 24.9c-.7.7-.7 1.9-2 2.4.7-1 1.3-1.7 1.8-2.5.1 0 .1.1.2.1zm8.5.5c-.3.3-.5.4-.8.3-.1-.6-.3-1.3-.4-2 .9.4.2 1.5 1.2 1.7zM52.7 79.3c-.7.3-1.2.2-1.9.4.6-.8 1.1-.9 1.9-.4zm76 51.3c-.5-.4-.5-.9-.6-1.5 1 .3.5 1 .6 1.5zm-69 17.2c-.1-.8.4-1.3.7-2 .1.7-.4 1.4-.1 2.1-.2 0-.3 0-.5.1 0-.1-.1-.1-.1-.2h0zM87 155c.6-.4 1.1-.8 2-1-.6.9-1.3.9-2 1zm65.5-28.9c.3-.3.6-.4 1-.2.1.3 0 .6 0 .9-.4-.1-.7-.3-1-.7zm-60.6 25.4c.5-.4 1-.8 1.6-1.3-.1.6-.1.6-1.6 1.3zm-58.4-25.2c-.2-.3-.1-.6-.1-1 .4-.1.7.1.7.5.1.4-.2.5-.6.5zm62.7-6.2c-.2.9-.3 1.9-.5 2.8-.1-1 .2-2 .5-2.8zm36.5 45.5c.4-.5.9-.7 1.7-1-.6.8-1.1 1-1.7 1zm-17-8c.2-.8.6-1.1 1-1.4.5-.7 1.3-1.2 1.7-2 1.2-2.4 3.3-1.8 5.3-1.5-.8-.1-1.5-.1-2.3-.2-.9-.1-1.5.3-2 .9l-3 3.6c-.3.2-.4.3-.7.6h0zm-13.3-8.3c0 1.4-2.4 5.9-3.5 6.5 1.5-2.1 2.2-4.4 3.5-6.5zm20.2-67.2c.2.6.4 1 .5 1.4 1 2.5.5 4.9-.9 7.1-.7 1.1-1.8 1.2-2.9 1-1.3-.2-2.4-.7-2.8-2.1-.5-1.8 0-3.5.5-5.2.1-.2.2-.4.4-.5.5-.3.7-.9.4-1.3-.3-.5-.8 0-1.2.2-.1.1-.2.3-.4.2.8-2 2.6-2.6 4.5-2.7 2.2-.2 4.4 0 6.5.3.2 0 .4.1.5.3-.2.4-.7.2-1.1.7 1.6 1.1 2.3 2.9 3.9 4.5-1.9-.6-1.8.6-2 1.6-.1.7-.2 1.4-.4 2.1-.8-.2-.7-.9-.8-1.4-.3-2.8-1.8-4.6-4.2-5.9 0-.2-.2-.2-.5-.3zm-5.6 5.1c0 .9.1 1.8.5 2.7.4.9 1.1 1.3 2 1.3 1 0 1.7-.4 2.1-1.4.2-.4.2-.9.4-1.3.4-.9.1-1.5-.8-1.8-.8-.3-1.5-.3-1.9.7.7.2 1.5 0 2.1.4-.1.3-.3.6-.4 1-1.1-.7-2.4-1.4-4-1.6zm1.8-.1c.2-1.2-.5-2.1-1-3-.5.7-1 1.2-.8 2 .3.7 1 .9 1.8 1zm4-6.1c1.1.5 1.3.5 3 .1-1-.3-1.9-.7-3-.1zm-25.9-8.8c1.6 0 2.5-.7 3.1-1.9.4-.1.6.2.8.4 1.9 1.6 3.5 3.5 4.9 5.6.5.8.6 1.6.1 2.4-.4.6-.3 1.4-.9 2-.2-.4.1-.5.2-.8.2-.5.3-1.1-.1-1.6-1.1-1.6-2.3-3.1-4-4.2-1.6-.9-2.2-.8-3.2.8-.1.1-.2.2-.3.4-.4-.4-.3-.8-.1-1.2.5-1 .5-1-.5-1.9zm6.9 3c-.8-1.2-1.8-2.3-3-3.5.3 1.9 1.8 2.6 3 3.5zm1.1-3.9c.5 1.1.5 2.3.8 3.6-1-1.1-1.3-2.5-.8-3.6zm4.3 12.7c-1.2-1.4-1.9-3-2.5-4.7.9 1.6 1.7 3.1 2.5 4.7zm-7.2-2.9c-.1.5-.8.6-.4 1.2-.7-.1-1.2-.3-1.9-.4.8-.7 1.6-.6 2.3-.8zM58.1 37c-.2 1.4-.5 2.3-1.9 2.5-.7.1-1.3.8-2.1.9-.4-1.1.7-.8 1.1-1.2-.7-.4-1.3-.8-2.1-.8-.7 0-1.5.2-2.2.3 2-1.8 4.5-1.8 7.2-1.7zm15.5 28.6c.5-.2.9-.2 1.1.2.1.2.1.4-.1.4-.4.3-.6-.1-1-.6zm45.5 83.3c-1.2 1.5-2 3.2-3.2 4.7.7-1.8 1.8-3.3 3.2-4.7zM93 103c.2-.6.4-1.1.6-1.7.1.7.1 1.3-.4 1.8-.1-.1-.2-.1-.2-.1zM57.9 89.2c.2-1.5.8-1.9 5.2-4 0-.4-.4-.8-.1-1.3.1 0 .2-.1.2 0 .7 1.1 1.8.9 2.8.8 1.8-.1 3.5 0 5.4 0-1 1.8-9.8 4.6-13.5 4.5zm15.2 8c-1.2-1.5-.9-2.5.6-2.9.8-.2 1.7-.5 2.6-.4-.7.2-1.3.3-2 .5-1.8.4-2 .8-1.2 2.8zm8.7-5.3c-.9.1-1.7.4-2.6.8 1-.7 2-1.6 3.4-2-.1.7-.6.8-.8 1.2h0zm.2 2c-.5 1.4-1.8 1.7-3.1 2.2 1.2-.6 2.2-1.3 3.1-2.2h0zm.1.1c0-.7.6-1.5-.3-2.1h0c.3 0 .5 0 .9-.1 0 .8.1 1.6-.6 2.2-.1-.1 0 0 0 0zm-5.9 57.6c0-2.3-.1-4.5.3-6.7-.4-.4-.8-.2-1.1-.3-2.5-.1-5-.3-7.5-.4-.6 0-1.2-.1-1.7-.7 3.8 0 7.6.3 11.4.9-.7.1-.7.5-.7 1v5.1c-.1.4 0 .9-.7 1.1h0z" class="st0"/><path d="M73.1 149c-.8-.8-.7-2 .1-2.7.6.7.6 1.6-.1 2.7zm-5.1-1.6c.2-.4-.2-1.2.4-1.2.8 0 .5.8.5 1.2 0 .5.3 1.3-.5 1.3-.7 0-.2-.8-.4-1.3zm13.3-9c-.5-1.9 0-3.9 0-5.8.1 1.9 0 3.9 0 5.8zm1.2 1.2c.7.8 1.6 1.6 2.4 2.4-1.1-.6-1.9-1.4-2.4-2.4zm-16.8 7.7v3.2h-.1l.1-3.2c-.1-.1-.1-.1 0 0zm-7.8-76.8c.4 1.8-.6 3.4-1.1 5 .2-1.7.5-3.4.6-5.1.1 0 .3.1.5.1zm83 34.6c.7 1.8 1.3 3.6 1.7 5.3.6 2.4 1.4 4.7 2.6 6.9.7 1.2.4 1.8-1 2.1-.1 0-.2.1-.3.1-.5 0-1.1.4-1.5-.1-.5-.5-.1-1.1.1-1.7.3-.5.3-.9-.3-1.3-.8-.6-.8-1.6-.7-2.5.1-1.7.6-3.4 0-5.1-.3-.6-.4-1.3-.8-1.9-.5-.5-.5-1.1.2-1.8zm3.1 12.5c.4-.9-.2-1.6-.6-2.3-.2.8.1 1.5.6 2.3zm-113.5-4.1c1.3-1.3 2.7-2.2 4.1-3.1-.6 1.1-2.6 2.6-4.1 3.1zm31.3 37.8c2.1 1.1 2.7 3.3 4.1 4.9-1.8-1.3-2.5-3.5-4.1-4.9zm21.9-3.2c-.7-.9-.7-1 .1-1.7.4.3-.5.7.1.9.4.1.7-.1 1-.3.8-.3 1.5-.6 2.3-.8-1.1.8-2.5 1-3.5 1.9h0zm59-67.6c-.1 0-.2 0-.2-.1-1-3.4-4.1-3.3-6.7-4-.7-.2-1.1.3-1.3.9-.5 1.3-.9 2.6-1.1 4-.1.6.1 1 .7 1.4 1.5.9 3.2 1.4 5 1.9.7.2 1.2-.1 1.5-.7.2-.3.3-.6.5-.9.6-1.5.5-1.9-1.1-2.4-.7-.2-.8-.6-.6-1.4.8.6 1.5 1.1 2.3 1.6.2.1.3.3.3.5-.2 1.3-.5 2.5-1.5 3.4-.3.3-.8.5-1.3.3-1.8-.5-3.6-1-5.3-1.9-.7-.4-1.1-1-1-1.8.1-1.6.6-3.1 1.3-4.6.4-.8 1.1-1.2 2-1 1.7.4 3.3.9 4.8 1.6 1.1.7 2 2.1 1.7 3.2h0z" class="st0"/><path d="M134.3 78.9c1-.7 2.2-.7 3 0-.8.5-2.4.5-3 0zm4.7 3c-1 .4-2.7.1-3-.4-.1-.1-.1-.3 0-.4 0-.1.2-.1.3-.1.6.8 1.6.5 2.7.9zm-86.3 3.8h-2c-.4 0-.6-.3-.8-.6 0-.1 0-.3.1-.4.3-.3.6-.1.9 0 .6.2 1.2.5 1.8.4.3-1.3-.5-2.4-1.7-2.3-1.3.1-2.7.3-4 .5-1.2.2-2.1 1.1-2.9 1.9-.2-.9-.2-.9.3-1.3 1-.7 2.2-1.2 3.5-1.3 1-.1 2-.3 3-.4 1.3-.1 2.3.8 2.4 2.1.1 1.2.1 2.5.2 3.7.1.8-.3 1.3-1 1.6-2 .8-4 .9-6.1.9-.8 0-1.3-.5-1.5-1.2-.4-1.1-.4-2.4-1.1-3.8 1.7.7 2.7-.3 4-.8 0 1-.6 1.4-1.3 1.6-1.1.4-1.6 1.1-1.3 2.2.2 1.1.9 1.6 2.1 1.5 1.5-.1 3.1-.2 4.5-.6 1.2-.3 1.4-.7 1.2-1.9-.2-.5-.2-1.2-.3-1.8h0z" class="st0"/><path d="M50.7 87.3c-.5.8-2.3 1.1-3.3.5 1.1.1 2.1-.8 3.3-.5zm87.4 40.6c.4.4.1.9.5 1.3.5.1.9-.1 1.4-.1.6 0 1.2.1 1.3.9.1.7 0 1.2-.8 1.4-1.4.4-1.7.3-1.9-1.1-.1-.5-.4-.9-.5-1.3-.2-.3-.2-.7 0-1.1h0zM89.5 98.2c-.5-.7-.4-1.3-.4-1.9.3.5.7 1.1.4 1.9zm2.7-20.9c.1.7.2 1.3-.1 2.3-.3-1-.3-1.7.1-2.3zm24.8 9.9c1.6.2 2.9.9 4.1 1.7.2-.4.3-.6.4-1-.6-.4-1.4-.2-2.1-.4.4-1 1.1-1 1.9-.7s1.2.9.8 1.8c-.2.4-.2.9-.4 1.3-.4.9-1.1 1.4-2.1 1.4s-1.6-.5-2-1.3c-.4-1-.6-1.9-.6-2.8z" class="st0"/><path d="M118.8 87.1c-.8-.1-1.5-.3-1.8-1-.3-.8.2-1.4.8-2 .5.9 1.2 1.8 1 3zm4-6.1c1.1-.6 2-.2 3 .1-1.7.4-1.9.4-3-.1zm-19-5.8c-1.2-.9-2.7-1.5-3-3.5 1.2 1.2 2.2 2.3 3 3.5zm40.2 42.4c-.4-.7-.8-1.5-.6-2.3.4.7 1 1.4.6 2.3zM167 57c1.1 3.9 1.5 7.9 1.2 11.9-.2 2.6-.4 5.2-.8 7.8l-.9 6.9c-.4 2.7-.8 5.3-1.2 8-.5 3.3-1.3 6.6-1.8 9.9-.7 4.8-1.4 9.6-1.2 14.4.1 2 .1 4 .7 5.9.2.6.3 1.2.9 1.6M50.8 39.5c-1.5-.2-2.9.1-4.3.7-3.5 1.4-6.3 3.6-8.7 6.5-1.7 2.1-3.4 4.1-4.4 6.6-1.8 4.5-2.7 9.3-3.1 14.1-.4 4.6-.2 9.3-.5 13.9-.2 2.2-.4 4.5-1 6.7-.1.4 0 .8 0 1.1m90.9-52.5c-7.3 1.2-13.6 4.4-18.8 9.7-2.5 2.6-4.2 5.7-5.5 8.9-.5 1.2-1 2.4-1.3 3.7-.1.5-.4.9-.9 1.1M91 79.7c-.6.7-.4 1.8-1.3 2.3-.2.1 0 .9.2 1.3.3.8.7 1.6 1 2.4.4 1.2.4 2.3-.4 3.6-2.1 3.5-5.3 5.7-8.5 8-2.7 2-5.7 3.2-9 3.7-.5.1-.9.4-1.4.3m18.9-49c-.6-1.8-1.7-3.4-2.8-4.9-2.3-2.9-5-5.3-8.3-7-3.1-1.5-6.3-2.7-9.6-3.5-1.6-.4-3.2-.9-4.9-.5m77.7 44.1c-.1-1.6-1-2.6-2.4-3.1-1.2-.4-2.4-.8-3.5-1.2-1.3-.4-1.9-.1-2.5 1.1-.6 1.3-.9 2.7-1.2 4.1-.1.8.5 1.2 1 1.6 1.4.9 3 1.2 4.6 1.8 1.1.4 1.7-.3 2.2-1.1.4-.6.5-1.2.7-1.8.2-.6-.4-1-1-1.4-.4-.2-1-.2-1.2-.8m22.2 23.3c.2 1.9 0 3.8-.3 5.6-.3 2.6-.6 5.3-.9 7.9-.3 3.5 0 7 .2 10.5 0 .6.4 1.2.1 1.8m-30.4-32.3c-1.3.3-2.3 1.2-3.5 1.7-2 .7-4 1.2-6.2 1.4-2.4.2-4.8.2-7.1 0-2.6-.3-5.3-.3-7.7-1.4 0 0-.1.1-.2.1M60.2 52.5c.1 2.7.9 5.2 1.8 7.7 1.2 3.2 2.1 6.4 4 9.3 1.6 2.5 3.2 5.1 5.7 6.9 2.3 1.7 4.8 3.1 7.5 4l3 1.2c.7.3 1.2.3 1.8-.2.6-.5 1.3-.8 2.2-.9 1.4-.1 2.2-1.3 3.1-2.2-.9-4.4-3.3-8.2-5.6-11.9-1.5-2.5-3.5-4.6-5.5-6.8-1.2-1.4-2.7-2.5-3.4-4.3M60.2 43.7c-.3.5-.6.9-1.1 1.3-2.3 1.7-3.6 4.1-4.8 6.6-1.3 2.5-1.6 5.3-2.4 7.9-.4 1.3-.7 2.6-1.1 3.8-.5 1.7-.5 3.4-.6 5.1m77.7-28.2c-.5-.8-.8-1.6-.6-2.5 3.2-.3 6.4-.2 9.5.6 5.4 1.3 10 4.1 13.5 8.5.2.2.4.4.6.5" class="st0"/><path d="M156.5 109.9v4.7c0 .6 0 1.2-.2 1.8-.3 1.2-.1 2.5.3 3.6.8 2.4 1.3 5 2.6 7.3.6 1.1 1.8 1.5 2.3 2.6M83 114.3c1-.9 2.2-1.5 3.6-1.9.1 0 .4-.2.4-.2 1.4 1.1 3.5.6 4.5 2.5.6 1.1 1.1 2.3 1.5 3.5.3 1-.1 1.9-.6 2.8-.3.5-.8 1-1 1.6-.7 1.6-2 2.4-3.8 2.6-.7.1-1.3.2-2 .3M31.9 77.6c.1.5.1 1 .2 1.6.1.7.3 1.2 1.3 1.2s1.5.6 1.6 1.6c.2 3.3-.1 6.5-1.3 9.6-.8 2.1-2.5 3.5-4.5 4.4-.6.2-1.3-.1-2 .1m120.7-27.6c-.4.7-.3 1.5-.4 2.2-.3 2.9-.6 5.8-.4 8.7.2 2.6.6 5.1 1.9 7.4.1.2.1.3.1.4m-18.9-32c.1 2.3-.6 4.4-1.6 6.3-1.7 3.4-3.6 6.8-5.5 10.1-2.3 3.9-4.9 7.7-8.3 10.9-1.1 1-2.2 1.6-3.6 1.8m24.1 24.6c-.3 1.1.3 2.2.9 2.9.9 1.1 1.4 2.3 2.1 3.5 2.9 5 5.7 10.1 9.7 14.5.4.4 0 .8.2 1.2.2.7 1.1 2 2.1 3 .5-.3.8-.6.9-1.2-1.1-.7-1.5-2.1-2.8-2.6m-10.5 4.6c1.5.2 2.9-.2 4.3-.5.5-.1.6-.5.6-.9.1-2.4-.3-4.7-.2-7.1 0-.6-.2-1.1-1.2-.8-1.4.4-2.8.8-3.9 1.7m-26.7-13.5c2.7 1.3 5.4 2.5 8.3 3.4 1 .3 1.6.9 2.1 1.7 1 1.8 2.4 3.4 3.3 5.3.1.2.3.4.4.6.4 1.4.5 1.7-1 2.3-2.3.9-4.7.7-7.1.6-2.2-.2-4.3-.3-6.5-.6-1-.1-1.9-.2-2.9-.3m40.8-67c-1.1 1.8-1 3.7-.8 5.7 0 .5.2.9.2 1.4.1 2.4 3.5 4.7 6 4.9 4.6.4 8.2-2.8 8.2-7.3 0-3-1-5.6-3.7-7.3m-51.7 3c.4.9 0 1.8-.1 2.7-.3 3.3 0 6.5.4 9.7.4 2.6.8 5.1 2.1 7.4.7 1.3 1.2 2.7 2.5 3.7m-12 26.3c.4-.1.4.2.5.5.6 1.9-.2 3.5-.9 5.2-.9 2.4-1.6 4.8-2 7.3 0 .1-.1.2-.1.3.8 1.4.1 2.8-.1 4.2-.5 4.4-.7 8.7-.7 13.1M84.3 46.9c2 1.1 3 3 4.1 4.8 1.5 2.5 2.4 5.2 2.9 8 .2 1.2.1 2.4.5 3.5m-50.5-7.6c.6.6.6 1.4.4 2-1 2.4-1.7 4.8-2.2 7.3-.3 1.4-.3 2.8-.5 4.3-.2 1.1 0 2.3-.5 3.3m97.6 39.5c-.4 1.8.1 3.5.2 5.3 0 1.1.2 2.2.3 3.3.1 2.3.1 4.5.5 6.8 0 .3-.2.5-.2.7" class="st0"/><path d="M152.5 114.8c0 .6.6.7 1 1 .8.8 1 1.9 1.3 2.8.3.8.5 1.5.9 2.2.5.8.3 1.7 0 2.5-.7 0-1.2.5-1.8.9-1.1.8-2.2 1.5-3.2 2.3s-2.1.9-3.2.8m-15.1 34c-3.8 2.1-8 2.8-12.2 3.2-1.5.2-2.9.1-4.4.2-.6 0-1.2-.1-1.8-.4m-31.1-114c.9 3.4 3.3 6.1 4.9 9.2 1.2 2.4 2.7 4.8 3.4 7.5.1.6.5 1 .7 1.6m66.3 3.4c-.8 1.1-1 2.5-1.2 3.9-.5 2.9-.8 5.8-1.2 8.7-.1.7-.1 1.5-.1 2.2m-76.4 65.8c.2-1.8-.1-3.6-.1-5.4 0-1.8-1-3.2-1.1-4.9 0-.5-.5-.7-1.1-.7-2.8-.1-5.6-.4-8.4-.3-.9 0-1.9-.4-2.8.2M153.6 73c-.8 2.6-.9 5.3-1.2 8-.2 2-.3 4-1 5.8-.8 2.2-2 4.3-3.5 6.1-2.3 2.8-4.6 5.5-7.7 7.4-.1.1-.1.3-.2.4M43.9 85.3c.6-1.4 1.8-2 3.2-2.3 1.2-.2 2.4-.3 3.7-.4 1.1-.1 2.2.6 2.2 1.7 0 1.3.1 2.6.3 3.8.1.8-.2 1.2-1 1.5-1.9.7-3.9.8-5.9.8-1 0-1.7-1.3-1.7-2.7 0-.8.2-1.4 1-1.6s1.5-.5 1.9-1.2M93 137.3c-1.4 1.7-2.9 3.2-5 4.2-2.3 1.1-4.6 2.5-7.2 2.8-.6.1-1.2.1-1.8.4M34.1 92.8c-.6 1.5-.3 3-.4 4.5-.2 2.5.1 4.9-.2 7.4-.2 1.2-.6 2.4-.6 3.7 0 1.4-1.3 1.8-2.3 2.3m34.1-36.9c2.5 3.3 5.4 6.2 9 8.4 1.2.7 2.5 1.4 3.9 1.9.3.1.6.4.9 0m48.7 54.9.2.2c-.5 2 .7 3.6 1.6 4.9 1.7 2.4 2.4 5.1 3 7.9.5 2.4 1.4 4.8 1.5 7.4 0 .4.3.9.7.9 2.8.2 5.7.6 8.4-.4 1.4-.5 2.8-1.3 3.2-3 .2-.8.4-1.7-.5-2.2-1.3-.7-1.5-1.9-1.6-3.1-.3-1.9-1.3-3.2-2.8-4.3m-15.7-20c0 2.1.9 3.9 1.3 5.9.3 1.5.6 3 .8 4.6.1.4.1.8-.3 1-.9.6-1.4 1.6-2 2.4M37.2 94.9c-.1 2-.4 4-.9 6-.6 2.5-1 5-2.7 7.1-.1.2-.3.5-.6.4" class="st0"/><path d="M66.1 132.9c-.3 3.1-1 6.2-1 9.3 0 1.9-.4 3.8-.4 5.7 0 .8-.1 1.7-.3 2.5-.2 1.1.4 1.5 1.2 1.6 2.8.5 5.6.8 8.5 1 .9.1 1.8.1 2.7.1.3 0 1 .2.9-.6m73.5-64.7c.6 1 .1 2.1 0 3.1-.6 5.5-.5 11 0 16.4.2 2 .5 4 1 6 .1.3.5.7-.2.8m-104.4-69c-1.8.6-3.3 1.7-4.8 2.8-.5.4-.6 1-.7 1.6-.5 2.2-1.6 4.1-2.9 5.9-1.3 1.9-1.7 4-2.3 6.1-.2.8-.3 1.6-.4 2.4m13.7-6.4c-1.3 3.3-2.8 6.5-3.8 9.9-.3 1.1-1.1 2.1-1.7 3.1m36-20.1c-2.9-3.5-6.3-6.2-10.7-7.7-.7-.2-1.4-.2-2.1-.2m54.4 43.2c1.2 1.6.5 3.2-.3 4.7-1.1 1.8-4.2 1.2-4.9-.6-.6-1.8-.5-3.6.1-5.3.2-.6.7-.8 1.3-.8h1.9m-63.2 62.8c-.6 1.1-.8 2.3-1.3 3.4-.1.2-.1.5 0 .7 1 2.9 1.5 5.9 2.6 8.7m91.6-68c-.7 2.4-1.1 4.8-1.9 7.2-.3.9-.5 1.8-.4 2.9.1.9-.7 1.9-1.1 2.8M38.4 72.6c-.3 1.2-.2 2.5-.1 3.7.2 2.1.6 4.2 1 6.3.4 2.4.3 4.8.1 7.2-.1 2.1-.1 4.3-.4 6.4m10.1 12.4c-1.5 1.3-2.9 2.5-4.4 3.9-1.9 1.7-3.8 3.5-5.7 5.3-.8.7-1.6 1.3-2.7 1.3M96 146.2c.5 1.3.6 2.7 1.2 4 .5 1 .8 2 1.3 3 .1.2.1.4.1.6-.4 1.6-.8 3.3-1.2 4.9m-41.9-72c-1-.5-.5-1.5-.7-2.2s-.1-1.5-.2-2.2c-.2-1.2-1.6-1.9-3.1-1.9-1.7 0-3.2.7-4.9.6-1 0-2 .4-2.9.8-1.1.5-1.7 1.7-1.4 3 .4 1.9.7 3.7 1.1 5.6.3 1.4 1.8 2.3 3.2 2.1 2.1-.3 4.2-.5 6.3-.7 1-.1 2.5-1.7 2.5-2.7.1-.8-.3-1.5 0-2.3m48 42.3c.3 1.7 0 3.4 0 5.1 0 1.4-.1 2.8-.2 4.3 0 1.5.1 3-.5 4.5m32.4-91.6c.5 1.7 1.1 3.5 1.6 5.2.6 2.3.8 4.7.6 7.1m-33.5 78.7c3.1 2.7 5.5 5.9 8.4 8.7 1 1.1 2 2.1 3 3.2m-21-66.2c.9 1.1 1.8 2.1 2.7 3.2 1.6 2 3.6 3.4 5.7 4.8 1.1.7 2 1.7 3 2.6 1.4 1.3 2.9 2.5 4.9 3.1.5.1.9.1 1.4-.1.5-.3 1.1-.2 1.8 0 .6.2 1.3.6 1.8-.3m-22.8-3.2c.8.5.3 1.3.2 1.9-.4 1.3-.9 2.6-1.5 3.9-.7 1.5-1.8 2.7-3 3.7-.6.5-.8 1.2-.9 2-.1.9-.4 1.7-.6 2.6m52.1-23c0 3.1-1.6 5.8-2.4 8.6-.2.8-.5 1.6-1 2.4s-1.1 1.5-2.1 1.6c-.5.1-.9.4-1.1.7-1.6 2-3.6 3.4-6.1 3.9-1.2.3-2.2.8-3.2 1.3m-27.3-7.3c-1.3 1.1-.2 2.3 0 3.3.5 2.4 2.5 3.7 4.4 5 .5.4.9.9 1.5 1.1.4.1.8.5 1.3.2m35.6-9.9c2.9 1.1 5.4 2.8 7.7 4.9 1.5 1.4 2.8 2.9 4.2 4.5.2.3.5.4.8.5m-27.6-84.5c-1.3 1.1-2.6 2.3-3.6 3.7-1.1 1.6-1 3.4-.8 5.2.2 2.5 1.7 4.6 2.8 6.8.1.2.3.4.3.7M94.9 158.3c.3 2.4 1.1 4.6 2.3 6.7.4.8.7 1.1 1.6 1 .7-.1 1.5 0 2.2 0m-81-54.1c.1 2.7 1.5 4.5 3.9 5.6 1.9.9 3.7.6 5.3-.7m65 11.8c.4.3.3.7.3 1-.2 2.1-.3 4.3-.2 6.4 0 1 .4 2.1.1 3.1" class="st0"/><path d="M66.1 143.5c1 .4 2.2.4 3.2.5 2.8.2 5.6.4 8.5.5m32.1-95c-1 3.1-2 6.3-3.2 9.4-.6 1.6-2.2 2.6-3 4.1-.1.2-.4.3-.5.5-.3.7-.7.7-1.3.2-.3-.2-.6-.6-1-.5m-42-.3c.8 4 2.9 7.3 5.5 10.3m15.4 39.2c-3 .2-6 .3-9 .5-.5 0-.9 0-1.4-.2m58.8-11.8c-2.3-1.3-4.6-.7-6.8 0-1.2.4-2.3.7-3.6.8m-34-4.7c-2.1 1.7-3.5 3.8-5 5.9-1 1.4-1.9 2.7-2.9 4.1-.7 1-1.8 1.8-3.3 2.1-1.1.2-1.8 1.3-2.4 2.2m33.7-.5c.7 1.8 1 3.6.7 5.6-.2 1.5-.3 3-.4 4.5m20.4-94.6c-.9 3-1.5 5.9-1.5 9 0 2.1-.1 4.2.8 6.1.2.4.3.9.8 1m-1 29.5c1 .1 2.2-.1 2.9.5.6.6.3 1.7.6 2.6.5 2.2 1.2 4.4 2.2 6.4.2.5.5 1 1.1.9M60.1 67.5c-.4 1.5-.3 3.1-.5 4.7-.2 1.7-.6 3.4-.7 5.2m31.3 29.5 4.5 6.6c.7 1 .8 2.2 1.8 3m64.6 32.3c-2.1 1-2.9 2.8-3.4 4.9m-3.5-47c.1 2.8.1 5.7.2 8.5 0 .3.1.7-.1 1m-51.8-52c-1.6 2-3.4 3.8-5.6 5.2-1.6 1-1.6 2.4-1.4 3.9.4 2.6.7 5.3 1 7.9.2 1.8-.7 3.2-1.4 4.7-.3.6-.3 1.2-.8 1.7" class="st0"/><path d="M102.7 79.9c.8 1.6-.5 4.4-2.2 4.7-.9.1-1.3-.5-1.7-1.2-.6-1.3-1.3-2.6-1.9-4-.1-.2-.1-.4-.4-.4m8.4-31.5c-1.6 1.6-3.2 3.3-4.4 5.3-.7 1.3-1.6 2.4-2.1 3.8m45.4 93.8c2 .4 3.8-.2 5.7-.5 1.3-.2 2.3-1.1 3.5-1.7 1.1-.6 2.2-1.1 3.2-1.8 1.1-.7 2.1-.4 3 .1 2 1.2 2.7 3.2 3.1 5.3.1.6-.3 1.3-.5 1.8-.4 1.2-.8 2.4-1.5 3.5-1 1.5-2 1.8-3.7 1.2-.5-.2-.9-.4-1.4-.6M83.7 48.1c1.6 2.6 2.6 5.4 3.8 8.2.1.2.2.5.3.7m-16 71.6c-1.5.5-3 .2-4.5.4-.5.1-.9-.1-1.2-.4-.5-.6-1-.4-1.6-.1-1 .5-2 .9-2.9 1.6m24.6 4.8c1.4-1.7 1.5-2.4.6-4.2m-3-13.5-.6-2.1c-.3-.9-.9-1.3-1.8-.9s-1.8.7-2.7.1c-.2-.1-.7-.2-1.1 0-1.2.7-2.4 1.2-3.6 1.8m49.9 36.6c-1.3-.1-2.5-.3-4-.2-1.3 1.5-2.7 3.2-4.1 4.9m-22.9-29c-.9 1.2-.2 2.4 0 3.6.3 1.6.8 3.1.4 4.8 0 .1-.1.2-.2.3m44.5.2c.6 2.5.8 5 1.2 7.5.1.5.2.9.4 1.2m27.4-89.8c-1-1.2-2.4-.7-3.7-.7-1.7 0-3.3.6-4.8 1.2-.5.2-.9-.1-1.4-.1m-29.3 85.6c-.1.1-.3.1-.3.2-1.3 3-3.8 5.1-5.4 7.8-.5.9-1.1 1-1.9.3M58.4 36.8c-2.8-.4-5.4-.2-7.7 1.5-.4.3-.6.5-.5 1m1.6 54.3c.9 1.5 2.2 2.6 3.7 3.6.6.4.9 1.3 1.3 2 .5.7.9 1.5 1.7 2m.2.1c0 2.9 1.4 5.1 3.5 6.9.5.5.9 1 1.3 1.5M32.7 107c-1.4.9-2.3 2.3-3.4 3.4-2.4 2.5-5.9 3.5-9.1 1.9m96.1-8.5c.4.5.8 1 1.1 1.6 1.4 2.8 4.1 4.3 6.6 5.9.9.6 1.9 1.2 3 1.5M143.9 81c-.5 1.4-1 2.8-1.4 4.2-.6 2.1-2.5 2.1-4.3 1.5-1.5-.5-2.9-1.1-4.4-1.3-2.1-.3-3.5-2.4-2.8-4.4.3-.9.7-1.8 1-2.7m-35.8 40.6c-1 .8-.7 1.9-.9 2.9-.2 1.1-.5 2.1-.6 3.2-.1.8-.6 1.4-1.2 1.9m-42-57.2c.4 2.6.1 5.1.1 7.7 0 .2 0 .5.2.6m75.7 76.2c1 2.7 1.9 5.5 2.4 8.3m3.3-77.1c.5 1.1 0 2-.6 2.9-1.1 1.7-2.5 3.1-4 4.5-.2.2-.4.4-.7.3m-92.8 16.3c.6 2.7-.8 4.1-3 5.3-.9.5-1.7 1.3-2.7 1.8-.4-.8-.3-1.6-.2-2.4.2-1 .1-2-.3-3m102.6-73.7c-.7-.9-1.7-1.1-2.7-1.1-1.8 0-3.6.1-5.3.1m26.8 111.4c-.4-1.4-1.5-1.9-2.7-2.4-1.6-.7-3.2-.8-4.8-.1M66.3 32c.3.3 0 .7-.1.9-1.4 2.2-2.8 4.4-4.8 6.2-.2.2-.5.4-.7.5m70.2 109.2c-.8.1-1.3.8-2 1.2-1.4.7-2.9.6-4.4.8-.9.1-1.8 0-2.7 0M91 53.3c1.1 2.2 1.3 4.6 2 6.9.3 1 0 2.2-.2 3.3-.2 1.1-.4 2.2-.5 3.3 0 .5-.2.9-.4 1.3m-30.4 62.1c-.9 2-1.4 4.1-2.1 6.2-.2.5-.4 1.1-.4 1.7m44.6 6.1c1.4.4 2 1.6 2.6 2.7.5.9.8 1.8 1.8 2.4 2 1.2 3.2 3.2 4.9 4.8.7.6 1.3 1.4 1.9 2.1m22.3-91.3c-.1 1.9-.4 3.8-.4 5.7-.1 2.5 1.1 4.4 3.6 4.9 1.4.3 2.9 1 4 2.1.4.4.1.8.2 1.3M129.3 137c-.7 1-.1 2.1.2 3 .3 1.2.5 2.5 1 3.7.2.4-.2.8-.3 1.1m-74-33.9c.3 1.5.7 2.9 1 4.4.1.4.1.8-.3 1-.8.5-1.3 1.4-2.2 1.7" class="st0"/><path d="M60.4 26.9c-2.4 2.4-4.4 5.2-6.9 7.7 1.6.7 2.8 0 4.1-.1.5 0 .9-.3 1.3.1.5.5.4.9.1 1.5-.5 1-.6 2.1-.8 3.1m3.7 6.3c-1.4.2-1.9.7-1.9 2.1 0 1.6.1 3.1.1 4.7m-11.6 80.6c.5-.1.4.3.4.6.2 2 .7 3.9.9 5.8.1 1.6.8 2.9 1.5 4.2m105-44.7V109M72.1 76.9c-.1.7.4 1.2.8 1.7 1.5 1.4 3 2.9 4.5 4.3.8.8 1.4 1.9 2.6 2.3m-22.6 60.6c1.1 1.7 2.4 3.2 4.3 4.1.9.4 1.7.7 2.6 1m74.5-61.1c-2.2 1.1-4.2 2.6-6.5 3.7-1.3.6-2.4.5-3.7 0m-17.1 8.5c-.1.5.2.8.5 1 1.9 1.4 3.9 2.6 5.7 4.2.2.2.5.3.7.1m-9.7-31.8c.3 3.2 2.2 5.3 4.8 7m-22.3-2.8c.7 1.1.7 2.5.9 3.7.3 1.2.3 2.5.8 3.7m-12.3 13c-.7 0-1.3.1-1.9.6-.8.7-1.6 1.3-2.2 2.3-.4.7-1.3.5-1.9.7-1.5.4-2.9.8-4.4.9m-11.4 33.7c0 .2.1.5-.1.5-.9.1-1.2.9-1.7 1.5-.8.9-1.7 1.7-2.9 2.1-.9.4-1.8.9-2.7 1.3m42.1-63.4c-.2 1.4.4 2.7.2 4.2-.1 1 .3 2-.2 3-.2.3.1.5.4.4m46.4 13.4c0 1.1-.2 2.2-.9 3.1-.9 1.3-1.5 2.9-2.9 3.6-2 1-4 2.6-6.5 1.8m-40.9 23.8c.5 2.3-.2 4.4-1.3 6.4-.1.2-.2.7-.6.7" class="st0"/><path d="M77 101.7c-2.3 0-4.4.7-6.4 1.9-.6.3-.5 1.2-1.2 1.4m20.3 53.7c.5 2.4 1 4.8.9 7.3M44.4 69.1c-.3-.6-.1-1.2-.1-1.8 0-.5 0-1-.4-1.4-.7.3-.5 1.1-.6 1.6-.1 1.5-.4 3-.3 4.4.2 2.2 0 4.4.2 6.6.1.9.5 1.1 1.3 1m19.9-5.8c-1.9 1.2-3.6 2.6-5.3 4-1.1 1-2.2 2.2-3.1 3.5-.4.6-.9.8-1.5.8m19.9 76.4c-1.6.5-3.1.3-4.6-.3-.3-.1-.6-.1-.8-.1-1.2 0-2.4.1-3.7-.2-.5-.1-1.1-.1-1.5.4m23.8-63.4c1 1.1.8 2.5.9 3.7.1 1.4.8 2 2.1 1.3.9-.4 1.4-1.2 1.5-2.2 0-.3-.2-.4-.4-.6-1-.9-1.7-1.9-2.2-3.1m55.3-9-1.8 6c-.1.3.1.7.1 1M44.3 97c-1.1 2-2.4 3.7-4.7 4.5-.5.2-1 .4-1.6.1m59.4 17.7c-1.3-.5-1.5-1.3-.8-2.7.8-1.8 1.5-3.7 2.3-5.5.2-.4.1-.7.2-1.1.1-1-.6-1.6-1.4-1.1-1.7 1-3.3.8-5 .3m-59.8 17.7c-1.5 2.3-3 4.6-5.2 6.2-.2.1-.2.3-.3.5m35.7-22.9c0 .3-.2.7-.1 1 .2.6.5 1.3 1.2 1.3.5 0 1.7-1.2 1.8-1.9.1-.7-.3-1-1-1.3-.8-.3-1.4.1-2.1.2-1.5.2-3 .6-4.5.2-.7-.2-1.3-.2-2-.1m22.8 47.5c.6 2 1.3 4 1.9 5.9.1.3.2.7.6.7" class="st0"/><path d="M57.7 79.7c.5.7-.1 1.4-.2 2.1-.3 1.5-.9 2.8-1.4 4.3 0 .2-.1.4-.4.4m69.9 32.7c.3 1.8.6 3.6.8 5.4.2 1.1.1 2.3.8 3.2.2.2.2.6.5.7 1.4.7 1.7 1.2 1.4 2.7m11.8-26.1c-.3.9.1 1.6.5 2.4.6 1.4 1.1 2.9 1 4.5m-84.2 30.6c.9.6 1.7 1.3 2.5 2 1.2 1 2.6 1.4 4 1.7m-13.9-31.5c-.8.1-.6 1-1 1.4-.9.8-1.4 1.9-2.2 2.9-.9 1.2-.9 2.7-.7 4 .1.7 0 1.3-.2 2m28.3 6.1c-2.2 1.2-4.4.9-6.7.2m-19.9 1.7c-.7 2-.3 3.9.2 5.8.1.3.2.6.3.8m100.6 20.5c-2.1-.9-3.7-.4-4.9 1.5-.2.3-.2.9-.8.8m-39.9-41.4c.3-.4.5 0 .6.1 1 1.2 1.6 2.5 1.7 4 .1 1.4-.4 2-1.9 2.4m34.9-33.3c-.2 2.3-.4 4.5-1.8 6.4-.2.2-.1.4-.1.5.3 1-.1 1.9-.5 2.7m-42 39.4c-1.6 2.2-3.2 4.4-5.6 5.8-.5.3-.6.9-1.1 1.2-.6.4-1.2.7-1.9.7m-22.7-32.7c1.3.8 1.2 1 .7 2.4-.6 1.4-1.1 2.7-1.3 4.2-.1.6.1 1 .3 1.5m13.4 18.3c0 2.2-.1 4.4-.1 6.6m-38.4-21.1c-1.4 2.4-3.6 3.2-6.3 3.1M96.5 101c.9 1 1.6 2.1 2.2 3.2.8 1.8 2 3.2 3.5 4.5.4.3.8.6 1 1.2.1.5.6.5 1.1.7 1.1.3 2.1.7 2.7 1.6m-48.4 26.9c-.2 1.9-.9 3.8-1.3 5.7-.1.3 0 .6-.1.8m45.2 3.8c-1 2.2-1.9 4.5-3.3 6.4" class="st0"/><path d="M50.2 126.6c-.6-.4-1.1-.8-1.7-1.1-.9-.5-1.9-.4-2.7.2-1.4 1.1-2.9 1.9-4.2 3-1.1 1-2.7 1.3-4.2 1.3-.7 0-1.4-.1-2 .6-.7.8-1.5 1.3-2.5 1.7-.4.2-.7.5-.6.9m108.6 20.3c.4 2.2 1 4.3 1.8 6.3m-7.7-50c-1.2.4-1.9 1.4-2.7 2.3-.7.8-1.4 1.7-2.2 2.1-1.5.8-3.2 1.5-5 1.5-.9 0-1.7.1-2.6.2m-9.4 50.1c0-.4.2-.7.4-.9.6-.7.4-1.2-.1-1.8s-1-.6-1.8-.3c-.9.3-.9 1-.7 1.6.2.5.4 1.1.9 1.5m-48.5-47.9c-1.6-.7-3.3-1.1-5.1-.8-.8.1-1.2.4-1.5 1.2-.8 2.2-1.9 4.2-3 6.2-.4.7-.8 1.2-1.7 1.5-.7.2-1.2.9-1.6 1.5-1 1.5-1.6 3.2-1.8 5m32.7-.5c.1 2.1-.3 4.2 0 6.2m-9.8-37.1c-1.3.3-2.6.7-4 1-.2.1-.5.1-.4.5.3.9.2 2 .9 2.8.7.8 1.1 1.8 1.7 2.6.5.7 0 1.5-.2 2.3-.5 1.8-1.7 3.2-2.4 4.9-.6 1.4-.7 1.5.4 2.5m72.2 48c-.1-.7.3-1.4-.3-2-.9-.9-2.4-.3-2.8 1-.1.3-.1.6-.1.9m-6.4-28.4c1.3 1.5 2.9 1 4.5.7 1.1-.2 1.9-.8 2.9-1.2m-10.3 4.2c-.4.2-.8.3-1.1.7-1.3 1.7-2.7 3.3-3.9 5.1-1.4 2-2.9 4.1-4.5 6-.9 1.1-1.6 2.4-2.8 3.2-.3.2-.1.6-.1.9m-20.2-17.3c0 1.3.4 2.6 1 3.8.3.7.1 1.5.1 2.3M137.3 74c-.4.2-.9.3-1.2.2-1.9-.6-2.6.1-3.3 1.9l-.3.9m-97.2 36.6c.2 1.1-.3 2-1.2 2.6-.8.5-1.5 1.1-2.3 1.6-.4.2-.8.6-1.2.1M93.5 88c-.3.7.1 1.5.1 2.2.1 1.3.3 2.6.4 3.8m-12.6 63.2c-.3 2 .3 4 .4 6 .1.9-.2 1.9.2 2.8m3.6-14.4c-2.5.4-5 1.3-7.6 1.4m-1.5-59.2c-1.1 0-2.1.3-3.1.6-1.1.3-1.2 1.3-.4 2.5m-1.7-11.8c-2 .3-3.9.7-5.9 1m37.8 55.3c.8.8.3 1.7.2 2.5-.3 1.5-.8 2.9-2 4.1-1.1 1.1-1.3 2.8-1.9 4.1-.2.4-.3.8-.5 1.1m-36.8 7c1 1.8 1.7 3.7 1.5 5.8M60.5 27.2c.3.7.2 1.5.1 2.2-.1 1.2-.1 2.4 0 3.5m15 70.8c.4 1.2 0 2.1-.8 3-.7.7-1.8 1.1-2.2 2.2M39.3 85.2c-.7 0-1.4.4-2.2.4 0 2.1.4 4 1.9 5.6m56 56.3c-.3.9-1 1.5-1.6 2.2-.4.4-.9.8-1.5 1.2-.7.5-1.1 1.2-.9 2.1m5.8-86.8c-.7 1.9-1.7 3.7-3.3 5-.4.3-.8.3-1.2.5M54.1 59.2c-1 .7-1.1 2-1.5 3-.3.7-.4 1.5-.5 2.3m-1.5 48.1c.5.2.7.7 1 1 1.1 1.4 2.6 2.3 4.2 3.2m75.4-22.7c.1.2.3.3.1.6-1.2 2-1.9 4.2-2.9 6.3-.9 2-2.3 3.6-3.2 5.6m-24.8-35.4c.5 0 .8.3 1.1.6.6.7 1.2 1.5 1.9 2.2 1.1 1.1 1.2 2.6 2 3.9m-47.8-7.6c.2 1.9-.5 3.6-.9 5.4m5 75.5c1.2.7 1.9 1.9 2.6 3 .4.7 1 1.3 1.6 2m70.5-27.4c-.7-.4-1.4-.3-2.2 0-1.4.6-2.9.8-4.5.3-.2 0-.3.1-.5.1M32 72.2v5.2" class="st0"/><path d="M135.9 132.3c-.6.8-.4 1.6-.2 2.5s.3 1.8.6 2.7m-38 24.1c.4 0 .8-.1 1.3-.1.9 0 1.3-.5 1.1-1.3-.1-.7-.3-1.6-1.4-1.4M125.9 67c.5 1.7.6 3.4.6 5.2M82.6 91.8c0 2.6-1.6 3.7-3.8 4.4m19.5-22.9c1.1-1 1.3-.9 2.4.1 1.2 1 2.1 2.3 3.6 2.7m-25.7 39.5c-1.6.7-3.2 1.4-5 .8m76.9-20c-1.1.8-1.3 2.2-1.8 3.3-.2.5-.3 1-.6 1.4m-29 47.6c-1.3 1.6-2.4 3.2-3.3 5m38.3-100.6c-.8.9-1.6 1.9-2.2 3-.4.7-1.1 1.1-1.7 1.6m5.1 88.9c-.8-.5-1.4.1-2.1.2-1 .2-1.9.9-3 1.2-.7.2-1.5 1-1.7 1.9m-12.9-47.3c0 .4-.1.8.1 1.3.5 1 .5 2.2.3 3.4-.1.3-.2.7 0 1M66.7 31.8c-1.6.2-3.2.5-4.8 1-.2.1-.4.1-.4.3m-30.6 85.2c0 .2-.1.4 0 .5.8 1.8.9 3.8 1.8 5.5.2.3.3.6.7.3M91 89.1c.6 1.7-.7 4.2-2.4 4.8-.8.3-1.5.9-2.3 1.2m15.9 2.5c.7.2.6.8.5 1.2-.2 1-.3 2-.4 3-.1.4-.1.7.3.9m26.5 28.8c-.6 1.3.2 2.5.2 3.7 0 .4 0 1.1.2 1.6m-88.7-7.3c.5 2.2.2 3-1.9 4.1m107.6-45.8c-.4 1.4-1.3 2.6-2.3 3.4-1.4 1.1-2.1 2.5-3 3.9-.4.6-.8 1.1-1.1 1.7M95.3 73.2c-1.1.4-.8 1.5-1 2.3-.2.7-.2 1.4-.6 2.2-1.1-1.7-3.1-2.4-4.1-4.1-.3-.6-.8-1.1-.9-1.8-.2-1-1.1-1-1.7-1.5m19.7 9.1c.8 1.6 1.6 3.1 2.4 4.7m22.4-9c-1.4-1.1-2.8-2.1-4.5-2.5M34.7 58.1c-.7 1.5-1 3-1.5 4.6m96.4 43.8c-1.6.5-2.9 1.4-4.6 1.7m-17.6-1.3c1.5 1.1 3.1 2.2 4.6 3.3m-22.4 48.3c-.2-.5-.5-1-.5-1.6-.1-1-.7-1.2-1.5-1.2-.6 0-1.2 0-1.8-.2-.2-.1-.5-.2-.6 0-1.2 1.2-2.9 1.2-4.4 1.6-2.1.4-4.1.8-6.2 1.3m70.3-40.1c-.1-.1-.4.1-.3-.1.2-.4.3-.7 0-1.2-.5-.8-.6-1.8-1.4-2.5-.2-.1-.4-.1-.6-.2m-18.5-32.2c1.3.2 2.5.7 3.3 2 .7 1.1.4 2.2.5 3.2.1.7-.2 1.5.1 2.2M64.9 103c-.6.6-.5 1.7-.1 2 .5.5 1.4.8 2.3.6m67.4-3.9c.1 1.1-.8 1.7-1.4 2.4-.6.7-1.6 1.2-1.2 2.4m-86.4-6.8c0 1.5-.5 3.2-1.4 4.1-1 1-2.8 1.4-4.4 1.6m16 4.5c-1.4-.9-2.8-2-4.5-2.3m4.1-16.9c.7 1.7 2.1 2.8 3.8 3.5m56.7-17c-.7 1.5-1.4 2.9-2.1 4.4m-11.3 40.6c-1 1.2-1.8 2.4-1.5 4.1m55.8-1.4c.6.9.5 1.7-.4 2.4-.5.4-1.1.8-1.7 1.1M102 147.6c.9 1.6 2.6 1.6 4.2 1.8m-51.6-31.2c.3.7 0 1.3-.2 2-.3.7-.5 1.5.4 2.1m7.3-76.9c.5-.1 1-.2 1.6-.3 1.4-.3 2.7-.2 3.8.9.8.8 1.7 1.4 2.6 2.1m-38.5 85.4c-1.4.3-2.7.8-4.2.3-.4-.1-.8 0-1.2.2m67.5 15.8c.7.7.3 1.4 0 2.1-.3.8-.5 1.4 0 2.3.5 1.1.7 2.4 1.1 3.6m37.6-3.3c-.2.1-.4.3-.6.4-1.7 1.5-1.7 1.5-.7 3.4M58 39.4c-1.5.5-2.8 1.5-4.5 1.5m29.6 97.9c1 1.2 2.5 1.3 3.8 1.9.3.1.5.3.8.4m-9.5-9c-1.4-.1-2.8.1-4.2-.1m-2.9 26.7c0 1.4.4 2.8.9 4.1m60.3-51.9c-1.4.9-2.7 1.9-3.4 3.5M41.2 79.1c0 1.3-.1 2.7.5 4m31.2 75.8c-.5 1.3-.2 2.6-.4 4m-3.4-50.8c.5.5.2 1.1.2 1.6-.1 1-.1 2 0 3m58.6-36c-1.1.1-2.2-.1-3.2-.3-.8-.2-1.5-.1-2.2.1m-27.4 67.8c.1 1.3.4 2.6.2 4m66.2-35.4c.1 1.3-.2 2.8 1 3.8m-89.1-4.2c-1.1 0-2.2.1-3.3.1-.5 0-.9.2-1.3.6m-3.2 29.7v4M53.3 68.1c-.1.8-.1 1.5-.2 2.3-.1.6-.4 1.1-.9 1.4m8.2-32.3h0c0 1.1-2.1 3.3-3.1 3.5m35.9 110.5c-.6-.1-1.2-.1-1.7-.3-1.2-.5-2.2 0-3.1.5-.9.4-1.8.9-2.8 1.2m5.6-79.3c-.3 1.3-.3 2.6-.1 3.8M74 59.6c.4.3.8.6 1.1 1 .4.6.9 1.2 1.6 1.6 1 .6 1.6 1.8 1.9 3.1m41.3 17c-1.6-1-1.9-1-3.7.5m39.4-30.3c.4 1.2.4 2.5.5 3.7M34.5 110.5c-1.1 1.1-2.4 1.9-3.7 2.8m31.7-12.1c-.2 1.3-.9 2.5.1 3.7M28.5 90.1c.1.6-.1 1.1-.3 1.7-.6 1.4 0 2.7-.1 4.1m127.7 50.9c.1.3.3.6.6.7 1 .6 1.9 1.4 2.6 2.4M37.3 124.3c-1.2.8-2.4 1.7-3.7 2.5m71.5-15.1c.9.9 2.1.5 3.1 1 .7.4 1.5.6 2.3.9M50.1 129c.4 1.2-.3 2.4-.3 3.5m38.9 16.9c-1.3.1-2.4.8-3.6 1.1M38.7 97.8c.1 1.3-.4 2.4-.8 3.5M82.6 91 79 92.8m82.9 60.2c-.6-.4-.7.3-1.1.4-1 .2-1.9.5-2.9.4m-53-82.6c-.2 1.2.3 2.4.6 3.5M151.3 62h0c1.4 2.1.9 4.1.4 6.2m-64.5 78c-1 .4-2 .7-2.9 1.2-.3.2-.5.3-.7 0s-.3-.7.2-.8m-14 12c-1 .6-2.2.9-3.3 1.1m14.2-86.2c-1.1.3-2-.4-2.9-.6-.1 0-.3-.1-.4-.1m-36.3 54c-.4-.4-1-.5-1.6-.4-1.3.2-2.6.2-3.8 1m19.5-61.3c.4 0 .6.3.6.7.1.9.1 1.8.2 2.7" class="st0"/><path d="M92.5 73.5c.6 1 1.1 2 .5 3.2m34.7 52c-.1 1.2.1 2.3 1 3.2M59.6 93.8c-1 1.2-2.4 2.1-3.6 3.2m76.9 64.1c1 1 1.6 2.2 1.9 3.6M123.9 82c-1.1-.2-2.2-1.1-3.2.1m-28.9-7.4c-.1-.9.5-1.6.4-2.5 0-.9-.4-1.1-1.1-.9-.8.1-1.6.1-2.4.1m12.4 55.1c.8.9 1.9 1.1 3 1M79.6 43.7c1.1.5 2.1 1.2 2.9 2.1m12 48.6c1.5 1.7 1.9 3.7 1.5 5.9m-36.2 38.9c.8.7 1.5 1.4 2.6 1.7.9.3 1.7.9 2.5 1.4m-3.9 9.8c-.3 1.1-1 1.9-1.4 3m69.6-8.9c0 1.1.2 2.1.6 3" class="st0"/><path d="M93.1 97c.9.4 1.8 1 2.9.5m2.8-3.7c-.3.5.1 1 .1 1.6 0 1.4-.3 2.5-1.2 3.5-.4.4-.5.9-.6 1.4m33.5 65.5c1.5.4 3 .1 4.5.2" class="st0"/><path d="M134.5 164.3c-1.2.1-2.1.5-2.7 1.6M86.7 76c.1.8.8 1.5.1 2.4-.1.1-.2.3-.3.3m-36.3 8.9c-1-.1-1.9.6-2.9.2m15.5 75.3c-.7.9-.2 1.9-.3 2.9m-27-57.7c-.8.7-1.7 1-2.8.9m3.2 6.9c.2 1.7.4 3.3.8 5 .2 1.2.6 2.3 1 3.4.2.7.4 1.2.1 1.9m36.7-57.5c-.4.5-.9.9-1.7.6-.6-.2-1 .4-1.6.4m31.7-5.8c1 .8 1.8 1.7 2.8 2.4m-10.9 91.6c.6-.6 1.2-.5 1.8-.1 1.5 1.1 1.8 2.6 1.5 4.2m-25.6 1.1c0 .9.1 1.8.1 2.7m2.9-94.4c0 .9.3 1.9-.8 2.5m30.8 3.9c0 1-.3 1.8-.6 2.7m-1.3 65.2c.7.1 1 .7 1.4 1.1.4.3.7.4 1.2.4m-36.7-41.5c.3.8.9 1.6.4 2.6M27.7 93.7c-.5.2-.8.6-1 1-.3.5-.7 1-1.4.8m11.3 26.2c-.8.3-1 1.1-1.7 1.6-.2.2-.4.3-.6.3m18.5-38.2c-.9 0-1.8-.1-2.6-.5m35.2-15c-.9.1-1.8.2-2.6.2m-.2 69.6c.6.9 1.5 1.7 2.3 2.4m-4-69.3c.4-.9 1.1-1.2 2-.9.7.2 1.3.3 2 .5m-19.3 86.7c.2.2.5.2.5.5-.7 1.2-1.6.9-2.6.6M92.2 77c0 .8-.1 1.7-.1 2.5m39 79c.5.8 1 1.7 1.6 2.5M36.6 69.4c.7.6 1.2 1.3 1 2.3-.1.3.2.5.3.7M138.8 82c-.9.1-1.7-.2-2.5-.6M32.4 67.2c0 .8.1 1.7-.2 2.5m11.8 26c.2.9.8 1.6 1.2 2.4.2.5.2.9.2 1.4m53.3-2.6c-.5 0-.8.3-1.3.5-.4.2-.8.4-1.2.1m-27.7 48.7v2.5M128 84.9c.9 0 1.6.4 2.4.8m12.4 30.5c.5.3.4.9.4 1.4 0 1.3 0 1.4 1.3.8m-1.6-44.3c-.7.4-1.7.4-2.2 1.2M83.1 134c-.2 1.2.6 2.5 0 3.7m-34.2-27.2c.7 0 .4-.4.5-.8.1-.5-.2-1 0-1.6.5-1.2 0-2-1.3-2.5m88.6 26.5c.6.9.8 1.8.5 2.9-.2.6.1 1.3.2 2m-105-18.2c-.1.7.1 1.2.7 1.6.8.4 1 1 .7 1.9-.1.2-.1.4 0 .5.4.7.1 1.2-.2 1.8m120.2 5.7-2.3 2.3m-14.2-53.7c-1-.3-2 .1-2.9.1m-61.2 67.7c0 .8-.1 1.5-.1 2.3m-17-38.3c-.4-.7-.9-.1-1.2 0-.5.2-.7.8-1.3 1m98 17c-.6.6-1.4.8-2.3.9m5.6-65.3c-.8.1-1.6 0-2.3.4M49.8 107.4c.4.1.8.2 1.1.3.1.5.3.9.6 1.3.2.3.7.5.5 1m45.6 14.5c.7.5 1.5.5 2.3.5m17-38.3c.4.2.8.5 1.3.6s1.2.2 1.1-.7m-58.9 59.2c-.3.7-.2 1.5-.7 2.2m38.6-44.5c.3-.1.4-.3.5-.6.6-1.3.5-1.7 2.4-1 .3.1.6.2.8.3m-23.8-36c-.3-.1-.6-.1-.9-.1-1.2-.1-2 .4-2.6 1.4m18.9 27.2c-.4.8-.1 1.9-1 2.5-.1.1-.3.1-.4.2m50.2 14.7c0 1.3 0 2.6.2 3.8M59.4 99c1.5.9 2.8 2.1 4.6 2.5M72.2 72c.4.7.7 1.5 1.6 1.8M57.9 40c-.1.8-.4 1.4-.8 2.1m-24 82.8c-.3 1.9.4 2.7 2.4 2.6m93.6-28c-.8-.4-1.4 0-2.1.3m22 27.8c-.1.9.4 1.8-.1 2.7m-32.7-26.7c-.5-.7-1.3-.1-1.9-.4m-20.6-2c-.2.7-.4 1.3-.6 2m-58.3-50-.9 1.8m99.9 71.7c.1.7.4 1.3.7 1.9M70.3 72.4c.2.6.8 1 .8 1.7m67 53.6c0 .6-.1 1.3.4 1.8m-40.3-56c-.3.6-.8 1.1-.7 1.9M53.4 39.3c0 .7.1 1.5-1 1.6-.6 0-.4.6-.4 1m23.9 20.2c-.2.7-.1 1.3.2 1.9m-4.5-1c.9 1.1 1.6 2.2 3.2 2.2.1 0 .3.3.4.4m-39.1 16c0 .7.6 1.2.5 1.9m-2.1 34.1c-.7.4-1.3.9-1.8 1.6m93.7-38.4-.3 1.8M89 96.1c.1.6.3 1.2.4 1.8m-56.2 18.5c-.5-.3-.9-.3-1.4 0-.3.2-.7.2-1 0m116.9 46.7c-.8.8-1.8 1.5-1.6 2.9m-76.7-60.3c-.1-1.1-1-1.2-1.8-1.4" class="st0"/><path d="M52.3 110.2c.2.3.4.6.7.8.9.6.6 1.1 0 1.7-.3.2-.4.5-.6.8m99.7 12.9c.7.7 1.6 1.1 2.2 2m-92.5 12.4c0 .7.4 1 .9 1.2M91 99.9c.5.2.9.6 1.5.6m63.6 23.2c1.3.9 0 1.5-.2 2.2-.1.4-.5.7-1 .8M29.7 94.3c-.5.1-.9.1-1.4.2m67.1 28.8c.4.6.9.1 1.4.1m22.3-36.1c.6 1 1.6.9 2.5.6m18.1 13.1c-.5.7-.9 1.7-2.1 1.2m-77.3-2.3-.9.9m-4-58.1c.4-.3.7-.9 1.4-.4.5.3.3.8.3 1.3m88.8 43.6c.6.4 1.3.7 2.1.6m-86.5 55.3c0 .5-.2.9-.5 1.2m64.2-18.6c.5-.1.8.4 1.3.4m-32.3 15.3c-.6.1-.6.8-1.1.9m56.4-14c.4.2.8.2 1.3 0M89 109.5c-.4 0-.8-.1-1.1.2M102 81.3c-.7.1-1.3.8-2.1.4m48.6 83.2c.3.4-.2.8.1 1.1M99.7 95.7c-.1.5-.5.8-.8 1m12.5 4.3c-.3-.3-.7-.3-1-.3m40.4 26.5c.1.5.6.6.8.9m3.1 1.3c0-.3.1-.6-.1-.9-.6-.1-.7.6-1.1.8M116.4 102v1M99.8 80c-.4.4-1 .8-.7 1.6m-65.3 43.2c.2.4.4.7.7.9m-4.9-8.8c.2.3.5.6.7.9m22.3-38.9c.2.3.1.6 0 .9m35.7.8c.3.1.6.1.7.5m58.5-21.8c.1.3-.1.6.1.8m-26.8 28.1c-.2.4.5.3.4.6" class="st0"/><path d="M155.9 125.3c-.4-.5-.7-.1-1 .1M96 100.5c.1.1.1.2.2.3" class="st0"/></svg>