<svg xmlns="http://www.w3.org/2000/svg" xml:space="preserve" id="图层_2" x="0" y="0" style="enable-background:new 0 0 192 192" version="1.1" viewBox="0 0 192 192"><style>.st0{fill:none;stroke:#000;stroke-width:3;stroke-linecap:round;stroke-linejoin:round;stroke-miterlimit:10}</style><path d="M32.9 77.1c-1-3.1-2.2-7.6-3.1-13-1.3-8.4-2.9-18 0-26.9 4.3-13.2 18.7-25.4 35.9-26C82 10.7 93 20.9 95.1 23.1c3.7-3.2 13-10.5 26.6-11.8 3.6-.4 11.8-1.1 20.8 3 1.8.8 6.6 3 10.9 7.3 10.7 11 9.1 26.9 8.7 31.1-.2 2.2-.6 4.3-1 6" class="st0"/><path d="M111.6 98.5c.9.5 1.8.2 2.3-.3 1.7-1.9 3.6-3.6 5-5.7 3.1-4.5 5.9-9.1 8.4-14 1.3-2.6 2.7-5.2 3-8.2.1 1.7-.3 3.4-.9 5-.6 1.5-1.3 2.9-2.1 4.3-.6 1.1-1.1 2.2-.7 3.5.1.3.1.6.1.9-.1 2.2.9 3.6 3 4.3 1.1.4 1.4.9 2 1.8-1.6-.9-3-1.6-4.5-2.4.6 3.2 1.4 6.1 2.8 9.1.7-2 1.4-3.8 2-5.6.2-.5.4-1 .6-1.4.7-1.6 2.1-1.8 3.7-1.5.3-2.8.5-5.5.8-8.2.2 1.7 0 3.3-.1 4.9-.1.8-.2 1.6.8 2 .3.1.5.7.7 1.1.7 1.5 1.3 1.7 2.8 1 .7-.3 1.3-.8 2.2-.3-.1.9-1 .9-1.5 1.4.7.4 1.5.7 2.2 1.2.9.5 1.5 1.3 1.2 2.4-.6 2.3-1.4 4.6-2.2 6.9-.5 1.3-1.4 1.8-2.8 1.8-.7 0-1.1.1-1.1 1-1.3-1.7-3.1-2.2-5-2.5-1 2.9-3.1 5-5.4 7.3 1.7.4 3 .2 4.2-.5 2-1.1 4.1-2.2 6.4-3.5-1.2 6.4-3 12.3-7.5 17.2-.4-.1-.6-.5-.3-1.1.2-.4.7-.7.7-1.3-.4-.1-.6.2-.8.3-1.8 1.3-3.6 2.5-5.9 2.6-.8 0-1.4.6-2.2.8 2.4-1.7 3.5-4.2 4.9-6.7-1.3-.3-2.4-.9-3.8-.6-2.4.5-4.7 1.6-7.2 2.1-.9.2-.5.9-.2 1.3 1 1.6 1.9 3.1 3.4 4.3 1.8 1.5 3.9 2.7 5.9 3.9.3.2.7.3 1 .9-1.4-.5-2.7-.8-3.8-1.6-3.8-2.7-7.5-5.4-11.3-8-1.6-1.1-3.3-1.9-4.9-3-1.9-1.3-3.3-3.2-5.3-4.3-1-.6-1.9-1.4-2.9-2.1.3.7.1 1.4 0 2.1.5-.1.2-.6.5-.8.8.2.5.6.2 1-.8 1.3-1.7 2.6-2.5 3.9-.7-.5-.7-.5 0-1.4.3-.5.7-.9 1-1.5-.6.2-1.2.5-1.8.7.1 1-.2 1.9 0 2.9-1.1-.3-.6.5-.6.9.2 4.2 3.4 6 6.7 7.9-.2-.6-.5-.9-.8-1.1-2.5-2.1-3.6-5.1-5.3-7.7.5-.3.6.2.8.4.5.6.8 1.2 1.3 2 .4-.8.4-1.7 1.2-2 .8-.3 1.4.6 2.2.5.7-2 .7-3.3.1-4.1 1-.2 1.1 0 1 .9-.2 1.5-.4 2.9-.3 4.5-.3-.2-.5-.4-.8-.6-.7-.4-1.5-.7-2.2-.1-.8.6-1 1.5-.5 2.4.9 1.8 2.2 3.3 3.8 4.5 2.5 1.8 5.2 3.1 8.2 4.1 4.5 1.4 9.1 2.1 13.9 2.1.7 0 1.3-.1 2-.2.9-.2 1.5-.6 2.1-1.4.8-1.2 1.7-2.3 3.1-2.8-.8 1.3-2.2 1.9-3.1 3.5 2.6-1.3 3.6-3.8 5.8-5.1-1 0-1.5.8-2.3 1-.8.3-1.6 0-2.4-.3 0-.4.3-.3.5-.3 1.2.3 2.3-.1 3.4-.8.9-.6 2.3-.8 2-2.4-.2-1.1.1-2.3-.8-3.2.1-.3.3-.4.5-.5.9 2.3.9 2.3.7 5 1.5-1.9 3.5-3.6 3.6-6.3-.7 1.4-2.9.7-3.2 2.6.3-1.2 0-2.3.2-3.4.1-.6.8-1.2 1.1-1.9.5-1.4.7-2.9 1.1-4.3.2 1.9-.3 3.6-.7 5.4-.7.4-.9 1-.6 1.7.1.2.1.3.3.3.4-.1.1-.5.3-.7.3 0 .7.5.9-.2-.2-.5-.9-.6-.9-1.2h.1c1.6.7 2.6-.4 3.7-1.3 2.8-2.3 5.2-5 7.1-8 1.7-2.7 2.6-5.6 2.8-8.8.1-2.6.4-5.2 1.1-7.8.1-.4 0-.8.6-1-.2 1.5-.6 2.9-.7 4.4-.3 3.3-1 6.6-1.3 9.9-.6 6.5-1.2 13-.4 19.5.3 2.6.6 5.1 1.6 7.5.3.7.5 1.4 1.3 2v-9.3c.3.6.3 1 .3 1.4 0 2.5.1 5.1.1 7.6 0 1.7.5 3.3 1.3 4.9.7 1.5 1.2 3.2 1.6 4.8.2.9-.4 1.7-1.3 2.2-.6.3-1.1.7-1.4 1.5-.3-.6-.7-.4-1-.1-.3.2-.4.6-.2.8.5.4.1.6 0 .8-1 1.1-2.1 2.3-3.2 3.4-1-.9-1.8-2-2.2-3.2-.2-.4-.3-.8-.6-1.2-3.2-3.8-5.7-8-8.2-12.3-1-1.7-2-3.4-2.9-5.2.1 4.8.7 9.5.7 14.5 1.9-.8 3.6-1.7 5.6-1.7.4 2 .3 3.9.4 5.8 0 .8 0 1.7.1 2.5s-.3 1.1-1 1.3c-1.1.2-2.3.5-3.4.6-1 0-1.1.5-1 1.3.4 2.1.8 4.2 1.1 6.3.2.9.2 1.8.6 2.8 1.5-.5 2.9-.8 4.4-1 2.9-.5 5.3.3 7.1 2.8 1.7-.8 3.5-1.2 5.3-1.5 2-.3 3.9.3 5 2.1 1.3 1.9 1.8 3.9 1 6.3-1.4 4.4-4.3 7.1-8.4 8.7-1.3.5-2.7 1-4 1.4-.9.3-1.2.7-.8 1.6h-.6c0-.3.2-.6 0-1-.6.2-1.5-.1-1.4 1h-1.5c-.2-1.6.3-3.2.3-5-1.2 1.6-1.2 1.6-1.9 1.4.3-1.4 1.6-2.4 1.8-4.1-2.8 2.5-6.1 2.3-9.3 2.4-2.2 0-2.8-.5-3.2-2.7-.2-1.1-.3-2.1-.8-3.2-.6.2-.8.6-1.2 1-.2.3-.4.6-.2 1 1 1.6 2 3.2 2.9 4.8.8 1.4 1.7 2.7 2.1 4.3h-5.2c-.2-.5.1-.6.4-.8 1-.5 1.9-1.1 3-1.5-.1-.6-.4-1.2-.7-1.7-.4-.6-.8-.8-1.5-.4-2.1 1.2-4.4 1.6-6.7 2.1-3.4.7-6.8 1.2-10.2.9-1.2-.1-1.4 0-1.6 1.2h-.6c.1-.5.5-.9.7-1.3.3-.6.1-1.1-.4-1.6s-1-.4-1.5-.1c-.6.3-.6.8-.5 1.3.1.6.5 1.1.8 1.7h-.4l-.6-1.2c-.6-1.2 0-2.2 1.3-2.4.8-.1 1.3.4 1.6 1 .4.8 1 1.2 1.9 1.2 4.5 0 8.8-.7 13.1-1.8.7-.2 1-.6.8-1.4-.6-2.4-1.2-4.7-1.9-7.1.9 2.5 1.9 5.1 2.4 7.8.8-.4 1.5-.7 2.2-1.1-.6-.8-1.1-1.5-1.5-2.3-1.2-2.1-1.1-2.7.8-4.2.2-.2.6-.3.5-.7-.3-1.6-.6-3.3-1.3-5.1-.7 1-1.5 1.7-2.5 1.9-2.6.5-5.3.6-7.9.7-.7 0-1.1.2-1.4.7-.9 1.2-1.9 2.3-2.8 3.5-.4.5-1.1.8-1.3 1.5-1.8-2-3.7-4.1-5.5-6.1-.5-.5-1.1-.8-1.9-.9-2-.1-4-.3-5.9-1.6-1 2.4-2 4.6-3 6.8-1 2.1-.2 4.2-.1 6.2 0 .1.1.1.2.2.7-.2 1.7.1 2-.7.3-.9-.3-1.6-1.2-1.9.3-.3.5-.3.7-.2.7.5.9 1.3.8 2.1-.1.8-.7.9-1.4 1-.5 0-1-.2-1.5.5-.1-1.6-.5-2.9-1.3-4.1.4.1.8.1.9-.4.2-.9.3-1.8.6-2.6s.2-1.5-.1-2.2c-.4-.8-.7-1.6-1-2.4-.5-1.2-.8-2.4-1.2-3.6-.4 2.5 0 5 .1 7.5.1 1.3.1 2.6.7 3.7-.7-.1-.4.4-.4.7.3 1.4.3 2.9 1.5 4.1 1.1 1 1.7 2.4 3.2 3.1h-5.4c-.8-3.5-1.9-6.9-3.3-10.2-.4-1-1.2-1.5-2.3-1.7.1 1.3.1 2.6.2 3.9.2 2.7.9 5.3.7 8h-.4c-.1-3.1-.5-6.1-2.2-8.7-.3-.5-.7-1.1-1.4-1-1.7.2-3.4.6-5.1 1.1.2 2.9.4 5.8.8 8.6h-.8l-2.7-8.1c-1.6 0-2.9.6-4.3 1-1.1.3-1.5 1-1.5 2.1v5h-.8c.1-2-.8-3.8-1.3-5.7-.3-1.4-.7-1.5-1.9-1-1.3.5-2.6 1.1-3.9 1.5-.4.2-.6.4-.7.8-.2 1.5-.5 2.9-.4 4.4h-.8c-.2-.7.1-1.5-.3-2.4-.1.9-.1 1.7-.1 2.4h-.6V178c-.3.1-.5 0-.6.1-1.7.8-3.4 1.7-5 2.5-.3.1-.3.4-.3.6h-4.4c.3-2.4 1.1-4.7 1.8-7 .7-2.4 1.5-4.7 2.1-7.2.1-.3.2-.7 0-.8-.9-.9-.3-1.7 0-2.5 1-3 1.4-6.1 2.2-9.2-1.5 2.7-4.4 3.2-6.8 4.7-.8-1.2-1.2-2.6-2.2-3.7.6.1.5-.4.4-.7-.4-2-.9-4.1-1.1-6.3-.2.2-.3.3-.3.4 0 .2 0 .5-.1.7-.2 2 .4 3.8.9 5.7-1.2-2.1-1.4-4.3-1-6.6.4-2.3.8-4.6 1.5-6.9-.4-.4-.9-.7-1.5-.9-2.4 3.3-5.6 5.7-9.1 7.8.5-.5 1-1.1 1.4-1.6-2.4.4-4.7 1.3-7 1.8-2.4.4-4.8.7-7.4.4 2.5-1.6 4.2-3.8 5.9-5.9.9-1.1 1-2.2.7-3.4-.4-1.7-1.3-3.4-1.5-5.2v-.5c.3 0 .3.5.5.4 1-.7 1.8-1.5 3.1-2.1-.4.7-.8.8-1.1 1.1-.2.2-.4.4-.4.7.1.4.4.4.7.5.6.1 1.2 0 1.6-.2.4.1 0 .6.5.6-.1-1.3.1-2.7-.5-3.9-.1-.3 0-.5.3-.6.3-.1.4.2.4.5 0 .4-.2.8-.1 1.2.2.5-.1 1.2.6 1.5.6.2 1.1-.3 1.6-.7 3.4-3.1 6.8-6.2 10.1-9.3.6-.6 1.1-1.3.6-2.3-4.2.6-8.3 1.3-12.3 2.2-1.6.4-3.3.5-4.8 1.6-.6.4-.7.3-1.5.3 1-.8 2.1-1.5 2.2-3.2-1.3 1.1-2.3 2.3-3.3 3.4-.1.2-.1.3 0 .5.3.9.2 1.8.2 2.7 0 .7-.2 1.4.2 2.1l3.9-2.7c1.5-1 1.7-1.3 1.3-3.2-.1-.4 0-.5.4-.8 0 .6-.1 1.1 0 1.6.2 1.3-.4 2.2-1.5 2.8-1.1.6-2.2 1.3-3 2.4-.3.1-.7 0-.9.4.6 1.2 1.7 1.1 2.7-.3-.6.1-1.3.6-1.9-.1.7.1 1.3-.4 2-.4 1.5 0 2.3-.7 2.6-2.2.2 1.1-.1 2-.9 2.8-.8.8-1.8 1.3-2.8 1.9-.3.2-.6.2-.6.6-.6-.6-1.1-1.3-1.6-2.1-2.1 1.5-4.2 1.7-6.4.4-2.1-1.2-3.1-3.1-3.3-5.7 1 .6 2 1 3 1.1 2.3.2 4.3-.6 6-2.2 1.1-1.1 2.1-2.2 3.2-3.3 1-1.1 1.4-2.4 1.4-3.8.1-2.8.1-5.5.2-8.3 0-.8 0-1.6.5-2.3-.2 4.9.5 9.9-.7 14.9 2.5-3.9 3-8.3 3.8-12.7.4 2.5-.3 4.8-.7 7.2-.4 2.4-1.3 4.7-3.1 6.6.9-.1 1.5-.4 1.8-1.4.5-1.5 1.3-2.9 1.7-4.4.2-.6.8-.7 1.3-.5 1.6.4 2.7-.4 3.8-1.2.7-.5 1.4-1.1 2.3-1.4.9-.3 1-1.2.2-2.3-.4.1-.5.5-.6.8-1.1 2.2-3 3.4-5.4 3.8-1 .2-1.4-.4-1-1.3.9-1.9.8-4 1.2-6 .1-.3.1-.6.2-.9.2-1 .1-1.9-.5-2.8-1-1.4-1.6-3-1.7-4.8-.1-1.3-.5-2.6-.7-3.9 0-.3-.2-.5.2-.8.7.6 1 1.5 1.2 2.4.1.6.1 1.3 1.1 1.1.9-.2.7-.9.7-1.5-.4-2.9-1.1-5.7-1.3-8.5l-.3-3c-.1-1.2-.4-1.6-1.6-1.5-1.2.1-1.3-.4-1.3-1.3.2-3.6.3-7.1 1-10.6.4-2.1 1.5-3.8 2.3-5.7 1.5-3.8 4.4-6.4 7.9-8.4.1 0 .1-.1.2-.1.7-.2 1.4-.6 1.9.2s-.3 1.3-.9 1.6c-.7.5-1.6.8-2.3 1.2-1.1.6-1.3 1.1-.9 2.3.3.8.1 1.5-.2 2.2-2.1 6.3-4.1 12.6-4.4 19.2 0 .8-.3 1.6-.4 2.5-.4 2.3.2 4.5.5 6.7.6 3.5.7 6.9.4 10.5-.1 1.2 0 2.4 0 3.5.1 1.9-.3 3.8-.9 5.6-.1.4-.2.7-.2 1.1 2.5 0 4.9-2.4 5.4-5.4.6.1.7.6.8 1 1.3 3 2.8 5.9 4.4 8.8.4.8.8 1.3 1.9 1.6 1.4.4 2.7 1.2 4 1.9 1.6.9 3.3 1.1 5 1.1.9 0 1.8-.2 2.7-.3.1-.3-.1-.5-.2-.6-2.8-2.4-4.3-5.6-5.6-8.9-.7-1.7-1.6-3-3.2-4-1-.6-1.8-1.4-1.9-2.7.4-.1.4.2.5.4.7 1.1 1.7 1.8 2.7 2.5.3.2.6.3.9 0 .8-.7 1.6-1.4 2.5-2.2-1.6-.7-2.7-1.8-3.5-3.2-.6.3-1 .8-1.4 1.4-.4.6-.9 1.3-1.5.1-.1-.3-.4-.2-.7-.1-1.2.2-2.5.3-3.7.5-.6.1-1.2 0-.8 1.3-1.2-1.1-2.4-1.4-3.4-1.9-.8-.4-1-1.2-1.1-2-.6-4.2-1.7-8.3-2-12.6 0-.8.3-1.2.9-1.7.3.8.4 1.7.9 2.3-1.1 1.2-.9 1.6-.6 4.3 1-1 1.3-2.7 3.2-1.9 0-.2 0-.4-.1-.4-1.7-.6-2.2-1.9-2.1-3.6.2-3.4-.5-6.8.3-10.1.1-.4 0-1 .5-1 .6-.1.6.5.8.9.3.5 0 1.1.1 1.8.9-.3 1.3-1 1.5-1.8.9-3.1 2.4-5.8 3.7-8.7.1-.2.1-.3.4-.3.2.4-.1.6-.2.9-1.3 3.7-2.8 7.3-3.7 11.1-.3 1.1-1 1.6-2.1 1.7-.4.1-.8.1-.8.7 0 2.3-.1 4.7.2 7.2 1.2-.5 2.2 0 3.1.7 1 .6 1.7.4 2.4-.6.1-.2.3-.5.5-.6 1.3-.6 1.2-1.7 1.2-2.8-.1-2.4-.2-4.8.4-7.1v-.6c-.4-.3-.7.3-1.1.1-.2-.5 0-.9 0-1.4.3-2.6.6-5.2 1.5-7.6 1.1-3.2 1.6-6.6 3.4-9.6 1.4-2.4 2.8-4.7 5.2-6.1.2.4.2.4.1 1.4.9-.1 1.9 0 2.8-.2.8-.2 1.7-.1 2.5-.7.3-.2.6.1.8.3 1.2 1.2 2.2 2.5 3.4 3.7-.7-.4-1.3-.9-2-1.3-1.8-1.3-3.7-1.7-5.9-.7-.8.4-1.1.9-1.2 1.7-.3 4.8.4 9.4 2 14 1.5 4.3 3.7 8.3 6.6 11.8 2.2 2.6 5.1 4.2 8.1 5.6 1.4.6 2.9 1.2 4.3 1.8.7.3 1.2.3 1.7-.4.6-.8 1.4-1.2 2.4-1.3 3-.5 3.3-1 2.1-3.7-.6-1.4-1.3-2.7-2-4.1-.3-.7-.9-1-1.7-.9-.6.1-1.2.1-2-.2.6-1.1 1.7-.5 2.6-.8-.6-1.9-1.9-3.3-3.1-4.8-.5-.5-.9-1-1.5-1.5-2.9-2.5-5-5.6-6.8-8.9-.3-.5-.3-.7.1-2.1.9.9 1.8 1.6 1.8 2.9 0 .8.9 1.9 1.8 2.1.4.1.6.3.8.6 1.5 1.9 3 3.8 4.2 5.9 1.1 1.8 2.5 3.4 3.4 5.3.1.3 3.9 1.8 4.2 1.7h.1c.4-.2 1.1.4 1.3-.2.3-.6.1-1.2 0-1.8-.4-1.4-.8-2.8-1.4-4-1.6-3.2-3-6.6-5.2-9.5-1.1-1.5-1.5-3.1-1.8-4.9.3 0 .4.2.4.4 1.2 2.9 3 5.4 4.6 8 1.5 2.5 2.9 5.1 3.6 8 0 .2.1.3.3.7.4-3.2 1-6.1 0-9.2-.7-2.2-1.1-4.6-2.1-6.7-3-5.8-7.2-9.8-12.9-12.2-3.8-1.6-7.6-2.9-11.7-3.1-.4 0-.7-.1-.8-.5h0c.6-.3 1.2-.3 1.8-.2 6.1 1.1 12 3 17 6.8 4.3 3.3 7.1 7.7 9.1 12.6.5 1.2.6 2.4.9 3.7 4-12.8 12.6-20.4 25.9-22.8-1.4-4.5.4-8 4.2-10.6-.6.6-1.1 1.2-1.7 1.8-2.7 2.5-3.2 5.3-1.7 9.3.5 1.3 1.2 2.5 1.8 3.7.2.5.5.9.5 1.6-.9-.8-1.3-1.8-1.9-2.6-.6-.8-.9-1.8-1.2-2.7-8.4 1.8-15.5 5.6-20.8 12.4-2 2.6-3.1 5.6-4.1 8.6-1 3.2-1.7 6.6-2.1 10-.1 1.1 0 2.3.2 3.5 1.8-1.3 2.9-3.1 3.9-4.9-.4 2.2-1.4 4-3.2 5.3-.6.4-.6.7-.5 1.2.2 1.2.7 2.3.6 3.6.1-.2.2-.4.2-.7-.1-1.8 1.3-3.3 1.4-5.1 0-.8 1-1.2 1.7-1.7 2-1.3 3.6-3 5.1-4.8-.2-.6-1-.5-1.2-1 0-.2.2-.2.3-.2 1 .8 1.6.4 2.4-.4 2-2.2 3.3-4.6 4.2-7.4.5-1.8 1.5-3.6 2.1-5.4-.6 2.9-1.6 5.7-2.4 8.5-.9 3.2-1.1 6.4-.9 9.7.2 3.2.6 6.3 1.5 9.4.4 1.2.7 2.4 1.6 3.3 1.1.9 1.2 2.1 2 3-.5-.1-1.1-.3-1.4-.8-1.1-1.8-2.2-3.6-2.8-5.7-.8-2.5-1.2-5.2-1.3-7.8 0-2.5-1.6-3.6-3.3-4.9-1.3 1.7-2.8 3.3-4.6 4.5-1.5 1-2.4 2.1-2.1 4.1.4 2.4.1 4.9 1.6 7.1.5.7.8 1.5 1.1 2.3.2.5.4 1 .7 1.4.5.6 1.1.7 1.7.2 1-.7 1.3-1.7 1.4-2.8.1-.7-.2-1-.9-.9-1.1.1-2.2.3-2.7 1.5-.5-.5-.2-1-.1-1.3.4-1.2.2-2-.9-2.6-.4-.2-.3-.6-.1-.9.4-.5.8-1.1 1.4-1.6.8-.7 1.5-.6 2.3.1 1.7 1.7 1.9 3.8 1.7 6-.1.8-.4 1.6-.9 2.3-1.2 1.4-2.7 1.4-3.7-.1-.4-.6-.7-1.2-.9-1.9-.3-.8-.6-1.5-.9-2.3-.2 1.1.1 2.2-.1 3.2-.3 1.3-1 2.5-1.6 3.6-.7 1.4-.3 2.3.6 3.4 2.7 3.5 6.5 5.6 10 8.1.3.2.7.3 1.1.4 4 1 8.1 1.2 12.2 1 3.6-.1 7-.8 10.1-2.6 1-.6 1.7-1.3 2.2-2.4-1.3-.1-2.4-.5-3.5-1.1 0-.3.1-.4.2-.5 2.1-1.3 3.4-3.3 4.8-5.3.4-.6.4-1-.3-1.3-.6-.3-1-.8-1.4-1.3-2.5-3.3-4-7-4.6-11.1-.1-1-.6-1.4-1.5-1.4-.5 0-1 .1-1.5-.4.9-.6 1.8 0 2.7-.2-.1-1.5-.2-2.9-.3-4.6-1 1.8-1.7 3.3-2.6 4.8-2.2 3.5-4.5 6.9-7.5 9.8-1.2 1.2-2.2 2.8-4.3 2.5.4-.1.1-.3 0-.5zm-49.7 59.2c-.1.4-.1.8-.3 1.1-.5.7-.1 1.1.5 1.4.6.3 1.3.4 1.8.9-2.2-.4-3.9-1.7-5.4-3.2-.8 1.3-.8 2.2.1 3.4.4.5.8 1 1.3 1.5 0 .1.1.1.1.2 1 1.3 2.5 1.9 4 2.4.3-1 .3-2 .5-3 .1-.6 0-1.1-.7-1.3.3-.1.7.2.9-.4.8-2.2.3-3.4-1.9-4.4-.2-.1-.3-.1-.5-.2l-.1.1c.1.3.5.4.5.8-.4 0-.6.3-.8.5.4-.6.1-1.1-.4-1.5-.8-.6-1.5-1.1-2.1-2-1.4 3-1.1 3.6 1.6 5 .4-.4.4-.9.9-1.3zm-1.5-75.4c-.2 3.2-.2 6.4-1 9.9 1.6-1.7 3.3-2.7 4.8-3.9-1.6-1.9-2.8-3.9-3.8-6-1.1-1.3-1.2-2.9-1.4-4.4.5.2.5.6.6 1 1 2.9 2.5 5.5 4.4 7.9.3.4.5.8 1.1.8.3 0 .7-.1.9.3.2.5-.5.5-.6.9 3.5 4.1 7.3 7.9 12.7 10-.2-.6-.7-.9-1-1.2-1.4-1.2-2.7-2.4-4-3.6-.8-.7-.8-1.8-1.6-2.5-2.4-2-3.9-4.6-5.6-7.2-1.5-2.3-2.2-4.9-3.2-7.4-1.9-4.5-3.3-9.1-3.2-14 0-.9.4-1.7.3-2.5-.6 0-.9.4-1.3.7-2.7 2.5-4.3 5.6-5.2 9.1-.7 3-1.3 6-2.3 8.9-.3.9-.5 2-.1 3 .3-.6.4-1.3.6-2 .4-1.8.9-3.6 1.8-5.3.2-.4.4-1 1.2-.8-1.5 3.7-2.5 7.5-1.9 11.5.5-.6.4-1.3.4-2 0-.9.1-1.9.9-2.4s1.6-.9 2.7-1.5c-.5 1.7-.1 3.1.1 4.5.1.3.1.8-.4.8-.6 0-.5-.4-.6-.8 0-.8.1-1.6-.2-2.5-1 .1-1.3.8-1.5 1.5-1 3.6-1.7 7.3-1.1 11.1 0 .3.2.6.5.7.8.3 1.4.9 2.1 1.4.6-.7 1.1-1.6 1.8-2.2 1.1-.9 1.4-2.1 1.7-3.3.4-2.2.6-4.4.8-6.6.1-.8.1-1.4.6-1.9zm27.5 73.8c-1.5-.5-3.1-1.1-4.5-1.9-.6-.4-.9-.7-.8-1.3.1-1.4.1-2.8.1-4.2v-3.8c-2.7.9-5.4 1.1-8.1 2h3.3c-5.3-.2-10.8.9-16.1-1.4-.8 2.7-1.8 5.3-2.3 7.9 1.8 1.2 3.6 2.3 5.6 3.4.2-3.1.6-6 1-8.8 0 .9-.1 1.7-.2 2.6-.3 2.1-.8 4.2-.5 6.3.2 1.4.3 2.7 0 4.1-.2 1.3-.3 2.7-.4 4-.1 1.4-.1 1.5 1.3 1.7 2.8.4 5.6.7 8.4.8 1 0 2.1.8 2.9-.4 0-.1.3 0 .4 0 1 .3 1.3-.3 1.3-1.2 0-1.5-.2-2.9-.3-4.3-.1-1.3-.9-2.5-1-3.8 0-.9-.4-1.1-1.2-1.1-3.1-.1-6.1-.2-9.2-.3h-1.9c.4-.5.8-.5 1.2-.5 3.1-.1 6.2 0 9.3.3 2.3.3 2.1.2 2.3 2.2 0 .4.1.9.8.9 3.3-.4 6-1.7 8.6-3.2 1.6-.7 2.9-1.7 3.9-3.2.2-.3.4-.5.7-.6.9-.4 1-1.1 1-2-.2-2.3-.9-4.5-1.4-6.8-.2-.9-.2-1.8-.7-2.5-1.9.8-1.6.5-1.6 2.3 0 2 .1 4.1 0 6.1 0 2.1-.4 4.1-1.7 5.9-.3.2-.4.5-.2.8zm2.2-34.5c.5.1.7.4 1 .7 1.2 1.3 2 2.9 3 4.3 1 1.3 1.7 2.8 2.5 4.3.4-2.4 2.7-4.2 2.3-6.9-5 .9-5 .9-5.9 0 .3-.3.6-.1.9-.1 1.2.1 2.3.2 3.4-.4 1.2-.7 2.8.4 3.1 1.6.3 1.6.6 3.1-.1 4.9-.9 2.2-1.2 4.8-1.8 7.1-.4 2-.4 2 1.4 2.6-.8.2-1.5-.2-2.3-.2-.8 5.1-1.2 10.2-1.1 15.3-.1-.1-.1-.2-.1-.3-.2-4.9.1-9.7.8-14.5 0-.3.2-.6-.1-.8l-1.5-.9c-.1.5-.1.8-.2 1.1-.4 3.6-.4 7.3-.4 10.9 0 2.2.5 4.4 1.3 6.5.5 1.2.7 2.4.7 3.7 0 2.6 1.4 4.7 2.2 7.1 1.1-3.8 2.9-7.2 4.7-10.8-.7.1-.6.7-1 .7.1-1.2.1-2.4.2-3.5.1-3.3.4-6.6.2-9.9 0-.3 0-.6.4-.6.3 0 .4.3.4.5v.6c-.1 3.4-.1 6.8-.2 10.2 0 1.3.4 2.3 1.3 3.2 3.5 3.4 6.6 7.1 10.1 10.6.1.1.3.2.1.4-4-3.6-7.3-7.9-11.3-11.5 3.4 4.6 7.2 8.8 11.3 12.9.6-.8 1.3-1.6 1.8-2.4 3.1-4.5 6.3-8.9 9.9-13 .3-.4.4-.7.2-1.2-.9.5-1.2 1.4-1.9 2 .5-.8.9-1.7 1.6-2.3.4-.4.5-.7.4-1.3-.5-2.8-1.1-5.6-1.8-8.3-.2-.6-.3-1.2-.1-1.8.3 1.5.7 2.9 1.1 4.3.5 2 1 4 1.1 6 .1 2.3 1.5 4 2.5 5.9-.8-3.6-1.5-7.3-2-10.9-.3-2-.6-3.9-1.3-5.8-.4-1-.7-1-1.4-.4-.2.2-.4.2-.6.3-2 .7-4 1-6.1.9-3.1-.2-6.2-.5-9.3-.8-.6-.1-1.3.1-2-.5.9-.1 1.6 0 2.3.1 3 .4 5.9.7 8.9.8 1.7 0 3.5-.1 5.2-.7.5-.2 1-.3.7-1.1-.3-1.2-.8-2.2-1.7-2.9-5-4.1-10.1-8-16.4-10.1-.5-.2-.9-.3-1-1l.9.3c-.5-.4-1-.7-1.7-.9.3 1.8 1 3.4.6 5.3 1.4.3 1.8 1.3 1.8 2.5.1 2.2.1 4.4.2 6.5 0 .9-.2 1.6-.6 2.4-.2.6-.6.8-1.2.6-1.3-.3-2.6-.7-3.9-.9-.6-.1-.8-.4-.8-.9-.1-1.1.1-2.1.4-3.2.5-1.7.7-3.4 1.2-5 .3-.9.7-1.8 1.8-2.1.3-.1.4-.3.4-.6 0-1.2.2-2.4-.2-3.5-.1-.4-.3-.8-.7-1-1.3-.8-2.6-1.8-3.9-2.5-2.7-1.5-3.9-3.9-4.7-6.6-.1-.3-.1-.7.1-.9.9-.9.7-2.1 1-3.2-.6-.1-1-.1-1.4-.2-1.4-.2-1.4-.2-1.2 1v.3c-.7 3.2-1.5 5.9-3.5 8-.7.5-1.3 1-1.8 1.8.6.1 1 .4.9.8-.2 1.3.7 2.1 1.3 3 .7 1 1.4 1.9 1.9 2.9 1.5 3.2 2.2 6.4-.4 9.4-.2.2-.4.5-.4.8 1.2.6 2.9 0 3-1.1.3-2.1.6-4.2 1.2-6.3.3-.9.1-1.8-.3-2.7-1.4-2.5-3.1-4.9-4.7-7.2-.3-.2-.6-.7-.7-1.4zm-.9-25.7c-1.9.6-4 .7-5.9 1.6-.3.2-.7.1-.8-.3-.2-.7-.8-.8-1.3-1-2.6-.9-5.3-1.8-7.5-3.5-.3-.2-.7-.4-1-.6 2.1 3 5.3 4.9 7.4 7.8-6.6-1.5-11.3-5.6-15.3-10.9-2 1.5-4.1 2.9-5.8 4.8-.3.4-.4.8-.5 1.3-.3 1.5-.6 3-1.3 4.4-1.1 1.9-.8 4-1.2 6-.1.3.2.5.3.7 1 1.2 1.9 2.7 4.2 2.1-1.3 1.6-2.8 2.6-4.1 3.7 1.1 2.4 2.1 3.6 3.8 2.5-.2-.2-.4-.5-.6-.8.5 0 .7.3 1 .4 1.1.5 2 1.4 3.2 1.5 3 .1 6 .2 9-.2 4.1-.6 7.7-2.3 11-4.8 2.5-1.9 5.1-3.8 6.7-6.7.8-1.4.9-2.6.2-4s-1.2-2.7-.3-4.6c1.2-2.4 1.4-5.1-.9-7.3-.3-.3-.5-.8-.8-1.2-.4-.6-.9-1.2-1.9-1.4 1.9 2.6 2.7 5.5 3.7 8.4-1.4.2-1.6.7-1.3 2.1zm51.6 20.5c0 1.5-.4 2.7-1.2 3.8-.9 1.3-1.9 2.6-3.2 3.5-.5.4-.6.7-.3 1.4.5 1.4 1.5 2.4 2.2 3.6 2.8 5.1 5.8 10 9.3 14.7.4.5.8 1.1 1.6 1.3-.2-1-.3-1.1-.7-1.4-1.1-.9-1-1.3.4-1.8 1.6-.6 3.1-1.3 4.4-2.5.6-.5 1.2-1 1.9-1.3.8-.3.9-.9.6-1.6-.6-1.1-.9-2.2-1.3-3.3-.3-.7-.5-1.4-1.2-1.7-1-.4-1.1-1.2-1.1-2.1 0-1.2-.1-2.6-.9-3.5-2.2-2.3-4.2-4.9-6.9-6.7-1.3-1-2.3-1.9-3.6-2.4zm-89.3 42c.9-.7 1.6-1 2.4-1.3 2.1-.8 3.7-2.2 4.5-4.2 1.2-3.1 2-6.3 3.1-9.4 1-2.8 1.4-5.8 2.9-8.4.2-.5.1-.7-.3-1-1.5-1.2-3.3-1.4-5.1-1.5-.9 0-1.5.4-1.8 1.3-.8 2.2-1.9 4.3-3.1 6.2-1.5 2.3-3.6 4.2-4.1 7.1.1-.7 0-1.4-.1-2.1-.8 4.5-.1 8.9 1.6 13.3zm16.9-39.6c.7.4 1.2.4 1.6.1 2.9-2.3 6.8-2.2 9.9-3.9.7-.4 1.4-.6 2-1.3.6-.7 1.2-1.4 2-1.8-2.1 2.6-4.1 5.3-6.1 8-.7 1-1.2 2.1-2.2 2.9-1.5 1.3-3.4 2.1-5.2 3.3.2-1.1.7-1.8 1.4-2.4.8-.6 1.6-1.3 2.4-1.8 1.1-.7 1.3-1.8 1.4-3.1-1.8.3-3.4.6-5 1.2-.5.2-.7.5-.5 1 .7 1.8.1 3.5-.4 5.3-.3 1-.1 1.3.9 1.3 2.5 0 4.9-.4 7.4-.5 3.5-.2 6.6-1.2 9.3-3.6 2.2-1.9 3.9-4.1 4.9-6.8.1-.3.2-.6.1-.9-1-.4-2-.3-3-.4-.6-.1-.8-.3-.8-.8-.1-1-.2-1.9-.3-2.9-.2-1.6-.2-1.6-1.8-1.6 1.2-.5 2.1-1.4 3.1-2.2.8-.6 1.6-2.3 1.5-3.5-1.1 2.4-2.9 3.9-4.7 5.4-1.1.9-2.3 1.6-3.3 2.5-2.8 2.3-5.9 3.7-9.4 4.4-1.9.1-3.5 1-5.2 2.1zm69.4 33.4c-1.3.9-2.7 1.3-4.1 1.5-1.5.2-2.8-.1-4.2-1.1 1.6 7.4 3.2 14.8 4.9 22.2 2.7 0 5.4.3 8.1-.1-2.8-7.2-3.6-14.8-4.7-22.5zm-4-10.7c.6.6.5 1.2 1 1.6.2-.1.5-.3.7-.4 1.1-.5 1.3-1.3 1.3-2.5-.2-4.4-.7-8.8-.9-13.2 0-.7-.2-1.4-.6-2-.5 0-.8.3-1.1.6l-2.5 2.5c-.8.9-1.8 1.4-2.9 1.8-1.9.7-3.8 1-5.9 1.1.3 3.5 1.4 6.6 3.3 9.4.1 0 .2-.1.3-.1-.3-2-.6-4.1-.9-6.1 1 1.8 1 3.8 1.3 5.7.1 1 .2 2.1.9 2.7 1.6 1.5 4.7 1.8 6.5.5-.1-.3-.2-.8-.5-1.6zM63.6 140c2.3-.7 3.1-1.7 3-4.1 0-1 0-2.1-.4-3.1-.1-.4-.1-.9.2-1.3.8-1.4 1.5-2.9 2.3-4.3 1.2-2 1.3-3.8-.2-5.7-.4-.5-.8-.9-1.6-.9-1.7.1-2.2-.4-2.3-2.1 0-1.2-.6-1.7-1.6-2.1-.5 1.2-.4 2.4.1 3.5-.8 0-1-.5-1-1s-.1-1.2.2-1.6c.5-1.1-.1-1.6-.9-2-.2-.1-.4-.4-.9-.3-.2 1.7-1.2 3.4.1 5.2 1 1.4 2.1 2.6 3.3 3.7.3.3.6.4 1 .4.7.1 1.5.3 1.6 1.2.1 1-.4 1.7-1.2 2.2-.7.4-1.2.2-1.6-.3-.4-.6-.6-1.2-.1-1.9.1.4.1.9.3 1.3.3.8.8.9 1.5.4.3-.2.5-.5.7-.8.6-.9.3-1.5-.7-1.7-.3 0-.7 0-1 .1-2 .6-3.9.8-6 .4-1.1-.2-1.2-.1-1.1 1.1.2 1.3.5 2.6.7 3.9.1.3.2.6-.1.9-.6.4-1 1.1-1.5 1.5-1.1.8-1.1 2-1.5 3.1-.1.3 0 .7.5.9.5-1.1 1.3-2.1 1.5-3.3.2-1 .7-1.3 1.4-1.4.9-.2 1.8-.3 2.7-.2 2 .3 4.2.4 4.8 3-1.3.7-2.4 3.7-2.2 5.3zM85 166.9c-.4.1-.7.1-1 .2-3.2 1-6.5 1.5-9.9 1.2l-6.3-.6c-1.1-.1-2.3-.1-3.1-1-.7-.7-1.4-1.1-2.3-1.4-2-.6-3.7-1.7-4.8-3.5-.3.3-.3.6-.4.9-1.1 3.8-1.5 2.6 1.1 5.6.4.5.8 1 1.6 1.2.5-.8.9-1.6 1.3-2.4-.1.7-.3 1.4-.7 1.9-.3.6-.2 1 .3 1.3 2 1.1 4 2.1 6.3 2.2 1.8 0 3.6.1 5.4.3 1 .1 1.9.1 2.9-.1 2.3-.5 4.6-.9 7-1.4 1.6-.3 1.9-.6 2.2-2.3.1-.7.2-1.3.4-2.1zm-36-42.8c-3.1 2.9-6.2 5.7-9.2 8.6-.8.8-1.6 1.5-2.9 1.5.3 2.5 1.3 4.6 2.1 6.9.3-.1.6-.1.8-.2 1.6-.6 3.3-1.2 4.9-1.7 2.1-.7 2.1-.7 1.9-3-.1-1.3.2-2.3 1.2-3.3.7-.7 1.5-1.5 1.8-2.4.4-.9.9-1.3 1.7-1.5 0 0 0-.1.1-.4-1.5-1-3-2.2-2.4-4.5zm39.3 40.7c-1 .1-1.9.6-2.9.6.1-.1.1-.2.2-.2.2-.1.3-.2.5-.2 3-.9 5.3-2.9 7.3-5.1.8-.9 1.3-1.8.9-3.1-.4-.1-.5.4-1 .3.6-.7.8-1.5.9-2.3.2-1.8.1-3.6.1-5.4v-5.3c-1.2.1-1.2.1-1.1 1.2.3 1.6.7 3.1.7 4.7 0 1.2.1 2.6-.9 3.5-3.6 3.3-7.8 5.4-12.7 6.1-.5.1-.7.3-.7.8.1 1.8.1 3.7.2 5.5 0 .4.1.9.3 1.3 2.8-.4 5.6-1.1 8.2-2.4zm-19.4-23.1c2.3-.5 4-2 6.2-2.4 2.2-.3 4.4-.3 6.7-.6-.2-2.5-.5-4.8-.7-7.2-3.8.1-7.5.6-11.2.6-.3 1.7-.5 3.2-.8 4.8-.1 1.4-.3 3-.2 4.8zm70.9-40.5c1.2.1 1.8-.3 2.1-1.1.7-1.9 1.4-3.9 2.1-5.8.4-1 0-1.7-1-2.1-2.4-1.1-4.8-1.9-7.4-2.6-.9-.2-1.6.1-1.9 1-.7 2.1-1.5 4.1-2.2 6.2-.2.5-.1 1 .4 1.4 2.6 1.6 5.4 2.3 7.9 3zM47 106.6c1.7-.1 3.5-.2 5.2-.7 3.4-.9 2.9-1.1 2.5-3.6-.2-1.6-.3-3.2-.7-4.8-.2-.8-.6-1.4-1.6-1.3-2.6.2-5.2.5-7.8 1.1-.8.2-1.3.7-1.3 1.5 0 .5 0 1.1.1 1.6.3 1.3.6 2.7.7 4.1.2 1.7.5 2 2.2 2.1h.7zm103.2-.3c-.3 3.2-1.4 6.2-2.2 9.3 2.6-3.8 3.2-8 3.3-12.2-2.8 4.6-6 9-10.7 12 4.4 2.2 7.7 5.4 10.7 9.1-.6-4.3-.5-8.6-.8-12.8-1.4 2.4-1.8 5.2-3.6 7.3 1-4.3 1.9-8.5 3.3-12.7zm-11-1.3c-.1 0-.2-.1-.3-.1-.1.1-.2.1-.4.2-2 1.4-3.9 2.8-6.1 3.8-.4.2-.6.5-.8 1-1.4 3.8-2.8 7.6-5.4 10.8-.1.2-.4.3-.2.6 2.4-.7 4.4-2 6.1-3.8.3-.3.7-.8 1.2-.8 1.3-.2 1.9-1.1 2.4-2.2.9-2 1.6-4 2.3-6 .4-1.2.8-2.4 1.2-3.5zM52 129.1c-.6 1-1.2 1.8-1.7 2.6-.9 1.3-1.8 2.6-2.6 3.9-.7 1.2-.5 2.6.6 3.8 1 1.2 1.7 1.4 3.3.9.2-.1.4-.1.6-.1 1.4 0 2.8-2.3 2.1-3.5-.3-.5-.4-1 0-1.5.3-.4.7-1 .4-1.3-1-1.4-.3-1.8 1.3-2-1.6-.9-3.1-1.2-4-2.8zm107 35.8c-.6-.9-1.6-1.4-2.4-2.1-.6-.6-1.1-.5-1.7-.2-3.3 1.8-6.4 4-9.5 6.3 1.7.8 1.1 2.2.9 3.7 4.2-2.9 8.4-5.2 12.7-7.7zm-24.2-21c-1.5.5-3.3.6-5.2.4.5 2.5.7 5 .9 7.4.1.8.5 1.2 1.2 1.3 1.5.2 2.9-.1 4.4-.7-.7-2.8-1.3-5.5-1.3-8.4zM29 126.2c-2.6 2-5.4 2.7-8.7 1.4.3 1 .6 1.6 1.1 2.3 1.8 2.6 4.6 3.4 7.1 2 .4-.2.6-.4.6-.9 0-1.5.4-3-.1-4.8zm59.9 11.4c.1 0 .2.1.3.1.1-.2.2-.3.3-.5.6-1.2 1.7-2 2.7-2.8.6-.4.6-.8.5-1.4-.3-1.3-1-2.4-1.7-3.6-.2-.3-.4-.4-.7-.3-1.4.5-2.8.7-4.3 1 1.1 2.6 2 5.1 2.9 7.5zm53.6 2.8c-1.5.3-2.8.7-4 1.4-.3.2-.4.3-.4.7 0 2.3.2 4.5.5 6.8 1.3.1 2.5-.1 3.6-.5.4-.1.6-.4.6-.8-.1-2.5-.2-4.9-.3-7.6zm-57.1 10.4c-.1.7-.7 1-1.1 1.4-.6.8-.7 1.7-.1 2 .9.4 1.8.8 2.8 1.2.3.1.6.2.8-.2 1.2-2 1.7-4.1 1.6-6.5-1.1.5-2 1-3.1 1.5.3-1 .4-1.9-.7-2.1-.6-.1-1.4-.1-1.6.7-.1.5-.2 1 0 1.4.2.6 1 .1 1.4.6zm42.1 6.6c-1.2 3.2-3.1 5.6-5.1 8 2-.1 3.8 0 5.6-.5 1.4-.4 1.4-.4 1.1-1.8-.2-.8-.3-1.6-.4-2.3-.1-1.1-.6-2.1-1.2-3.4zM91.3 95.3c-.2.3-.2.8-.5 1-.8.8-.5 1.7-.1 2.6 1.5 3 1.3 6.1 0 9.2-.7 1.7.2 3.1 2.3 3.2 1-5.6-1-10.7-1.7-16zm-63.1 53c.1.1.1.2.2.2 1.1-.1 2.1-.1 3.1-.6 1.6-.8 3.1-1.7 4.2-3.1.7-.9 1.5-1.7 2.6-2.1.5-.2 1-.5 1.5-.7-.6 0-1.1.2-1.5.4-1.5.7-2.9.9-4.3-.1-.5-.4-.8-.2-1.1.4-.8 1.6-1.8 3.1-3.2 4.3-.6.3-1.1.8-1.5 1.3zM86.7 169c.5.1.8-.2 1.1-.4 1.8-1.3 3.6-2.6 5.3-4 1.7-1.4 1.9-3.5 2.1-5.8-1.3 1.8-2.3 3.4-3.8 4.6-1.5 1.2-2.9 2.4-4.8 3.1-.1.7 0 1.6.1 2.5zm40.4-54.4c.4-.4.8-.7 1.3-.7.6 0 1 0 1.2-.7.1-.5.5-.8.5-1.4-3.6 2.3-7.4 3.4-11.6 3.3-4.2-.1-8.3-.5-12.3-1.5 1.7.6 2.8 2.7 5.1 2.5-.2-.4-.3-.5-.4-.7 2.1-.1 4.2.3 6.2.5 1.5.2 2.9.1 4.3-.3 2.2-.7 4.3-1.4 6.6-.4.6.3.9-.1.9-.7-.7-.3-1.2.3-1.8.1zm-57.3 16.3c3.8.5 6.7-1.3 9.8-3.4-3.4.1-6.6.6-9.8.3v3.1zm24.8-27.3c.2 2.8.3 5.5 1.7 7.9.3.6.7.7 1.2.4 1.3-.6 1.8-2.6.8-3.9-1.2-1.5-2.5-2.9-3.7-4.4zm-.1-1.7c.3-.7.6-1.5 1.1-2.2 1.1-1.6 1-3.4.8-5.2-.2-1.3-.3-2.5-.5-3.8-.1-.7-.1-1.5-.5-2.4-1.3 4.7-1.1 9.2-.9 13.6zm48.4 72.7c1.2-.8 2.2-1.7 2.8-2.8.4-.7.6-1.5-.3-2-1.2-.7-2.6-.8-4-1.1.6 2 1.1 3.9 1.5 5.9zm-90.4-46c.9 1.2 1.9 2 3.2 2.5.8.3 1.5-.1 1.4-1-.2-1.5-.7-3-1.5-4.4-1.3.6-2.1 1.9-3.1 2.9zM38.2 86.8c.4-.3.3-.6.3-.9.2-1.5.3-3.1.5-4.6.4-3 1.1-5.9 2.4-8.6.2-.4.4-.8-.1-1-.4-.2-.6.3-.7.6-.4.9-.6 1.8-1 2.6-1.8 3.8-1.9 7.7-1.5 11.8l.1.1zm65.5 55.2c.9 0 1.9-.9 1.9-1.7 0-1-1.1-2-2.1-2-1.3 0-2 .7-2 1.9 0 1.1.9 1.8 2.2 1.8zm39.5 18.4c1.4.6 2.4 1.4 3.5 2.3 1.5 1.2 1.8 1.2 3.2-.2-.8-1.8-4.1-2.9-6.7-2.1zM88 109.6c.5.5.7 1.1.8 1.8.1.8.2 1.6.3 2.5.1.6.3 1 1 .8.9-.2 1.6-1 1.4-1.5-.6-1.2-1.2-2.4-2-3.5-.4-.5-.9-.9-1.5-.1zm-7.6 5.8c-2.1.4-2.6 2.7-4.4 3.4.8 2.5-1.6 3.2-2.5 4.7 1.3-.8 2.5-1.6 3.3-3 1-1.9 2.4-3.5 3.6-5.1zm11.4-24.5c-.2 1.8 1.1 9 1.9 10.8-.3-1.9 0-3.5-.7-5-.2-.5-.2-1.1.1-1.7.7-1.6.2-3.1-1.3-4.1zm64.5 70.9c1.2.8 2.5 1.5 3 2.8.7-.4 1.3-.7 1.9-1-1-2-3-2.8-4.9-1.8zM50.2 122.7c-.8 1.5.4 4.1 2.2 5.5.2-.6.8-.9 1.1-1.6-.4-.3-.8-.8-1.3-.9-.3-.1-.6-.3-.6-.6-.2-1-.9-1.6-1.4-2.4zm101.9 21.1c-.7.8-1.7.8-2.8 1.3 1 .7 1.7 1.4 2.3 2.4.8-.8 1.6-1.3 2-2.3-.8-.2-1-1-1.5-1.4zm-46.2-62.7c.1-2.1.1-3.9.5-5.7-1.1 1-1.8 2.4-3 3.4 1 .7 1.6 1.4 2.5 2.3zm12.3 40.7c-1.1-1.3-1.6-3.1-3.5-3.6.5-.3 1.1-.1 1.6-.6h-4c1.9 1.5 4 2.7 5.9 4.2zm-78.8-21.4c-1.5.2-1.8.4-1.6 1.8.1.9.4 1.8.8 2.7.1.3.2.7.8.6v-5.1zm122 63.7c-.4.2-.7.4-1 .6-.3.2-.9.5-.7.8.4.7.2 1.7.8 2.3.1.1.3.1.4.1 1-.1 1.4-.7 1.2-1.7-.1-.8-.2-1.5-.7-2.1zM55.9 100.8c.9-1.9 1.2-3.7 1.8-5.7-.8.7-1.2 1.4-1.7 2-.2.2-.6.4-.4.7.2.9.1 1.9.3 3zm-.6 23.9c-1-.7-2.1-1.4-3.5-1.7.7.8 1.1 1.8 2.1 2.3-.4.3-.6.7 0 1 .5-.5.9-1 1.4-1.6zM36.6 137c-.7.8-1.3 1.6-2 2.4-.2.2-.3.5-.1.8.1.2.3.3.5.2 1.7-.3 2.4-1.7 1.6-3.4zm34.5-17.9c1.6-.4 3.3-.8 4.9-1.2.3-.1.6-.3.4-.7-.2-.4-.5-.3-.8-.2-.8.2-1.6.4-2.4.7-.8.2-1.5.6-2.1 1.4zm10.6 59.4c.1-2.2-.7-4.1-.5-6.1-.5 0-1 0-1.4.4.8 1.8 1.1 3.7 1.9 5.7zm22.3-17.2c-1.2 1.6-1.1 2 .7 2.4.5.1.9.2 1.5 0-.4-1.2-1.5-1.5-2.2-2.4zM91.6 89.9c-.1-1.2-.2-2.1 0-3.3-.9.6-1.5.1-2.3.1.5 1.2 1.2 2.2 2.3 3.2zm-24.4 41.4.2.2c.5-.3 1.4.1 1.6-.7.2-1.1.2-2.1.3-3.2-.1 0-.1 0-.2-.1-.7 1.3-1.3 2.5-1.9 3.8zm29.9 1.6c.5-2.6 2.8-4.5 2.7-7.7-.8 2.8-2.4 5-2.7 7.7zm-1.3-20.6c0-.9-.4-1.5-.8-2.1-.3-.4-.7-.5-.9.1-.2.5-.5 1.1-.1 1.6s1.1.4 1.8.4zm27.4 49.3c1.5-1.3 3.1-2.6 3.7-4.6-1.6 1.3-2.6 3-3.7 4.6zm-57.4 12.1c1.2.6 2.3.3 3.6-.3-1.5 0-2.8 0-4.2-.3 0 .7-.1 1.3.1 1.9.6-.2.1-.8.5-1.3zm84.2-9.8c1.9-.2 3.2-1.7 4.9-2.4-1.8.5-3.4 1.3-4.9 2.4zm-84.8-45.5c-.2 1.7.4 2.2 2 1.8-.2-1-1-1.4-2-1.8zm94.3 54c1.1-1.1 1.7-2.5 2.3-4.1-1.8 1-1.4 2.9-2.3 4.1zm-6.5-29.5c0 .4-.5.3-.4.6.3.5.6.6 1.1.3.3-.2.5-.5.2-.8-.5-.5-1-.9-1.5-1.3-.3-.2-.5.1-.7.2-.2.2-.2.3 0 .5.2.3.4.2.6 0 .3-.3.5.3.7.5zM74.5 146c-1.7.2-3.5.2-5.2.2 1.8.4 3.5.6 5.2-.2zm-36.9-6.3c-1.1.8-2.2 1.5-3.4 2.4 1.1.2 3.4-1.4 3.4-2.4zm-4.4-.5c.3-1.4-.3-3.2-1.1-3.6 0 1.3.7 2.2 1.1 3.6zm-.5 8.5c2 .1 3.4-.7 3.4-2.1-1 1-2.1 1.5-3.4 2.1zm115.9-2.1c.4 1.2 1 2.2 2 3 .3-.2.5-.5.3-.6-.9-.7-1.3-1.8-2.3-2.4zm5.8-3.1c.6.4.9.3 1.8-.5.7-.6.9-1.1.6-1.8-.7 1-1.1 2.1-2.4 2.3zm-82.8 31.8c0 1 .2 1.9.7 2.9.2-3 .2-3-.7-2.9zm63-57.4c-1.1-.2-1.5.4-1.9 1-.1.2-.2.4 0 .6.2.2.5.1.6-.1.5-.4.9-.9 1.3-1.5zm20.6 23.4c.2-.6.9-.3 1.1-.8-.9-.3-1.5.1-1.9.8.2.3.3.7.7.8.3-.3.9-.5.1-.8zm-62.2-27c-.6.4-1.3.5-1.2 1.3.1.3.4.5.7.3.7-.3.2-.9.5-1.6zm.2-22.3c-.1-.7-.2-1.3-.7-2-.2.5-.3.8-.5 1.2.3.3.6.6 1.2.8zm57.2 52c.1.3.5-.1.5.3-.4.3-1.1 0-1.3 1 .7-.4 1.5-.4 1.9-1-.5-.6-.5-.6-1.1-.3zm-80.3-19.8c-.1-1.6-1-2.4-1.6-3.3-.1.1-.2.1-.3.2.6.9 1.1 1.8 1.9 3.1zm7.6 6.6c-1 .5-1.9.9-3.1 1.5 1.4-.1 2.5-.4 3.1-1.5zM43.9 85.5c0-1.3.6-2.6 0-3.9v3.9zm51 78.1c-.9 1.2 0 2 .1 2.9.2-.9.1-1.8-.1-2.9zm41.8-11.8c.3-1.1-.3-2.1-.5-3.2.2 1.1.3 2.1.5 3.2zm-32.5 7.9c-.1 1.3.9 1.5 1.4 1.9-.2-.7-.7-1.2-1.4-1.9zM34.9 138c.6-.9 1.5-1.2 1.4-2.2-.2.8-1.3 1-1.4 2.2zm87.6 24.9-.2-.2c-.6.8-1.1 1.6-1.8 2.5 1.3-.4 1.3-1.6 2-2.3zm8.5.5c-1-.1-.3-1.3-1.2-1.7.2.8.3 1.4.4 2 .3 0 .5 0 .8-.3zM52.9 94.2c-.8-.5-1.3-.5-1.9.4.7-.1 1.2 0 1.9-.4zm76 51.3c-.1-.5.4-1.2-.6-1.5.1.7.1 1.2.6 1.5zm-41.7 24.4c.7-.1 1.4-.1 2-1-.9.2-1.4.6-2 1zm65.5-28.9c.3.4.6.6 1 .7 0-.3.1-.6 0-.9-.4-.2-.7-.1-1 .2zm-60.6 25.4c1.6-.7 1.6-.7 1.6-1.3-.6.4-1.1.9-1.6 1.3zm-58.4-25.2c.3 0 .7-.1.6-.5 0-.4-.3-.6-.7-.5 0 .4-.1.7.1 1zm62.7-6.2c-.3.9-.6 1.8-.5 2.8.2-.9.4-1.9.5-2.8zm36.5 45.5c.6 0 1.1-.2 1.7-1-.9.3-1.4.5-1.7 1z" class="st0"/><path d="M101.3 181c-1.5-.6-2.1-2.1-3.2-3.1-1.3-1.2-1.3-2.7-1.5-4.1 0-.2-.3-.8.4-.7h0c.8 1.2 1.2 2.5 1.3 4.1.5-.8 1-.5 1.5-.5.7-.1 1.3-.2 1.4-1 .1-.8 0-1.6-.8-2.1-.2-.2-.5-.1-.7.2.9.3 1.5 1 1.2 1.9-.3.8-1.3.6-2 .7-.1-.1-.2-.1-.2-.2-.1-2.1-.9-4.1.1-6.2 1-2.2 2-4.5 3-6.8 1.8 1.4 3.8 1.6 5.9 1.6.7 0 1.4.3 1.9.9 1.9 2 3.7 4.1 5.5 6.1.3-.6.9-.9 1.3-1.5.9-1.2 1.9-2.3 2.8-3.5.4-.5.7-.6 1.4-.7 2.6 0 5.3-.1 7.9-.7 1-.2 1.8-.8 2.5-1.9.7 1.8 1 3.5 1.3 5.1.1.4-.3.5-.5.7-1.9 1.5-2 2.1-.8 4.2.4.8 1 1.5 1.5 2.3-.7.3-1.4.7-2.2 1.1-.5-2.7-1.4-5.3-2.4-7.8.7 2.4 1.3 4.7 1.9 7.1.2.8-.1 1.2-.8 1.4-4.3 1.1-8.6 1.9-13.1 1.8-.9 0-1.5-.3-1.9-1.2-.3-.6-.7-1.1-1.6-1-1.4.2-1.9 1.1-1.3 2.4l.6 1.2c-3.5.2-7 .2-10.4.2zm14.6-8.5c.3-.3.5-.4.6-.5 1-1.2 2.1-2.3 3-3.6.5-.7 1.1-1.1 2-.9.7.1 1.5.1 2.3.2-2-.4-4-1-5.3 1.5-.4.7-1.1 1.3-1.7 2-.3.2-.7.5-.9 1.3zm-13.3-8.3c-1.3 2-2 4.4-3.5 6.5 1.1-.6 3.5-5.1 3.5-6.5zM82.7 181c-.4-2.8-.6-5.7-.8-8.6 1.7-.5 3.4-.9 5.1-1.1.8-.1 1.1.4 1.4 1 1.7 2.7 2.1 5.7 2.2 8.7h-7.9z" class="st0"/><path d="M136.1 181c-.4-1.6-1.3-2.9-2.1-4.3-1-1.6-1.9-3.2-2.9-4.8-.3-.4-.1-.7.2-1 .3-.4.6-.8 1.2-1 .4 1 .6 2.1.8 3.2.3 2.2.9 2.7 3.2 2.7 3.2 0 6.5.1 9.3-2.4-.2 1.7-1.5 2.7-1.8 4.1.8.1.8.1 1.9-1.4 0 1.7-.5 3.3-.3 5h-5.4v-1c.1-.7-.2-1.2-.9-1.5-.7-.4-1.3-.2-1.9.2-.8.6-1 1.4-.9 2.3-.1-.1-.2-.1-.4-.1zM73.3 181c0-1.7.1-3.3 0-5 0-1.1.3-1.8 1.5-2.1 1.4-.4 2.8-1.1 4.3-1l2.7 8.1h-8.5zM64.3 181c-.1-1.5.2-3 .4-4.4.1-.4.2-.7.7-.8l3.9-1.5c1.3-.5 1.6-.3 1.9 1 .5 1.9 1.4 3.7 1.3 5.7h-8.2zM113.6 181c.2-1.2.4-1.3 1.6-1.2 3.5.2 6.9-.2 10.2-.9 2.3-.5 4.6-.9 6.7-2.1.6-.4 1.1-.2 1.5.4.3.5.6 1 .7 1.7-1.1.3-2 .9-3 1.5-.3.2-.7.3-.4.8-5.8-.2-11.5-.2-17.3-.2zM91 181c.2-2.7-.5-5.3-.7-8-.1-1.3-.1-2.5-.2-3.9 1.2.2 1.9.7 2.3 1.7 1.4 3.3 2.6 6.7 3.3 10.2H91zM56.5 181c0-.2 0-.5.3-.6 1.7-.8 3.3-1.7 5-2.5.1-.1.3 0 .6-.1v3.2h-5.9zM112.1 181c-.3-.5-.7-1.1-.8-1.7-.1-.5-.1-1 .5-1.3.5-.3 1-.4 1.5.1.4.4.7.9.4 1.6-.2.5-.7.8-.7 1.3h-.9z" class="st0"/><path d="M139.7 181h-2.9c0-.5.1-1 .4-1.4.4-.6 1-1.1 1.8-.9.8.2.7.9.7 1.5v.8z" class="st0"/><path d="M139.7 181v-.7c0-.6.1-1.3-.7-1.5-.8-.2-1.4.2-1.8.9-.3.4-.4.9-.4 1.4h-.2c-.1-.9.1-1.7.9-2.3.6-.4 1.2-.6 1.9-.2.6.3.9.8.9 1.5v1c-.3-.1-.5-.1-.6-.1zM147 181c-.1-1.1.8-.8 1.4-1 .2.4 0 .7 0 1H147zM63 181c0-.7.1-1.4.1-2.4.4.9 0 1.7.3 2.4H63zM111.6 98.5c.1.2.4.4.1.7 2.1.3 3.1-1.3 4.3-2.5 3-2.9 5.3-6.3 7.5-9.8.9-1.5 1.7-3 2.6-4.8.1 1.7.2 3.1.3 4.6-.9.1-1.8-.4-2.7.2.5.4 1 .4 1.5.4.9 0 1.4.4 1.5 1.4.6 4.1 2.1 7.8 4.6 11.1.4.5.8 1 1.4 1.3.7.3.7.8.3 1.3-1.4 2-2.7 4-4.8 5.3-.2.1-.3.2-.2.5 1.1.6 2.2 1 3.5 1.1-.6 1-1.2 1.8-2.2 2.4-3.2 1.8-6.6 2.5-10.1 2.6-4.1.2-8.2 0-12.2-1-.4-.1-.8-.2-1.1-.4-3.5-2.6-7.2-4.7-10-8.1-.9-1.1-1.3-2.1-.6-3.4.6-1.2 1.2-2.3 1.6-3.6.3-1.1 0-2.1.1-3.2.3.8.6 1.5.9 2.3.2.7.5 1.3.9 1.9 1 1.5 2.5 1.5 3.7.1.6-.7.8-1.5.9-2.3.2-2.2 0-4.3-1.7-6-.8-.7-1.5-.8-2.3-.1-.5.5-.9 1-1.4 1.6-.2.3-.3.7.1.9 1.1.6 1.3 1.5.9 2.6-.1.4-.4.8.1 1.3.5-1.2 1.6-1.4 2.7-1.5.7-.1 1 .2.9.9-.1 1.1-.4 2.1-1.4 2.8-.7.5-1.2.4-1.7-.2-.3-.4-.5-.9-.7-1.4-.3-.8-.6-1.6-1.1-2.3-1.5-2.1-1.3-4.7-1.6-7.1-.3-1.9.6-3.1 2.1-4.1 1.8-1.2 3.2-2.7 4.6-4.5 1.7 1.3 3.2 2.4 3.3 4.9 0 2.6.5 5.2 1.3 7.8.6 2.1 1.7 3.9 2.8 5.7.3.3.8.5 1.3.6 0 0 0 0 0 0zm11.2-1.5c.3.1.5.1.6.2 2.4 1.3 3.9 3.1 4.2 5.9.1.5 0 1.2.8 1.4.1-.7.2-1.4.4-2.1.2-1 .1-2.2 2-1.6-1.5-1.6-2.3-3.4-3.9-4.5.4-.5.9-.3 1.1-.7-.1-.2-.3-.3-.5-.3-2.2-.4-4.4-.5-6.5-.3-1.9.2-3.7.8-4.5 2.7.2.1.3-.1.4-.2.4-.2.8-.7 1.2-.2.3.4.1 1-.4 1.3-.2.1-.3.3-.4.5-.6 1.7-1 3.4-.5 5.2.4 1.4 1.5 1.9 2.8 2.1 1.2.2 2.2.1 2.9-1 1.4-2.2 1.9-4.6.9-7.1-.2-.4-.4-.7-.6-1.3zm-25.7-9.9c1 .9 1 .9.5 1.9-.2.4-.3.8.1 1.2.1-.2.2-.3.3-.4.9-1.6 1.6-1.7 3.2-.8 1.7 1 2.9 2.5 4 4.2.4.5.3 1 .1 1.6-.1.2-.4.4-.2.8.6-.6.6-1.4.9-2 .5-.8.4-1.6-.1-2.4-1.4-2.1-3-4-4.9-5.6-.2-.2-.4-.5-.8-.4-.6 1.2-1.5 1.9-3.1 1.9zm8-.9c-.5 1.1-.2 2.5.8 3.6-.2-1.4-.3-2.5-.8-3.6zm4.3 12.7c-.8-1.6-1.6-3.1-2.5-4.7.7 1.7 1.3 3.3 2.5 4.7zm-7.2-2.9c-.8.2-1.5.1-2.2.8.7.1 1.2.2 1.9.4-.5-.6.2-.7.3-1.2zM150.6 72.6c1-.7.9-1.6.9-2.7-.1-1.9-.2-3.8-.2-5.7 0-.7-.3-1.3-.7-1.8-2.9-3.8-6.5-6.6-11.1-8.2-3.8-1.4-7.6-1.7-11.6-1.4-.5.8.2 1.5.3 2.5-.9-.7-1-1.5-1-2.4 0-.8.8-.5 1.2-.6.9-.2 1.8 0 2.7 0-1.2-.9-1.7-1-7.5-.6-.1 2 .5 3.9 1.3 5.7-.6.1-.8-.3-1-.7-.5-1-.8-2-.9-3.1-.3-4 .1-7.9 1.3-11.7.1-.3.1-.6.6-.8-.9 3.2-1.4 6.3-1.4 9.6h3.5c1.7 0 3.4 0 4.9 1.1.4.3.8.3 1.3.4 3.1.2 6 1.1 8.9 2.3 3.3 1.4 5.9 3.7 8.3 6.3.2.2.5.5.9 1 .2-1.6.4-3 .6-4.3.1-1.2.4-2.4.7-3.6.1-.5.4-.9 1-1 1.5-.2 3.1-.5 4.7-.5 1.4 0 1.6.3 1.4 1.6l-1.5 8.1c0 .2-.1.5-.1.8.7-.3.9-.9 1.2-1.3 1.4-2.1 3.1-4 4.7-5.8.3-.4.7-.7 1-1 1.4-1.2 2-1.2 3.4 0 .8.7 1.7 1.3 2.5 1.8 1.6 1.1 1.8 2.3.4 3.5-3.1 2.6-5.9 5.7-9.5 7.8-1.6.9-3.1 1.9-4.7 2.9-.4.2-.7.3-1.1.2-1.4-.3-2.7.2-3.9.8-.7.2-1.1.5-1.5.8zM64.9 51c-1.7 2.3-3.8 4.3-5.7 6.4-.5.5-1.1.8-1.7 1.2-.3.2-.6 0-.7-.3-.1-.2-.2-.5-.3-.7-.4-.1-.6.3-1 .1-.2-.7.4-.9.8-1 .8-.2 1.1-.7 1.1-1.4-.3-.2-.5 0-.6.1-1.4.9-3.1.6-4.5 1.3-.2.1-.5 0-.6-.2-.2-.3-.1-.7.1-1 .3-.4.8-.4 1.1-.7-.1-.1-.2-.2-.3-.1-2 .5-4.2-.1-6.1.8-2.5 1.1-4.7 2.6-6.6 4.5-2 2-3.8 4.3-5.2 6.8-1.8 3.3-2.7 6.9-3.3 10.7-.7 4.7-.9 9.4-.9 14.1 0 3.7-.5 7.4-.9 11.1-.2 1.8-.4 3.6-.7 5.4-.1.6 0 1.1.9 1.1-.5.5-1.2.7-.9 1.6 1.3-.3 2.1-1.3 2.9-2.1 2.1-2.1 2.4-4.9 2.8-7.5.2-1.3.2-2.6.1-3.8-.1-1.1-.5-1.5-1.6-1.3-.7.1-1.1-.2-1.3-.8-.3-.8-.5-1.6-.4-2.4.2-1.1.2-2.3.2-3.4-.2-3.5.6-6.9.7-10.4 0-1.1.9-2 1.1-3.1.1-.7.4-1.4.7-2.1.2-.5.4-.9 1.1-.9-.4 1.6-.9 3.1-1.2 4.6-1 4.6-1.4 9.2-1.3 13.8 0 .4 0 .9.1 1.3.3 2.2.3 2.2 2.4 2.7.7 4.1.4 8.1-1.2 11.9-.9 2.1-2.6 3.7-5 4.1-.5.1-1 .1-1.5-.1.3-.4.5-.8.1-1.3-.6.6-1 1.5-2.1 1 0-.1-.1-.2 0-.2 2.3-1.9 2.3-4.7 3-7.2 1.5-5.5 1.3-11.2 1.5-16.8.2-4.8.6-9.5 1.9-14.2 1.8-6.7 5.5-11.9 11.2-15.8 1.6-1.1 3.3-1.9 5.2-2.2.9-.1 1.6-.6 2.4-1.2 1.8-1.5 3.8-2.4 6.3-1.9.4.1.8.1 1.2.1.8-.1.9-.7.9-1.3-.1-.8-.7-.4-1.1-.3-1.2.3-2.4.6-3.7.4-.9-.1-1.1-.6-.5-1.2 2.4-2.4 4.4-5 6.7-7.4 0 0 .1 0 .3-.1.8 2.2.2 4.4.3 6.7-.8-.5-.8-.5-.8-2.7 0-1 .3-2 .3-3.3-2.2 2.5-4 5-6.3 7.1 0 .1.1.2.1.3 1-.2 2.1-.4 3.1-.5 1.5-.3 2.4.6 1.9 2.1-.6 2-.6 4.2-1.6 6.2.8-.9 2.1-1.4 2-2.8 0-.2.1-.5.3-.5 1.7-.3 2.4-1.8 3.3-2.9.9-1.2 2.1-2.2 2.8-3.8-1.6 0-3.1.7-4.6.7 1.5-1 3.3-1.3 5.2-1.3-.2 1.1-.5 2.1-1.2 2.9-.2 0-.6.4-.7 1.1 0 0 0 0 0 0zm-6.6.9c-2.6-.1-5.2-.1-7.3 1.7.8 0 1.5-.2 2.2-.3.8-.1 1.4.4 2.1.8-.4.4-1.5.1-1.1 1.2.8-.1 1.4-.8 2.1-.9 1.5-.2 1.8-1.1 2-2.5zM164.1 138.3c-1.6-1.8-2.7-3.7-2.4-6.4.5 1 .3 2.1.8 3 .3-.3.2-.6.1-.9-.7-3.3-.4-6.7-.1-10 .7-7.4 2.3-14.7 3.4-22.1.9-6.3 1.9-12.7 2.2-19.1.2-3.5-.3-6.8-1-10.2 0-.2-.1-.4 0-.6.7 1.1.9 2.4 1.1 3.6.6 3.9.6 7.8.2 11.7-.7 7.9-1.9 15.7-3.3 23.5-.7 4-1.7 7.9-2 12-.3 4-.5 8 .1 11.9.3 1.3.7 2.4.9 3.6zM72.5 85.3c.3 1.2.8 2.3 1.4 3.3-.4.4-.6.1-.9 0-1.3-.9-1.6-2.3-1.8-3.7-.1-.5.4-.7.8-.9.6-.3 1.2-.1 1.9-.2-.4-2.2-1.2-4.1-2.3-6 1.8 1.7 4 2.4 6.6 2.7-.3-1.1-.8-1.8-1.4-2.5-.7.2-.1.8-.6 1.2-1-1.9-2.4-3.6-3-5.7 3.7 1.4 5.1 4.5 6.7 7.9-1.1.2-1.9.3-2.7.4-1 .1-1.4.6-1.3 1.6.1.4.1.9-.2 1.4-.5-.5-.9-.6-1.4.1-.2.5-1.1 0-1.8.4zm1.3-4.8c.4.4.5.8 1 .7.2-.1.2-.3.1-.4-.2-.5-.6-.5-1.1-.3z" class="st0"/><path d="M156.6 125.2c-.2 6.3.5 12.5 4 18-1.2-8.4 0-16.8 1.1-25.1.4.3.3.7.3 1.1-.1 2.5-.3 5-.6 7.4-.7 5.5-.8 11-.2 16.6.1.6.5.9.6 1.7-.9-.7-1.8-1.1-2.3-2-.7-1.2-1.5-2.5-1.8-3.9-.5-2.1-1.6-4-1.7-6.2 0-.7-.1-1.3.4-1.9.3-.3.2-.8.2-1.2v-4.5zM158.2 72.1c.6-.2 1 .3 1.3.6 2.4 2.1 3.4 5.8 2.3 8.8-1.2 3.3-3.6 5.3-7.1 5.5-2.3.1-4.4-.8-6-2.7-.1-.2-.2-.3-.4-.5 0 0-.1 0-.2-.1-.3 3.1-.6 6.1-.6 9.2 0 3.1.6 6.1 1.9 9-1.1-1.2-1.8-3.2-2.1-5.7-.4-3-.2-6.1.1-9.1.2-1.9.5-3.8.1-5.7-.5-2.3 0-4.6.3-6.9.1.5.4 0 .7.1-1.2 2.5-1 5.1-.3 7.7.4 1.5 1.6 2.4 3 3.1 3 1.4 6.5 1.3 9.1-1.6 1.4-1.6 1.5-3.6 1.4-5.6-.3-2.5-1.3-4.6-3.5-6.1h0z" class="st0"/><path d="M151.9 83.6c-1.4-1.6-1.5-3.5-1.2-5.4.2-1.7.5-1.8 2.1-1 .8.4 1.6.7 2.2 1.3.4.3.5.7.2 1.2-.9 1.4-1.9 2.8-3.3 3.9zM91.7 78c-.6-3-.7-6-2.1-8.7-1.4-2.7-2.9-5.2-5.3-7.5 1.2.2 1.9.7 2.5 1.5 2.9 3.8 4.8 8 5.1 12.8 0 .5.3 1.2-.2 1.9zM145.2 99.9c-.3 2.2-1.3 4.2-1.8 6.4 1.7-1 3.1-3.2 2.8-4.3.6.2 1.1.5 1.9.8-.8 0-1.2.2-1.5.8-.7 1.3-1.5 2.6-2.8 3.5-1.1.8-1.6 1.9-2.3 2.9-.4.6-.7 1.3-1.5 1.7 2.8-3.5 3.4-7.8 4.6-11.9.3 0 .4.1.6.1z" class="st0"/><path d="M87.7 71.8c-1.4-2.8-3.2-5.5-4-8.7.7-.1.9.4 1.2.7 1 1.2 1.5 2.6 2 4.1.4 1.3.7 2.6 1.1 3.9-.1-.1-.2 0-.3 0zM158.2 86.9c-1.2 4.7-1.3 9.6-2.3 14.3.1-4.8.3-9.7 2.3-14.3zM80.8 65c-2.2-1.3-3.4-3.6-5.7-4.8-2.2-1.2-4.5-2.2-7-2.8.4-.7.9-.6 1.5-.5 1.8.4 3.3 1.6 4.9 2.3 1.5.7 2.7 1.8 3.8 3 .8 1 1.7 1.9 2.5 2.8zM98.6 71.3c1.5-3.5 3.3-6.8 6.6-8.9-2.5 2.7-4.6 5.8-6.6 8.9zM113.7 97.5c-3.1-1.6-5.2-4.1-4.8-6.8.5 1.3 1 2.7 1.9 3.8.9 1 2.1 1.9 2.9 3zM137.5 78.3c-.2-4.2-1-8.1-2.2-11.9 1.5 3.8 3.1 7.6 2.2 11.9zM158.2 72.1c-.3-.3-.8-.2-1.1-.6 1.1-.1 2.1-.4 3-.8 1.6-.6 3.3-.7 5-.6.6.1 1.1.3 1.7.7-2.9-.7-5.6 0-8.3.8-.1.2-.2.4-.3.5 0 0 0 0 0 0zM49.3 155.1c-.5-1.9-1.1-3.7-.9-5.7 0-.2 0-.5.1-.7 0-.1.1-.2.3-.4.2 2.2.7 4.2 1.1 6.3.1.3.2.8-.4.7-.1-.1-.2-.1-.2-.2zM85.2 87.5c-1.4.2-2.8-1.2-4.1.3-.1-.7.7-1.5 1.3-1.4 1 .2 1.9.5 2.8.8v.3zM156.5 114.2v9.3c.1-3.1-.3-6.2 0-9.3zM84.6 79c.6.1.5.9.9 1.3.2.2.3.4.1.6-.1.1-.2.1-.4.1-.4 0-1.1-1.2-1.1-1.6.1-.3.3-.4.5-.4zM112.2 125.2c-1.6-.9-3.1-2-4.4-3.3 1.6.9 3.1 2 4.4 3.3zM129.6 121.3c-1.3.9-2.6 1.7-4.3 1.7 1.4-.6 2.8-1.1 4.3-1.7zM80.7 88.3c-1.2.4-2.1-.1-3-.6 0-.1 0-.2.1-.3.9.4 1.9.7 2.9.9zM80.1 58.6c1.1.3 1.9 1.1 2.6 1.9-1-.5-1.9-1.1-2.6-1.9zM70.5 87.3c.9.2 1.2.7.9 1.5-.8-.3-.9-.4-.9-1.5zM113.7 96.4c.7-1.4 1.3-2.9 2.3-4.2-.7 1.4-1.4 2.9-2 4.3-.1 0-.2-.1-.3-.1zM75.7 86.6c.5 1.1.3 1.7-.7 2.3.4-.6.3-1.5.7-2.3zM87 91.1c.6.9.9 1.7-.1 2.5.2-.9 0-1.7.1-2.5zM34.1 69.9c0-.9.5-1.4.9-1.8 0 .7-.2 1.2-.9 1.8zM90.1 121.7c1.9-2.2 2.8-4.9 3.4-7.7v-.3c-.2-1.2-.2-1.2 1.2-1 .4.1.9.1 1.4.2-.3 1.2-.2 2.3-1 3.2-.2.2-.2.6-.1.9.8 2.8 2.1 5.1 4.7 6.6 1.3.8 2.6 1.8 3.9 2.5.4.2.6.6.7 1 .3 1.2.2 2.3.2 3.5 0 .3-.1.5-.4.6-1.1.2-1.5 1.1-1.8 2.1-.6 1.6-.7 3.4-1.2 5-.3 1-.5 2.1-.4 3.2 0 .6.2.8.8.9 1.3.2 2.6.5 3.9.9.6.2 1-.1 1.2-.6.3-.8.6-1.5.6-2.4-.1-2.2-.1-4.4-.2-6.5 0-1.2-.4-2.2-1.8-2.5.5-1.8-.3-3.4-.6-5.3.7.2 1.3.4 1.7.9-.3-.1-.5-.2-.9-.3.1.7.5.9 1 1 6.3 2.1 11.4 6 16.4 10.1.9.7 1.4 1.8 1.7 2.9.2.8-.2 1-.7 1.1-1.7.5-3.4.7-5.2.7-3-.1-6-.4-8.9-.8-.7-.1-1.4-.2-2.3-.1.7.6 1.4.4 2 .5 3.1.3 6.2.6 9.3.8 2.1.1 4.1-.1 6.1-.9.2-.1.5-.2.6-.3.8-.6 1-.6 1.4.4.7 1.9 1 3.8 1.3 5.8.5 3.7 1.2 7.3 2 10.9-1-1.9-2.4-3.6-2.5-5.9-.1-2-.6-4-1.1-6-.3-1.4-.8-2.9-1.1-4.3-.3.6-.1 1.2.1 1.8.8 2.7 1.3 5.5 1.8 8.3.1.5 0 .9-.4 1.3-.7.6-1.2 1.4-1.6 2.3.7-.6 1-1.5 1.9-2 .3.5.2.9-.2 1.2-3.7 4.1-6.8 8.5-9.9 13-.6.8-1.2 1.5-1.8 2.4-4.1-4.1-7.9-8.3-11.3-12.9 4 3.6 7.2 7.9 11.3 11.5.2-.2 0-.3-.1-.4-3.4-3.5-6.5-7.2-10.1-10.6-.9-.9-1.4-1.9-1.3-3.2.1-3.4.1-6.8.2-10.2v-.6c0-.2 0-.5-.4-.5s-.4.3-.4.6c.1 3.3-.2 6.6-.2 9.9 0 1.2-.1 2.3-.2 3.5.4 0 .3-.6 1-.7-1.8 3.6-3.6 7-4.7 10.8-.8-2.4-2.3-4.5-2.2-7.1 0-1.3-.2-2.5-.7-3.7-.8-2.1-1.3-4.2-1.3-6.5 0-3.6 0-7.3.4-10.9 0-.3.1-.7.2-1.1.6.3 1 .6 1.5.9.4.2.2.5.1.8-.7 4.8-1 9.6-.8 14.5 0 .1 0 .2.1.3 0-5.1.3-10.2 1.1-15.3.8 0 1.5.4 2.3.2-1.8-.7-1.8-.7-1.4-2.6.5-2.4.8-4.9 1.8-7.1.7-1.7.4-3.2.1-4.9-.2-1.2-1.8-2.4-3.1-1.6-1 .6-2.2.5-3.4.4-.3 0-.6-.2-.9.1.9.8.9.8 5.9 0 .4 2.7-1.9 4.5-2.3 6.9-.7-1.5-1.4-3-2.5-4.3-1.1-1.4-1.8-3-3-4.3-.2-.6-.4-1-.9-1h0zm29.2 42.1c-1.3 1.4-2.5 2.9-3.2 4.7 1.1-1.5 1.9-3.2 3.2-4.7zm-26.1-45.9c.1 0 .2.1.3.1.4-.5.5-1.1.4-1.8-.3.5-.5 1.1-.7 1.7z" class="st0"/><path d="M89.2 95.9c-.4-1.4-.1-1.9 1-1.9-.9-2.9-1.8-5.7-3.7-8.4 1 .2 1.5.7 1.9 1.4.3.4.5.9.8 1.2 2.3 2.2 2.1 4.9.9 7.3-.9 1.8-.4 3.1.3 4.6.7 1.5.6 2.6-.2 4-1.6 2.9-4.2 4.8-6.7 6.7-3.2 2.5-6.9 4.2-11 4.8-3 .4-6 .3-9 .2-1.2 0-2.1-1-3.2-1.5-.3-.1-.5-.4-1-.4.2.3.4.5.6.8-1.7 1.1-2.7-.1-3.8-2.5 1.3-1.1 2.8-2.1 4.1-3.7-2.3.6-3.1-.9-4.2-2.1-.2-.2-.4-.4-.3-.7.4-2 .2-4.1 1.2-6 .7-1.3 1-2.9 1.3-4.4.1-.5.2-1 .5-1.3 1.7-1.9 3.8-3.3 5.8-4.8 4.1 5.3 8.8 9.4 15.3 10.9-2.1-2.9-5.3-4.9-7.4-7.8.3.2.7.4 1 .6 2.3 1.7 4.9 2.7 7.5 3.5.6.2 1.1.3 1.3 1 .1.4.4.4.8.3 2.2-1.1 4.3-1.2 6.2-1.8zm-6.9 13c-.9.9-1.9 1.6-3.1 2.1 1.2-.4 2.5-.7 3.1-2.1.7-.6.7-1.3.6-2.1-.3 0-.6 0-.9.1.2-.4.8-.5.9-1.2-1.4.4-2.4 1.2-3.4 2 .8-.4 1.7-.7 2.6-.8.7.5.1 1.3.2 2zm-24.2-4.8c3.7.1 12.5-2.7 13.5-4.5-1.9 0-3.7-.1-5.4 0-1.1.1-2.1.3-2.8-.8h-.2c-.3.5.1.9.1 1.3-4.5 2.1-5 2.5-5.2 4zm15.2 8c-.8-1.9-.6-2.4 1.2-2.8.7-.2 1.3-.3 2-.5-.9-.1-1.7.1-2.6.4-1.6.4-1.9 1.4-.6 2.9zM87.9 156.1c-2.6 1.5-5.3 2.9-8.4 3.1-.7 0-.8-.4-.8-.9-.1-2 0-1.9-2.3-2.2-3.1-.3-6.2-.4-9.3-.3-.4 0-.8.1-1.2.5h1.9c3.1.1 6.1.3 9.2.3.8 0 1.2.2 1.2 1.1 0 1.3.8 2.4 1 3.8.1 1.4.3 2.9.3 4.3 0 .8-.3 1.5-1.3 1.2-.1 0-.4-.1-.4 0-.8 1.2-1.9.4-2.9.4-2.8 0-5.6-.4-8.4-.8-1.4-.2-1.4-.3-1.3-1.7.1-1.3.1-2.7.4-4 .3-1.4.2-2.7 0-4.1-.3-2.1.3-4.2.5-6.3.1-.9.2-1.7.2-2.6-.5 2.9-.9 5.7-1 8.8-2-1.1-3.8-2.2-5.6-3.4.5-2.6 1.5-5.3 2.3-7.9 5.3 2.3 10.7 1.2 16.1 1.4h-3.3c2.7-.9 5.4-1.1 8.1-2v3.8c0 1.4-.1 2.8-.1 4.2 0 .6.2 1 .8 1.3 1.3.9 2.8 1.5 4.3 2h0zm-11.5 10.4c.8-.2.7-.7.7-1v-5.1c0-.5 0-.9.7-1-3.8-.6-7.6-.9-11.4-.9.5.6 1.1.7 1.7.7 2.5.1 5 .3 7.5.4.4 0 .8-.1 1.1.3-.4 2.1-.3 4.3-.3 6.6zm-3.1-2.6c.7-1.1.7-2.1.1-2.7-.8.7-.8 1.9-.1 2.7zm-5.1-1.6c.2.4-.3 1.3.4 1.3.8 0 .5-.8.5-1.3 0-.4.3-1.3-.5-1.2-.6 0-.2.8-.4 1.2zm13.3-9c0-1.9.1-3.9 0-5.8 0 1.9-.4 3.9 0 5.8zm1.2 1.2c.5 1.1 1.3 1.9 2.4 2.4-.8-.9-1.7-1.6-2.4-2.4zm-16.8 7.7h-.1v3.2h.1v-3.2z" class="st0"/><path d="M60.4 82.3c-.5.5-.5 1.2-.6 1.8-.2 2.2-.4 4.4-.8 6.6-.2 1.3-.6 2.4-1.7 3.3-.7.6-1.2 1.4-1.8 2.2-.7-.5-1.3-1.1-2.1-1.4-.3-.1-.5-.4-.5-.7-.5-3.8.1-7.4 1.1-11.1.2-.7.5-1.4 1.5-1.5.3.8.1 1.7.2 2.5 0 .4 0 .8.6.8.5 0 .5-.5.4-.8-.2-1.4-.6-2.8-.1-4.5-1.1.6-1.9 1-2.7 1.5-.8.6-.9 1.5-.9 2.4 0 .7.1 1.4-.4 2-.6-4 .3-7.8 1.9-11.5-.8-.2-1 .4-1.2.8-.8 1.7-1.3 3.5-1.8 5.3-.2.7-.3 1.3-.6 2-.4-1-.2-2.1.1-3 1-2.9 1.6-6 2.3-8.9.9-3.5 2.5-6.6 5.2-9.1.3-.3.6-.7 1.3-.7.1.9-.3 1.7-.3 2.5 0 4.9 1.3 9.5 3.2 14 1 2.5 1.7 5.1 3.2 7.4 1.7 2.6 3.2 5.2 5.6 7.2.8.7.9 1.8 1.6 2.5 1.3 1.2 2.6 2.5 4 3.6.4.3.8.6 1 1.2-5.4-2.1-9.2-5.8-12.7-10 .1-.5.8-.4.6-.9-.2-.4-.6-.3-.9-.3-.6 0-.8-.4-1.1-.8-1.8-2.4-3.4-5-4.4-7.9-.1-.4-.2-.8-.6-1 .3 1.6.3 3.2 1.4 4.5h0zm-2.3 3.1c-.2 0-.4 0-.5-.1-.1 1.7-.4 3.4-.6 5.1.5-1.6 1.5-3.2 1.1-5zM140.8 116.4c1.3.5 2.3 1.5 3.3 2.2 2.7 1.9 4.7 4.4 6.9 6.7.8.8.9 2.2.9 3.5 0 .9.1 1.7 1.1 2.1.7.3 1 1.1 1.2 1.7.4 1.1.7 2.2 1.3 3.3.4.7.2 1.3-.6 1.6-.7.3-1.3.8-1.9 1.3-1.2 1.2-2.8 1.9-4.4 2.5-1.4.5-1.5.9-.4 1.8.4.3.4.4.7 1.4-.7-.2-1.2-.7-1.6-1.3-3.4-4.7-6.5-9.6-9.3-14.7-.7-1.2-1.7-2.3-2.2-3.6-.3-.7-.2-1 .3-1.4 1.3-.9 2.3-2.2 3.2-3.5 1.1-.9 1.5-2.2 1.5-3.6zm.3 3.6c-.7.6-.7 1.3-.2 1.9.4.6.6 1.2.8 1.9.7 1.7.1 3.4 0 5.1 0 .9 0 1.9.7 2.5.5.4.5.8.3 1.3-.3.5-.6 1.1-.1 1.7.4.5 1 0 1.5.1.1 0 .2 0 .3-.1 1.4-.3 1.7-.9 1-2.1-1.2-2.2-2-4.5-2.6-6.9-.4-1.8-1-3.6-1.7-5.4zM51.5 158.4c-1.7-4.4-2.4-8.8-1.6-13.3.1.7.2 1.3.1 2.1.5-2.9 2.6-4.8 4.1-7.1 1.3-2 2.3-4 3.1-6.2.4-.9 1-1.3 1.8-1.3 1.8 0 3.6.3 5.1 1.5.4.3.6.6.3 1-1.4 2.7-1.9 5.6-2.9 8.4-1.1 3.1-1.9 6.3-3.1 9.4-.8 2-2.4 3.4-4.5 4.2-.7.4-1.5.7-2.4 1.3zM68.4 118.8c1.8-1.1 3.4-2 5.2-2.3 3.5-.7 6.7-2.1 9.4-4.4 1.1-.9 2.3-1.6 3.3-2.5 1.8-1.5 3.7-3 4.7-5.4.1 1.2-.7 2.9-1.5 3.5-1 .8-1.9 1.7-3.1 2.2 1.6 0 1.6 0 1.8 1.6.1 1 .2 1.9.3 2.9 0 .5.3.8.8.8 1 .1 2 0 3 .4.2.3 0 .6-.1.9-1 2.7-2.7 4.9-4.9 6.8-2.7 2.4-5.8 3.4-9.3 3.6-2.5.1-4.9.5-7.4.5-1 0-1.2-.3-.9-1.3.5-1.7 1.1-3.4.4-5.3-.2-.4 0-.8.5-1 1.6-.6 3.3-.9 5-1.2-.1 1.3-.3 2.4-1.4 3.1-.8.5-1.6 1.2-2.4 1.8-.8.6-1.2 1.3-1.4 2.4 1.7-1.2 3.6-2 5.2-3.3.9-.8 1.4-2 2.2-2.9 2-2.7 4-5.4 6.1-8-.8.4-1.4 1.1-2 1.8-.6.6-1.3.9-2 1.3-3.1 1.7-7 1.7-9.9 3.9-.4.4-.9.4-1.6.1zM137.8 152.2c1.2 7.7 1.9 15.3 4.8 22.6-2.7.4-5.5.1-8.1.1-1.6-7.4-3.3-14.8-4.9-22.2 1.3.9 2.7 1.2 4.2 1.1 1.3-.3 2.6-.8 4-1.6zM133.8 141.5c.3.8.4 1.2.6 1.7-1.8 1.3-4.9.9-6.5-.5-.7-.7-.8-1.7-.9-2.7-.3-1.9-.3-3.9-1.3-5.7.3 2 .6 4.1.9 6.1-.1 0-.2.1-.3.1-1.8-2.8-3-5.9-3.3-9.4 2.1-.1 4-.4 5.9-1.1 1.1-.4 2.1-1 2.9-1.8.8-.9 1.6-1.7 2.5-2.5.3-.3.5-.7 1.1-.6.4.6.5 1.3.6 2 .3 4.4.7 8.8.9 13.2.1 1.2-.2 2-1.3 2.5-.2.1-.5.3-.7.4-.6-.4-.5-1-1.1-1.7z" class="st0"/><path d="M63.6 140c-.2-1.6 1-4.6 1.9-5.2-.6-2.5-2.8-2.6-4.8-3-.9-.1-1.8 0-2.7.2-.7.1-1.2.4-1.4 1.4-.2 1.1-.9 2.2-1.5 3.3-.6-.1-.6-.6-.5-.9.3-1.1.3-2.3 1.5-3.1.6-.4.9-1.1 1.5-1.5.3-.2.2-.5.1-.9-.3-1.3-.5-2.6-.7-3.9-.2-1.1 0-1.3 1.1-1.1 2 .4 4 .2 6-.4.3-.1.7-.1 1-.1 1.1.2 1.3.8.7 1.7-.2.3-.4.6-.7.8-.7.5-1.2.4-1.5-.4-.2-.4-.2-.9-.3-1.3-.5.7-.3 1.3.1 1.9.4.6 1 .7 1.6.3.9-.5 1.3-1.2 1.2-2.2-.1-.9-.9-1.1-1.6-1.2-.4-.1-.7-.2-1-.4-1.2-1.2-2.3-2.4-3.3-3.7-1.2-1.8-.3-3.5-.1-5.2.5-.1.7.2.9.3.9.4 1.4.9.9 2-.2.5-.2 1.1-.2 1.6s.1 1 1 1c-.5-1.2-.6-2.3-.1-3.5 1 .4 1.6.9 1.6 2.1 0 1.7.5 2.2 2.3 2.1.8 0 1.2.3 1.6.9 1.5 1.8 1.4 3.7.2 5.7-.8 1.4-1.5 2.9-2.3 4.3-.2.4-.3.9-.2 1.3.3 1 .3 2 .4 3.1.3 2.2-.4 3.3-2.7 4zM31 131.3c.8-1 1.9-1.7 3-2.4s1.6-1.5 1.5-2.8c-.1-.5 0-1 0-1.6-.4.2-.5.4-.4.8.4 1.8.2 2.2-1.3 3.2l-3.9 2.7c-.4-.7-.2-1.4-.2-2.1 0-.9.2-1.8-.2-2.7-.1-.2-.1-.3 0-.5 1-1.1 2-2.3 3.3-3.4 0 1.7-1.1 2.3-2.2 3.2.8 0 .9.1 1.5-.3 1.4-1.1 3.1-1.2 4.8-1.6 4-1 8.1-1.6 12.3-2.2.5.9 0 1.7-.6 2.3-3.4 3.1-6.7 6.2-10.1 9.3-.4.4-.9.9-1.6.7-.6-.2-.4-1-.6-1.5-.2-.4.1-.8.1-1.2 0-.2-.1-.5-.4-.5-.2.1-.4.3-.3.6.6 1.2.4 2.6.5 3.9-.5 0-.1-.5-.5-.6-.5.2-1 .4-1.6.2-.3-.1-.7-.1-.7-.5-.1-.3.2-.5.4-.7.3-.3.8-.5 1.1-1.1-1.2.6-2 1.4-3.1 2.1-.2 0-.2-.4-.5-.4 0 0 0 0 0 0-.1-.4.3-.5.6-.6 1-.6 2-1.1 2.8-1.9.8-.7 1.1-1.6.9-2.8-.3 1.4-1.1 2.2-2.6 2.2-.8-.2-1.3.3-2 .2h0zm-.3-2.9c1.5-.5 3.5-2 4.1-3.1-1.4.9-2.8 1.7-4.1 3.1zM85 166.9c-.1.8-.2 1.4-.3 2-.3 1.7-.6 2-2.2 2.3-2.3.5-4.6.9-7 1.4-1 .2-1.9.2-2.9.1l-5.4-.3c-2.3-.1-4.4-1-6.3-2.2-.6-.3-.7-.7-.3-1.3.3-.6.6-1.2.7-1.9-.4.8-.9 1.6-1.3 2.4-.7-.2-1.1-.7-1.6-1.2-2.6-3-2.3-1.8-1.1-5.6.1-.3.1-.6.4-.9 1.2 1.8 2.8 2.9 4.8 3.5.9.3 1.6.7 2.3 1.4.8.8 2 .8 3.1 1 2.1.3 4.2.5 6.3.6 3.4.3 6.7-.1 9.9-1.2.1.1.4 0 .9-.1zm-23-.7c1.6 1.4 2.4 3.6 4.1 4.9-1.4-1.6-2.1-3.9-4.1-4.9z" class="st0"/><path d="M49 124.1c-.6 2.3.9 3.5 2.5 4.6-.1.2-.1.4-.1.4-.8.2-1.4.6-1.7 1.5-.4.9-1.1 1.7-1.8 2.4-.9.9-1.3 2-1.2 3.3.2 2.3.2 2.3-1.9 3-1.6.6-3.3 1.1-4.9 1.7-.2.1-.5.1-.8.2-.8-2.3-1.9-4.4-2.1-6.9 1.3 0 2.1-.7 2.9-1.5 2.9-3 6-5.9 9.1-8.7zM88.3 164.8c-2.6 1.2-5.3 1.9-8.2 2.4-.3-.4-.3-.9-.3-1.3-.1-1.8-.1-3.7-.2-5.5 0-.5.1-.7.7-.8 4.9-.7 9.1-2.8 12.7-6.1 1-.9.9-2.3.9-3.5 0-1.6-.5-3.1-.7-4.7-.2-1-.1-1 1.1-1.2v5.3c0 1.8.1 3.6-.1 5.4-.1.9-.3 1.6-.9 2.3.5.1.6-.5 1-.3.4 1.2-.1 2.1-.9 3.1-2.1 2.2-4.3 4.2-7.3 5.1-.2.1-.3.1-.5.2l-.2.2c1 0 1.9-.5 2.9-.6zm-4.4-1.8c1.1-.8 2.4-1.1 3.5-1.9-.8.2-1.5.5-2.3.8-.3.1-.6.4-1 .3-.6-.2.3-.6-.1-.9-.9.6-.9.8-.1 1.7zM68.9 141.7c-.1-1.8.1-3.4.3-4.9.2-1.5.5-3.1.8-4.8 3.6 0 7.3-.4 11.2-.6.2 2.4.5 4.8.7 7.2-2.3.3-4.5.3-6.7.6-2.3.4-4 2-6.3 2.5zM139.8 101.2c-2.4-.7-5.3-1.3-7.7-3-.5-.4-.6-.8-.4-1.4.7-2.1 1.4-4.1 2.2-6.2.3-.9 1-1.2 1.9-1 2.5.6 5 1.5 7.4 2.6.9.4 1.3 1.1 1 2.1-.7 1.9-1.4 3.9-2.1 5.8-.5.7-1.1 1.1-2.3 1.1zm3.1-5.8c.3-1.1-.6-2.5-1.7-3-1.6-.7-3.2-1.2-4.8-1.6-.9-.2-1.6.2-2 1-.7 1.4-1.2 3-1.3 4.6-.1.8.2 1.3 1 1.8 1.7.9 3.5 1.4 5.3 1.9.5.1.9 0 1.3-.3 1-.9 1.3-2.2 1.5-3.4 0-.2-.1-.4-.3-.5-.7-.5-1.5-1-2.3-1.6-.3.8-.1 1.1.6 1.4 1.5.5 1.7.9 1.1 2.4-.1.3-.3.6-.5.9-.3.6-.8.8-1.5.7-1.7-.5-3.4-.9-5-1.9-.5-.3-.8-.7-.7-1.4.2-1.4.7-2.7 1.1-4 .2-.6.7-1.1 1.3-.9 2.6.7 5.7.6 6.7 4 0-.1.1-.1.2-.1zm-8.4-1.6c.6.5 2.2.5 3 0-.7-.7-2-.7-3 0zm4.7 3c-1.1-.4-2.1-.2-2.8-.9 0 0-.2.1-.3.1v.4c.4.5 2.1.8 3.1.4zM47 106.6h-.7c-1.7-.1-2-.4-2.2-2.1-.2-1.4-.4-2.7-.7-4.1-.1-.5-.1-1.1-.1-1.6 0-.8.5-1.3 1.3-1.5 2.6-.6 5.2-1 7.8-1.1 1.1-.1 1.4.5 1.6 1.3.4 1.6.5 3.2.7 4.8.4 2.6.9 2.7-2.5 3.6-1.7.4-3.5.5-5.2.7zm5.9-6c.1.7.2 1.3.3 2 .2 1.2-.1 1.6-1.2 1.9-1.5.4-3 .6-4.5.6-1.2 0-1.8-.4-2.1-1.5-.2-1.1.2-1.8 1.3-2.2.7-.2 1.3-.6 1.3-1.6-1.3.4-2.3 1.5-4 .8.7 1.4.8 2.7 1.1 3.8.2.7.8 1.2 1.5 1.2 2.1.1 4.1-.1 6.1-.9.7-.3 1.1-.8 1-1.6-.1-1.2-.1-2.5-.2-3.7-.1-1.3-1.1-2.2-2.4-2.1-1 .1-2 .3-3 .4-1.3.1-2.4.6-3.5 1.3-.6.4-.6.4-.3 1.3.8-.9 1.7-1.7 2.9-1.9 1.3-.2 2.7-.4 4-.5 1.2-.1 2.1 1 1.7 2.3-.6.1-1.2-.2-1.8-.4-.3-.1-.6-.3-.9 0-.1.1-.1.3-.1.4.2.3.4.6.8.6.6-.2 1.3-.2 2-.2zm-2 1.6c-1.2-.3-2.2.6-3.3.5 1 .6 2.8.3 3.3-.5zM150.2 106.3c-1.4 4.2-2.3 8.4-3.2 12.7 1.7-2.2 2.1-5 3.6-7.3.2 4.3.1 8.5.8 12.8-3-3.7-6.3-6.9-10.7-9.1 4.7-3 7.9-7.5 10.7-12-.1 4.2-.7 8.5-3.3 12.2.7-3.1 1.8-6.1 2.1-9.3zM139.2 105c-.4 1.1-.8 2.3-1.2 3.4-.7 2-1.4 4.1-2.3 6-.5 1.1-1.1 2-2.4 2.2-.5.1-.8.5-1.2.8-1.7 1.7-3.7 3.1-6.1 3.8-.2-.3.1-.5.2-.6 2.6-3.2 4-7 5.4-10.8.2-.5.4-.8.8-1 2.2-1 4.1-2.4 6.1-3.8.1-.1.2-.1.4-.2.1.1.2.1.3.2z" class="st0"/><path d="M52 129.1c.9 1.5 2.5 1.9 4 2.8-1.6.2-2.3.7-1.3 2 .3.3-.2.9-.4 1.3-.4.5-.3 1 0 1.5.7 1.2-.7 3.5-2.1 3.5-.2 0-.4 0-.6.1-1.6.5-2.2.3-3.3-.9-1.1-1.3-1.3-2.6-.6-3.8.8-1.3 1.7-2.6 2.6-3.9.5-.7 1-1.5 1.7-2.6zM159 164.9c-4.3 2.5-8.6 4.9-12.6 7.8.2-1.4.8-2.8-.9-3.7 3.1-2.4 6.1-4.6 9.5-6.3.7-.4 1.2-.4 1.7.2.7.6 1.7 1 2.3 2zM90.1 121.6c.1.6.4 1.1.7 1.6 1.7 2.3 3.3 4.7 4.7 7.2.5.9.6 1.7.3 2.7-.6 2.1-.9 4.2-1.2 6.3-.1 1.1-1.8 1.7-3 1.1 0-.3.2-.6.4-.8 2.6-3 1.9-6.2.4-9.4-.5-1-1.3-2-1.9-2.9-.6-.9-1.5-1.8-1.3-3 .1-.5-.4-.8-.9-.8.5-1 1.1-1.5 1.8-2 0 .1 0 0 0 0zM134.8 143.9c0 2.9.6 5.6 1.4 8.5-1.4.6-2.8.9-4.4.7-.8-.1-1.2-.5-1.2-1.3-.3-2.4-.5-4.9-.9-7.4 1.8.1 3.6 0 5.1-.5zM87.9 156.1c-.3-.3-.1-.6.1-.8 1.4-1.7 1.7-3.8 1.7-5.9v-6.1c0-1.8-.3-1.5 1.6-2.3.6.7.6 1.7.7 2.5.4 2.3 1.2 4.5 1.4 6.8.1.9-.1 1.6-1 2-.3.1-.5.4-.7.6-.8 1.5-2.2 2.5-3.8 3.2 0 0 0 0 0 0zM29 126.2c.5 1.7 0 3.3.1 4.8 0 .5-.3.7-.6.9-2.5 1.4-5.3.6-7.1-2-.5-.6-.8-1.3-1.1-2.3 3.3 1.4 6.1.7 8.7-1.4z" class="st0"/><path d="M88.9 137.6c-.9-2.5-1.9-4.9-2.8-7.5 1.5-.2 2.9-.4 4.3-1 .3-.1.5 0 .7.3.7 1.1 1.4 2.2 1.7 3.6.1.6.1 1-.5 1.4-1.1.8-2.1 1.6-2.7 2.8-.1.2-.2.3-.3.5-.2 0-.3 0-.4-.1zM142.5 140.4c.1 2.7.2 5.1.3 7.6 0 .5-.2.7-.6.8-1.2.4-2.3.6-3.6.5-.2-2.3-.5-4.6-.5-6.8 0-.3.1-.5.4-.7 1.2-.7 2.5-1.1 4-1.4zm-4.2 2.4c-.2.4-.2.8-.1 1.1.1.4.5.8.5 1.3.2 1.4.5 1.5 1.9 1.1.8-.2.9-.7.8-1.4-.1-.8-.6-.9-1.3-.9-.5 0-.9.2-1.4.1-.3-.3 0-.9-.4-1.3zM85.4 150.8c-.4-.5-1.2 0-1.4-.6-.2-.5-.1-1 0-1.4.2-.8 1-.9 1.6-.7 1.1.3 1 1.1.7 2.1 1.1-.5 2-1 3.1-1.5.1 2.4-.4 4.6-1.6 6.5-.2.4-.5.3-.8.2-.9-.4-1.9-.7-2.8-1.2-.6-.3-.5-1.2.1-2 .3-.5 1-.8 1.1-1.4zM127.5 157.4c.6 1.3 1.1 2.3 1.3 3.4.1.8.2 1.6.4 2.3.3 1.4.3 1.4-1.1 1.8-1.8.5-3.6.4-5.6.5 1.9-2.5 3.8-4.8 5-8zM91.3 95.3c.7 5.3 2.7 10.4 1.7 15.9-2.1-.1-2.9-1.5-2.3-3.2 1.2-3.1 1.4-6.1 0-9.2-.4-.9-.7-1.7.1-2.6.3-.2.4-.6.5-.9zM28.2 148.3c.5-.5 1-.9 1.5-1.4 1.3-1.2 2.4-2.7 3.2-4.3.3-.6.6-.8 1.1-.4 1.4 1 2.8.9 4.3.1.5-.2 1-.4 1.5-.4-.5.2-.9.5-1.5.7-1.1.4-2 1.2-2.6 2.1-1.1 1.5-2.6 2.3-4.2 3.1-1 .5-2.1.5-3.1.6-.1.1-.2 0-.2-.1zM86.7 169c-.1-.9-.1-1.8-.2-2.6 1.9-.6 3.4-1.9 4.8-3.1 1.5-1.2 2.5-2.8 3.8-4.6-.1 2.4-.4 4.4-2.1 5.8-1.7 1.4-3.5 2.7-5.3 4-.2.3-.5.5-1 .5zM63.9 161c.6.2.8.6.7 1.3-.1 1-.2 2-.5 3-1.5-.6-3-1.1-4-2.4.2 0 .3 0 .5-.1-.3-.7.1-1.4.1-2.1-.3.6-.8 1.2-.7 2-.4-.5-.9-1-1.3-1.5-.9-1.2-.9-2-.1-3.4 1.4 1.6 3.1 2.9 5.3 3.2h0zM127.1 114.6c.7.2 1.1-.4 1.8-.1 0 .7-.3 1-.9.7-2.3-1-4.4-.3-6.6.4-1.4.5-2.8.5-4.3.3-2-.2-4.1-.6-6.2-.5.1.2.2.4.4.7-2.3.1-3.4-1.9-5.1-2.5 4.1 1 8.2 1.3 12.3 1.5 4.2.1 8-1 11.6-3.3 0 .5-.4.9-.5 1.4-.2.7-.6.6-1.2.7-.5.1-1 .3-1.3.7zM69.8 130.9v-3c3.3.3 6.4-.2 9.8-.3-3.1 2-6.1 3.8-9.8 3.3zM94.6 103.6c1.2 1.5 2.5 2.9 3.7 4.4 1 1.3.5 3.2-.8 3.9-.6.3-.9.2-1.2-.4-1.4-2.4-1.6-5.1-1.7-7.9zM94.5 101.9c-.2-4.5-.4-8.9.8-13.6.5.9.4 1.7.5 2.4.2 1.3.3 2.5.5 3.8.3 1.8.3 3.6-.8 5.2-.4.7-.7 1.5-1 2.2zM60.4 82.3c1 2.1 2.2 4.1 3.8 5.9-1.6 1.2-3.3 2.3-4.8 3.9.8-3.4.8-6.6 1-9.8 0 0 0 0 0 0zM96.9 173.2c-.6-1.2-.7-2.4-.7-3.7-.1-2.5-.5-5-.1-7.5.4 1.2.7 2.4 1.2 3.6.3.8.7 1.6 1 2.4.3.7.4 1.4.1 2.2-.3.8-.5 1.7-.6 2.6-.2.4-.5.5-.9.4 0-.1 0 0 0 0zM142.9 174.6c-.4-2-.9-3.9-1.5-5.9 1.5.3 2.8.5 4 1.1.9.5.7 1.3.3 2-.6 1.2-1.6 2-2.8 2.8zM52.5 128.6c1-1 1.7-2.2 3.1-2.8.8 1.4 1.3 2.8 1.5 4.4.1.9-.6 1.3-1.4 1-1.3-.6-2.3-1.4-3.2-2.6zM38.2 86.8c-.1-.1-.2-.1-.2-.2-.5-4.1-.3-8 1.5-11.8.4-.8.7-1.7 1-2.6.1-.3.3-.7.7-.6.5.2.3.6.1 1-1.3 2.7-2.1 5.6-2.4 8.6-.2 1.5-.3 3.1-.5 4.6.1.4.2.7-.2 1zM96.5 115.8c1.7 2.6 2.8 5.6 5.3 7.7.3.3.7.5.8 1.1-3.2-2-6.4-3.7-6.7-7.9 0-.3-.4-1.2.6-.9 0 0 0 0 0 0z" class="st0"/><path d="M63.9 161.1c-.5-.5-1.2-.5-1.8-.9-.6-.4-1-.7-.5-1.4.2-.3.2-.7.3-1.1l.1-.1c.2-.3.4-.6.8-.5 0-.4-.4-.5-.5-.8.1 0 .1-.1.1-.1.2 0 .3.1.5.2 2.2 1 2.6 2.1 1.9 4.4-.2.5-.6.2-.9.3 0-.1 0 0 0 0zM103.7 142c-1.3 0-2.2-.7-2.2-1.8 0-1.2.7-1.9 2-1.9 1 0 2 1 2.1 2 0 .8-.9 1.7-1.9 1.7zM143.2 160.4c2.6-.7 5.8.3 6.7 2-1.4 1.4-1.8 1.4-3.2.2-1-.8-2.1-1.7-3.5-2.2z" class="st0"/><path d="M62 157.5s0 .1-.1.1c-.4.4-.5 1-.8 1.4-2.7-1.4-3-2.1-1.6-5 .5.9 1.3 1.4 2.1 2 .5.5.7.9.4 1.5zM88 109.6c.6-.7 1.1-.4 1.4.1.8 1.1 1.5 2.3 2 3.5.2.5-.5 1.3-1.4 1.5-.7.2-.9-.2-1-.8-.1-.8-.2-1.6-.3-2.5 0-.7-.2-1.3-.7-1.8zm1.7 3.5c.3-.9-.1-1.4-.4-1.9.1.6-.1 1.3.4 1.9zM80.4 115.4c-1.2 1.7-2.6 3.3-3.6 5.1-.8 1.4-2 2.2-3.3 3 .9-1.6 3.3-2.2 2.5-4.7 1.8-.8 2.3-3 4.4-3.4zM91.8 90.9c1.4 1 1.9 2.6 1.3 4-.3.6-.3 1.2-.1 1.7.7 1.5.4 3.2.7 5-.8-1.7-2.1-8.9-1.9-10.7zm.6 1.3c-.3.6-.4 1.3-.1 2.3.2-1 .2-1.6.1-2.3zM156.3 161.8c1.8-1 3.9-.2 4.8 1.8-.6.3-1.1.6-1.9 1-.4-1.3-1.7-2-2.9-2.8zM50.2 122.7c.5.8 1.2 1.4 1.3 2.3 0 .4.3.6.6.6.6.2.9.6 1.3.9-.2.7-.9 1-1.1 1.6-1.7-1.3-2.9-3.9-2.1-5.4zM152.1 143.8c.6.4.7 1.2 1.5 1.3-.4 1-1.3 1.5-2 2.3-.6-.9-1.3-1.7-2.3-2.4 1.1-.4 2.1-.4 2.8-1.2zM105.9 81.1c-.9-.9-1.5-1.6-2.5-2.3 1.2-1 1.9-2.4 3-3.4-.4 1.8-.4 3.6-.5 5.7zM118.2 121.8c-1.9-1.5-4-2.7-6-4.3h4c-.5.6-1.1.3-1.6.6 2.1.6 2.6 2.4 3.6 3.7zM39.4 100.4v5.1c-.6 0-.7-.3-.8-.6-.4-.9-.6-1.8-.8-2.7-.2-1.4.1-1.7 1.6-1.8zM161.4 164.1c.5.7.6 1.3.7 2 .2 1-.2 1.6-1.2 1.7-.1 0-.3 0-.4-.1-.6-.6-.4-1.5-.8-2.3-.1-.3.4-.6.7-.8.3-.1.6-.3 1-.5zM55.9 100.8c-.2-1.1-.1-2.1-.4-3-.1-.4.2-.5.4-.7.5-.6.9-1.3 1.7-2-.4 2.1-.8 3.9-1.7 5.7zM55.3 124.7c-.5.6-.9 1.1-1.3 1.6-.6-.3-.4-.6 0-1-1.1-.4-1.4-1.5-2.1-2.3 1.3.3 2.4 1 3.4 1.7zM36.6 137c.8 1.7.1 3.1-1.6 3.3-.2 0-.4 0-.5-.2-.2-.3-.1-.5.1-.8.7-.7 1.3-1.5 2-2.3zM71.1 119.1c.6-.8 1.3-1.2 2.1-1.4.8-.2 1.6-.4 2.4-.7.3-.1.7-.2.8.2.1.4-.1.6-.4.7-1.6.4-3.3.8-4.9 1.2zM81.7 178.5c-.7-2-1.1-3.9-1.9-5.7.4-.4.9-.3 1.4-.4-.3 2.1.5 3.9.5 6.1zM104 161.3c.7.9 1.8 1.2 2.2 2.4-.6.2-1 .1-1.5 0-1.8-.4-1.9-.8-.7-2.4zM91.6 89.9c-1.1-1-1.9-2-2.3-3.2.8.1 1.5.5 2.3-.1-.2 1.1-.1 2.1 0 3.3zM67.2 131.3c.6-1.3 1.2-2.5 1.8-3.8.1 0 .1 0 .2.1-.1 1.1-.1 2.2-.3 3.2-.2.9-1.1.4-1.6.7 0-.1 0-.1-.1-.2zM97.1 132.9c.3-2.7 1.9-4.9 2.7-7.7.1 3.1-2.1 5.1-2.7 7.7zM95.8 112.3c-.7 0-1.4.1-1.8-.4-.4-.5-.1-1.1.1-1.6.2-.6.6-.5.9-.1.4.6.8 1.2.8 2.1zM123.2 161.6c1.2-1.6 2.2-3.3 3.7-4.6-.7 2-2.3 3.3-3.7 4.6zM65.8 173.7c-.4.5.1 1-.6 1.3-.2-.6 0-1.2-.1-1.9 1.4.4 2.7.3 4.2.3-1.2.6-2.3.9-3.5.3zM150 163.9c1.5-1.1 3-2 4.9-2.4-1.7.7-3 2.2-4.9 2.4zM65.2 118.4c1 .4 1.8.7 2 1.8-1.6.4-2.2-.1-2-1.8zM159.5 172.4c.9-1.2.5-3.2 2.3-4.1-.6 1.6-1.1 3-2.3 4.1zM153 142.9c-.2-.2-.4-.7-.8-.4-.3.3-.4.3-.6 0-.2-.2-.1-.4 0-.5.2-.2.4-.4.7-.2.5.4 1 .8 1.5 1.3.3.3.1.6-.2.8-.5.3-.8.2-1.1-.3 0-.4.5-.3.5-.7zM74.5 146c-1.7.9-3.5.6-5.2.2 1.8-.1 3.5 0 5.2-.2zM37.6 139.7c0 1.1-2.2 2.7-3.4 2.4 1.2-.9 2.3-1.7 3.4-2.4zM33.2 139.2c-.5-1.3-1.1-2.3-1.1-3.6.8.4 1.5 2.2 1.1 3.6zM32.7 147.7c1.3-.7 2.4-1.2 3.4-2.1 0 1.4-1.4 2.3-3.4 2.1zM148.6 145.6c1 .5 1.4 1.7 2.3 2.4.1.1 0 .4-.3.6-1-.8-1.6-1.8-2-3zM30.9 131.3c.6.6 1.2.1 1.9.1-1 1.4-2.1 1.5-2.7.3.2-.4.6-.3.8-.4.1 0 0 0 0 0zM154.4 142.5c1.2-.3 1.7-1.3 2.4-2.2.3.6.1 1.2-.6 1.8-.9.8-1.1.8-1.8.4zM71.6 174.3c.9 0 .9 0 .7 2.9-.4-1.1-.6-2-.7-2.9zM138.7 114.9c0 .6.7.7.9 1.2-.2.7-.6.1-.9.2-.2.2.1.6-.3.7-.2 0-.3-.2-.3-.3-.3-.8-.1-1.4.6-1.8 0 0 0 0 0 0zM134.6 116.9c-.5.6-.8 1.1-1.2 1.5-.2.2-.4.2-.6.1-.3-.2-.2-.4 0-.6.4-.6.8-1.1 1.8-1zM155.2 140.3c.8.4.1.5-.1.8-.4-.1-.5-.5-.7-.8.5-.6 1-1.1 1.9-.8-.2.5-.9.1-1.1.8zM93 113.3c-.2.6.2 1.3-.5 1.7-.3.1-.6-.1-.7-.3-.1-.8.6-1 1.2-1.4zM93.2 91c-.5-.1-.9-.4-1.2-.8.2-.4.3-.7.5-1.2.4.6.6 1.2.7 2zM150.4 143c.6-.3.6-.3 1.1.3-.4.6-1.2.6-1.9 1 .2-1 1-.7 1.3-1 0-.4-.4 0-.5-.3zM70.1 123.2c-.7-1.2-1.3-2.2-1.9-3.1.1-.1.2-.1.3-.2.6.9 1.5 1.6 1.6 3.3zM77.7 129.8c-.6 1.1-1.7 1.3-3.1 1.5 1.2-.6 2.2-1 3.1-1.5zM43.9 85.5v-3.9c.5 1.3 0 2.6 0 3.9zM94.9 163.6c.2 1.1.3 2 .1 2.9 0-.9-.9-1.7-.1-2.9zM136.7 151.8c-.2-1.1-.3-2.1-.5-3.2.2 1.1.8 2 .5 3.2zM104.2 159.7c.7.7 1.2 1.2 1.4 1.9-.5-.5-1.4-.7-1.4-1.9zM34.9 138c.1-1.2 1.2-1.4 1.4-2.2.1 1-.8 1.3-1.4 2.2zM122.5 162.9c-.7.7-.7 1.9-2 2.4.7-1 1.3-1.7 1.8-2.5.1 0 .1.1.2.1zM131 163.4c-.3.3-.5.4-.8.3-.1-.6-.3-1.3-.4-2 .9.4.2 1.5 1.2 1.7zM52.9 94.2c-.7.3-1.2.2-1.9.4.6-.8 1.1-.9 1.9-.4zM128.9 145.5c-.5-.4-.5-.9-.6-1.5 1 .3.5 1 .6 1.5zM59.9 162.7c-.1-.8.4-1.3.7-2 .1.7-.4 1.4-.1 2.1-.2 0-.3 0-.5.1 0-.1-.1-.1-.1-.2zM87.2 169.9c.6-.4 1.1-.8 2-1-.6.9-1.3.9-2 1zM152.7 141c.3-.3.6-.4 1-.2.1.3 0 .6 0 .9-.4-.1-.7-.3-1-.7zM92.1 166.4c.5-.4 1-.8 1.6-1.3-.1.6-.1.6-1.6 1.3zM33.7 141.2c-.2-.3-.1-.6-.1-1 .4-.1.7.1.7.5.1.4-.2.5-.6.5zM96.4 135c-.2.9-.3 1.9-.5 2.8-.1-1 .2-2 .5-2.8zM132.9 180.5c.4-.5.9-.7 1.7-1-.6.8-1.1 1-1.7 1zM115.9 172.5c.2-.8.6-1.1 1-1.4.5-.7 1.3-1.2 1.7-2 1.2-2.4 3.3-1.8 5.3-1.5-.8-.1-1.5-.1-2.3-.2-.9-.1-1.5.3-2 .9l-3 3.6c-.3.2-.4.3-.7.6zM102.6 164.2c0 1.4-2.4 5.9-3.5 6.5 1.5-2.1 2.2-4.4 3.5-6.5zM122.8 97c.2.6.4 1 .5 1.4 1 2.5.5 4.9-.9 7.1-.7 1.1-1.8 1.2-2.9 1-1.3-.2-2.4-.7-2.8-2.1-.5-1.8 0-3.5.5-5.2.1-.2.2-.4.4-.5.5-.3.7-.9.4-1.3-.3-.5-.8 0-1.2.2-.1.1-.2.3-.4.2.8-2 2.6-2.6 4.5-2.7 2.2-.2 4.4 0 6.5.3.2 0 .4.1.5.3-.2.4-.7.2-1.1.7 1.6 1.1 2.3 2.9 3.9 4.5-1.9-.6-1.8.6-2 1.6-.1.7-.2 1.4-.4 2.1-.8-.2-.7-.9-.8-1.4-.3-2.8-1.8-4.6-4.2-5.9 0-.2-.2-.2-.5-.3zm-5.6 5.1c0 .9.1 1.8.5 2.7.4.9 1.1 1.3 2 1.3 1 0 1.7-.4 2.1-1.4.2-.4.2-.9.4-1.3.4-.9.1-1.5-.8-1.8-.8-.3-1.5-.3-1.9.7.7.2 1.5 0 2.1.4-.1.3-.3.6-.4 1-1.1-.7-2.4-1.4-4-1.6zm1.8-.1c.2-1.2-.5-2.1-1-3-.5.7-1 1.2-.8 2 .3.7 1 .9 1.8 1zm4-6.1c1.1.5 1.3.5 3 .1-1-.3-1.9-.7-3-.1zM97.1 87.1c1.6 0 2.5-.7 3.1-1.9.4-.1.6.2.8.4 1.9 1.6 3.5 3.5 4.9 5.6.5.8.6 1.6.1 2.4-.4.6-.3 1.4-.9 2-.2-.4.1-.5.2-.8.2-.5.3-1.1-.1-1.6-1.1-1.6-2.3-3.1-4-4.2-1.6-.9-2.2-.8-3.2.8-.1.1-.2.2-.3.4-.4-.4-.3-.8-.1-1.2.5-1 .5-1-.5-1.9zm6.9 3c-.8-1.2-1.8-2.3-3-3.5.3 1.9 1.8 2.6 3 3.5zM105.1 86.2c.5 1.1.5 2.3.8 3.6-1-1.1-1.3-2.5-.8-3.6zM109.4 98.9c-1.2-1.4-1.9-3-2.5-4.7.9 1.6 1.7 3.1 2.5 4.7zM102.2 96c-.1.5-.8.6-.4 1.2-.7-.1-1.2-.3-1.9-.4.8-.7 1.6-.6 2.3-.8zM58.3 51.9c-.2 1.4-.5 2.3-1.9 2.5-.7.1-1.3.8-2.1.9-.4-1.1.7-.8 1.1-1.2-.7-.4-1.3-.8-2.1-.8-.7 0-1.5.2-2.2.3 2-1.8 4.5-1.8 7.2-1.7zM73.8 80.5c.5-.2.9-.2 1.1.2.1.2.1.4-.1.4-.4.3-.6-.1-1-.6zM119.3 163.8c-1.2 1.5-2 3.2-3.2 4.7.7-1.8 1.8-3.3 3.2-4.7zM93.2 117.9c.2-.6.4-1.1.6-1.7.1.7.1 1.3-.4 1.8-.1-.1-.2-.1-.2-.1zM58.1 104.1c.2-1.5.8-1.9 5.2-4 0-.4-.4-.8-.1-1.3.1 0 .2-.1.2 0 .7 1.1 1.8.9 2.8.8 1.8-.1 3.5 0 5.4 0-1 1.8-9.8 4.6-13.5 4.5zM73.3 112.1c-1.2-1.5-.9-2.5.6-2.9.8-.2 1.7-.5 2.6-.4-.7.2-1.3.3-2 .5-1.8.4-2 .8-1.2 2.8zM82 106.8c-.9.1-1.7.4-2.6.8 1-.7 2-1.6 3.4-2-.1.7-.6.8-.8 1.2 0 0 0 0 0 0zM82.2 108.8c-.5 1.4-1.8 1.7-3.1 2.2 1.2-.6 2.2-1.3 3.1-2.2h0zM82.3 108.9c0-.7.6-1.5-.3-2.1 0 0 0 0 0 0 .3 0 .5 0 .9-.1 0 .8.1 1.6-.6 2.2-.1-.1 0 0 0 0zM76.4 166.5c0-2.3-.1-4.5.3-6.7-.4-.4-.8-.2-1.1-.3-2.5-.1-5-.3-7.5-.4-.6 0-1.2-.1-1.7-.7 3.8 0 7.6.3 11.4.9-.7.1-.7.5-.7 1v5.1c-.1.4 0 .9-.7 1.1z" class="st0"/><path d="M73.3 163.9c-.8-.8-.7-2 .1-2.7.6.7.6 1.6-.1 2.7zM68.2 162.3c.2-.4-.2-1.2.4-1.2.8 0 .5.8.5 1.2 0 .5.3 1.3-.5 1.3-.7 0-.2-.8-.4-1.3zM81.5 153.3c-.5-1.9 0-3.9 0-5.8.1 1.9 0 3.9 0 5.8zM82.7 154.5c.7.8 1.6 1.6 2.4 2.4-1.1-.6-1.9-1.4-2.4-2.4zM65.9 162.2v3.2h-.1v-3.2c0-.1 0-.1.1 0zM58.1 85.4c.4 1.8-.6 3.4-1.1 5 .2-1.7.5-3.4.6-5.1.1 0 .3.1.5.1zM141.1 120c.7 1.8 1.3 3.6 1.7 5.3.6 2.4 1.4 4.7 2.6 6.9.7 1.2.4 1.8-1 2.1-.1 0-.2.1-.3.1-.5 0-1.1.4-1.5-.1-.5-.5-.1-1.1.1-1.7.3-.5.3-.9-.3-1.3-.8-.6-.8-1.6-.7-2.5.1-1.7.6-3.4 0-5.1-.3-.6-.4-1.3-.8-1.9-.5-.5-.5-1.1.2-1.8zm3.1 12.5c.4-.9-.2-1.6-.6-2.3-.2.8.1 1.5.6 2.3zM30.7 128.4c1.3-1.3 2.7-2.2 4.1-3.1-.6 1.1-2.6 2.6-4.1 3.1zM62 166.2c2.1 1.1 2.7 3.3 4.1 4.9-1.8-1.3-2.5-3.5-4.1-4.9zM83.9 163c-.7-.9-.7-1 .1-1.7.4.3-.5.7.1.9.4.1.7-.1 1-.3.8-.3 1.5-.6 2.3-.8-1.1.8-2.5 1-3.5 1.9zM142.9 95.4c-.1 0-.2 0-.2-.1-1-3.4-4.1-3.3-6.7-4-.7-.2-1.1.3-1.3.9-.5 1.3-.9 2.6-1.1 4-.1.6.1 1 .7 1.4 1.5.9 3.2 1.4 5 1.9.7.2 1.2-.1 1.5-.7.2-.3.3-.6.5-.9.6-1.5.5-1.9-1.1-2.4-.7-.2-.8-.6-.6-1.4.8.6 1.5 1.1 2.3 1.6.2.1.3.3.3.5-.2 1.3-.5 2.5-1.5 3.4-.3.3-.8.5-1.3.3-1.8-.5-3.6-1-5.3-1.9-.7-.4-1.1-1-1-1.8.1-1.6.6-3.1 1.3-4.6.4-.8 1.1-1.2 2-1 1.7.4 3.3.9 4.8 1.6 1.1.7 2 2.1 1.7 3.2z" class="st0"/><path d="M134.5 93.8c1-.7 2.2-.7 3 0-.8.5-2.4.5-3 0zM139.2 96.8c-1 .4-2.7.1-3-.4-.1-.1-.1-.3 0-.4 0-.1.2-.1.3-.1.6.8 1.6.5 2.7.9zM52.9 100.6h-2c-.4 0-.6-.3-.8-.6 0-.1 0-.3.1-.4.3-.3.6-.1.9 0 .6.2 1.2.5 1.8.4.3-1.3-.5-2.4-1.7-2.3-1.3.1-2.7.3-4 .5-1.2.2-2.1 1.1-2.9 1.9-.2-.9-.2-.9.3-1.3 1-.7 2.2-1.2 3.5-1.3 1-.1 2-.3 3-.4 1.3-.1 2.3.8 2.4 2.1.1 1.2.1 2.5.2 3.7.1.8-.3 1.3-1 1.6-2 .8-4 .9-6.1.9-.8 0-1.3-.5-1.5-1.2-.4-1.1-.4-2.4-1.1-3.8 1.7.7 2.7-.3 4-.8 0 1-.6 1.4-1.3 1.6-1.1.4-1.6 1.1-1.3 2.2.2 1.1.9 1.6 2.1 1.5 1.5-.1 3.1-.2 4.5-.6 1.2-.3 1.4-.7 1.2-1.9-.2-.5-.2-1.2-.3-1.8z" class="st0"/><path d="M50.9 102.2c-.5.8-2.3 1.1-3.3.5 1.1.1 2.1-.8 3.3-.5zM138.3 142.8c.4.4.1.9.5 1.3.5.1.9-.1 1.4-.1.6 0 1.2.1 1.3.9.1.7 0 1.2-.8 1.4-1.4.4-1.7.3-1.9-1.1-.1-.5-.4-.9-.5-1.3-.2-.3-.2-.7 0-1.1zM89.7 113.1c-.5-.7-.4-1.3-.4-1.9.3.5.7 1.1.4 1.9zM92.4 92.2c.1.7.2 1.3-.1 2.3-.3-1-.3-1.7.1-2.3zM117.2 102.1c1.6.2 2.9.9 4.1 1.7.2-.4.3-.6.4-1-.6-.4-1.4-.2-2.1-.4.4-1 1.1-1 1.9-.7.8.3 1.2.9.8 1.8-.2.4-.2.9-.4 1.3-.4.9-1.1 1.4-2.1 1.4s-1.6-.5-2-1.3c-.4-1-.6-1.9-.6-2.8z" class="st0"/><path d="M119 102c-.8-.1-1.5-.3-1.8-1-.3-.8.2-1.4.8-2 .5.9 1.2 1.8 1 3zM123 95.9c1.1-.6 2-.2 3 .1-1.7.4-1.9.4-3-.1zM104 90.1c-1.2-.9-2.7-1.5-3-3.5 1.2 1.2 2.2 2.3 3 3.5zM144.2 132.5c-.4-.7-.8-1.5-.6-2.3.4.7 1 1.4.6 2.3zM167.2 71.9c1.1 3.9 1.5 7.9 1.2 11.9-.2 2.6-.4 5.2-.8 7.8l-.9 6.9c-.4 2.7-.8 5.3-1.2 8-.5 3.3-1.3 6.6-1.8 9.9-.7 4.8-1.4 9.6-1.2 14.4.1 2 .1 4 .7 5.9.2.6.3 1.2.9 1.6M51 54.4c-1.5-.2-2.9.1-4.3.7-3.5 1.4-6.3 3.6-8.7 6.5-1.7 2.1-3.4 4.1-4.4 6.6-1.8 4.5-2.7 9.3-3.1 14.1-.4 4.6-.2 9.3-.5 13.9-.2 2.2-.4 4.5-1 6.7-.1.4 0 .8 0 1.1M119.9 51.5c-7.3 1.2-13.6 4.4-18.8 9.7-2.5 2.6-4.2 5.7-5.5 8.9-.5 1.2-1 2.4-1.3 3.7-.1.5-.4.9-.9 1.1M91.2 94.6c-.6.7-.4 1.8-1.3 2.3-.2.1 0 .9.2 1.3.3.8.7 1.6 1 2.4.4 1.2.4 2.3-.4 3.6-2.1 3.5-5.3 5.7-8.5 8-2.7 2-5.7 3.2-9 3.7-.5.1-.9.4-1.4.3M90.7 67.2c-.6-1.8-1.7-3.4-2.8-4.9-2.3-2.9-5-5.3-8.3-7-3.1-1.5-6.3-2.7-9.6-3.5-1.6-.4-3.2-.9-4.9-.5M142.8 95.4c-.1-1.6-1-2.6-2.4-3.1-1.2-.4-2.4-.8-3.5-1.2-1.3-.4-1.9-.1-2.5 1.1-.6 1.3-.9 2.7-1.2 4.1-.1.8.5 1.2 1 1.6 1.4.9 3 1.2 4.6 1.8 1.1.4 1.7-.3 2.2-1.1.4-.6.5-1.2.7-1.8.2-.6-.4-1-1-1.4-.4-.2-1-.2-1.2-.8M161.7 117.9c.2 1.9 0 3.8-.3 5.6-.3 2.6-.6 5.3-.9 7.9-.3 3.5 0 7 .2 10.5 0 .6.4 1.2.1 1.8M130.4 111.4c-1.3.3-2.3 1.2-3.5 1.7-2 .7-4 1.2-6.2 1.4-2.4.2-4.8.2-7.1 0-2.6-.3-5.3-.3-7.7-1.4 0 0-.1.1-.2.1M60.4 67.4c.1 2.7.9 5.2 1.8 7.7 1.2 3.2 2.1 6.4 4 9.3 1.6 2.5 3.2 5.1 5.7 6.9 2.3 1.7 4.8 3.1 7.5 4l3 1.2c.7.3 1.2.3 1.8-.2.6-.5 1.3-.8 2.2-.9 1.4-.1 2.2-1.3 3.1-2.2-.9-4.4-3.3-8.2-5.6-11.9-1.5-2.5-3.5-4.6-5.5-6.8-1.2-1.4-2.7-2.5-3.4-4.3M60.4 58.6c-.3.5-.6.9-1.1 1.3-2.3 1.7-3.6 4.1-4.8 6.6-1.3 2.5-1.6 5.3-2.4 7.9-.4 1.3-.7 2.6-1.1 3.8-.5 1.7-.5 3.4-.6 5.1M128.1 55.1c-.5-.8-.8-1.6-.6-2.5 3.2-.3 6.4-.2 9.5.6 5.4 1.3 10 4.1 13.5 8.5.2.2.4.4.6.5" class="st0"/><path d="M156.7 124.8v4.7c0 .6 0 1.2-.2 1.8-.3 1.2-.1 2.5.3 3.6.8 2.4 1.3 5 2.6 7.3.6 1.1 1.8 1.5 2.3 2.6M83.2 129.2c1-.9 2.2-1.5 3.6-1.9.1 0 .4-.2.4-.2 1.4 1.1 3.5.6 4.5 2.5.6 1.1 1.1 2.3 1.5 3.5.3 1-.1 1.9-.6 2.8-.3.5-.8 1-1 1.6-.7 1.6-2 2.4-3.8 2.6-.7.1-1.3.2-2 .3M32.1 92.5c.1.5.1 1 .2 1.6.1.7.3 1.2 1.3 1.2s1.5.6 1.6 1.6c.2 3.3-.1 6.5-1.3 9.6-.8 2.1-2.5 3.5-4.5 4.4-.6.2-1.3-.1-2 .1M148.1 83.4c-.4.7-.3 1.5-.4 2.2-.3 2.9-.6 5.8-.4 8.7.2 2.6.6 5.1 1.9 7.4.1.2.1.3.1.4M130.4 70.1c.1 2.3-.6 4.4-1.6 6.3-1.7 3.4-3.6 6.8-5.5 10.1-2.3 3.9-4.9 7.7-8.3 10.9-1.1 1-2.2 1.6-3.6 1.8M135.5 123.8c-.3 1.1.3 2.2.9 2.9.9 1.1 1.4 2.3 2.1 3.5 2.9 5 5.7 10.1 9.7 14.5.4.4 0 .8.2 1.2.2.7 1.1 2 2.1 3 .5-.3.8-.6.9-1.2-1.1-.7-1.5-2.1-2.8-2.6M138.1 149.7c1.5.2 2.9-.2 4.3-.5.5-.1.6-.5.6-.9.1-2.4-.3-4.7-.2-7.1 0-.6-.2-1.1-1.2-.8-1.4.4-2.8.8-3.9 1.7M111 128.6c2.7 1.3 5.4 2.5 8.3 3.4 1 .3 1.6.9 2.1 1.7 1 1.8 2.4 3.4 3.3 5.3.1.2.3.4.4.6.4 1.4.5 1.7-1 2.3-2.3.9-4.7.7-7.1.6-2.2-.2-4.3-.3-6.5-.6-1-.1-1.9-.2-2.9-.3M148.4 74.6c-1.1 1.8-1 3.7-.8 5.7 0 .5.2.9.2 1.4.1 2.4 3.5 4.7 6 4.9 4.6.4 8.2-2.8 8.2-7.3 0-3-1-5.6-3.7-7.3M106.6 75c.4.9 0 1.8-.1 2.7-.3 3.3 0 6.5.4 9.7.4 2.6.8 5.1 2.1 7.4.7 1.3 1.2 2.7 2.5 3.7M99.5 124.8c.4-.1.4.2.5.5.6 1.9-.2 3.5-.9 5.2-.9 2.4-1.6 4.8-2 7.3 0 .1-.1.2-.1.3.8 1.4.1 2.8-.1 4.2-.5 4.4-.7 8.7-.7 13.1M84.5 61.8c2 1.1 3 3 4.1 4.8 1.5 2.5 2.4 5.2 2.9 8 .2 1.2.1 2.4.5 3.5M41.5 70.5c.6.6.6 1.4.4 2-1 2.4-1.7 4.8-2.2 7.3-.3 1.4-.3 2.8-.5 4.3-.2 1.1 0 2.3-.5 3.3M136.3 126.9c-.4 1.8.1 3.5.2 5.3 0 1.1.2 2.2.3 3.3.1 2.3.1 4.5.5 6.8 0 .3-.2.5-.2.7" class="st0"/><path d="M152.7 129.7c0 .6.6.7 1 1 .8.8 1 1.9 1.3 2.8.3.8.5 1.5.9 2.2.5.8.3 1.7 0 2.5-.7 0-1.2.5-1.8.9-1.1.8-2.2 1.5-3.2 2.3-1 .8-2.1.9-3.2.8M132.6 176.2c-3.8 2.1-8 2.8-12.2 3.2-1.5.2-2.9.1-4.4.2-.6 0-1.2-.1-1.8-.4M83.1 65.2c.9 3.4 3.3 6.1 4.9 9.2 1.2 2.4 2.7 4.8 3.4 7.5.1.6.5 1 .7 1.6M158.4 86.9c-.8 1.1-1 2.5-1.2 3.9-.5 2.9-.8 5.8-1.2 8.7-.1.7-.1 1.5-.1 2.2M79.5 167.5c.2-1.8-.1-3.6-.1-5.4 0-1.8-1-3.2-1.1-4.9 0-.5-.5-.7-1.1-.7-2.8-.1-5.6-.4-8.4-.3-.9 0-1.9-.4-2.8.2M153.8 87.9c-.8 2.6-.9 5.3-1.2 8-.2 2-.3 4-1 5.8-.8 2.2-2 4.3-3.5 6.1-2.3 2.8-4.6 5.5-7.7 7.4-.1.1-.1.3-.2.4M44.1 100.2c.6-1.4 1.8-2 3.2-2.3 1.2-.2 2.4-.3 3.7-.4 1.1-.1 2.2.6 2.2 1.7 0 1.3.1 2.6.3 3.8.1.8-.2 1.2-1 1.5-1.9.7-3.9.8-5.9.8-1 0-1.7-1.3-1.7-2.7 0-.8.2-1.4 1-1.6.8-.2 1.5-.5 1.9-1.2M93.2 152.2c-1.4 1.7-2.9 3.2-5 4.2-2.3 1.1-4.6 2.5-7.2 2.8-.6.1-1.2.1-1.8.4M34.3 107.7c-.6 1.5-.3 3-.4 4.5-.2 2.5.1 4.9-.2 7.4-.2 1.2-.6 2.4-.6 3.7 0 1.4-1.3 1.8-2.3 2.3M64.9 88.7c2.5 3.3 5.4 6.2 9 8.4 1.2.7 2.5 1.4 3.9 1.9.3.1.6.4.9 0M127.4 153.9l.2.2c-.5 2 .7 3.6 1.6 4.9 1.7 2.4 2.4 5.1 3 7.9.5 2.4 1.4 4.8 1.5 7.4 0 .4.3.9.7.9 2.8.2 5.7.6 8.4-.4 1.4-.5 2.8-1.3 3.2-3 .2-.8.4-1.7-.5-2.2-1.3-.7-1.5-1.9-1.6-3.1-.3-1.9-1.3-3.2-2.8-4.3M125.4 142.2c0 2.1.9 3.9 1.3 5.9.3 1.5.6 3 .8 4.6.1.4.1.8-.3 1-.9.6-1.4 1.6-2 2.4M37.4 109.8c-.1 2-.4 4-.9 6-.6 2.5-1 5-2.7 7.1-.1.2-.3.5-.6.4" class="st0"/><path d="M66.3 147.8c-.3 3.1-1 6.2-1 9.3 0 1.9-.4 3.8-.4 5.7 0 .8-.1 1.7-.3 2.5-.2 1.1.4 1.5 1.2 1.6 2.8.5 5.6.8 8.5 1 .9.1 1.8.1 2.7.1.3 0 1 .2.9-.6M151.4 102.7c.6 1 .1 2.1 0 3.1-.6 5.5-.5 11 0 16.4.2 2 .5 4 1 6 .1.3.5.7-.2.8M47.8 60c-1.8.6-3.3 1.7-4.8 2.8-.5.4-.6 1-.7 1.6-.5 2.2-1.6 4.1-2.9 5.9-1.3 1.9-1.7 4-2.3 6.1-.2.8-.3 1.6-.4 2.4M50.4 72.4c-1.3 3.3-2.8 6.5-3.8 9.9-.3 1.1-1.1 2.1-1.7 3.1M80.9 65.3c-2.9-3.5-6.3-6.2-10.7-7.7-.7-.2-1.4-.2-2.1-.2M122.5 100.6c1.2 1.6.5 3.2-.3 4.7-1.1 1.8-4.2 1.2-4.9-.6-.6-1.8-.5-3.6.1-5.3.2-.6.7-.8 1.3-.8h1.9M57.4 161.4c-.6 1.1-.8 2.3-1.3 3.4-.1.2-.1.5 0 .7 1 2.9 1.5 5.9 2.6 8.7M150.3 106.2c-.7 2.4-1.1 4.8-1.9 7.2-.3.9-.5 1.8-.4 2.9.1.9-.7 1.9-1.1 2.8M38.6 87.5c-.3 1.2-.2 2.5-.1 3.7.2 2.1.6 4.2 1 6.3.4 2.4.3 4.8.1 7.2-.1 2.1-.1 4.3-.4 6.4M49.3 123.5c-1.5 1.3-2.9 2.5-4.4 3.9-1.9 1.7-3.8 3.5-5.7 5.3-.8.7-1.6 1.3-2.7 1.3M96.2 161.1c.5 1.3.6 2.7 1.2 4 .5 1 .8 2 1.3 3 .1.2.1.4.1.6-.4 1.6-.8 3.3-1.2 4.9M55.7 101.6c-1-.5-.5-1.5-.7-2.2-.2-.7-.1-1.5-.2-2.2-.2-1.2-1.6-1.9-3.1-1.9-1.7 0-3.2.7-4.9.6-1 0-2 .4-2.9.8-1.1.5-1.7 1.7-1.4 3 .4 1.9.7 3.7 1.1 5.6.3 1.4 1.8 2.3 3.2 2.1 2.1-.3 4.2-.5 6.3-.7 1-.1 2.5-1.7 2.5-2.7.1-.8-.3-1.5 0-2.3M103.6 144c.3 1.7 0 3.4 0 5.1 0 1.4-.1 2.8-.2 4.3 0 1.5.1 3-.5 4.5M135.3 66.3c.5 1.7 1.1 3.5 1.6 5.2.6 2.3.8 4.7.6 7.1M104 157.3c3.1 2.7 5.5 5.9 8.4 8.7 1 1.1 2 2.1 3 3.2M94.4 103c.9 1.1 1.8 2.1 2.7 3.2 1.6 2 3.6 3.4 5.7 4.8 1.1.7 2 1.7 3 2.6 1.4 1.3 2.9 2.5 4.9 3.1.5.1.9.1 1.4-.1.5-.3 1.1-.2 1.8 0 .6.2 1.3.6 1.8-.3M92.9 113.1c.8.5.3 1.3.2 1.9-.4 1.3-.9 2.6-1.5 3.9-.7 1.5-1.8 2.7-3 3.7-.6.5-.8 1.2-.9 2-.1.9-.4 1.7-.6 2.6M139.2 104.2c0 3.1-1.6 5.8-2.4 8.6-.2.8-.5 1.6-1 2.4-.5.8-1.1 1.5-2.1 1.6-.5.1-.9.4-1.1.7-1.6 2-3.6 3.4-6.1 3.9-1.2.3-2.2.8-3.2 1.3M96 115.4c-1.3 1.1-.2 2.3 0 3.3.5 2.4 2.5 3.7 4.4 5 .5.4.9.9 1.5 1.1.4.1.8.5 1.3.2M138.8 115.1c2.9 1.1 5.4 2.8 7.7 4.9 1.5 1.4 2.8 2.9 4.2 4.5.2.3.5.4.8.5M123.9 40.5c-1.3 1.1-2.6 2.3-3.6 3.7-1.1 1.6-1 3.4-.8 5.2.2 2.5 1.7 4.6 2.8 6.8.1.2.3.4.3.7M95.1 173.2c.3 2.4 1.1 4.6 2.3 6.7.4.8.7 1.1 1.6 1 .7-.1 1.5 0 2.2 0M20.2 126.8c.1 2.7 1.5 4.5 3.9 5.6 1.9.9 3.7.6 5.3-.7M94.4 143.5c.4.3.3.7.3 1-.2 2.1-.3 4.3-.2 6.4 0 1 .4 2.1.1 3.1" class="st0"/><path d="M66.3 158.4c1 .4 2.2.4 3.2.5 2.8.2 5.6.4 8.5.5M110.1 64.4c-1 3.1-2 6.3-3.2 9.4-.6 1.6-2.2 2.6-3 4.1-.1.2-.4.3-.5.5-.3.7-.7.7-1.3.2-.3-.2-.6-.6-1-.5M59.1 77.8c.8 4 2.9 7.3 5.5 10.3M80 127.3c-3 .2-6 .3-9 .5-.5 0-.9 0-1.4-.2M128.4 115.8c-2.3-1.3-4.6-.7-6.8 0-1.2.4-2.3.7-3.6.8M84 111.9c-2.1 1.7-3.5 3.8-5 5.9-1 1.4-1.9 2.7-2.9 4.1-.7 1-1.8 1.8-3.3 2.1-1.1.2-1.8 1.3-2.4 2.2M104.1 125.7c.7 1.8 1 3.6.7 5.6-.2 1.5-.3 3-.4 4.5M124.8 41.2c-.9 3-1.5 5.9-1.5 9 0 2.1-.1 4.2.8 6.1.2.4.3.9.8 1M123.9 86.8c1 .1 2.2-.1 2.9.5.6.6.3 1.7.6 2.6.5 2.2 1.2 4.4 2.2 6.4.2.5.5 1 1.1.9M60.3 82.4c-.4 1.5-.3 3.1-.5 4.7-.2 1.7-.6 3.4-.7 5.2M90.4 121.8l4.5 6.6c.7 1 .8 2.2 1.8 3M161.3 163.7c-2.1 1-2.9 2.8-3.4 4.9M154.4 121.6c.1 2.8.1 5.7.2 8.5 0 .3.1.7-.1 1M102.7 79.1c-1.6 2-3.4 3.8-5.6 5.2-1.6 1-1.6 2.4-1.4 3.9.4 2.6.7 5.3 1 7.9.2 1.8-.7 3.2-1.4 4.7-.3.6-.3 1.2-.8 1.7" class="st0"/><path d="M102.9 94.8c.8 1.6-.5 4.4-2.2 4.7-.9.1-1.3-.5-1.7-1.2-.6-1.3-1.3-2.6-1.9-4-.1-.2-.1-.4-.4-.4M105.1 62.4c-1.6 1.6-3.2 3.3-4.4 5.3-.7 1.3-1.6 2.4-2.1 3.8M144 165.3c2 .4 3.8-.2 5.7-.5 1.3-.2 2.3-1.1 3.5-1.7 1.1-.6 2.2-1.1 3.2-1.8 1.1-.7 2.1-.4 3 .1 2 1.2 2.7 3.2 3.1 5.3.1.6-.3 1.3-.5 1.8-.4 1.2-.8 2.4-1.5 3.5-1 1.5-2 1.8-3.7 1.2-.5-.2-.9-.4-1.4-.6M83.9 63c1.6 2.6 2.6 5.4 3.8 8.2.1.2.2.5.3.7M72 143.5c-1.5.5-3 .2-4.5.4-.5.1-.9-.1-1.2-.4-.5-.6-1-.4-1.6-.1-1 .5-2 .9-2.9 1.6M86.4 149.8c1.4-1.7 1.5-2.4.6-4.2M84 132.1l-.6-2.1c-.3-.9-.9-1.3-1.8-.9s-1.8.7-2.7.1c-.2-.1-.7-.2-1.1 0-1.2.7-2.4 1.2-3.6 1.8M124.1 167.6c-1.3-.1-2.5-.3-4-.2-1.3 1.5-2.7 3.2-4.1 4.9M93.1 143.3c-.9 1.2-.2 2.4 0 3.6.3 1.6.8 3.1.4 4.8 0 .1-.1.2-.2.3M137.8 152.2c.6 2.5.8 5 1.2 7.5.1.5.2.9.4 1.2M166.8 71.1c-1-1.2-2.4-.7-3.7-.7-1.7 0-3.3.6-4.8 1.2-.5.2-.9-.1-1.4-.1M127.6 157.1c-.1.1-.3.1-.3.2-1.3 3-3.8 5.1-5.4 7.8-.5.9-1.1 1-1.9.3M58.6 51.7c-2.8-.4-5.4-.2-7.7 1.5-.4.3-.6.5-.5 1M52 108.5c.9 1.5 2.2 2.6 3.7 3.6.6.4.9 1.3 1.3 2 .5.7.9 1.5 1.7 2M58.9 116.2c0 2.9 1.4 5.1 3.5 6.9.5.5.9 1 1.3 1.5M32.9 121.9c-1.4.9-2.3 2.3-3.4 3.4-2.4 2.5-5.9 3.5-9.1 1.9M116.5 118.7c.4.5.8 1 1.1 1.6 1.4 2.8 4.1 4.3 6.6 5.9.9.6 1.9 1.2 3 1.5M144.1 95.9c-.5 1.4-1 2.8-1.4 4.2-.6 2.1-2.5 2.1-4.3 1.5-1.5-.5-2.9-1.1-4.4-1.3-2.1-.3-3.5-2.4-2.8-4.4.3-.9.7-1.8 1-2.7M96.4 133.8c-1 .8-.7 1.9-.9 2.9-.2 1.1-.5 2.1-.6 3.2-.1.8-.6 1.4-1.2 1.9M51.7 84.6c.4 2.6.1 5.1.1 7.7 0 .2 0 .5.2.6M127.7 169.1c1 2.7 1.9 5.5 2.4 8.3M133.4 100.3c.5 1.1 0 2-.6 2.9-1.1 1.7-2.5 3.1-4 4.5-.2.2-.4.4-.7.3M35.3 124.3c.6 2.7-.8 4.1-3 5.3-.9.5-1.7 1.3-2.7 1.8-.4-.8-.3-1.6-.2-2.4.2-1 .1-2-.3-3M131.7 52.3c-.7-.9-1.7-1.1-2.7-1.1-1.8 0-3.6.1-5.3.1M150.5 162.7c-.4-1.4-1.5-1.9-2.7-2.4-1.6-.7-3.2-.8-4.8-.1M66.5 46.9c.3.3 0 .7-.1.9-1.4 2.2-2.8 4.4-4.8 6.2-.2.2-.5.4-.7.5M131.1 163.7c-.8.1-1.3.8-2 1.2-1.4.7-2.9.6-4.4.8-.9.1-1.8 0-2.7 0M91.2 68.2c1.1 2.2 1.3 4.6 2 6.9.3 1 0 2.2-.2 3.3-.2 1.1-.4 2.2-.5 3.3 0 .5-.2.9-.4 1.3M61.7 145.1c-.9 2-1.4 4.1-2.1 6.2-.2.5-.4 1.1-.4 1.7M103.8 159.1c1.4.4 2 1.6 2.6 2.7.5.9.8 1.8 1.8 2.4 2 1.2 3.2 3.2 4.9 4.8.7.6 1.3 1.4 1.9 2.1M137.3 79.8c-.1 1.9-.4 3.8-.4 5.7-.1 2.5 1.1 4.4 3.6 4.9 1.4.3 2.9 1 4 2.1.4.4.1.8.2 1.3M129.5 151.9c-.7 1-.1 2.1.2 3 .3 1.2.5 2.5 1 3.7.2.4-.2.8-.3 1.1M56.4 125.8c.3 1.5.7 2.9 1 4.4.1.4.1.8-.3 1-.8.5-1.3 1.4-2.2 1.7" class="st0"/><path d="M60.6 41.8c-2.4 2.4-4.4 5.2-6.9 7.7 1.6.7 2.8 0 4.1-.1.5 0 .9-.3 1.3.1.5.5.4.9.1 1.5-.5 1-.6 2.1-.8 3.1M62.1 60.4c-1.4.2-1.9.7-1.9 2.1 0 1.6.1 3.1.1 4.7M48.7 147.8c.5-.1.4.3.4.6.2 2 .7 3.9.9 5.8.1 1.6.8 2.9 1.5 4.2M156.5 113.7v10.2M72.3 91.8c-.1.7.4 1.2.8 1.7 1.5 1.4 3 2.9 4.5 4.3.8.8 1.4 1.9 2.6 2.3M57.6 160.7c1.1 1.7 2.4 3.2 4.3 4.1.9.4 1.7.7 2.6 1M139 104.7c-2.2 1.1-4.2 2.6-6.5 3.7-1.3.6-2.4.5-3.7 0M111.7 116.9c-.1.5.2.8.5 1 1.9 1.4 3.9 2.6 5.7 4.2.2.2.5.3.7.1M108.9 90.4c.3 3.2 2.2 5.3 4.8 7M91.4 94.6c.7 1.1.7 2.5.9 3.7.3 1.2.3 2.5.8 3.7M80.8 115c-.7 0-1.3.1-1.9.6-.8.7-1.6 1.3-2.2 2.3-.4.7-1.3.5-1.9.7-1.5.4-2.9.8-4.4.9M59 153.2c0 .2.1.5-.1.5-.9.1-1.2.9-1.7 1.5-.8.9-1.7 1.7-2.9 2.1-.9.4-1.8.9-2.7 1.3M93.7 95.2c-.2 1.4.4 2.7.2 4.2-.1 1 .3 2-.2 3-.2.3.1.5.4.4M140.5 116.2c0 1.1-.2 2.2-.9 3.1-.9 1.3-1.5 2.9-2.9 3.6-2 1-4 2.6-6.5 1.8M89.3 148.5c.5 2.3-.2 4.4-1.3 6.4-.1.2-.2.7-.6.7" class="st0"/><path d="M77.2 116.6c-2.3 0-4.4.7-6.4 1.9-.6.3-.5 1.2-1.2 1.4M89.9 173.6c.5 2.4 1 4.8.9 7.3M44.6 84c-.3-.6-.1-1.2-.1-1.8 0-.5 0-1-.4-1.4-.7.3-.5 1.1-.6 1.6-.1 1.5-.4 3-.3 4.4.2 2.2 0 4.4.2 6.6.1.9.5 1.1 1.3 1M64.6 88.6c-1.9 1.2-3.6 2.6-5.3 4-1.1 1-2.2 2.2-3.1 3.5-.4.6-.9.8-1.5.8M74.6 173.3c-1.6.5-3.1.3-4.6-.3-.3-.1-.6-.1-.8-.1-1.2 0-2.4.1-3.7-.2-.5-.1-1.1-.1-1.5.4M87.8 109.7c1 1.1.8 2.5.9 3.7.1 1.4.8 2 2.1 1.3.9-.4 1.4-1.2 1.5-2.2 0-.3-.2-.4-.4-.6-1-.9-1.7-1.9-2.2-3.1M145 99.8l-1.8 6c-.1.3.1.7.1 1M44.5 111.9c-1.1 2-2.4 3.7-4.7 4.5-.5.2-1 .4-1.6.1M97.6 134.2c-1.3-.5-1.5-1.3-.8-2.7.8-1.8 1.5-3.7 2.3-5.5.2-.4.1-.7.2-1.1.1-1-.6-1.6-1.4-1.1-1.7 1-3.3.8-5 .3M33.1 141.8c-1.5 2.3-3 4.6-5.2 6.2-.2.1-.2.3-.3.5M63.3 125.6c0 .3-.2.7-.1 1 .2.6.5 1.3 1.2 1.3.5 0 1.7-1.2 1.8-1.9.1-.7-.3-1-1-1.3-.8-.3-1.4.1-2.1.2-1.5.2-3 .6-4.5.2-.7-.2-1.3-.2-2-.1M79.4 172.5c.6 2 1.3 4 1.9 5.9.1.3.2.7.6.7" class="st0"/><path d="M57.9 94.6c.5.7-.1 1.4-.2 2.1-.3 1.5-.9 2.8-1.4 4.3 0 .2-.1.4-.4.4M125.8 134.1c.3 1.8.6 3.6.8 5.4.2 1.1.1 2.3.8 3.2.2.2.2.6.5.7 1.4.7 1.7 1.2 1.4 2.7M141.1 120c-.3.9.1 1.6.5 2.4.6 1.4 1.1 2.9 1 4.5M58.4 157.5c.9.6 1.7 1.3 2.5 2 1.2 1 2.6 1.4 4 1.7M51 129.7c-.8.1-.6 1-1 1.4-.9.8-1.4 1.9-2.2 2.9-.9 1.2-.9 2.7-.7 4 .1.7 0 1.3-.2 2M75.2 146.1c-2.2 1.2-4.4.9-6.7.2M48.6 148c-.7 2-.3 3.9.2 5.8.1.3.2.6.3.8M149.7 175.1c-2.1-.9-3.7-.4-4.9 1.5-.2.3-.2.9-.8.8M104.1 136c.3-.4.5 0 .6.1 1 1.2 1.6 2.5 1.7 4 .1 1.4-.4 2-1.9 2.4M139.4 109.2c-.2 2.3-.4 4.5-1.8 6.4-.2.2-.1.4-.1.5.3 1-.1 1.9-.5 2.7M95 158.2c-1.6 2.2-3.2 4.4-5.6 5.8-.5.3-.6.9-1.1 1.2-.6.4-1.2.7-1.9.7M63.7 133.2c1.3.8 1.2 1 .7 2.4-.6 1.4-1.1 2.7-1.3 4.2-.1.6.1 1 .3 1.5M76.8 159.6c0 2.2-.1 4.4-.1 6.6M38.3 145.1c-1.4 2.4-3.6 3.2-6.3 3.1M96.7 115.9c.9 1 1.6 2.1 2.2 3.2.8 1.8 2 3.2 3.5 4.5.4.3.8.6 1 1.2.1.5.6.5 1.1.7 1.1.3 2.1.7 2.7 1.6M58.8 154c-.2 1.9-.9 3.8-1.3 5.7-.1.3 0 .6-.1.8M102.6 164.3c-1 2.2-1.9 4.5-3.3 6.4" class="st0"/><path d="M50.4 141.5c-.6-.4-1.1-.8-1.7-1.1-.9-.5-1.9-.4-2.7.2-1.4 1.1-2.9 1.9-4.2 3-1.1 1-2.7 1.3-4.2 1.3-.7 0-1.4-.1-2 .6-.7.8-1.5 1.3-2.5 1.7-.4.2-.7.5-.6.9M141.1 168.4c.4 2.2 1 4.3 1.8 6.3M135.2 124.7c-1.2.4-1.9 1.4-2.7 2.3-.7.8-1.4 1.7-2.2 2.1-1.5.8-3.2 1.5-5 1.5-.9 0-1.7.1-2.6.2M113.3 180.9c0-.4.2-.7.4-.9.6-.7.4-1.2-.1-1.8-.5-.6-1-.6-1.8-.3-.9.3-.9 1-.7 1.6.2.5.4 1.1.9 1.5M63.5 133.1c-1.6-.7-3.3-1.1-5.1-.8-.8.1-1.2.4-1.5 1.2-.8 2.2-1.9 4.2-3 6.2-.4.7-.8 1.2-1.7 1.5-.7.2-1.2.9-1.6 1.5-1 1.5-1.6 3.2-1.8 5M81.5 147.2c.1 2.1-.3 4.2 0 6.2M71.7 116.3c-1.3.3-2.6.7-4 1-.2.1-.5.1-.4.5.3.9.2 2 .9 2.8.7.8 1.1 1.8 1.7 2.6.5.7 0 1.5-.2 2.3-.5 1.8-1.7 3.2-2.4 4.9-.6 1.4-.7 1.5.4 2.5M139.9 180.9c-.1-.7.3-1.4-.3-2-.9-.9-2.4-.3-2.8 1-.1.3-.1.6-.1.9M130.3 152.4c1.3 1.5 2.9 1 4.5.7 1.1-.2 1.9-.8 2.9-1.2M127.4 156.1c-.4.2-.8.3-1.1.7-1.3 1.7-2.7 3.3-3.9 5.1-1.4 2-2.9 4.1-4.5 6-.9 1.1-1.6 2.4-2.8 3.2-.3.2-.1.6-.1.9M94.8 154.7c0 1.3.4 2.6 1 3.8.3.7.1 1.5.1 2.3M137.5 88.9c-.4.2-.9.3-1.2.2-1.9-.6-2.6.1-3.3 1.9l-.3.9M35.5 128.5c.2 1.1-.3 2-1.2 2.6-.8.5-1.5 1.1-2.3 1.6-.4.2-.8.6-1.2.1M93.7 102.9c-.3.7.1 1.5.1 2.2.1 1.3.3 2.6.4 3.8M81.6 172.1c-.3 2 .3 4 .4 6 .1.9-.2 1.9.2 2.8M85.8 166.5c-2.5.4-5 1.3-7.6 1.4M76.7 108.7c-1.1 0-2.1.3-3.1.6-1.1.3-1.2 1.3-.4 2.5M71.5 100c-2 .3-3.9.7-5.9 1M103.4 156.3c.8.8.3 1.7.2 2.5-.3 1.5-.8 2.9-2 4.1-1.1 1.1-1.3 2.8-1.9 4.1-.2.4-.3.8-.5 1.1M62.4 175.1c1 1.8 1.7 3.7 1.5 5.8M60.7 42.1c.3.7.2 1.5.1 2.2-.1 1.2-.1 2.4 0 3.5M75.8 118.6c.4 1.2 0 2.1-.8 3-.7.7-1.8 1.1-2.2 2.2M39.5 100.1c-.7 0-1.4.4-2.2.4 0 2.1.4 4 1.9 5.6M95.2 162.4c-.3.9-1 1.5-1.6 2.2-.4.4-.9.8-1.5 1.2-.7.5-1.1 1.2-.9 2.1M97 81.1c-.7 1.9-1.7 3.7-3.3 5-.4.3-.8.3-1.2.5M54.3 74.1c-1 .7-1.1 2-1.5 3-.3.7-.4 1.5-.5 2.3M50.8 127.5c.5.2.7.7 1 1 1.1 1.4 2.6 2.3 4.2 3.2M131.4 109c.1.2.3.3.1.6-1.2 2-1.9 4.2-2.9 6.3-.9 2-2.3 3.6-3.2 5.6M100.6 86.1c.5 0 .8.3 1.1.6.6.7 1.2 1.5 1.9 2.2 1.1 1.1 1.2 2.6 2 3.9M57.8 85.2c.2 1.9-.5 3.6-.9 5.4M61.9 166.1c1.2.7 1.9 1.9 2.6 3 .4.7 1 1.3 1.6 2M136.6 143.7c-.7-.4-1.4-.3-2.2 0-1.4.6-2.9.8-4.5.3-.2 0-.3.1-.5.1M32.2 87.1v5.2" class="st0"/><path d="M136.1 147.2c-.6.8-.4 1.6-.2 2.5.2.9.3 1.8.6 2.7M98.5 176.5c.4 0 .8-.1 1.3-.1.9 0 1.3-.5 1.1-1.3-.1-.7-.3-1.6-1.4-1.4M126.1 81.9c.5 1.7.6 3.4.6 5.2M82.8 106.7c0 2.6-1.6 3.7-3.8 4.4M98.5 88.2c1.1-1 1.3-.9 2.4.1 1.2 1 2.1 2.3 3.6 2.7M78.8 130.5c-1.6.7-3.2 1.4-5 .8M150.7 111.3c-1.1.8-1.3 2.2-1.8 3.3-.2.5-.3 1-.6 1.4M119.3 163.6c-1.3 1.6-2.4 3.2-3.3 5M154.3 68c-.8.9-1.6 1.9-2.2 3-.4.7-1.1 1.1-1.7 1.6M155.5 161.5c-.8-.5-1.4.1-2.1.2-1 .2-1.9.9-3 1.2-.7.2-1.5 1-1.7 1.9M135.8 117.5c0 .4-.1.8.1 1.3.5 1 .5 2.2.3 3.4-.1.3-.2.7 0 1M66.9 46.7c-1.6.2-3.2.5-4.8 1-.2.1-.4.1-.4.3M31.1 133.2c0 .2-.1.4 0 .5.8 1.8.9 3.8 1.8 5.5.2.3.3.6.7.3M91.2 104c.6 1.7-.7 4.2-2.4 4.8-.8.3-1.5.9-2.3 1.2M102.4 112.5c.7.2.6.8.5 1.2-.2 1-.3 2-.4 3-.1.4-.1.7.3.9M129.3 146.4c-.6 1.3.2 2.5.2 3.7 0 .4 0 1.1.2 1.6M41 144.4c.5 2.2.2 3-1.9 4.1M146.7 102.7c-.4 1.4-1.3 2.6-2.3 3.4-1.4 1.1-2.1 2.5-3 3.9-.4.6-.8 1.1-1.1 1.7M95.5 88.1c-1.1.4-.8 1.5-1 2.3-.2.7-.2 1.4-.6 2.2-1.1-1.7-3.1-2.4-4.1-4.1-.3-.6-.8-1.1-.9-1.8-.2-1-1.1-1-1.7-1.5M106.9 94.3c.8 1.6 1.6 3.1 2.4 4.7M131.7 90c-1.4-1.1-2.8-2.1-4.5-2.5M34.9 73c-.7 1.5-1 3-1.5 4.6M129.8 121.4c-1.6.5-2.9 1.4-4.6 1.7M107.6 121.8c1.5 1.1 3.1 2.2 4.6 3.3M89.8 173.4c-.2-.5-.5-1-.5-1.6-.1-1-.7-1.2-1.5-1.2-.6 0-1.2 0-1.8-.2-.2-.1-.5-.2-.6 0-1.2 1.2-2.9 1.2-4.4 1.6-2.1.4-4.1.8-6.2 1.3M145.1 133.2c-.1-.1-.4.1-.3-.1.2-.4.3-.7 0-1.2-.5-.8-.6-1.8-1.4-2.5-.2-.1-.4-.1-.6-.2M124.3 97c1.3.2 2.5.7 3.3 2 .7 1.1.4 2.2.5 3.2.1.7-.2 1.5.1 2.2M65.1 117.9c-.6.6-.5 1.7-.1 2 .5.5 1.4.8 2.3.6M134.7 116.6c.1 1.1-.8 1.7-1.4 2.4-.6.7-1.6 1.2-1.2 2.4M45.7 114.6c0 1.5-.5 3.2-1.4 4.1-1 1-2.8 1.4-4.4 1.6M55.9 124.8c-1.4-.9-2.8-2-4.5-2.3M55.5 105.6c.7 1.7 2.1 2.8 3.8 3.5M116 92.1c-.7 1.5-1.4 2.9-2.1 4.4M102.6 137.1c-1 1.2-1.8 2.4-1.5 4.1M156.9 139.8c.6.9.5 1.7-.4 2.4-.5.4-1.1.8-1.7 1.1M102.2 162.5c.9 1.6 2.6 1.6 4.2 1.8M54.8 133.1c.3.7 0 1.3-.2 2-.3.7-.5 1.5.4 2.1M62.3 60.3c.5-.1 1-.2 1.6-.3 1.4-.3 2.7-.2 3.8.9.8.8 1.7 1.4 2.6 2.1M31.8 148.4c-1.4.3-2.7.8-4.2.3-.4-.1-.8 0-1.2.2M93.9 164.7c.7.7.3 1.4 0 2.1-.3.8-.5 1.4 0 2.3.5 1.1.7 2.4 1.1 3.6M132.6 169.4c-.2.1-.4.3-.6.4-1.7 1.5-1.7 1.5-.7 3.4M58.2 54.3c-1.5.5-2.8 1.5-4.5 1.5M83.3 153.7c1 1.2 2.5 1.3 3.8 1.9.3.1.5.3.8.4M78.4 147c-1.4-.1-2.8.1-4.2-.1M71.3 173.6c0 1.4.4 2.8.9 4.1M132.5 125.8c-1.4.9-2.7 1.9-3.4 3.5M41.4 94c0 1.3-.1 2.7.5 4M73.1 173.8c-.5 1.3-.2 2.6-.4 4M69.3 127c.5.5.2 1.1.2 1.6-.1 1-.1 2 0 3M128.1 95.6c-1.1.1-2.2-.1-3.2-.3-.8-.2-1.5-.1-2.2.1M95.3 163.2c.1 1.3.4 2.6.2 4M161.7 131.8c.1 1.3-.2 2.8 1 3.8M73.6 131.4c-1.1 0-2.2.1-3.3.1-.5 0-.9.2-1.3.6M65.8 161.8v4M53.5 83c-.1.8-.1 1.5-.2 2.3-.1.6-.4 1.1-.9 1.4M60.6 54.4l.1.1c-.1 1-2.2 3.2-3.2 3.4M93.4 168.4c-.6-.1-1.2-.1-1.7-.3-1.2-.5-2.2 0-3.1.5-.9.4-1.8.9-2.8 1.2M91.4 90.5c-.3 1.3-.3 2.6-.1 3.8M74.2 74.5c.4.3.8.6 1.1 1 .4.6.9 1.2 1.6 1.6 1 .6 1.6 1.8 1.9 3.1M120.1 97.2c-1.6-1-1.9-1-3.7.5M155.8 67.4c.4 1.2.4 2.5.5 3.7M34.7 125.4c-1.1 1.1-2.4 1.9-3.7 2.8M62.7 116.1c-.2 1.3-.9 2.5.1 3.7M28.7 105c.1.6-.1 1.1-.3 1.7-.6 1.4 0 2.7-.1 4.1M156 161.7c.1.3.3.6.6.7 1 .6 1.9 1.4 2.6 2.4M37.5 139.2c-1.2.8-2.4 1.7-3.7 2.5M105.3 126.6c.9.9 2.1.5 3.1 1 .7.4 1.5.6 2.3.9M50.3 143.9c.4 1.2-.3 2.4-.3 3.5M88.9 164.3c-1.3.1-2.4.8-3.6 1.1M38.9 112.7c.1 1.3-.4 2.4-.8 3.5M82.8 105.9l-3.6 1.8M162.1 167.9c-.6-.4-.7.3-1.1.4-1 .2-1.9.5-2.9.4M105.1 86.1c-.2 1.2.3 2.4.6 3.5M151.5 76.9v.1c1.4 2 .9 4 .4 6.1M87.4 161.1c-1 .4-2 .7-2.9 1.2-.3.2-.5.3-.7 0-.2-.3-.3-.7.2-.8M70 173.5c-1 .6-2.2.9-3.3 1.1M80.9 88.4c-1.1.3-2-.4-2.9-.6-.1 0-.3-.1-.4-.1M41.3 141.7c-.4-.4-1-.5-1.6-.4-1.3.2-2.6.2-3.8 1M55.4 81c.4 0 .6.3.6.7.1.9.1 1.8.2 2.7" class="st0"/><path d="M92.7 88.4c.6 1 1.1 2 .5 3.2M127.9 143.6c-.1 1.2.1 2.3 1 3.2M59.8 108.7c-1 1.2-2.4 2.1-3.6 3.2M133.1 176c1 1 1.6 2.2 1.9 3.6M124.1 96.9c-1.1-.2-2.2-1.1-3.2.1M92 89.6c-.1-.9.5-1.6.4-2.5 0-.9-.4-1.1-1.1-.9-.8.1-1.6.1-2.4.1M101.3 141.4c.8.9 1.9 1.1 3 1M79.8 58.6c1.1.5 2.1 1.2 2.9 2.1M94.7 109.3c1.5 1.7 1.9 3.7 1.5 5.9M60 154.1c.8.7 1.5 1.4 2.6 1.7.9.3 1.7.9 2.5 1.4M61.2 167c-.3 1.1-1 1.9-1.4 3M129.4 161.1c0 1.1.2 2.1.6 3" class="st0"/><path d="M93.3 111.9c.9.4 1.8 1 2.9.5M99 108.7c-.3.5.1 1 .1 1.6 0 1.4-.3 2.5-1.2 3.5-.4.4-.5.9-.6 1.4M130.8 180.7c1.5.4 3 .1 4.5.2" class="st0"/><path d="M134.7 179.2c-1.2.1-2.1.5-2.7 1.6M86.9 90.9c.1.8.8 1.5.1 2.4-.1.1-.2.3-.3.3M50.4 102.5c-1-.1-1.9.6-2.9.2M63 178c-.7.9-.2 1.9-.3 2.9M35.7 123.2c-.8.7-1.7 1-2.8.9M36.1 131c.2 1.7.4 3.3.8 5 .2 1.2.6 2.3 1 3.4.2.7.4 1.2.1 1.9M74.7 83.8c-.4.5-.9.9-1.7.6-.6-.2-1 .4-1.6.4M103.1 79c1 .8 1.8 1.7 2.8 2.4M95 173c.6-.6 1.2-.5 1.8-.1 1.5 1.1 1.8 2.6 1.5 4.2M72.7 178.2c0 .9.1 1.8.1 2.7M75.7 86.5c0 .9.3 1.9-.8 2.5M105.7 92.9c0 1-.3 1.8-.6 2.7M103.8 160.8c.7.1 1 .7 1.4 1.1.4.3.7.4 1.2.4M69.7 120.8c.3.8.9 1.6.4 2.6M27.9 108.6c-.5.2-.8.6-1 1-.3.5-.7 1-1.4.8M36.8 136.6c-.8.3-1 1.1-1.7 1.6-.2.2-.4.3-.6.3M53 100.3c-.9 0-1.8-.1-2.6-.5M85.6 84.8c-.9.1-1.8.2-2.6.2M82.8 154.6c.6.9 1.5 1.7 2.3 2.4M81.1 87.7c.4-.9 1.1-1.2 2-.9.7.2 1.3.3 2 .5M65.8 174c.2.2.5.2.5.5-.7 1.2-1.6.9-2.6.6M92.4 91.9c0 .8-.1 1.7-.1 2.5M131.3 173.4c.5.8 1 1.7 1.6 2.5M36.8 84.3c.7.6 1.2 1.3 1 2.3-.1.3.2.5.3.7M139 96.9c-.9.1-1.7-.2-2.5-.6M32.6 82.1c0 .8.1 1.7-.2 2.5M44.2 110.6c.2.9.8 1.6 1.2 2.4.2.5.2.9.2 1.4M98.9 111.8c-.5 0-.8.3-1.3.5-.4.2-.8.4-1.2.1M68.7 161.1v2.5M128.2 99.8c.9 0 1.6.4 2.4.8M143 131.1c.5.3.4.9.4 1.4 0 1.3 0 1.4 1.3.8M143.1 89c-.7.4-1.7.4-2.2 1.2M83.3 148.9c-.2 1.2.6 2.5 0 3.7M49.1 125.4c.7 0 .4-.4.5-.8.1-.5-.2-1 0-1.6.5-1.2 0-2-1.3-2.5M136.9 147c.6.9.8 1.8.5 2.9-.2.6.1 1.3.2 2M32.6 133.7c-.1.7.1 1.2.7 1.6.8.4 1 1 .7 1.9-.1.2-.1.4 0 .5.4.7.1 1.2-.2 1.8M154 145.2l-2.3 2.3M137.5 93.8c-1-.3-2 .1-2.9.1M73.4 161.6c0 .8-.1 1.5-.1 2.3M56.3 125.6c-.4-.7-.9-.1-1.2 0-.5.2-.7.8-1.3 1M151.8 143.6c-.6.6-1.4.8-2.3.9M155.1 79.2c-.8.1-1.6 0-2.3.4M50 122.3c.4.1.8.2 1.1.3.1.5.3.9.6 1.3.2.3.7.5.5 1M97.8 139.4c.7.5 1.5.5 2.3.5M117.1 101.6c.4.2.8.5 1.3.6.5.1 1.2.2 1.1-.7M60.6 160.7c-.3.7-.2 1.5-.7 2.2M98.5 118.4c.3-.1.4-.3.5-.6.6-1.3.5-1.7 2.4-1 .3.1.6.2.8.3M78.4 81.1c-.3-.1-.6-.1-.9-.1-1.2-.1-2 .4-2.6 1.4M93.8 109.6c-.4.8-.1 1.9-1 2.5-.1.1-.3.1-.4.2M142.6 127c0 1.3 0 2.6.2 3.8M59.6 113.9c1.5.9 2.8 2.1 4.6 2.5M72.4 86.9c.4.7.7 1.5 1.6 1.8M58.1 54.9c-.1.8-.4 1.4-.8 2.1M33.3 139.8c-.3 1.9.4 2.7 2.4 2.6M129.3 114.4c-.8-.4-1.4 0-2.1.3M149.2 142.5c-.1.9.4 1.8-.1 2.7M116.4 118.5c-.5-.7-1.3-.1-1.9-.4M93.9 116.1c-.2.7-.4 1.3-.6 2M35 68.1l-.9 1.8M134 141.6c.1.7.4 1.3.7 1.9M70.5 87.3c.2.6.8 1 .8 1.7M138.3 142.6c0 .6-.1 1.3.4 1.8M98.4 88.4c-.3.6-.8 1.1-.7 1.9M53.6 54.2c0 .7.1 1.5-1 1.6-.6 0-.4.6-.4 1M76.1 77c-.2.7-.1 1.3.2 1.9M71.8 77.9c.9 1.1 1.6 2.2 3.2 2.2.1 0 .3.3.4.4M36.3 96.5c0 .7.6 1.2.5 1.9M34.7 132.5c-.7.4-1.3.9-1.8 1.6M126.6 95.7l-.3 1.8M89.2 111c.1.6.3 1.2.4 1.8M33.4 131.3c-.5-.3-.9-.3-1.4 0-.3.2-.7.2-1 0M147.9 178c-.8.8-1.8 1.5-1.6 2.9M69.6 120.6c-.1-1.1-1-1.2-1.8-1.4" class="st0"/><path d="M52.5 125.1c.2.3.4.6.7.8.9.6.6 1.1 0 1.7-.3.2-.4.5-.6.8M152.3 141.3c.7.7 1.6 1.1 2.2 2M62 155.7c0 .7.4 1 .9 1.2M91.2 114.8c.5.2.9.6 1.5.6M156.3 138.6c1.3.9 0 1.5-.2 2.2-.1.4-.5.7-1 .8M29.9 109.2c-.5.1-.9.1-1.4.2M95.6 138.2c.4.6.9.1 1.4.1M119.3 102.2c.6 1 1.6.9 2.5.6M139.9 115.9c-.5.7-.9 1.7-2.1 1.2M60.5 114.8l-.9.9M55.6 57.6c.4-.3.7-.9 1.4-.4.5.3.3.8.3 1.3M146.1 102.1c.6.4 1.3.7 2.1.6M61.7 158c0 .5-.2.9-.5 1.2M125.4 140.6c.5-.1.8.4 1.3.4M94.4 156.3c-.6.1-.6.8-1.1.9M149.7 143.2c.4.2.8.2 1.3 0M89.2 124.4c-.4 0-.8-.1-1.1.2M102.2 96.2c-.7.1-1.3.8-2.1.4M148.7 179.8c.3.4-.2.8.1 1.1M99.9 110.6c-.1.5-.5.8-.8 1M111.6 115.9c-.3-.3-.7-.3-1-.3M151 142.1c.1.5.6.6.8.9M154.9 144.3c0-.3.1-.6-.1-.9-.6-.1-.7.6-1.1.8M116.6 116.9v1M100 94.9c-.4.4-1 .8-.7 1.6M34 139.7c.2.4.4.7.7.9M29.8 131.8c.2.3.5.6.7.9M52.8 93.8c.2.3.1.6 0 .9M88.5 95.5c.3.1.6.1.7.5M147.7 74.2c.1.3-.1.6.1.8M121 103.1c-.2.4.5.3.4.6" class="st0"/><path d="M156.1 140.2c-.4-.5-.7-.1-1 .1M96.2 115.4c.1.1.1.2.2.3" class="st0"/></svg>