<svg xmlns="http://www.w3.org/2000/svg" xml:space="preserve" style="enable-background:new 0 0 192 192" viewBox="0 0 192 192"><style>.st0{display:none}.st1{fill:none;stroke:#000;stroke-width:12;stroke-linecap:round;stroke-linejoin:round;stroke-miterlimit:3}.st1,.st2{display:inline}.st3{fill:none}.st4,.st5{stroke-linecap:round;stroke-linejoin:round}.st4{fill:none;stroke:#000;stroke-width:12;stroke-miterlimit:10}.st5{stroke-miterlimit:3}.st5,.st6,.st7,.st8{fill:none;stroke:#000;stroke-width:12}.st7,.st8{fill:#fff;stroke-width:6;stroke-miterlimit:10}.st8{fill:none;stroke-width:12}</style><g id="图层_14"><path d="M18.74 96.01c0 42.67 34.59 77.26 77.26 77.26s77.26-34.59 77.26-77.26c.01-42.67-34.58-77.26-77.25-77.27S18.75 53.32 18.74 95.98v.03z" class="st8"/><path d="M155.98 94.79c0-9.05-9.66-11.49-14.74-13.21-5.08-1.73-30.18-11-30.18-11s-17.16-28-32.56-17.47c-3.74 2.36-3.12 10.91 2.06 14.49-7.17-1.3-18.99 1.37-18.38 8.16.61 6.79 9.99 10.29 26.61 7.48 2.9-.61 6.94 1.53 2.06 5.64-2.6 1.83-13.88 4.96-38.59.54-17.58-3.15-27.9-5.52-32.4-6.63-.76 4.37-1.13 8.8-1.13 13.24 0 25.62 12.48 48.33 31.68 62.39 3.77-1.12 7.71-2.59 11.76-4.47 10.37-4.88 7.32-9.92 4.88-11.67-2.44-1.75-7.32-8.7 6.33-16.86s30.63-15.45 50.87-18c6.51-.91 14.34-1.02 18.1-1.22 3.77-.23 13.63-2.36 13.63-11.41z" class="st8"/><circle cx="113.09" cy="87.09" r=".08" class="st8"/></g></svg>