<svg xmlns="http://www.w3.org/2000/svg" xml:space="preserve" style="enable-background:new 0 0 192 192" viewBox="0 0 192 192"><style>.st0{display:none}.st1{fill:none;stroke:#000;stroke-width:12;stroke-linecap:round;stroke-linejoin:round;stroke-miterlimit:3}.st1,.st2,.st3{display:inline}.st3{fill:none}.st4{fill:none;stroke:#000;stroke-width:8;stroke-linecap:round;stroke-linejoin:round;stroke-miterlimit:10}.st4,.st5{display:inline}.st5,.st6{fill:none;stroke:#000;stroke-width:7;stroke-linecap:round;stroke-linejoin:round;stroke-miterlimit:10}.st8{fill:#231f20}.st9{fill:none;stroke:#000;stroke-width:8;stroke-linecap:round;stroke-linejoin:round;stroke-miterlimit:10}</style><g id="图层_4_00000037691927981901599470000018313746653254359458_"><path d="M112.5 150h-33c-1.8 0-3.6.8-4.8 2.1-1.2 1.4-1.8 3.2-1.7 5 .6 5.7 3.2 11 7.4 14.8 4.3 3.9 9.8 6.1 15.6 6.1 5.8 0 11.3-2.2 15.6-6.1 4.2-3.9 6.9-9.2 7.4-14.9.1-1.9-.5-3.7-1.7-5a6.8 6.8 0 0 0-4.8-2zm-7.6 14.7c-4.9 4.5-13 4.5-17.9 0-1.5-1.4-2.6-3-3.4-4.8h24.6c-.7 1.8-1.8 3.5-3.3 4.8zM156.5 122.6l-12.3-16.2V76.2c0-13.8-4.7-26.6-13.3-36.1-5.1-5.6-11.2-9.7-18.2-12.3-.6-3.7-2.5-7.1-5.3-9.6-6.3-5.7-16.6-5.7-22.9 0-2.8 2.5-4.6 5.9-5.3 9.6-7 2.5-13.1 6.7-18.2 12.3-8.6 9.5-13.3 22.3-13.3 36.1v30.2l-12.2 16.1c-1.7 1.8-2.7 4.2-2.7 6.7v7.9c0 5.4 4.4 9.8 9.8 9.8H149c5.4 0 9.8-4.4 9.8-9.8v-7.9c.2-2.5-.8-4.9-2.3-6.6zM42.9 137v-7.8l12.2-16.1c1.7-1.8 2.6-4.2 2.6-6.7V76.2c0-11.3 3.8-21.8 10.7-29.4 3.4-3.8 7.5-6.7 12-8.7 1.2-.5 2.5-1 3.8-1.4-.8-8.2 5.8-14.5 12-14 5.5.4 10.7 6.1 10.3 13.3 0 .1.1.2.1.4 1.7.5 3.4 1.1 5 1.8 4.6 2 8.6 5 12 8.7 6.9 7.6 10.7 18.1 10.7 29.4v30.3c0 2.5.9 4.9 2.5 6.6l12.3 16.2.1 7.8-106.3-.2z" class="st8"/><path d="m82.2 81.8 25.8.2M86.1 98.6h17.8M76.7 64.3l36.8.1" class="st9"/></g></svg>