<svg xmlns="http://www.w3.org/2000/svg" xml:space="preserve" style="enable-background:new 0 0 120.8 120.8" viewBox="0 0 120.8 120.8"><style>.st0{display:none}.st1{fill:none;stroke:#000;stroke-width:12;stroke-linecap:round;stroke-linejoin:round;stroke-miterlimit:3}.st1,.st2{display:inline}.st3,.st4,.st5{display:inline;fill:none}.st4{stroke:#000;stroke-width:8;stroke-linecap:round;stroke-linejoin:round;stroke-miterlimit:10}.st5{stroke-width:7}.st5,.st6,.st7{stroke:#000;stroke-linecap:round;stroke-linejoin:round;stroke-miterlimit:10}.st6{fill:none;stroke-width:7}.st7{stroke-width:4}.st8{display:inline;fill:#231f20}.st9{fill:none;stroke:#000;stroke-width:8;stroke-linecap:square;stroke-miterlimit:10}.st11{fill:none;stroke-width:6}.st11,.st12,.st13,.st14,.st15{stroke:#000;stroke-linecap:round;stroke-linejoin:round;stroke-miterlimit:10}.st12{fill:none;stroke-width:12}.st13,.st14,.st15{display:inline}.st13{fill:none;stroke-width:16}.st14,.st15{stroke-width:6}.st15{fill:none}.st16{stroke-width:5}.st16,.st17,.st22{fill:none;stroke:#000;stroke-linecap:round;stroke-linejoin:round;stroke-miterlimit:10}.st17{opacity:.44;stroke-width:5}.st22{stroke-width:8}</style><g id="图层_18"><path d="M24.9 8.5c1.1 0 2.2.3 3.2.8l4.5 2.5 7.4 4.1-21.3 5.9V15c-.1-.6-.1-1.6.3-2.6.7-1.9 2.5-2.9 3-3.2h.1c.1-.2 1.3-.7 2.8-.7m0-5c-2.9 0-5.1 1.1-5.1 1.1-.8.4-4.1 2.1-5.6 5.9-.8 2.1-.7 4-.6 5v12.8L53 17.4c-7.5-4.2-15-8.3-22.6-12.5-1.8-1-3.8-1.4-5.5-1.4zM61.5 90.5l-2.8 1.7L26.1 112c-.4.1-1.1.3-2 .3-.9 0-1.8-.2-2.6-.6-1.9-1-2.6-2.7-2.9-3.5V102l42.9-11.5m32.6-14zm0 0C67.3 83.8 40.5 91 13.7 98.3v10.6c.1.6 1.2 5 5.6 7.3 1.7.9 3.4 1.2 4.8 1.2 2.2 0 3.8-.6 4.2-.8 21.9-13.4 43.9-26.7 65.8-40.1zM53.7 23.4l27.8 15.4-62.8 17.1V33.1l35-9.7m.6-5.3L13.7 29.3v33.1l81-22c-13.5-7.5-26.9-14.9-40.4-22.3zM95 46.3l7.6 4.2 5.6 3.1c.7.7 2.4 2.8 2 5.4-.3 1.8-1.4 3-2 3.6l-6.6 4-6.4 3.8-76.5 20.2V66.9L95 46.3m.6-5.4L13.7 63.2v34L97.2 75c4.6-2.8 9.3-5.6 13.9-8.4.7-.6 3.4-2.9 4-6.9.9-5.9-3.7-9.9-4-10.2-5.1-2.9-10.3-5.8-15.5-8.6z"/></g></svg>