<svg xmlns="http://www.w3.org/2000/svg" xml:space="preserve" style="enable-background:new 0 0 192 192" viewBox="0 0 192 192"><style>.st0{fill:none;stroke:#000;stroke-width:12;stroke-linecap:round;stroke-linejoin:round;stroke-miterlimit:10}</style><g id="图层_1"><path d="M118.2 138.6c-2.1 1.2-4.5 1.9-7.1 1.9H77.8c-7.6 0-13.8-6.2-13.8-13.8V65.6c0-7.6 6.2-13.8 13.8-13.8h33.4c7.6 0 13.8 6.2 13.8 13.8v47.2" class="st0"/><circle cx="110.4" cy="96.2" r=".5" class="st0"/><circle cx="96" cy="96" r=".5" class="st0"/></g><path id="图层_2" d="M103.1 123c5.4 4.8 11.2 10.7 16.8 17.8 2.4 3 4.5 6 6.4 8.9V169h35l-4.1-44.2c-5.9-15.9-11.7-31.8-17.6-47.7-.6-1.3-2.8-5.3-7.5-7.5-3-1.4-5.7-1.5-7.2-1.5v55.6c-8-8.6-16.2-11.6-19.7-9-.5.5-2.6 2.3-2.1 8.3z" class="st0"/></svg>