<svg xmlns="http://www.w3.org/2000/svg" xml:space="preserve" style="enable-background:new 0 0 192 192" viewBox="0 0 192 192"><path d="M90.99 78.63c0 6.39-2.07 12.17-6.2 17.34-4.14 5.17-9.66 8.67-16.58 10.51-2.98.79-6.23 1.36-9.75 1.71-3.52.35-7.45.53-11.79.53l.13 27.79H35.95c.04-2.63.11-7.5.2-14.62.09-7.12.13-18.12.13-33.01 0-4.73-.02-10.53-.07-17.41-.04-6.87-.13-14.52-.26-22.93 1.88-.04 3.73-.07 5.55-.07h4.43c7.57 0 14.02.48 19.34 1.45 5.32.96 9.8 2.61 13.43 4.93 3.98 2.5 7.03 5.75 9.13 9.75 2.11 4.01 3.16 8.68 3.16 14.03zm-11.18 0c0-4.51-1.03-8.35-3.09-11.53-2.06-3.17-5.22-5.68-9.47-7.52-2.63-1.14-5.48-1.85-8.55-2.13-3.07-.28-6.23-.43-9.47-.43H46.8c0 .48-.04 3.77-.13 9.85-.09 6.09-.13 10.9-.13 14.45 0 3.24.01 7.07.03 11.49.02 4.42.03 6.94.03 7.55h2.63c2.94 0 6.06-.2 9.37-.59 3.31-.4 6.15-1.12 8.52-2.17 4.12-1.75 7.27-4.18 9.44-7.29 2.16-3.1 3.25-7 3.25-11.68z"/><path d="M35.95 136.5v12h10.58l.27-12M59.28 127.74c0 1.21-.87 2.18-2.3 2.18-1.34 0-2.22-.97-2.21-2.18 0-1.23.9-2.18 2.26-2.18 1.37 0 2.23.94 2.25 2.18zM55 148.17v-15.96h4.04v15.96H55zM65.56 139.21h.07c.38-.62.84-1.3 1.26-1.87l3.9-5.13h4.85l-5.92 6.52 6.76 9.45h-4.96l-4.59-7.06-1.36 1.62v5.44h-4.04V124.9h4.04v14.31z"/><path d="m85.71 148.17-.28-1.78h-.1c-.97 1.26-2.64 2.14-4.71 2.14-3.24 0-5.04-2.31-5.04-4.75 0-4.03 3.59-6.07 9.48-6.04v-.26c0-1.05-.42-2.79-3.24-2.78-1.56 0-3.21.5-4.3 1.19l-.8-2.62c1.21-.73 3.28-1.42 5.79-1.42 5.12 0 6.59 3.23 6.59 6.73v5.75c0 1.45.07 2.86.25 3.85h-3.64zm-.53-7.81c-2.85-.04-5.58.56-5.58 2.99 0 1.56 1.03 2.3 2.3 2.3 1.61 0 2.77-1.04 3.16-2.21.09-.28.11-.6.11-.88v-2.2zM157.14 78.63c0 6.39-2.07 12.17-6.2 17.34-4.14 5.17-9.66 8.67-16.58 10.51-2.98.79-6.23 1.36-9.75 1.71-3.52.35-7.45.53-11.79.53l.13 27.79H102.1c.04-2.63.11-7.5.2-14.62.09-7.12.13-18.12.13-33.01 0-4.73-.02-10.53-.07-17.41-.04-6.87-.13-14.52-.26-22.93 1.88-.04 3.73-.07 5.55-.07h4.43c7.57 0 14.02.48 19.34 1.45 5.32.96 9.8 2.61 13.43 4.93 3.98 2.5 7.03 5.75 9.13 9.75 2.11 4.01 3.16 8.68 3.16 14.03zm-11.18 0c0-4.51-1.03-8.35-3.09-11.53-2.06-3.17-5.22-5.68-9.47-7.52-2.63-1.14-5.48-1.85-8.55-2.13-3.07-.28-6.23-.43-9.47-.43H112.95c0 .48-.04 3.77-.13 9.85-.09 6.09-.13 10.9-.13 14.45 0 3.24.01 7.07.03 11.49.02 4.42.03 6.94.03 7.55h2.63c2.94 0 6.06-.2 9.37-.59 3.31-.4 6.15-1.12 8.52-2.17 4.12-1.75 7.27-4.18 9.44-7.29 2.16-3.1 3.25-7 3.25-11.68z"/><path d="M102.1 136.5v12h10.59l.26-12M125.27 127.58c0 1.18-.85 2.12-2.25 2.12-1.31 0-2.17-.95-2.16-2.12 0-1.2.88-2.13 2.21-2.13 1.34 0 2.19.92 2.2 2.13zm-4.17 19.94v-15.58h3.95v15.58h-3.95zM131.41 138.77h.06c.37-.61.82-1.27 1.23-1.83l3.8-5h4.74l-5.78 6.36 6.6 9.22h-4.84l-4.48-6.89-1.33 1.58v5.31h-3.94V124.8h3.94v13.97z"/><path d="m151.07 147.52-.27-1.74h-.09c-.95 1.23-2.58 2.09-4.59 2.09-3.16 0-4.92-2.26-4.92-4.63 0-3.93 3.5-5.92 9.25-5.9v-.26c0-1.02-.41-2.73-3.17-2.72-1.53 0-3.13.49-4.19 1.16l-.78-2.56c1.18-.71 3.2-1.38 5.65-1.38 5 0 6.43 3.15 6.43 6.57v5.61c0 1.42.07 2.79.24 3.75h-3.56zm-.52-7.63c-2.78-.04-5.44.55-5.44 2.92 0 1.53 1 2.24 2.25 2.24 1.57 0 2.71-1.02 3.08-2.16.08-.27.11-.58.11-.86v-2.14z"/></svg>