<svg xmlns="http://www.w3.org/2000/svg" xml:space="preserve" style="enable-background:new 0 0 192 192" viewBox="0 0 192 192"><style>.st0{fill:none;stroke:#000;stroke-width:12;stroke-linecap:round;stroke-linejoin:round;stroke-miterlimit:3}.st1{display:none}.st2{display:inline}.st3,.st4{fill:none}.st4{stroke:#000;stroke-width:12;stroke-linecap:round;stroke-linejoin:round;stroke-miterlimit:10}</style><g id="图层_2"><path d="M165.73 95.21c0 38.19-31.49 69.16-70.35 69.16-10.45 0-20.36-2.24-29.27-6.25-5.05-2.27-24.85-12-35.12-35.03-5.89-13.19-5.98-24.78-5.95-27.88.31-27.15 17.92-52.47 41.07-62.9 8.91-4.01 18.83-6.25 29.27-6.25 38.86 0 70.35 30.96 70.35 69.15z" class="st0"/><path d="M80.09 118.6c-13.27-11.87-35.24-10.2-46.28 3.88M58.18 150.17c1.83-4.39 13.45-31.09 44.15-42.41 30.9-11.39 57.24 1.6 61.44 3.77" class="st0"/><ellipse cx="70.49" cy="72.4" rx="12.31" ry="12.1"/></g></svg>