<svg xmlns="http://www.w3.org/2000/svg" xml:space="preserve" style="enable-background:new 0 0 192 192" viewBox="0 0 192 192"><path d="M117.6 37.6c.7 0 1.8.8 2.1 1.5 1.4 3.2 2 4.6 3.2 4.6.9 0 2.2-.8 4.5-2.2 1.7-1 3.4-2 5.3-2.6.6-.2 1.1-.3 1.5-.3 1.6 0 2.6 1 3.2 2.8.5 1.7 1.9 1.6 3.1 1.9 3.2.9 3.3 1.1 1.3 3.7-.6.8-1 2.3-.7 3.3.8 2.7 1.9 5.2 3 7.8.3.7 1.1 1.4 1.8 1.9 6.5 4 11.1 9.7 15.5 15.7.8 1 1.2 2.5 1.4 3.7.5 5.3.9 10.7 1.3 16 .2 2 1 3.6 2.8 4.7 1.7 1.3 3.8 2.6 6.3 4.1-1.3.6-2.2 1.1-3.4 1.7v1.6c-.9-.1-1.7-.2-2.9-.3.1.8-.1 1.8.3 2.3 1.7 2.8 3.5 5.5 5.5 8.1 1.3 1.6 1.7 3.2 1.7 5.2-.3 8.1-.5 16.2-.8 24.2 0 .7 0 1.4.2 2 .8 3.6-.5 5.3-4.1 5.3h-.3c-1.3 0-2.7-.1-4-.2-.1-.2-.2-.3-.2-.5.6-.6 1.1-1.3 1.7-1.8 2-1.3 2.6-3.2 2.7-5.4.6-12.7-1.9-24.5-10.8-34.2-2.9-3.2-5.9-6.2-8.9-9.2-.6-.6-1.1-1-1.5-1-.5 0-.8.5-1 1.6-.9 4.1-1.7 8.2-2.4 12.3-.4 2.6-.5 5.3-1 7.9-.2 1.1-.9 2.3-1.7 3.1-7 6.9-11.6 15.4-16.4 24.1-1.6.3-3.3 1.2-5.1 1.2-.9 0-1.8-.2-2.8-.8 1.7-1.7 3.4-3.5 5.1-5.2.8-.8 1.7-1.5 2.4-2.4 6.6-8.7 9.7-18.8 11.3-29.3.5-3.5 1.2-7.4-1.6-10.5-.2-.2-.3-.5-.2-.8 1-4-1-8.3 1.1-12.2.2-.4.1-.9.1-1.8-4.4-.3-8.8-.8-13.2-.9-1.2 0-2.4.8-3.6 1.3-4.6 2.1-9.2 4.4-13.9 6.3-1.8.7-3.9.9-5.9 1.1-1.4.1-2.2.4-2.6 1.9-1.4 5-1.5 10.1 0 15.1 1.1 3.8.9 7.5.5 11.3-.3 3.7-.8 7.4-1 11.1 0 .6.5 1.3 1 1.7 1.7 1.2 2.1 3.7.3 4.6-2.3 1.1-2.3 2.8-2.2 4.8v.8c.1 3-.4 4.1-2.3 4.1-.6 0-1.3-.1-2.2-.3-.7-.1-1.4-.3-2.5-.4.5-.9.9-1.6 1.3-2.4 1.9-3.5 2.5-6.8.1-10.5-3.1-5.1-7.7-8.8-11.5-13.2-1.3-1.5-2.7-2.9-4.2-4.2-3.2-2.6-2.7-6.5-.4-9 2.9-3.2 5.8-6.3 7.7-10.2 1.2-2.5 2.4-5 3.4-7.5.2-.4-.1-1.2-.4-1.7-1.6-2.3-3.2-4.6-4.9-6.7-.4-.5-1.4-.8-2.1-.9-3.9-.3-7.8-.7-11.8-.8-3.2 0-5.8-1.3-8.4-2.8-5.6-3.1-9.7-8-14.1-12.6-1-1-1.8-2.2-3-3-2.8-2-3.7-4.9-4.1-8-.4-2.6-2-3.8-4.6-4.3-4.3-.8-8.6-1.8-12.8-2.9-.4-.1-.8-.8-.9-1.3-.3-2.9 1.3-5.5 4-6.6 1.8-.8 3.7-1.3 5.6-1.3.6 0 1.3.1 1.9.2h.6c.6 0 1.2-.1 1.5-.3 2.7-1.6 5.5-2 8.3-2 1.7 0 3.3.1 5 .2 3.5.3 3.1.5 3.9 4 1.6 6.5 2.8 13.2 7.6 18.3 2 2.1 4.2 3.7 7.2 3.7 1.9 0 3.8.2 5.6.2 1.1 0 2.2-.1 3.3-.3 2.2-.5 4.3-2 6.3-3.5 1.5-1.1 2.7-2.7 3.9-4.2C86 54 90.3 52 95.6 52c1.3 0 2.8.2 4.1.2.5 0 .9 0 1.4-.1 1-.1 2-.8 2.7-1.5.6-.6.7-1.6 1-2.4.9-2.5 1.7-3.3 3.7-3.3.4 0 .9 0 1.5.1.3 0 .6.1.9.1 2 0 3.2-1 3.8-3.2.3-1 .3-2.1.8-2.9.4-.7 1.4-1.4 2.1-1.4m-26 95c.2-.1.4-.2.5-.3-1.2-8.8-2.4-17.6-3.6-26.5-.2 0-.5-.1-.8-.1-.4.5-.9.9-1.2 1.4-1 1.4-2 2.8-3 4.3-1.9 2.9-3.3 5.9-1.7 9.3.8 1.6 1.8 3.1 3 4.5 2.2 2.6 4.5 5 6.8 7.4m26-107c-4.9 0-9.8 2.8-12.4 7.2-.1.1-.2.3-.2.4-3.3.7-6.8 2.5-9.5 6.8-8.8 0-16.5 3.6-22.1 10.4 0 .1-.1.1-.1.2l-.4.5c-.4.5-1.1 1.3-1.3 1.6-.4.3-1.4 1-2 1.4h-.4c-.6 0-1.4 0-2.2-.1-.6 0-1.3-.1-2-.1-2.1-2.3-3-6.2-4.1-10.8-.2-.6-.3-1.3-.5-1.9-.1-.3-.1-.6-.2-.8-.4-2.1-1.3-5.9-4.9-9-3.4-2.9-7.2-3.2-9.5-3.4h-.2l-.8-.1c-1.5-.1-3.2-.2-5-.2-4.3 0-8.1.7-11.5 2.2h-.9c-3.3 0-6.6.7-10.2 2.2C9.7 35.2 5.1 42.7 6 50.9c0 .4.1.7.2 1.1 1 5.2 4.8 9.3 9.7 10.6 3.4.9 6.5 1.6 9.6 2.3 1.1 3.4 3.2 7.6 7.7 10.9.1.1.2.2.2.3.4.4.8.9 1.4 1.5.6.7 1.2 1.3 1.9 2 4 4.3 8.6 9.2 14.9 12.7 2.5 1.4 7.5 4.3 14.1 4.4 1.7 0 3.4.2 5.2.3v.1c-1.1 2.2-3 4.4-5.4 6.9l-.4.5c-3.5 3.8-5.3 8.9-4.9 13.9.3 4.8 2.6 9.2 6.5 12.4 1 .9 2 1.9 2.9 2.9 1.5 1.8 3.1 3.3 4.6 4.9 2 2.1 3.8 3.9 5.1 5.7l-.7 1.4-.3.5c-2 3.5-2 7.9-.1 11.4 1.9 3.6 5.5 6 9.5 6.3.1 0 .2 0 .5.1s.7.1 1.1.2c1.6.3 2.9.4 4.1.4 5.1 0 8.4-2.3 10.3-4.2 1.5-1.6 2.5-3.3 3.1-5 .9 2.7 2.7 5 5.2 6.5 2.8 1.7 5.8 2.5 9 2.5 3 0 5.5-.8 6.9-1.3.2-.1.3-.1.5-.2 3.5-.7 6.5-2.9 8.2-6l.4-.7c4.3-7.8 8.4-15.2 13.9-20.7l.1-.1c1.9-1.9 3.5-4.4 4.4-6.9 1.8 4.4 2.6 9.5 2.5 15.6-.3.3-.6.7-.8.9l-.2.2c-2.2 2.2-3.5 5.3-3.5 8.4 0 2.2.6 4.3 1.6 6.2 1.9 3.6 5.6 5.9 9.6 6.3 1.5.1 3.1.2 4.8.2h.5c6.9 0 10.9-3.1 13-5.7 2.1-2.6 4.2-7 2.9-13.7.1-3.9.3-7.9.4-11.7.1-3.9.2-7.9.4-11.9v-.4c0-4.4-1.1-8.2-3.5-11.6 1.3-1.8 2.1-4 2.3-6.4.2-4.4-2-8.6-5.8-10.9-1.4-.8-2.6-1.5-3.5-2.2-.3-4.4-.7-9-1.1-13.5 0-.3-.1-.6-.1-.8-.6-3.5-1.8-6.6-3.7-9-4.3-5.8-9.4-12.3-16.8-17.4-.1-.3-.2-.5-.3-.7 1.2-2.5 1.9-5.8.7-9.6-1.7-5-5.5-7.2-8.4-8.2-2.8-3.7-7.1-5.9-11.9-5.9-1.7 0-3.5.3-5.2.9-1 .3-2 .7-2.9 1.1-2.7-2-5.7-3.1-8.8-3.1zm-9.6 82.1c.6-.2 1.3-.4 1.9-.6 0 0 .1 0 .1-.1 3.6-1.4 7-3 10.2-4.6 1-.5 2-.9 2.9-1.4-.6 3.4.1 6.8 2 9.6-.1.5-.2 1.2-.2 1.7l-.1.4c-1.5 10.1-4.3 17.5-8.8 23.5-.1.1-.2.2-.4.3-.3.3-.7.7-1.2 1.1l-2.7 2.7-1 1c.1-3-.6-5.9-2.2-8.4.1-.7.1-1.4.2-2.1.2-1.5.3-3 .4-4.6.5-4.8.7-10.1-.9-15.7v-.1c0-.8-.2-1.7-.2-2.7z"/></svg>