<svg xmlns="http://www.w3.org/2000/svg" xml:space="preserve" id="图层_1" x="0" y="0" style="enable-background:new 0 0 192 192" version="1.1" viewBox="0 0 192 192"><style>.st0{stroke:#000;stroke-width:6;stroke-linecap:round;stroke-linejoin:round;stroke-miterlimit:10}</style><path d="M96.2 97.3C75.1 97.3 58 80.1 58 59s17.1-38.2 38.2-38.2v5.9c-17.9 0-32.4 14.5-32.4 32.4s14.5 32.4 32.4 32.4v5.8z" class="st0"/><path d="M96.2 97.3c-1.6 0-2.9-1.3-2.9-2.9V23.7c0-1.6 1.3-2.9 2.9-2.9 1.6 0 2.9 1.3 2.9 2.9v70.6c0 1.7-1.3 3-2.9 3zm-35.6 40.1c-21.1 0-38.2-17.1-38.2-38.2h5.9c0 17.9 14.5 32.4 32.4 32.4S93 117.1 93 99.2h5.9c0 21.1-17.2 38.2-38.3 38.2z" class="st0"/><path d="M95.7 102.2H25.1c-1.6 0-2.9-1.3-2.9-2.9 0-1.6 1.3-2.9 2.9-2.9h70.6c1.6 0 2.9 1.3 2.9 2.9.1 1.5-1.3 2.9-2.9 2.9z" class="st0"/><path d="M95.9 172.2v-5.9c17.9 0 32.4-14.5 32.4-32.4s-14.5-32.4-32.4-32.4v-5.9c21.1 0 38.2 17.1 38.2 38.2s-17.1 38.4-38.2 38.4z" class="st0"/><path d="M95.9 172.2c-1.6 0-2.9-1.3-2.9-2.9V98.6c0-1.6 1.3-2.9 2.9-2.9 1.6 0 2.9 1.3 2.9 2.9v70.6c0 1.6-1.3 3-2.9 3z" class="st0"/><path d="M169.6 99.1h-5.9c0-17.9-14.5-32.4-32.4-32.4S99 81.3 99 99.1h-5.9c0-21.1 17.1-38.2 38.2-38.2s38.3 17.1 38.3 38.2z" class="st0"/><path d="M166.7 102H96.1c-1.6 0-2.9-1.3-2.9-2.9 0-1.6 1.3-2.9 2.9-2.9h70.6c1.6 0 2.9 1.3 2.9 2.9 0 1.6-1.3 2.9-2.9 2.9z" class="st0"/></svg>