<svg xmlns="http://www.w3.org/2000/svg" xml:space="preserve" id="图层_1" x="0" y="0" style="enable-background:new 0 0 192 192" version="1.1" viewBox="0 0 192 192"><style>.st0{fill:none;stroke:#000;stroke-width:9;stroke-miterlimit:10}</style><path d="M43.5 80.1c3.3-1.9 7.6-.8 9.5 2.6l11.8 20.5c9.8-4.3 20.5-6.7 31.2-6.7 9.9 0 19.7 1.9 28.4 5.3l11.3-19.2c1.9-3.3 6.2-4.5 9.5-2.6s4.5 6.2 2.6 9.5L137 108.2c20.2 12.7 33.5 34 35.8 57.5.5 3.9-2.5 7.3-6.4 7.6H26.3c-3.9 0-7.1-3.1-7.1-7.1v-.8a77.4 77.4 0 0 1 33.2-56L40.7 89.3c-1.7-3-.5-7.2 2.8-9.2z" class="st0"/><path d="M64.6 135c-3.9 0-7.1 3.1-7.1 7.1 0 4 3.1 7.1 7.1 7.1s7.1-3.1 7.1-7.1c0-3.8-3.3-7.1-7.1-7.1zM127.5 135.2c-3.9 0-7.1 3.1-7.1 7.1 0 3.9 3.1 7.1 7.1 7.1 3.9-.2 7.1-3.1 7.1-7.1s-3.2-7.1-7.1-7.1z"/><path d="M116.5 48.9c.2-.9.2-1.7.2-2.8 0-.9-.2-1.7-.2-2.8l5.7-4.7c.6-.5.8-1.1.3-1.7l-5.4-9.3c-.3-.6-1.1-.9-1.7-.6l-6.8 2.8c-1.4-1.1-3.1-2-4.7-2.8l-1.1-7.3c-.2-.6-.8-1.1-1.4-1.1h-11c-.8 0-1.2.6-1.2 1.1L88.1 27c-1.7.8-3.1 1.6-4.7 2.8l-7-2.8c-.6-.3-1.2 0-1.7.6l-5.4 9.5c-.3.6-.2 1.2.3 1.7l5.7 4.7c-.2.9-.2 1.7-.2 2.8 0 .9.2 1.7.2 2.8l-5.7 4.7c-.6.5-.8 1.1-.3 1.7l5.4 9.5c.3.5 1.1.8 1.7.5l6.8-2.8c1.4 1.1 3.1 2 4.7 2.8l1.1 7.3c.2.6.8 1.1 1.2 1.1h11c.8 0 1.2-.6 1.2-1.1l1.1-7.3c1.7-.8 3.1-1.6 4.7-2.8l6.8 2.8c.6.3 1.2 0 1.7-.6l5.4-9.5c.3-.6.2-1.2-.3-1.7l-5.3-4.8zm-20.4 7c-5.3 0-9.6-4.3-9.6-9.6s4.3-9.6 9.6-9.6 9.6 4.3 9.6 9.6-4.4 9.6-9.6 9.6z" class="st0"/></svg>