<svg xmlns="http://www.w3.org/2000/svg" xml:space="preserve" style="enable-background:new 0 0 120.8 120.8" viewBox="0 0 120.8 120.8"><style>.st0{display:none}.st1{fill:none;stroke:#000;stroke-width:12;stroke-linecap:round;stroke-linejoin:round;stroke-miterlimit:3}.st1,.st2{display:inline}.st3,.st4,.st5{display:inline;fill:none}.st4{stroke:#000;stroke-width:8;stroke-linecap:round;stroke-linejoin:round;stroke-miterlimit:10}.st5{stroke-width:7}.st5,.st6,.st7{stroke:#000;stroke-linecap:round;stroke-linejoin:round;stroke-miterlimit:10}.st6{fill:none;stroke-width:7}.st7{stroke-width:4}.st8{display:inline;fill:#231f20}.st9{fill:none;stroke:#000;stroke-width:8;stroke-linecap:square;stroke-miterlimit:10}.st11{fill:none;stroke-width:6}.st11,.st12,.st13,.st14,.st15{stroke:#000;stroke-linecap:round;stroke-linejoin:round;stroke-miterlimit:10}.st12{fill:none;stroke-width:12}.st13,.st14,.st15{display:inline}.st13{fill:none;stroke-width:16}.st14,.st15{stroke-width:6}.st15{fill:none}.st16{stroke-width:5}.st16,.st17,.st22{fill:none;stroke:#000;stroke-linecap:round;stroke-linejoin:round;stroke-miterlimit:10}.st17{opacity:.44;stroke-width:5}.st22{stroke-width:8}</style><g id="图层_21"><path d="M24 49.2c2.3-1.3 5.3-.5 6.6 1.8l8.1 14.2c6.8-3 14.2-4.6 21.6-4.6 6.9 0 13.6 1.3 19.7 3.7L87.8 51c1.3-2.3 4.3-3.1 6.6-1.8s3.1 4.3 1.8 6.6l-7.4 13c14 8.8 23.2 23.5 24.8 39.9.3 2.7-1.7 5-4.4 5.3H12.1c-2.7 0-4.9-2.2-4.9-4.9v-.5c1.6-15.7 10-29.9 23-38.8l-8.1-14.2c-1.2-2.1-.4-5 1.9-6.4zm14.6 47.9c2.7 0 4.9-2.2 4.9-4.9s-2.2-4.9-4.9-4.9-4.9 2.2-4.9 4.9c0 2.8 2.2 4.9 4.9 4.9zm48.5-4.8c0-2.7-2.2-4.9-4.9-4.9s-4.9 2.2-4.9 4.9 2.2 4.9 4.9 4.9c2.7-.1 4.9-2.2 4.9-4.9z" style="fill-opacity:.85"/><path d="M74.6 27.6c.1-.6.1-1.2.1-1.9 0-.6-.1-1.2-.1-1.9l4-3.2c.4-.3.5-.8.2-1.2L75 12.9c-.2-.4-.7-.6-1.2-.4l-4.7 1.9c-1-.8-2.1-1.4-3.2-1.9l-.7-5.1c-.1-.4-.5-.8-1-.8h-7.6c-.5 0-.9.4-.9.8l-.7 5.1c-1.2.5-2.2 1.1-3.2 1.9L47 12.5c-.4-.2-.9 0-1.2.4L42 19.5c-.2.4-.1.9.2 1.2l4 3.2c-.1.6-.1 1.2-.1 1.9 0 .6.1 1.2.1 1.9l-4 3.2c-.4.3-.5.8-.2 1.2l3.8 6.6c.2.3.7.5 1.2.3l4.7-1.9c1 .8 2.1 1.4 3.2 1.9l.7 5.1c.1.4.5.8.9.8h7.6c.5 0 .9-.4.9-.8l.7-5.1c1.2-.5 2.2-1.1 3.2-1.9l4.7 1.9c.4.2.9 0 1.2-.4l3.8-6.6c.2-.4.1-.9-.2-1.2l-3.8-3.2zm-14.2 4.9a6.7 6.7 0 1 1 0-13.4 6.7 6.7 0 0 1 0 13.4z"/></g></svg>