<svg xmlns="http://www.w3.org/2000/svg" xml:space="preserve" id="图层_1" x="0" y="0" style="enable-background:new 0 0 192 192" version="1.1" viewBox="0 0 192 192"><style>.st0{display:none}.st1{fill:none;stroke:#000;stroke-width:12;stroke-linecap:round;stroke-linejoin:round;stroke-miterlimit:3}.st1,.st2{display:inline}.st3{fill:none}.st4,.st5{stroke-linecap:round;stroke-linejoin:round}.st4{fill:none;stroke:#000;stroke-width:12;stroke-miterlimit:10}.st5{stroke-miterlimit:3}.st5,.st6,.st7{fill:none;stroke:#000;stroke-width:12}.st7{fill:#fff;stroke-width:6;stroke-miterlimit:10}.st8{display:inline;fill:none;stroke-width:12}.st10,.st11,.st8,.st9{stroke:#000;stroke-miterlimit:10}.st9{fill:none;stroke-width:12}.st10,.st11{stroke-width:6}.st11{stroke-width:4;stroke-linecap:round;stroke-linejoin:round}</style><g id="图层_18"><circle cx="95.3" cy="95.2" r="72.9" class="st9"/><circle cx="165.5" cy="165.5" r="4.1" class="st9"/><path d="M67.9 114H49.8V76.5h17.4v5.8h-12V92h11.1v5.8H55.2v10.4h12.7v5.8zM105.8 76.5l-12 37.5h-5.2L76.7 76.5h5.9l8.8 28.9c.3.9.5 2.1.7 3.5h-1.7c.1-1.1.4-2.3.7-3.5l8.9-28.8c0-.1 5.8-.1 5.8-.1zM130.1 114.6c-4.6 0-8.3-1.8-11.1-5.3-2.8-3.5-4.2-8.1-4.2-13.7 0-6 1.4-10.8 4.3-14.4 2.8-3.6 6.7-5.4 11.6-5.4 4.5 0 8.1 1.8 10.9 5.3 2.8 3.5 4.1 8.1 4.1 13.7 0 6.1-1.4 10.9-4.2 14.5-2.9 3.5-6.7 5.3-11.4 5.3zm.3-33c-3 0-5.4 1.2-7.2 3.7-1.9 2.5-2.8 5.8-2.8 10 0 4.1.9 7.4 2.7 9.9 1.8 2.5 4.2 3.7 7.1 3.7 3.1 0 5.5-1.2 7.3-3.5 1.8-2.3 2.7-5.7 2.7-10 0-4.4-.9-7.8-2.6-10.2-1.8-2.4-4.2-3.6-7.2-3.6z" class="st11"/></g></svg>