<svg xmlns="http://www.w3.org/2000/svg" xml:space="preserve" id="图层_3" x="0" y="0" style="enable-background:new 0 0 192 192" version="1.1" viewBox="0 0 192 192"><style>.st0{fill:none;stroke:#000;stroke-width:12;stroke-linecap:round;stroke-linejoin:round;stroke-miterlimit:10}</style><path d="M125.2 110c-.1-19.2-10.5-36.9-27.2-46.1-26-14.4-51.6.2-52.9 1-1.3.8-26 16.1-25.9 45.2 0 24.7 17.8 39.4 20.2 41.3-4.6.1-11 .7-16.2 2.5-2.2.8-2.8 1.5-2.8 2.2-.3 3 10.9 6.5 14.7 7.6 31.8 9.8 63.4 5.2 63.4 5.2 18.9-2.8 28.4-4.2 37.8-11.2 20.5-15.4 23.7-41.7 24-45 .6-5.5.3-10.2 0-13.6 10.1-4.6 15-16.3 11.2-26.7-4-10.8-15.9-16-26-13.1-8.3 2.4-14.5 9.9-15.5 19 0 4.4-.2 9.5-1 15.2-.9 6.3-2.3 11.9-3.8 16.5z" class="st0"/><circle cx="71.9" cy="110.9" r="38.6" class="st0"/><path d="M140.1 44c5.6-2.7 7.7-9.3 5.1-14.1-2.6-4.7-9-6-12.9-4-4.9 2.5-7.2 10.8-2.6 17.7 1.3 2.6 2.7 5.2 4.3 7.9 1.2 2 2.3 4 3.5 5.9.9-.5 1.8-.9 2.9-1.4 1.1-.5 2.2-.8 3.1-1.1-.8-1.6-1.7-3.5-2.4-5.8-.5-1.8-.8-3.6-1-5.1zM161.7 41.9c5.3.5 10-3.2 10.9-8.2 1-5.3-2.6-10.1-6.8-11.3-5.4-1.5-12.4 2.9-13.4 10.6-.3 3.2-.5 6.7-.5 10.4 0 4.2.3 7.7.5 10.2 1.1.1 2.3.2 3.7.4 1.2.2 2.2.4 3.2.7.1-2 .4-4.4.9-7 .5-2.4 1.1-4.6 1.7-6.5M55.9 97.5c2.7 8.4 5.4 16.9 8 25.3 11.7 1.5 21.8-3.9 24.6-11.9 1.8-5.3 0-10.4-1-12.6-1.2-2.2-3.6-5.5-7.7-7.4-7.3-3.3-16.9-.8-23.9 6.6z" class="st0"/><path d="M65.1 125.8c16.2.1 28.6-7.9 30.8-17.9.4-2 1-6.3-1.8-12-4.7-6.6-9.8-8.7-12.2-9.5C69.4 82.6 53 91 43 108.3l5 4.3c.1-.4.2-1.2.1-2-.1-.7-.4-1.2-.5-1.6l3.9-7.2L61.7 135l-1.8 2.6 9.9-2.8-2.7-1.3-2-7.7z" class="st0"/></svg>