<svg xmlns="http://www.w3.org/2000/svg" xml:space="preserve" style="enable-background:new 0 0 192 192" viewBox="0 0 192 192"><style>.st0{display:none}.st1{fill:none;stroke:#000;stroke-width:12;stroke-linecap:round;stroke-linejoin:round;stroke-miterlimit:3}.st1,.st2{display:inline}.st3{fill:none}.st4,.st5{fill:none;stroke:#000;stroke-width:12;stroke-linecap:round;stroke-linejoin:round;stroke-miterlimit:10}.st5{stroke-miterlimit:3}</style><g id="图层_6"><path d="m163.38 28.28-29.23 93.21-47.43-30.28 76.66-62.93zm0 0L42.67 61.52l29.81 20.06 90.9-53.3zM72.49 81.58l6.66 33.16m0 0 21.38-14.71-13.81-8.81c0-.01-7.57 23.52-7.57 23.52z" class="st5"/><path d="M154.62 63.5c5.69 9.74 8.95 21.07 8.95 33.17 0 36.38-29.49 65.87-65.87 65.87s-65.87-29.49-65.87-65.87S61.32 30.8 97.7 30.8c9.76 0 19.02 2.12 27.35 5.93M55.61 107.4l-27.18 27.18M65 136.22l-27.51 27.5M100.52 132.94l-22.36 22.37" class="st5"/></g></svg>