<svg xmlns="http://www.w3.org/2000/svg" xml:space="preserve" id="图层_1" x="0" y="0" style="enable-background:new 0 0 192 192" version="1.1" viewBox="0 0 192 192"><style>.st0{display:none}.st1{fill:none;stroke:#000;stroke-width:12;stroke-linecap:round;stroke-linejoin:round;stroke-miterlimit:3}.st1,.st2{display:inline}.st3{fill:none}.st4,.st5,.st6{fill:none;stroke:#000;stroke-width:12;stroke-linecap:round;stroke-linejoin:round;stroke-miterlimit:10}.st5,.st6{stroke-width:10;stroke-miterlimit:3}.st6{stroke-width:12}</style><g id="图层_6"><path d="m163.4 28.3-29.2 93.2-47.5-30.3 76.7-62.9zm0 0L42.7 61.5l29.8 20.1 90.9-53.3z" class="st5"/><path d="m72.5 81.6 6.7 33.2m0-.1 21.4-14.7-13.8-8.8c-.1 0-7.6 23.5-7.6 23.5z" class="st5"/><path d="M154.6 63.5c5.7 9.7 8.9 21.1 8.9 33.2 0 36.4-29.5 65.9-65.9 65.9s-65.9-29.5-65.9-65.9 29.5-65.9 65.9-65.9c9.8 0 19 2.1 27.3 5.9M55.6 107.4l-27.2 27.2M65 136.2l-27.5 27.5M100.5 132.9l-22.3 22.4" class="st5"/></g></svg>