<svg xmlns="http://www.w3.org/2000/svg" xml:space="preserve" id="图层_1" x="0" y="0" style="enable-background:new 0 0 192 192" version="1.1" viewBox="0 0 192 192"><style>.st0{display:none}.st1{display:inline}.st2{fill:none;stroke:#000;stroke-width:12;stroke-linecap:round;stroke-linejoin:round;stroke-miterlimit:3}.st3,.st4{display:inline}.st3{fill:none}.st4{stroke-width:8}.st11,.st4,.st5,.st9{fill:none;stroke:#000;stroke-linecap:round;stroke-linejoin:round;stroke-miterlimit:10}.st5{display:inline;stroke-width:7}.st11,.st9{stroke-width:12}.st11{stroke-width:11}.st12{fill:#231f20}</style><path d="M122.8 108.6H59.9c-3.7 0-6.7-3-6.7-6.7V40.3c0-3.7 3-6.7 6.7-6.7h104.5c3.7 0 6.7 3 6.7 6.7v61.5c0 3.7-3 6.7-6.7 6.7H154" class="st9"/><path d="M83.8 95.9c3.9-1.9 6.6-4.6 8.3-7.9 1.7-3.7 2.5-8.5 2.7-14.4V52.8h3v20.9c-.1 7-1.2 12.5-3.2 16.7-1.2 2.3-2.9 4.2-5 5.9l-5.8-.4zm23.4-51.2v39.1h-3.1V48H88.6v35.9h-3.1V44.7h21.7zm-2.8 51.5c-1.9-2.7-4.2-5.3-6.8-8.1l2.3-2.1c2.7 2.8 5.2 5.5 7.3 8.4l-2.8 1.8zm7.6.1V70.4h9.4V41.9h3.3v11.9h15v3.3h-15v13.4H137v25.9h-25zm3.1-3.3h18.6V73.7h-18.6V93z" style="stroke:#000;stroke-width:4;stroke-linecap:round;stroke-linejoin:round;stroke-miterlimit:10"/><path d="m122.8 108.6 17 18-17-18M139.8 126.6l14.1-18M37.4 147.2H27c-3.4 0-6.1-2.8-6.1-6.1v-59c0-3.4 2.8-6.1 6.1-6.1h26.2" class="st9"/><path d="M135.4 121.9V141c0 3.4-2.8 6.1-6.1 6.1H63.9M37.4 147.2l13.5 18.2 12.9-18.2" class="st9"/><circle cx="51.8" cy="116.4" r="2.2" class="st11"/><circle cx="77.4" cy="116.7" r="2.2" class="st11"/><circle cx="101.2" cy="116.4" r="2.2" class="st11"/></svg>