<svg xmlns="http://www.w3.org/2000/svg" xml:space="preserve" style="enable-background:new 0 0 192 192" viewBox="0 0 192 192"><style>.st0{display:none}.st1{fill:none;stroke:#000;stroke-width:12;stroke-linecap:round;stroke-linejoin:round;stroke-miterlimit:3}.st1,.st2,.st3{display:inline}.st3{fill:none}.st4{fill:none;stroke:#000;stroke-width:8;stroke-linecap:round;stroke-linejoin:round;stroke-miterlimit:10}.st4,.st5{display:inline}.st5,.st6{fill:none;stroke:#000;stroke-width:7;stroke-linecap:round;stroke-linejoin:round;stroke-miterlimit:10}.st8{fill:#231f20}</style><g id="图层_5"><path d="M125.1 115H56.9c-4 0-7.3-3.3-7.3-7.3V40.9c0-4 3.3-7.3 7.3-7.3h113.4c4 0 7.3 3.3 7.3 7.3v66.8c0 4-3.3 7.3-7.3 7.3H159" class="st6"/><path d="M82.8 99.2c4.2-2.1 7.2-5 9-8.6 1.8-4 2.7-9.2 2.9-15.6V52.4H98v22.7c-.1 7.6-1.3 13.6-3.5 18.1-1.3 2.5-3.1 4.6-5.4 6.4l-6.3-.4zm25.4-55.5v42.5h-3.4v-39H88v39h-3.4V43.7h23.6zm-3 55.9c-2.1-2.9-4.6-5.8-7.4-8.8l2.5-2.3c2.9 3 5.6 6 7.9 9.1l-3 2zm8.2.1V71.6h10.2v-31h3.6v12.9h16.3v3.6h-16.3v14.5h13.3v28.1h-27.1zm3.4-3.6H137v-21h-20.2v21zM63.4 15.3" style="stroke:#000;stroke-width:4;stroke-linecap:round;stroke-linejoin:round;stroke-miterlimit:10"/><path d="m125.1 115 18.5 19.6-18.5-19.6M143.6 134.6l15.3-19.6M32.4 156.9H21.1c-3.7 0-6.6-3-6.6-6.6v-64c0-3.7 3-6.6 6.6-6.6h28.4M138.8 129.5v20.7c0 3.7-3 6.6-6.6 6.6h-71M32.4 156.9l14.7 19.8 14-19.8" class="st6"/><circle cx="48.1" cy="123.5" r="2.4" class="st6"/><circle cx="75.9" cy="123.8" r="2.4" class="st6"/><circle cx="101.7" cy="123.5" r="2.4" class="st6"/></g></svg>