<svg xmlns="http://www.w3.org/2000/svg" xml:space="preserve" id="图层_1" x="0" y="0" style="enable-background:new 0 0 192 192" version="1.1" viewBox="0 0 192 192"><style>.st0{display:none}.st1{display:inline}.st2{fill:none;stroke:#000;stroke-width:12;stroke-linecap:round;stroke-linejoin:round;stroke-miterlimit:3}.st3{display:inline;fill:none}.st4{fill:none;stroke:#000;stroke-width:8;stroke-linecap:round;stroke-linejoin:round;stroke-miterlimit:10}.st4,.st5{display:inline}.st5,.st8{fill:none;stroke:#000;stroke-width:7;stroke-linecap:round;stroke-linejoin:round;stroke-miterlimit:10}.st10{display:inline;fill:#231f20}.st11{fill:none;stroke:#000;stroke-width:8;stroke-linecap:square;stroke-miterlimit:10}.st13{fill:none;stroke-width:6}.st13,.st14,.st15,.st16,.st17{stroke:#000;stroke-linecap:round;stroke-linejoin:round;stroke-miterlimit:10}.st14{fill:none;stroke-width:12}.st15,.st16,.st17{display:inline}.st15{fill:none;stroke-width:16}.st16,.st17{stroke-width:6}.st17{fill:none}.st18{stroke-width:5}.st18,.st19,.st25{fill:none;stroke:#000;stroke-linecap:round;stroke-linejoin:round;stroke-miterlimit:10}.st19{opacity:.44;stroke-width:5;enable-background:new}.st25{stroke-width:8}</style><path d="m109.4 87.4 12.6 17.5-13.4 9.6L96 96.9l-12.6 17.5-13.4-9.6 12.6-17.5-20.4-6.6 5-15.6 20.4 6.6V50.3H104v21.5l20.4-6.6 5 15.6-20 6.6z"/><path d="M78.9 146.9H68.5c-17.8 0-32.1-14.3-32.1-32.1V54.2c0-17.8 14.3-32.1 32.1-32.1h55c17.8 0 32.1 14.3 32.1 32.1v60.7c0 17.8-14.3 32.1-32.1 32.1H115" style="fill:none;stroke:#000;stroke-width:10;stroke-miterlimit:10"/><path d="M114.1 146.9v37l-36.2-37" style="fill:none;stroke:#000;stroke-width:10;stroke-linecap:round;stroke-linejoin:round;stroke-miterlimit:10"/></svg>