<svg xmlns="http://www.w3.org/2000/svg" xml:space="preserve" style="enable-background:new 0 0 192 192" viewBox="0 0 192 192"><style>.st0{display:none}.st1{fill:none;stroke:#000;stroke-width:12;stroke-linecap:round;stroke-linejoin:round;stroke-miterlimit:3}.st1,.st2,.st3{display:inline}.st3{fill:none}.st4{fill:none;stroke:#000;stroke-width:8;stroke-linecap:round;stroke-linejoin:round;stroke-miterlimit:10}.st4,.st5{display:inline}.st5,.st6{fill:none;stroke:#000;stroke-width:7;stroke-linecap:round;stroke-linejoin:round;stroke-miterlimit:10}.st8{display:inline;fill:#231f20}.st9{fill:none;stroke:#000;stroke-width:8;stroke-linecap:square;stroke-miterlimit:10}.st11{fill:none;stroke-width:6}.st11,.st12,.st13,.st14,.st15{stroke:#000;stroke-linecap:round;stroke-linejoin:round;stroke-miterlimit:10}.st12{fill:none;stroke-width:12}.st13,.st14,.st15{display:inline}.st13{fill:none;stroke-width:16}.st14,.st15{stroke-width:6}.st15{fill:none}.st16{stroke-width:5}.st16,.st17,.st22{fill:none;stroke:#000;stroke-linecap:round;stroke-linejoin:round;stroke-miterlimit:10}.st17{opacity:.44;stroke-width:5}.st22{stroke-width:8}</style><g id="图层_22"><path d="m106.2 84.8 8 11.1-8.5 6.1-8-11.1-8 11.1-8.5-6.1 8-11.1-13-4.2 3.2-9.9 13 4.2V61.2h10.4v13.7l13-4.2 3.2 9.9-12.8 4.2z"/><path d="M86.8 122.7h-6.6c-11.3 0-20.4-9.1-20.4-20.4V63.7c0-11.3 9.1-20.4 20.4-20.4h35c11.3 0 20.4 9.1 20.4 20.4v38.6c0 11.3-9.1 20.4-20.4 20.4h-5.4" style="fill:none;stroke:#000;stroke-width:6;stroke-miterlimit:10"/><path d="M109.2 122.7v23.5l-23-23.5" class="st11"/></g></svg>