<svg xmlns="http://www.w3.org/2000/svg" xml:space="preserve" style="enable-background:new 0 0 192 192" viewBox="0 0 192 192"><style>.st0{display:none}.st1{fill:none;stroke:#000;stroke-width:12;stroke-linecap:round;stroke-linejoin:round;stroke-miterlimit:3}.st1,.st2,.st3{display:inline}.st3{fill:none}.st4{fill:none;stroke:#000;stroke-width:8;stroke-linecap:round;stroke-linejoin:round;stroke-miterlimit:10}.st4,.st5{display:inline}.st5,.st6{fill:none;stroke:#000;stroke-width:7;stroke-linecap:round;stroke-linejoin:round;stroke-miterlimit:10}.st8{display:inline;fill:#231f20}</style><g id="图层_9"><path d="M105.2 150H32.7c-6.1 0-11-4.9-11-11V40.2c0-6.1 4.9-11 11-11h72.5c6.1 0 11 4.9 11 11V139c0 6-4.9 11-11 11zM36.6 150v19.9l8.2-8.1 8.6 8.5V150" class="st6"/><path d="M48.1 65.6h11.8v44.6H48.1zM102.3 59.9c-3.5.8-7.3 1.5-11.4 2-6.3.8-12 1.1-17.1 1M62.5 117.6c1.7-1.1 5-3.7 7.3-8.4 1.8-3.6 2.2-6.8 2.2-8.8V63M106.7 78.5H72.1" class="st6"/><path d="M93.1 119.6V78.5" style="stroke:#000;stroke-width:7;stroke-linecap:round;stroke-linejoin:round;stroke-miterlimit:10"/><path d="M116.7 68c12.1 0 21.8 9.8 21.8 21.8s-9.8 21.8-21.8 21.8" class="st6"/><path d="M116.7 56.1c18.7 0 33.8 15.1 33.8 33.8s-15.1 33.8-33.8 33.8" class="st6"/><path d="M116.7 44.7c25 0 45.2 20.2 45.2 45.2S141.7 135 116.7 135" class="st6"/><path d="M116.7 33.5c31.1 0 56.4 25.2 56.4 56.4s-25.2 56.4-56.4 56.4" class="st6"/><path stroke-width="7.000139999999999" d="m130.79 130.042 11.931 18.006-3.667 2.43-11.932-18.005z" class="st6"/><path d="m139.9 147.6.1-.1 11.7 17.7zM182.3 174.8l-30.6-9.6" class="st6"/></g></svg>