<svg xmlns="http://www.w3.org/2000/svg" xml:space="preserve" style="enable-background:new 0 0 192 192" viewBox="0 0 192 192"><style>.st0{display:none}.st1{fill:none;stroke:#000;stroke-width:12;stroke-linecap:round;stroke-linejoin:round;stroke-miterlimit:3}.st1,.st2,.st3{display:inline}.st3{fill:none}.st4{fill:none;stroke:#000;stroke-width:8;stroke-linecap:round;stroke-linejoin:round;stroke-miterlimit:10}.st4,.st5{display:inline}.st5,.st6{fill:none;stroke:#000;stroke-width:7;stroke-linecap:round;stroke-linejoin:round;stroke-miterlimit:10}.st8{display:inline;fill:#231f20}.st11,.st12{fill:none;stroke:#000;stroke-width:6;stroke-linecap:round;stroke-linejoin:round;stroke-miterlimit:10}.st12{stroke-width:12}.st13{display:inline;stroke-width:16}.st13,.st15,.st16{fill:none;stroke:#000;stroke-linecap:round;stroke-linejoin:round;stroke-miterlimit:10}.st15{display:inline;stroke-width:10}.st16{opacity:.44;stroke-width:9}</style><g id="图层_7"><path d="M96.6 20.5c2.4 0 4.8.1 7.2.3 15.3 1.4 27.4 7.2 35.5 12.4l-8.2 8c-10.4-6.5-22.6-10.1-35-10.1-16.5 0-32.1 6.1-43.9 17.1-22.9 21.4-26.6 56.4-9.8 82.6l-16.8 16.8c.3-1.7.6-3.4.8-5.1l.1-.9-.1-.9c-.3-2.6-.5-5.2-.9-7.8-.5-4-1.1-8-1.7-11.9l-.1-.5-.2-.5c-2.6-8.5-5.2-22-2.3-37.7 1.4-7.9 4.1-15.6 7.8-22.7l2.9 2.9 5.4-8.4c2.3-3.7 5.1-7 8.3-10 2.7-2.5 5.6-4.7 8.8-6.6l8.4-5-2.8-3.1c8.8-4.3 21.3-8.9 36.6-8.9m0-8c-25.3 0-43.5 11.3-49.1 15.1l2.8 3.1c-3 1.8-6.5 4.2-10.2 7.6-4.4 4.1-7.5 8.3-9.6 11.6l-3.1-3.1C23 53.1 16.2 64.8 13.3 81c-3.4 18.7.2 33.9 2.5 41.5.6 3.7 1.2 7.6 1.7 11.6.3 2.6.6 5.1.8 7.6-.7 5.2-1.9 11.5-4.2 18.4-2.7 8-6 14.5-9 19.5l47.7-47.7C34 108.2 36.4 74 57.7 54.1c10.6-9.9 24.4-14.9 38.4-14.9 12.6 0 25.3 4.1 35.8 12.4l19.8-19.2c-6.2-5.1-22.7-17.2-47.2-19.5-2.6-.2-5.3-.4-7.9-.4zM166.4 44.2c-.3 1.7-.6 3.4-.8 5.1l-.1.9.1.9c.3 2.6.5 5.2.9 7.8.5 4 1.1 8 1.7 11.9l.1.5.2.5c2.6 8.5 5.2 22 2.3 37.7-1.4 7.9-4.1 15.6-7.8 22.7l-2.9-2.9-5.3 8.4c-2.3 3.7-5.1 7-8.3 10-2.7 2.5-5.6 4.7-8.8 6.6l-8.4 5 2.8 3.1c-8.7 4.4-21.2 9-36.5 9-2.4 0-4.8-.1-7.2-.3-15.3-1.4-27.4-7.2-35.5-12.4l8.2-8c10.4 6.5 22.6 10.1 35 10.1 16.5 0 32.1-6.1 43.9-17.1 22.9-21.4 26.6-56.4 9.8-82.6l16.6-16.9m20.4-31.7-47.7 47.7c19 23.5 16.5 57.8-4.8 77.6-10.6 9.9-24.4 14.9-38.4 14.9-12.6 0-25.3-4.1-35.8-12.4l-19.8 19.2c6.2 5.1 22.7 17.2 47.2 19.5 2.7.3 5.4.4 8 .4 25.3 0 43.5-11.3 49.1-15.1l-2.8-3.1c3-1.8 6.5-4.2 10.2-7.6 4.4-4.1 7.5-8.3 9.6-11.6l3.1 3.1c4.4-6.3 11.2-18 14.1-34.2 3.4-18.7-.2-33.9-2.5-41.5-.6-3.7-1.2-7.6-1.7-11.6-.3-2.6-.6-5.1-.8-7.6.7-5.2 1.9-11.5 4.2-18.4 2.4-7.8 5.8-14.3 8.8-19.3z"/><path d="M85.9 69.8v8.3c-6.3 3.7-10.4 10.6-10.2 18.3.2 7.3 4.2 13.8 10.2 17.4v10.5c-1.3-.5-2.4-.8-3.3-1-3-1.1-7.1-3.2-10.6-7.2-1.9-2.1-3.2-4.3-4.2-6.4h2.4l-1.7-9.4c-.4-2.1-1.8-12.8 5.7-22.1 3.5-4.5 7.9-7 11.7-8.4m8-9.7c-2.1.1-16.1.9-26 13-10 12.3-7.7 26.5-7.3 28.5h-3.1c.3 3.2 1.6 11.9 8.5 19.7 5.3 6 11.3 8.6 14.4 9.6 1.8.4 8.4 2 11.9 7.9.9 1.5 1.4 2.9 1.7 4.2v-34.7c-5.9-1.2-10.1-6.3-10.3-12.2-.1-6.1 4.2-11.5 10.3-12.7-.1-7.7-.1-15.5-.1-23.3zM107.1 67c1.3.5 2.4.8 3.3 1 3 1.1 7.1 3.2 10.6 7.2 1.9 2.1 3.2 4.3 4.2 6.4h-2.4l1.7 9.4c.4 2.1 1.8 12.8-5.7 22.1-3.6 4.4-8 6.9-11.8 8.3v-8.3c6.3-3.7 10.4-10.6 10.2-18.3C117 87.5 113 81 107 77.4V67m-7.9-18.8v34.7c5.9 1.2 10.1 6.3 10.3 12.2.1 6.1-4.2 11.5-10.3 12.7v23.4c2.1-.1 16.1-.9 26-13 10-12.3 7.7-26.5 7.3-28.5h3.1c-.3-3.2-1.6-11.9-8.5-19.7-5.3-6-11.3-8.6-14.4-9.6-1.8-.4-8.4-2-11.9-7.9-.8-1.5-1.3-3-1.6-4.3z"/></g></svg>