<svg xmlns="http://www.w3.org/2000/svg" xml:space="preserve" style="enable-background:new 0 0 192 192" viewBox="0 0 192 192"><style>.st1{fill:none;stroke:#000;stroke-width:12;stroke-linecap:round;stroke-linejoin:round;stroke-miterlimit:10}</style><g id="图层_2"><path d="M46.3 73.4v44.2M36.9 117.6h9.4M29.3 85.5l-3.1 26.2M62 85.5l4.1 26.1M84.3 73.4l-7.2 15.1M89.6 88.7H77.1M80.7 105.1l8.9-16.4M91.3 105.1H80.7M85.2 117.6h-6.8M99.7 78h16.6M108.8 117.6V78M120.6 117.6H97.5M154.3 117.6h10.5l-.4-15.5c.1-.1 1-2.2-.2-4.2-.9-1.4-2.5-2.1-4.2-1.9h-34.3M137.3 73.4v44.2M154.2 95.5l-.1-11.1c0-.2.6-2.8-1.3-4.8s-4.6-1.6-4.8-1.5h-18.4M164.8 74.7l1.3 1.1" class="st1"/></g></svg>