<svg xmlns="http://www.w3.org/2000/svg" xml:space="preserve" id="图层_1" x="0" y="0" style="enable-background:new 0 0 120.8 120.8" version="1.1" viewBox="0 0 120.8 120.8"><style>.st0{display:none}.st1{display:inline}.st2{fill:none;stroke:#000;stroke-width:12;stroke-linecap:round;stroke-linejoin:round;stroke-miterlimit:3}.st3{display:inline;fill:none}.st4{fill:none;stroke:#000;stroke-width:8;stroke-linecap:round;stroke-linejoin:round;stroke-miterlimit:10}.st4,.st5{display:inline}.st5,.st8{fill:none;stroke:#000;stroke-width:7;stroke-linecap:round;stroke-linejoin:round;stroke-miterlimit:10}.st10{display:inline;fill:#231f20}.st11{fill:none;stroke:#000;stroke-width:8;stroke-linecap:square;stroke-miterlimit:10}.st13,.st14{fill:none;stroke-linecap:round;stroke-linejoin:round}.st13{stroke:#000;stroke-width:6;stroke-miterlimit:10}.st14{stroke-width:12}.st14,.st15{stroke:#000;stroke-miterlimit:10}.st16{display:inline;fill:none;stroke-width:16}.st16,.st17,.st18,.st19,.st20{stroke:#000;stroke-linecap:round;stroke-linejoin:round;stroke-miterlimit:10}.st17{display:inline;stroke-width:6}.st18,.st19,.st20{fill:none}.st18{display:inline;stroke-width:6}.st19,.st20{stroke-width:5}.st20{opacity:.44;enable-background:new}</style><path d="M95.9 35.5c6.5 0 8.2.4 10.7 2.9 2.6 2.6 2.9 4.4 2.9 11.9v45.4c0 6.5-.4 8.2-2.9 10.7-2.6 2.6-4.4 2.9-11.9 2.9H75.2c-5.4 0-9.8 4.4-9.8 9.8v-.1.1h-9.8v-.1c-.1-5.4-4.4-9.7-9.8-9.7H26c-7.4 0-9.2-.2-11.9-2.9-2.6-2.6-2.9-4.4-2.9-11.9V48.1c.1-5.3.5-7.4 2.9-9.7 2.4-2.4 4-2.8 9.7-2.9h11.8c14.3.1 19.3 1 24 5.7.3.3.6.6.8.9l.3-.4.5-.5c4.9-4.9 10.1-5.7 25.6-5.8l9.1.1zM34 45.3H21.1v53.9h24.5c3.3 0 6.4.8 9.1 2.2l.7.4V68.4c0-13.1-.5-17.1-2.2-19.5l-.4-.5-.2-.2c-2.2-2.3-5.9-2.9-18.6-2.9zm60.8 0h-8c-12.6 0-16.4.6-18.6 2.9s-2.8 6-2.9 18.6V102l.7-.4c2.1-1.1 4.5-1.8 6.9-2.1l1.2-.1h25.5v-54l-4.8-.1z"/><path d="M82.5 41.8V56l5.8-5.8 5.4 5.5V41.8h-.6z"/><path d="M35 31.5v-28h2.5v25.1c2.5-1.8 3.8-4.4 3.9-7.8v-1.2h-1.5V11h2.2v.5h3l2.7-5.8 1.2.7-2.6 4.9h.9v-.5h2.2v8.6H47v6.3c-.1.7.2.9 1 .9.5.1.8-.2.9-.9l.6-4.8h.5l-.1 4.2h.9c0 2.9-.9 4.2-2.8 3.8h-.7c-1.7.1-2.5-.7-2.3-2.2v-7.3h2.2v-1.5h-4.9v1.5H44c.1 4-1.8 7.1-5.6 9.3h-.9v2.7l-2.5.1zm5.4-24.4c-.8-1.8-1.2-3.6-1.5-5.4l.1-.1c1.3 1.1 2.3 2.1 3 3 0 .2-.2.5-.5 1l-.1.1c.9.7 1.8 1.4 2.7 2.2-.1.8-.4 1.6-.8 2.5h-.1c-.8-1.2-1.4-2.7-1.9-4.6-.4.7-.8 1.1-.9 1.3zm6.6 5.8h-4.9v3.9H47v-3.9zm4.8-8.2h-8.6V3.3H52v-1h2.2V28c.2 2.4-1.1 3.9-3.9 4.6-.1-.4-.5-.5-1.1-.4l-1.7.2-.1-.4c3.2-.9 4.7-2 4.4-3.2V4.7zM67.6 27.2V12.9h-3v-1.2h3v-1.5H70v16.4c1.6-.7 2.8-1.5 3.7-2.3.1 0 .1 0 .1.1-1.8 3-4.7 5-8.8 5.9.5-1.1.5-2.1 0-3 1.2.1 2.1.1 2.6-.1zm1.5-18.8c-1.3-1.9-2.2-3.9-2.6-6l.1-.1c1.4 1.1 2.6 2.2 3.6 3.5-.1.7-.4 1.6-1.1 2.6zm6.5 13.4h2.5c.5-2.3.7-5.4.5-9.4h2.5c.1 4.6-.2 7.7-.7 9.4h5.4V23h-5.7c.7 2.6 2.5 4.4 5.4 5.3-.7.8-.6 2.1.1 3.8l-.2.1c-3.1-1.6-5-4.5-5.7-8.6-.9 2.1-3.5 4.9-7.9 8.4h-.9c3.9-3.2 6.2-6.2 6.9-9h-6.7v-1.2H75c-1.2-1.6-2.1-3.2-2.7-5.1l.1-.1c1.2.8 2.5 1.7 3.8 2.7 0 .9-.1 1.7-.6 2.5zm2-11.6v-4h-4.9V5h4.9V1.8h2.5V5H85v1.2h-4.9v3.9h3V8.9h2.5v4.2c-1.1-.5-1.9 0-2.5 1.5v-3.2H71.2v-1.2h6.4zm-1 7-.1.1c-1.6-1.7-2.7-3.3-3.5-4.8l.1-.1c.2.2.4.3.6.4 1.6.7 2.6 1.4 3.2 1.9-.1.3-.2.8-.2 1.4-.1.4-.1.9-.1 1.1z" class="st15"/></svg>