<svg xmlns="http://www.w3.org/2000/svg" xml:space="preserve" style="enable-background:new 0 0 192 192" viewBox="0 0 192 192"><style>.st0{display:none}.st1{fill:none;stroke:#000;stroke-width:12;stroke-linecap:round;stroke-linejoin:round;stroke-miterlimit:3}.st1,.st2,.st3{display:inline}.st3{fill:none}.st4{fill:none;stroke:#000;stroke-width:8;stroke-linecap:round;stroke-linejoin:round;stroke-miterlimit:10}.st4,.st5{display:inline}.st5,.st6{fill:none;stroke:#000;stroke-width:7;stroke-linecap:round;stroke-linejoin:round;stroke-miterlimit:10}.st8{display:inline;fill:#231f20}.st10{fill:none;stroke:#000;stroke-width:6;stroke-linecap:round;stroke-linejoin:round;stroke-miterlimit:10}</style><g id="图层_10"><path d="m75.1 178-40.7-50.9s-2.1-19 16.3-11c10.6 4.8 14.4 14.7 14.4 14.7l.4-77.5S76.4 37 86 53.3l.2 49.1S98 86.3 112 103.5c0 0 10.4-17.6 25.1.8 0 0 10.4-20.3 20.9 1.8v61.6s-.6 4.8-9.1 10.2H75.1v.1z" class="st10"/><path d="M75.4 14c-22.7 0-41.2 18.4-41.2 41.2 0 15.2 8.4 28.4 20.7 35.5V77.9c-6.4-5.6-10.5-13.8-10.5-23 0-17 13.8-30.8 30.8-30.8C92.2 24.2 106 38 106 55c0 9-3.9 17-10.1 22.6v13c12.3-7.1 20.6-20.3 20.6-35.5.1-22.7-18.4-41.1-41.1-41.1h0z" class="st10"/></g></svg>