<svg xmlns="http://www.w3.org/2000/svg" xml:space="preserve" style="enable-background:new 0 0 192 192" viewBox="0 0 192 192"><style>.st1{fill:none;stroke:#000;stroke-width:6;stroke-linecap:round;stroke-linejoin:round;stroke-miterlimit:10}</style><g id="图层_2"><path d="M30.7 76.9v40.5l-7.9-2.3M37.3 84.3H22.8M37.3 97.2l-14.5 5.4M43.9 84.3h19.9M49.8 76.9l11.3 40.5M63.8 95.2l-14 15.2M61.1 72.6l2.7 2.7M72.4 76.9h21.3M72.4 84.3h21.3M72.4 92.1h23.4M83.1 72.6v19.5M72.4 117.4V99.9h19.5v17.5M92.8 107.7H73.3M91.9 114.7H72.4M112.6 102.6V76.9H99.7v25.9" class="st1"/><path d="M106.1 84.3v26.1l-8.3 7M108.7 108.7v8.7h7.8M122.3 79.6h18.8M131.7 75.3v44.1M122.3 89.8v26.1M141.1 88.2v27.7M163.3 117.4V79.6h-14v39.8M169.2 119.4h-5.9" class="st1"/></g></svg>