<svg xmlns="http://www.w3.org/2000/svg" xml:space="preserve" style="enable-background:new 0 0 192 192" viewBox="0 0 192 192"><style>.st0{display:none}.st1{fill:none;stroke:#000;stroke-width:12;stroke-linecap:round;stroke-linejoin:round;stroke-miterlimit:3}.st1,.st2,.st3{display:inline}.st3{fill:none}.st4{fill:none;stroke:#000;stroke-width:8;stroke-linecap:round;stroke-linejoin:round;stroke-miterlimit:10}.st4,.st5{display:inline}.st5,.st6{fill:none;stroke:#000;stroke-width:7;stroke-linecap:round;stroke-linejoin:round;stroke-miterlimit:10}.st8{display:inline;fill:#231f20}.st10,.st11,.st12{fill:none;stroke:#000;stroke-width:6;stroke-linecap:round;stroke-linejoin:round;stroke-miterlimit:10}.st11,.st12{stroke-width:12}.st12{stroke-width:16}</style><g id="图层_14"><path d="M10.2 75.3c51.1-14.5 88.4-24.8 93.7-26 1.1-.2 4-.8 7.5-.4 1.9.2 4 .5 6.2 1.8 3.5 2.2 4.7 6 5.1 7.5-.5 4.1-1.2 8.4-2.2 13-1.6 7.5-3.6 14.3-5.8 20.2" class="st12"/><path d="M121 68.7c.1-.4 1.5-9.4-5.3-15.3-4.6-4.1-11.3-5.1-17.1-2.8M77.4 97.2c-2.7 11.7-5.5 23.4-8.2 35.2h0" class="st12"/><path d="M156.6 102.7s-79.9 44.7-84.5 40.2c-3.4-3.3-4.3-9.1-2-14.3" class="st12"/><path d="M71.1 124.4c-.1 1.1-.2 5.8 3.2 9.6 5 5.8 12.9 4.5 13.2 4.4" class="st12"/><path d="m170.3 87.8 11.5-1.2-5.3 11z" style="stroke:#000;stroke-width:6;stroke-linecap:round;stroke-linejoin:round;stroke-miterlimit:10"/></g></svg>